%TF.GenerationSoftware,KiCad,Pcbnew,8.0.6*%
%TF.CreationDate,2025-01-28T00:54:01-05:00*%
%TF.ProjectId,Pico_LCC,5069636f-5f4c-4434-932e-6b696361645f,1*%
%TF.SameCoordinates,Original*%
%TF.FileFunction,Paste,Top*%
%TF.FilePolarity,Positive*%
%FSLAX46Y46*%
G04 Gerber Fmt 4.6, Leading zero omitted, Abs format (unit mm)*
G04 Created by KiCad (PCBNEW 8.0.6) date 2025-01-28 00:54:01*
%MOMM*%
%LPD*%
G01*
G04 APERTURE LIST*
G04 Aperture macros list*
%AMRoundRect*
0 Rectangle with rounded corners*
0 $1 Rounding radius*
0 $2 $3 $4 $5 $6 $7 $8 $9 X,Y pos of 4 corners*
0 Add a 4 corners polygon primitive as box body*
4,1,4,$2,$3,$4,$5,$6,$7,$8,$9,$2,$3,0*
0 Add four circle primitives for the rounded corners*
1,1,$1+$1,$2,$3*
1,1,$1+$1,$4,$5*
1,1,$1+$1,$6,$7*
1,1,$1+$1,$8,$9*
0 Add four rect primitives between the rounded corners*
20,1,$1+$1,$2,$3,$4,$5,0*
20,1,$1+$1,$4,$5,$6,$7,0*
20,1,$1+$1,$6,$7,$8,$9,0*
20,1,$1+$1,$8,$9,$2,$3,0*%
G04 Aperture macros list end*
%ADD10C,0.000000*%
%ADD11RoundRect,0.250000X-0.412500X-0.650000X0.412500X-0.650000X0.412500X0.650000X-0.412500X0.650000X0*%
%ADD12RoundRect,0.250000X0.475000X-0.337500X0.475000X0.337500X-0.475000X0.337500X-0.475000X-0.337500X0*%
%ADD13RoundRect,0.250000X0.350000X0.450000X-0.350000X0.450000X-0.350000X-0.450000X0.350000X-0.450000X0*%
%ADD14R,0.355600X1.409700*%
%ADD15RoundRect,0.150000X-0.725000X-0.150000X0.725000X-0.150000X0.725000X0.150000X-0.725000X0.150000X0*%
%ADD16RoundRect,0.250000X0.337500X0.475000X-0.337500X0.475000X-0.337500X-0.475000X0.337500X-0.475000X0*%
%ADD17RoundRect,0.250000X-0.337500X-0.475000X0.337500X-0.475000X0.337500X0.475000X-0.337500X0.475000X0*%
%ADD18R,0.449999X1.500000*%
%ADD19R,5.000000X3.400001*%
%ADD20RoundRect,0.250000X-0.450000X0.350000X-0.450000X-0.350000X0.450000X-0.350000X0.450000X0.350000X0*%
%ADD21RoundRect,0.250000X-0.350000X-0.450000X0.350000X-0.450000X0.350000X0.450000X-0.350000X0.450000X0*%
%ADD22RoundRect,0.250000X0.450000X-0.350000X0.450000X0.350000X-0.450000X0.350000X-0.450000X-0.350000X0*%
%ADD23R,1.549400X0.660400*%
%ADD24R,1.905000X1.295400*%
%ADD25RoundRect,0.150000X-0.825000X-0.150000X0.825000X-0.150000X0.825000X0.150000X-0.825000X0.150000X0*%
%ADD26R,1.600000X1.600000*%
%ADD27RoundRect,0.249999X1.425001X-0.450001X1.425001X0.450001X-1.425001X0.450001X-1.425001X-0.450001X0*%
G04 APERTURE END LIST*
D10*
%TO.C,U7*%
G36*
X43604737Y-80876639D02*
G01*
X43613967Y-80879438D01*
X43622471Y-80883984D01*
X43629929Y-80890103D01*
X43636048Y-80897561D01*
X43640594Y-80906065D01*
X43643393Y-80915295D01*
X43644338Y-80924894D01*
X43644338Y-83286494D01*
X43643393Y-83296093D01*
X43640594Y-83305323D01*
X43636048Y-83313827D01*
X43629929Y-83321285D01*
X43622471Y-83327404D01*
X43613967Y-83331950D01*
X43604737Y-83334749D01*
X43595138Y-83335694D01*
X40143538Y-83335694D01*
X40133939Y-83334749D01*
X40124709Y-83331950D01*
X40116205Y-83327404D01*
X40108747Y-83321285D01*
X40102628Y-83313827D01*
X40098082Y-83305323D01*
X40095283Y-83296093D01*
X40094338Y-83286494D01*
X40094338Y-80924894D01*
X40095283Y-80915295D01*
X40098082Y-80906065D01*
X40102628Y-80897561D01*
X40108747Y-80890103D01*
X40116205Y-80883984D01*
X40124709Y-80879438D01*
X40133939Y-80876639D01*
X40143538Y-80875694D01*
X43595138Y-80875694D01*
X43604737Y-80876639D01*
G37*
%TO.C,U5*%
G36*
X43604737Y-64126639D02*
G01*
X43613967Y-64129438D01*
X43622471Y-64133984D01*
X43629929Y-64140103D01*
X43636048Y-64147561D01*
X43640594Y-64156065D01*
X43643393Y-64165295D01*
X43644338Y-64174894D01*
X43644338Y-66536494D01*
X43643393Y-66546093D01*
X43640594Y-66555323D01*
X43636048Y-66563827D01*
X43629929Y-66571285D01*
X43622471Y-66577404D01*
X43613967Y-66581950D01*
X43604737Y-66584749D01*
X43595138Y-66585694D01*
X40143538Y-66585694D01*
X40133939Y-66584749D01*
X40124709Y-66581950D01*
X40116205Y-66577404D01*
X40108747Y-66571285D01*
X40102628Y-66563827D01*
X40098082Y-66555323D01*
X40095283Y-66546093D01*
X40094338Y-66536494D01*
X40094338Y-64174894D01*
X40095283Y-64165295D01*
X40098082Y-64156065D01*
X40102628Y-64147561D01*
X40108747Y-64140103D01*
X40116205Y-64133984D01*
X40124709Y-64129438D01*
X40133939Y-64126639D01*
X40143538Y-64125694D01*
X43595138Y-64125694D01*
X43604737Y-64126639D01*
G37*
%TO.C,U9*%
G36*
X43604737Y-97626639D02*
G01*
X43613967Y-97629438D01*
X43622471Y-97633984D01*
X43629929Y-97640103D01*
X43636048Y-97647561D01*
X43640594Y-97656065D01*
X43643393Y-97665295D01*
X43644338Y-97674894D01*
X43644338Y-100036494D01*
X43643393Y-100046093D01*
X43640594Y-100055323D01*
X43636048Y-100063827D01*
X43629929Y-100071285D01*
X43622471Y-100077404D01*
X43613967Y-100081950D01*
X43604737Y-100084749D01*
X43595138Y-100085694D01*
X40143538Y-100085694D01*
X40133939Y-100084749D01*
X40124709Y-100081950D01*
X40116205Y-100077404D01*
X40108747Y-100071285D01*
X40102628Y-100063827D01*
X40098082Y-100055323D01*
X40095283Y-100046093D01*
X40094338Y-100036494D01*
X40094338Y-97674894D01*
X40095283Y-97665295D01*
X40098082Y-97656065D01*
X40102628Y-97647561D01*
X40108747Y-97640103D01*
X40116205Y-97633984D01*
X40124709Y-97629438D01*
X40133939Y-97626639D01*
X40143538Y-97625694D01*
X43595138Y-97625694D01*
X43604737Y-97626639D01*
G37*
%TO.C,U3*%
G36*
X43629149Y-47376639D02*
G01*
X43638379Y-47379438D01*
X43646883Y-47383984D01*
X43654341Y-47390103D01*
X43660460Y-47397561D01*
X43665006Y-47406065D01*
X43667805Y-47415295D01*
X43668750Y-47424894D01*
X43668750Y-49786494D01*
X43667805Y-49796093D01*
X43665006Y-49805323D01*
X43660460Y-49813827D01*
X43654341Y-49821285D01*
X43646883Y-49827404D01*
X43638379Y-49831950D01*
X43629149Y-49834749D01*
X43619550Y-49835694D01*
X40167950Y-49835694D01*
X40158351Y-49834749D01*
X40149121Y-49831950D01*
X40140617Y-49827404D01*
X40133159Y-49821285D01*
X40127040Y-49813827D01*
X40122494Y-49805323D01*
X40119695Y-49796093D01*
X40118750Y-49786494D01*
X40118750Y-47424894D01*
X40119695Y-47415295D01*
X40122494Y-47406065D01*
X40127040Y-47397561D01*
X40133159Y-47390103D01*
X40140617Y-47383984D01*
X40149121Y-47379438D01*
X40158351Y-47376639D01*
X40167950Y-47375694D01*
X43619550Y-47375694D01*
X43629149Y-47376639D01*
G37*
%TD*%
D11*
%TO.C,C18*%
X42806838Y-90105694D03*
X45931838Y-90105694D03*
%TD*%
D12*
%TO.C,C34*%
X46250000Y-120037500D03*
X46250000Y-117962500D03*
%TD*%
D13*
%TO.C,R1*%
X45143750Y-43355694D03*
X43143750Y-43355694D03*
%TD*%
D14*
%TO.C,U14*%
X96225049Y-51762750D03*
X96875035Y-51762750D03*
X97525021Y-51762750D03*
X98175007Y-51762750D03*
X98824993Y-51762750D03*
X99474979Y-51762750D03*
X100124965Y-51762750D03*
X100774951Y-51762750D03*
X100774951Y-45857250D03*
X100124965Y-45857250D03*
X99474979Y-45857250D03*
X98824993Y-45857250D03*
X98175007Y-45857250D03*
X97525021Y-45857250D03*
X96875035Y-45857250D03*
X96225049Y-45857250D03*
%TD*%
D15*
%TO.C,U4*%
X51869338Y-62485694D03*
X51869338Y-63755694D03*
X51869338Y-65025694D03*
X51869338Y-66295694D03*
X51869338Y-67565694D03*
X51869338Y-68835694D03*
X51869338Y-70105694D03*
X51869338Y-71375694D03*
X57019338Y-71375694D03*
X57019338Y-70105694D03*
X57019338Y-68835694D03*
X57019338Y-67565694D03*
X57019338Y-66295694D03*
X57019338Y-65025694D03*
X57019338Y-63755694D03*
X57019338Y-62485694D03*
%TD*%
D16*
%TO.C,C19*%
X39406838Y-88855694D03*
X37331838Y-88855694D03*
%TD*%
D15*
%TO.C,U2*%
X51893750Y-45735694D03*
X51893750Y-47005694D03*
X51893750Y-48275694D03*
X51893750Y-49545694D03*
X51893750Y-50815694D03*
X51893750Y-52085694D03*
X51893750Y-53355694D03*
X51893750Y-54625694D03*
X57043750Y-54625694D03*
X57043750Y-53355694D03*
X57043750Y-52085694D03*
X57043750Y-50815694D03*
X57043750Y-49545694D03*
X57043750Y-48275694D03*
X57043750Y-47005694D03*
X57043750Y-45735694D03*
%TD*%
D17*
%TO.C,C17*%
X41619338Y-87855694D03*
X43694338Y-87855694D03*
%TD*%
D16*
%TO.C,C16*%
X57406838Y-77355694D03*
X55331838Y-77355694D03*
%TD*%
%TO.C,C21*%
X41369338Y-76855694D03*
X39294338Y-76855694D03*
%TD*%
D18*
%TO.C,U7*%
X44144337Y-79205695D03*
X43494336Y-79205695D03*
X42844337Y-79205695D03*
X42194336Y-79205695D03*
X41544337Y-79205695D03*
X40894336Y-79205695D03*
X40244337Y-79205695D03*
X39594336Y-79205695D03*
X39594336Y-85005693D03*
X40244337Y-85005693D03*
X40894336Y-85005693D03*
X41544337Y-85005693D03*
X42194336Y-85005693D03*
X42844337Y-85005693D03*
X43494336Y-85005693D03*
X44144337Y-85005693D03*
D19*
X41869338Y-82105694D03*
%TD*%
D16*
%TO.C,C7*%
X41393750Y-43355694D03*
X39318750Y-43355694D03*
%TD*%
D17*
%TO.C,C20*%
X45581838Y-87855694D03*
X47656838Y-87855694D03*
%TD*%
D18*
%TO.C,U5*%
X44144337Y-62455695D03*
X43494336Y-62455695D03*
X42844337Y-62455695D03*
X42194336Y-62455695D03*
X41544337Y-62455695D03*
X40894336Y-62455695D03*
X40244337Y-62455695D03*
X39594336Y-62455695D03*
X39594336Y-68255693D03*
X40244337Y-68255693D03*
X40894336Y-68255693D03*
X41544337Y-68255693D03*
X42194336Y-68255693D03*
X42844337Y-68255693D03*
X43494336Y-68255693D03*
X44144337Y-68255693D03*
D19*
X41869338Y-65355694D03*
%TD*%
D17*
%TO.C,C3*%
X41643750Y-54355694D03*
X43718750Y-54355694D03*
%TD*%
D12*
%TO.C,C15*%
X45869338Y-84893194D03*
X45869338Y-82818194D03*
%TD*%
D16*
%TO.C,C2*%
X57431250Y-43855694D03*
X55356250Y-43855694D03*
%TD*%
D20*
%TO.C,R9*%
X101598500Y-56750000D03*
X101598500Y-58750000D03*
%TD*%
D21*
%TO.C,R2*%
X51393750Y-43605694D03*
X53393750Y-43605694D03*
%TD*%
D13*
%TO.C,R10*%
X45119338Y-93605694D03*
X43119338Y-93605694D03*
%TD*%
D11*
%TO.C,C25*%
X42806838Y-106855694D03*
X45931838Y-106855694D03*
%TD*%
D17*
%TO.C,C10*%
X41619338Y-71105694D03*
X43694338Y-71105694D03*
%TD*%
D13*
%TO.C,R7*%
X45119338Y-76855694D03*
X43119338Y-76855694D03*
%TD*%
D15*
%TO.C,U8*%
X51869338Y-95985694D03*
X51869338Y-97255694D03*
X51869338Y-98525694D03*
X51869338Y-99795694D03*
X51869338Y-101065694D03*
X51869338Y-102335694D03*
X51869338Y-103605694D03*
X51869338Y-104875694D03*
X57019338Y-104875694D03*
X57019338Y-103605694D03*
X57019338Y-102335694D03*
X57019338Y-101065694D03*
X57019338Y-99795694D03*
X57019338Y-98525694D03*
X57019338Y-97255694D03*
X57019338Y-95985694D03*
%TD*%
D22*
%TO.C,R13*%
X45500000Y-115000000D03*
X45500000Y-113000000D03*
%TD*%
D12*
%TO.C,C22*%
X45869338Y-101643194D03*
X45869338Y-99568194D03*
%TD*%
D11*
%TO.C,C11*%
X42806838Y-73355694D03*
X45931838Y-73355694D03*
%TD*%
D18*
%TO.C,U9*%
X44144337Y-95955695D03*
X43494336Y-95955695D03*
X42844337Y-95955695D03*
X42194336Y-95955695D03*
X41544337Y-95955695D03*
X40894336Y-95955695D03*
X40244337Y-95955695D03*
X39594336Y-95955695D03*
X39594336Y-101755693D03*
X40244337Y-101755693D03*
X40894336Y-101755693D03*
X41544337Y-101755693D03*
X42194336Y-101755693D03*
X42844337Y-101755693D03*
X43494336Y-101755693D03*
X44144337Y-101755693D03*
D19*
X41869338Y-98855694D03*
%TD*%
D17*
%TO.C,C27*%
X45581838Y-104605694D03*
X47656838Y-104605694D03*
%TD*%
D11*
%TO.C,C4*%
X42831250Y-56605694D03*
X45956250Y-56605694D03*
%TD*%
D17*
%TO.C,C24*%
X41619338Y-104605694D03*
X43694338Y-104605694D03*
%TD*%
D12*
%TO.C,C35*%
X84750000Y-112537500D03*
X84750000Y-110462500D03*
%TD*%
D23*
%TO.C,J3*%
X104651500Y-62344250D03*
X104651500Y-61344249D03*
X104651500Y-60344251D03*
X104651500Y-59344250D03*
D24*
X108526501Y-58044251D03*
X108526501Y-63644249D03*
%TD*%
D16*
%TO.C,C5*%
X39431250Y-55355694D03*
X37356250Y-55355694D03*
%TD*%
D12*
%TO.C,C1*%
X45893750Y-51393194D03*
X45893750Y-49318194D03*
%TD*%
%TO.C,C8*%
X45869338Y-68143194D03*
X45869338Y-66068194D03*
%TD*%
D21*
%TO.C,R8*%
X51369338Y-77105694D03*
X53369338Y-77105694D03*
%TD*%
D16*
%TO.C,C29*%
X91537500Y-99000000D03*
X89462500Y-99000000D03*
%TD*%
D25*
%TO.C,U11*%
X86750000Y-92980000D03*
X86750000Y-94250000D03*
X86750000Y-95520000D03*
X86750000Y-96790000D03*
X91700000Y-96790000D03*
X91700000Y-95520000D03*
X91700000Y-94250000D03*
X91700000Y-92980000D03*
%TD*%
D20*
%TO.C,R6*%
X98500000Y-66000000D03*
X98500000Y-68000000D03*
%TD*%
D22*
%TO.C,R16*%
X85000000Y-117500000D03*
X85000000Y-115500000D03*
%TD*%
D12*
%TO.C,C33*%
X84225000Y-95922500D03*
X84225000Y-93847500D03*
%TD*%
D21*
%TO.C,R5*%
X51369338Y-60355694D03*
X53369338Y-60355694D03*
%TD*%
D13*
%TO.C,R4*%
X45119338Y-60105694D03*
X43119338Y-60105694D03*
%TD*%
D16*
%TO.C,C28*%
X41369338Y-93605694D03*
X39294338Y-93605694D03*
%TD*%
D20*
%TO.C,R12*%
X98500000Y-57844250D03*
X98500000Y-59844250D03*
%TD*%
D21*
%TO.C,R11*%
X51369338Y-93855694D03*
X53369338Y-93855694D03*
%TD*%
D15*
%TO.C,U6*%
X51869338Y-79235694D03*
X51869338Y-80505694D03*
X51869338Y-81775694D03*
X51869338Y-83045694D03*
X51869338Y-84315694D03*
X51869338Y-85585694D03*
X51869338Y-86855694D03*
X51869338Y-88125694D03*
X57019338Y-88125694D03*
X57019338Y-86855694D03*
X57019338Y-85585694D03*
X57019338Y-84315694D03*
X57019338Y-83045694D03*
X57019338Y-81775694D03*
X57019338Y-80505694D03*
X57019338Y-79235694D03*
%TD*%
D26*
%TO.C,U13*%
X73440000Y-112440000D03*
X73440000Y-114980000D03*
X73440000Y-117520000D03*
X73440000Y-120060000D03*
X81060000Y-120060000D03*
X81060000Y-117520000D03*
X81060000Y-114980000D03*
X81060000Y-112440000D03*
%TD*%
D18*
%TO.C,U3*%
X44168749Y-45705695D03*
X43518748Y-45705695D03*
X42868749Y-45705695D03*
X42218748Y-45705695D03*
X41568749Y-45705695D03*
X40918748Y-45705695D03*
X40268749Y-45705695D03*
X39618748Y-45705695D03*
X39618748Y-51505693D03*
X40268749Y-51505693D03*
X40918748Y-51505693D03*
X41568749Y-51505693D03*
X42218748Y-51505693D03*
X42868749Y-51505693D03*
X43518748Y-51505693D03*
X44168749Y-51505693D03*
D19*
X41893750Y-48605694D03*
%TD*%
D16*
%TO.C,C23*%
X57406838Y-94105694D03*
X55331838Y-94105694D03*
%TD*%
D12*
%TO.C,C32*%
X94657454Y-45787500D03*
X94657454Y-43712500D03*
%TD*%
D16*
%TO.C,C12*%
X39406838Y-72105694D03*
X37331838Y-72105694D03*
%TD*%
%TO.C,C9*%
X57406838Y-60605694D03*
X55331838Y-60605694D03*
%TD*%
%TO.C,C14*%
X41369338Y-60105694D03*
X39294338Y-60105694D03*
%TD*%
D27*
%TO.C,R15*%
X67750000Y-116800000D03*
X67750000Y-110700000D03*
%TD*%
D20*
%TO.C,R3*%
X101500000Y-65000000D03*
X101500000Y-67000000D03*
%TD*%
D16*
%TO.C,C26*%
X39406838Y-105605694D03*
X37331838Y-105605694D03*
%TD*%
D17*
%TO.C,C13*%
X45581838Y-71105694D03*
X47656838Y-71105694D03*
%TD*%
D26*
%TO.C,U12*%
X57060000Y-120060000D03*
X57060000Y-117520000D03*
X57060000Y-114980000D03*
X57060000Y-112440000D03*
X49440000Y-112440000D03*
X49440000Y-114980000D03*
X49440000Y-117520000D03*
X49440000Y-120060000D03*
%TD*%
D27*
%TO.C,R14*%
X62500000Y-116800000D03*
X62500000Y-110700000D03*
%TD*%
D17*
%TO.C,C6*%
X45606250Y-54355694D03*
X47681250Y-54355694D03*
%TD*%
D23*
%TO.C,J4*%
X104651500Y-70500000D03*
X104651500Y-69499999D03*
X104651500Y-68500001D03*
X104651500Y-67500000D03*
D24*
X108526501Y-66200001D03*
X108526501Y-71799999D03*
%TD*%
M02*
