%TF.GenerationSoftware,KiCad,Pcbnew,9.0.1-9.0.1-0~ubuntu24.04.1*%
%TF.CreationDate,2025-04-05T03:16:37-04:00*%
%TF.ProjectId,Pico_LCC,5069636f-5f4c-4434-932e-6b696361645f,4*%
%TF.SameCoordinates,Original*%
%TF.FileFunction,Soldermask,Top*%
%TF.FilePolarity,Negative*%
%FSLAX46Y46*%
G04 Gerber Fmt 4.6, Leading zero omitted, Abs format (unit mm)*
G04 Created by KiCad (PCBNEW 9.0.1-9.0.1-0~ubuntu24.04.1) date 2025-04-05 03:16:37*
%MOMM*%
%LPD*%
G01*
G04 APERTURE LIST*
G04 Aperture macros list*
%AMRoundRect*
0 Rectangle with rounded corners*
0 $1 Rounding radius*
0 $2 $3 $4 $5 $6 $7 $8 $9 X,Y pos of 4 corners*
0 Add a 4 corners polygon primitive as box body*
4,1,4,$2,$3,$4,$5,$6,$7,$8,$9,$2,$3,0*
0 Add four circle primitives for the rounded corners*
1,1,$1+$1,$2,$3*
1,1,$1+$1,$4,$5*
1,1,$1+$1,$6,$7*
1,1,$1+$1,$8,$9*
0 Add four rect primitives between the rounded corners*
20,1,$1+$1,$2,$3,$4,$5,0*
20,1,$1+$1,$4,$5,$6,$7,0*
20,1,$1+$1,$6,$7,$8,$9,0*
20,1,$1+$1,$8,$9,$2,$3,0*%
%AMFreePoly0*
4,1,37,0.800000,0.796148,0.878414,0.796148,1.032228,0.765552,1.177117,0.705537,1.307515,0.618408,1.418408,0.507515,1.505537,0.377117,1.565552,0.232228,1.596148,0.078414,1.596148,-0.078414,1.565552,-0.232228,1.505537,-0.377117,1.418408,-0.507515,1.307515,-0.618408,1.177117,-0.705537,1.032228,-0.765552,0.878414,-0.796148,0.800000,-0.796148,0.800000,-0.800000,-1.400000,-0.800000,
-1.403843,-0.796157,-1.439018,-0.796157,-1.511114,-0.766294,-1.566294,-0.711114,-1.596157,-0.639018,-1.596157,-0.603843,-1.600000,-0.600000,-1.600000,0.600000,-1.596157,0.603843,-1.596157,0.639018,-1.566294,0.711114,-1.511114,0.766294,-1.439018,0.796157,-1.403843,0.796157,-1.400000,0.800000,0.800000,0.800000,0.800000,0.796148,0.800000,0.796148,$1*%
%AMFreePoly1*
4,1,37,1.403843,0.796157,1.439018,0.796157,1.511114,0.766294,1.566294,0.711114,1.596157,0.639018,1.596157,0.603843,1.600000,0.600000,1.600000,-0.600000,1.596157,-0.603843,1.596157,-0.639018,1.566294,-0.711114,1.511114,-0.766294,1.439018,-0.796157,1.403843,-0.796157,1.400000,-0.800000,-0.800000,-0.800000,-0.800000,-0.796148,-0.878414,-0.796148,-1.032228,-0.765552,-1.177117,-0.705537,
-1.307515,-0.618408,-1.418408,-0.507515,-1.505537,-0.377117,-1.565552,-0.232228,-1.596148,-0.078414,-1.596148,0.078414,-1.565552,0.232228,-1.505537,0.377117,-1.418408,0.507515,-1.307515,0.618408,-1.177117,0.705537,-1.032228,0.765552,-0.878414,0.796148,-0.800000,0.796148,-0.800000,0.800000,1.400000,0.800000,1.403843,0.796157,1.403843,0.796157,$1*%
%AMFreePoly2*
4,1,23,0.500000,-0.750000,0.000000,-0.750000,0.000000,-0.745722,-0.065263,-0.745722,-0.191342,-0.711940,-0.304381,-0.646677,-0.396677,-0.554381,-0.461940,-0.441342,-0.495722,-0.315263,-0.495722,-0.250000,-0.500000,-0.250000,-0.500000,0.250000,-0.495722,0.250000,-0.495722,0.315263,-0.461940,0.441342,-0.396677,0.554381,-0.304381,0.646677,-0.191342,0.711940,-0.065263,0.745722,0.000000,0.745722,
0.000000,0.750000,0.500000,0.750000,0.500000,-0.750000,0.500000,-0.750000,$1*%
%AMFreePoly3*
4,1,23,0.000000,0.745722,0.065263,0.745722,0.191342,0.711940,0.304381,0.646677,0.396677,0.554381,0.461940,0.441342,0.495722,0.315263,0.495722,0.250000,0.500000,0.250000,0.500000,-0.250000,0.495722,-0.250000,0.495722,-0.315263,0.461940,-0.441342,0.396677,-0.554381,0.304381,-0.646677,0.191342,-0.711940,0.065263,-0.745722,0.000000,-0.745722,0.000000,-0.750000,-0.500000,-0.750000,
-0.500000,0.750000,0.000000,0.750000,0.000000,0.745722,0.000000,0.745722,$1*%
G04 Aperture macros list end*
%ADD10C,0.000000*%
%ADD11C,2.200000*%
%ADD12C,1.850000*%
%ADD13FreePoly0,0.000000*%
%ADD14RoundRect,0.800000X-0.800000X-0.000010X0.800000X-0.000010X0.800000X0.000010X-0.800000X0.000010X0*%
%ADD15FreePoly1,0.000000*%
%ADD16RoundRect,0.250000X-0.350000X-0.450000X0.350000X-0.450000X0.350000X0.450000X-0.350000X0.450000X0*%
%ADD17RoundRect,0.250000X0.337500X0.475000X-0.337500X0.475000X-0.337500X-0.475000X0.337500X-0.475000X0*%
%ADD18RoundRect,0.250000X-0.337500X-0.475000X0.337500X-0.475000X0.337500X0.475000X-0.337500X0.475000X0*%
%ADD19RoundRect,0.250000X0.475000X-0.337500X0.475000X0.337500X-0.475000X0.337500X-0.475000X-0.337500X0*%
%ADD20C,3.300000*%
%ADD21C,1.652000*%
%ADD22R,1.549400X0.660400*%
%ADD23R,1.905000X1.295400*%
%ADD24FreePoly2,0.000000*%
%ADD25FreePoly3,0.000000*%
%ADD26RoundRect,0.250000X0.450000X-0.350000X0.450000X0.350000X-0.450000X0.350000X-0.450000X-0.350000X0*%
%ADD27R,0.355600X1.409700*%
%ADD28RoundRect,0.150000X-0.825000X-0.150000X0.825000X-0.150000X0.825000X0.150000X-0.825000X0.150000X0*%
%ADD29RoundRect,0.150000X-0.725000X-0.150000X0.725000X-0.150000X0.725000X0.150000X-0.725000X0.150000X0*%
%ADD30R,5.000000X3.400001*%
%ADD31R,0.449999X1.500000*%
%ADD32RoundRect,0.250000X-0.412500X-0.650000X0.412500X-0.650000X0.412500X0.650000X-0.412500X0.650000X0*%
%ADD33RoundRect,0.250000X-0.450000X0.350000X-0.450000X-0.350000X0.450000X-0.350000X0.450000X0.350000X0*%
%ADD34FreePoly2,270.000000*%
%ADD35FreePoly3,270.000000*%
%ADD36C,0.900000*%
%ADD37C,8.600000*%
%ADD38R,2.600000X2.600000*%
%ADD39C,2.600000*%
%ADD40R,1.600000X1.600000*%
%ADD41RoundRect,0.249999X1.425001X-0.450001X1.425001X0.450001X-1.425001X0.450001X-1.425001X-0.450001X0*%
%ADD42RoundRect,0.250000X0.350000X0.450000X-0.350000X0.450000X-0.350000X-0.450000X0.350000X-0.450000X0*%
G04 APERTURE END LIST*
D10*
%TO.C,U5*%
G36*
X43629149Y-47376639D02*
G01*
X43638379Y-47379438D01*
X43646883Y-47383984D01*
X43654341Y-47390103D01*
X43660460Y-47397561D01*
X43665006Y-47406065D01*
X43667805Y-47415295D01*
X43668750Y-47424894D01*
X43668750Y-49786494D01*
X43667805Y-49796093D01*
X43665006Y-49805323D01*
X43660460Y-49813827D01*
X43654341Y-49821285D01*
X43646883Y-49827404D01*
X43638379Y-49831950D01*
X43629149Y-49834749D01*
X43619550Y-49835694D01*
X40167950Y-49835694D01*
X40158351Y-49834749D01*
X40149121Y-49831950D01*
X40140617Y-49827404D01*
X40133159Y-49821285D01*
X40127040Y-49813827D01*
X40122494Y-49805323D01*
X40119695Y-49796093D01*
X40118750Y-49786494D01*
X40118750Y-47424894D01*
X40119695Y-47415295D01*
X40122494Y-47406065D01*
X40127040Y-47397561D01*
X40133159Y-47390103D01*
X40140617Y-47383984D01*
X40149121Y-47379438D01*
X40158351Y-47376639D01*
X40167950Y-47375694D01*
X43619550Y-47375694D01*
X43629149Y-47376639D01*
G37*
%TO.C,U7*%
G36*
X43604737Y-64126639D02*
G01*
X43613967Y-64129438D01*
X43622471Y-64133984D01*
X43629929Y-64140103D01*
X43636048Y-64147561D01*
X43640594Y-64156065D01*
X43643393Y-64165295D01*
X43644338Y-64174894D01*
X43644338Y-66536494D01*
X43643393Y-66546093D01*
X43640594Y-66555323D01*
X43636048Y-66563827D01*
X43629929Y-66571285D01*
X43622471Y-66577404D01*
X43613967Y-66581950D01*
X43604737Y-66584749D01*
X43595138Y-66585694D01*
X40143538Y-66585694D01*
X40133939Y-66584749D01*
X40124709Y-66581950D01*
X40116205Y-66577404D01*
X40108747Y-66571285D01*
X40102628Y-66563827D01*
X40098082Y-66555323D01*
X40095283Y-66546093D01*
X40094338Y-66536494D01*
X40094338Y-64174894D01*
X40095283Y-64165295D01*
X40098082Y-64156065D01*
X40102628Y-64147561D01*
X40108747Y-64140103D01*
X40116205Y-64133984D01*
X40124709Y-64129438D01*
X40133939Y-64126639D01*
X40143538Y-64125694D01*
X43595138Y-64125694D01*
X43604737Y-64126639D01*
G37*
%TO.C,U9*%
G36*
X43604737Y-80876639D02*
G01*
X43613967Y-80879438D01*
X43622471Y-80883984D01*
X43629929Y-80890103D01*
X43636048Y-80897561D01*
X43640594Y-80906065D01*
X43643393Y-80915295D01*
X43644338Y-80924894D01*
X43644338Y-83286494D01*
X43643393Y-83296093D01*
X43640594Y-83305323D01*
X43636048Y-83313827D01*
X43629929Y-83321285D01*
X43622471Y-83327404D01*
X43613967Y-83331950D01*
X43604737Y-83334749D01*
X43595138Y-83335694D01*
X40143538Y-83335694D01*
X40133939Y-83334749D01*
X40124709Y-83331950D01*
X40116205Y-83327404D01*
X40108747Y-83321285D01*
X40102628Y-83313827D01*
X40098082Y-83305323D01*
X40095283Y-83296093D01*
X40094338Y-83286494D01*
X40094338Y-80924894D01*
X40095283Y-80915295D01*
X40098082Y-80906065D01*
X40102628Y-80897561D01*
X40108747Y-80890103D01*
X40116205Y-80883984D01*
X40124709Y-80879438D01*
X40133939Y-80876639D01*
X40143538Y-80875694D01*
X43595138Y-80875694D01*
X43604737Y-80876639D01*
G37*
%TO.C,U11*%
G36*
X43604737Y-97626639D02*
G01*
X43613967Y-97629438D01*
X43622471Y-97633984D01*
X43629929Y-97640103D01*
X43636048Y-97647561D01*
X43640594Y-97656065D01*
X43643393Y-97665295D01*
X43644338Y-97674894D01*
X43644338Y-100036494D01*
X43643393Y-100046093D01*
X43640594Y-100055323D01*
X43636048Y-100063827D01*
X43629929Y-100071285D01*
X43622471Y-100077404D01*
X43613967Y-100081950D01*
X43604737Y-100084749D01*
X43595138Y-100085694D01*
X40143538Y-100085694D01*
X40133939Y-100084749D01*
X40124709Y-100081950D01*
X40116205Y-100077404D01*
X40108747Y-100071285D01*
X40102628Y-100063827D01*
X40098082Y-100055323D01*
X40095283Y-100046093D01*
X40094338Y-100036494D01*
X40094338Y-97674894D01*
X40095283Y-97665295D01*
X40098082Y-97656065D01*
X40102628Y-97647561D01*
X40108747Y-97640103D01*
X40116205Y-97633984D01*
X40124709Y-97629438D01*
X40133939Y-97626639D01*
X40143538Y-97625694D01*
X43595138Y-97625694D01*
X43604737Y-97626639D01*
G37*
%TD*%
D11*
%TO.C,A1*%
X76525000Y-27000000D03*
D12*
X76825000Y-30030000D03*
X81675000Y-30030000D03*
D11*
X81975000Y-27000000D03*
D13*
X69560000Y-26870000D03*
D14*
X69560000Y-29410000D03*
D15*
X69560000Y-31950000D03*
D14*
X69560000Y-34490000D03*
X69560000Y-37030000D03*
X69560000Y-39570000D03*
X69560000Y-42110000D03*
D15*
X69560000Y-44650000D03*
D14*
X69560000Y-47190000D03*
X69560000Y-49730000D03*
X69560000Y-52270000D03*
X69560000Y-54810000D03*
D15*
X69560000Y-57350000D03*
D14*
X69560000Y-59890000D03*
X69560000Y-62430000D03*
X69560000Y-64970000D03*
X69560000Y-67510000D03*
D15*
X69560000Y-70050000D03*
D14*
X69560000Y-72590000D03*
X69560000Y-75130000D03*
X88940000Y-75130000D03*
X88940000Y-72590000D03*
D13*
X88940000Y-70050000D03*
D14*
X88940000Y-67510000D03*
X88940000Y-64970000D03*
X88940000Y-62430000D03*
X88940000Y-59890000D03*
D13*
X88940000Y-57350000D03*
D14*
X88940000Y-54810000D03*
X88940000Y-52270000D03*
X88940000Y-49730000D03*
X88940000Y-47190000D03*
D13*
X88940000Y-44650000D03*
D14*
X88940000Y-42110000D03*
X88940000Y-39570000D03*
X88940000Y-37030000D03*
X88940000Y-34490000D03*
D13*
X88940000Y-31950000D03*
D14*
X88940000Y-29410000D03*
X88940000Y-26870000D03*
%TD*%
D16*
%TO.C,R13*%
X51369338Y-93855694D03*
X53369338Y-93855694D03*
%TD*%
%TO.C,R11*%
X51369338Y-77105694D03*
X53369338Y-77105694D03*
%TD*%
%TO.C,R9*%
X51369338Y-60355694D03*
X53369338Y-60355694D03*
%TD*%
%TO.C,R7*%
X51393750Y-43605694D03*
X53393750Y-43605694D03*
%TD*%
D17*
%TO.C,C31*%
X41369338Y-93605694D03*
X39294338Y-93605694D03*
%TD*%
D18*
%TO.C,C27*%
X41619338Y-104605694D03*
X43694338Y-104605694D03*
%TD*%
D17*
%TO.C,C26*%
X57406838Y-94105694D03*
X55331838Y-94105694D03*
%TD*%
D19*
%TO.C,C25*%
X45869338Y-101643194D03*
X45869338Y-99568194D03*
%TD*%
D17*
%TO.C,C24*%
X41369338Y-76855694D03*
X39294338Y-76855694D03*
%TD*%
D18*
%TO.C,C20*%
X41619338Y-87855694D03*
X43694338Y-87855694D03*
%TD*%
D17*
%TO.C,C19*%
X57406838Y-77355694D03*
X55331838Y-77355694D03*
%TD*%
D19*
%TO.C,C18*%
X45869338Y-84893194D03*
X45869338Y-82818194D03*
%TD*%
D17*
%TO.C,C17*%
X41369338Y-60105694D03*
X39294338Y-60105694D03*
%TD*%
D18*
%TO.C,C13*%
X41619338Y-71105694D03*
X43694338Y-71105694D03*
%TD*%
D17*
%TO.C,C12*%
X57406838Y-60605694D03*
X55331838Y-60605694D03*
%TD*%
D19*
%TO.C,C11*%
X45869338Y-68143194D03*
X45869338Y-66068194D03*
%TD*%
D17*
%TO.C,C10*%
X41393750Y-43355694D03*
X39318750Y-43355694D03*
%TD*%
D18*
%TO.C,C6*%
X41643750Y-54355694D03*
X43718750Y-54355694D03*
%TD*%
D17*
%TO.C,C5*%
X57431250Y-43855694D03*
X55356250Y-43855694D03*
%TD*%
D19*
%TO.C,C4*%
X45893750Y-51393194D03*
X45893750Y-49318194D03*
%TD*%
D20*
%TO.C,J2*%
X105060000Y-106745500D03*
X105060000Y-78295500D03*
D21*
X102520000Y-96843500D03*
X100740000Y-97859500D03*
X102520000Y-98875500D03*
X100740000Y-99891500D03*
X102520000Y-100907500D03*
X100740000Y-101923500D03*
X102520000Y-102939500D03*
X100740000Y-103955500D03*
X102520000Y-81093500D03*
X100740000Y-82109500D03*
X102520000Y-83125500D03*
X100740000Y-84141500D03*
X102520000Y-85157500D03*
X100740000Y-86173500D03*
X102520000Y-87189500D03*
X100740000Y-88205500D03*
%TD*%
D22*
%TO.C,J3*%
X104651500Y-62344250D03*
X104651500Y-61344249D03*
X104651500Y-60344251D03*
X104651500Y-59344250D03*
D23*
X108526501Y-58044251D03*
X108526501Y-63644249D03*
%TD*%
D22*
%TO.C,J4*%
X104651500Y-70550000D03*
X104651500Y-69549999D03*
X104651500Y-68550001D03*
X104651500Y-67550000D03*
D23*
X108526501Y-66250001D03*
X108526501Y-71849999D03*
%TD*%
D18*
%TO.C,C9*%
X45606250Y-54355694D03*
X47681250Y-54355694D03*
%TD*%
D17*
%TO.C,C1*%
X86067500Y-106295000D03*
X88142500Y-106295000D03*
%TD*%
D19*
%TO.C,C2*%
X94625000Y-43687500D03*
X94625000Y-45762500D03*
%TD*%
D18*
%TO.C,C16*%
X47656838Y-71105694D03*
X45581838Y-71105694D03*
%TD*%
%TO.C,C23*%
X47656838Y-87855694D03*
X45581838Y-87855694D03*
%TD*%
%TO.C,C30*%
X47656838Y-104605694D03*
X45581838Y-104605694D03*
%TD*%
D24*
%TO.C,JP6*%
X93975000Y-39875000D03*
D25*
X95275000Y-39875000D03*
%TD*%
D26*
%TO.C,R14*%
X45500000Y-113000000D03*
X45500000Y-115000000D03*
%TD*%
%TO.C,R17*%
X85000000Y-115500000D03*
X85000000Y-117500000D03*
%TD*%
D27*
%TO.C,U1*%
X96225049Y-45857250D03*
X96875035Y-45857250D03*
X97525021Y-45857250D03*
X98175007Y-45857250D03*
X98824993Y-45857250D03*
X99474979Y-45857250D03*
X100124965Y-45857250D03*
X100774951Y-45857250D03*
X100774951Y-51762750D03*
X100124965Y-51762750D03*
X99474979Y-51762750D03*
X98824993Y-51762750D03*
X98175007Y-51762750D03*
X97525021Y-51762750D03*
X96875035Y-51762750D03*
X96225049Y-51762750D03*
%TD*%
D28*
%TO.C,U2*%
X88250000Y-100270000D03*
X88250000Y-101540000D03*
X88250000Y-102810000D03*
X88250000Y-104080000D03*
X83300000Y-104080000D03*
X83300000Y-102810000D03*
X83300000Y-101540000D03*
X83300000Y-100270000D03*
%TD*%
D29*
%TO.C,U4*%
X57043750Y-45735694D03*
X57043750Y-47005694D03*
X57043750Y-48275694D03*
X57043750Y-49545694D03*
X57043750Y-50815694D03*
X57043750Y-52085694D03*
X57043750Y-53355694D03*
X57043750Y-54625694D03*
X51893750Y-54625694D03*
X51893750Y-53355694D03*
X51893750Y-52085694D03*
X51893750Y-50815694D03*
X51893750Y-49545694D03*
X51893750Y-48275694D03*
X51893750Y-47005694D03*
X51893750Y-45735694D03*
%TD*%
D30*
%TO.C,U5*%
X41893750Y-48605694D03*
D31*
X44168749Y-51505693D03*
X43518748Y-51505693D03*
X42868749Y-51505693D03*
X42218748Y-51505693D03*
X41568749Y-51505693D03*
X40918748Y-51505693D03*
X40268749Y-51505693D03*
X39618748Y-51505693D03*
X39618748Y-45705695D03*
X40268749Y-45705695D03*
X40918748Y-45705695D03*
X41568749Y-45705695D03*
X42218748Y-45705695D03*
X42868749Y-45705695D03*
X43518748Y-45705695D03*
X44168749Y-45705695D03*
%TD*%
D29*
%TO.C,U6*%
X51869338Y-62485694D03*
X51869338Y-63755694D03*
X51869338Y-65025694D03*
X51869338Y-66295694D03*
X51869338Y-67565694D03*
X51869338Y-68835694D03*
X51869338Y-70105694D03*
X51869338Y-71375694D03*
X57019338Y-71375694D03*
X57019338Y-70105694D03*
X57019338Y-68835694D03*
X57019338Y-67565694D03*
X57019338Y-66295694D03*
X57019338Y-65025694D03*
X57019338Y-63755694D03*
X57019338Y-62485694D03*
%TD*%
D31*
%TO.C,U7*%
X44144337Y-62455695D03*
X43494336Y-62455695D03*
X42844337Y-62455695D03*
X42194336Y-62455695D03*
X41544337Y-62455695D03*
X40894336Y-62455695D03*
X40244337Y-62455695D03*
X39594336Y-62455695D03*
X39594336Y-68255693D03*
X40244337Y-68255693D03*
X40894336Y-68255693D03*
X41544337Y-68255693D03*
X42194336Y-68255693D03*
X42844337Y-68255693D03*
X43494336Y-68255693D03*
X44144337Y-68255693D03*
D30*
X41869338Y-65355694D03*
%TD*%
D29*
%TO.C,U8*%
X51869338Y-79235694D03*
X51869338Y-80505694D03*
X51869338Y-81775694D03*
X51869338Y-83045694D03*
X51869338Y-84315694D03*
X51869338Y-85585694D03*
X51869338Y-86855694D03*
X51869338Y-88125694D03*
X57019338Y-88125694D03*
X57019338Y-86855694D03*
X57019338Y-85585694D03*
X57019338Y-84315694D03*
X57019338Y-83045694D03*
X57019338Y-81775694D03*
X57019338Y-80505694D03*
X57019338Y-79235694D03*
%TD*%
D31*
%TO.C,U9*%
X44144337Y-79205695D03*
X43494336Y-79205695D03*
X42844337Y-79205695D03*
X42194336Y-79205695D03*
X41544337Y-79205695D03*
X40894336Y-79205695D03*
X40244337Y-79205695D03*
X39594336Y-79205695D03*
X39594336Y-85005693D03*
X40244337Y-85005693D03*
X40894336Y-85005693D03*
X41544337Y-85005693D03*
X42194336Y-85005693D03*
X42844337Y-85005693D03*
X43494336Y-85005693D03*
X44144337Y-85005693D03*
D30*
X41869338Y-82105694D03*
%TD*%
D29*
%TO.C,U10*%
X51869338Y-95985694D03*
X51869338Y-97255694D03*
X51869338Y-98525694D03*
X51869338Y-99795694D03*
X51869338Y-101065694D03*
X51869338Y-102335694D03*
X51869338Y-103605694D03*
X51869338Y-104875694D03*
X57019338Y-104875694D03*
X57019338Y-103605694D03*
X57019338Y-102335694D03*
X57019338Y-101065694D03*
X57019338Y-99795694D03*
X57019338Y-98525694D03*
X57019338Y-97255694D03*
X57019338Y-95985694D03*
%TD*%
D31*
%TO.C,U11*%
X44144337Y-95955695D03*
X43494336Y-95955695D03*
X42844337Y-95955695D03*
X42194336Y-95955695D03*
X41544337Y-95955695D03*
X40894336Y-95955695D03*
X40244337Y-95955695D03*
X39594336Y-95955695D03*
X39594336Y-101755693D03*
X40244337Y-101755693D03*
X40894336Y-101755693D03*
X41544337Y-101755693D03*
X42194336Y-101755693D03*
X42844337Y-101755693D03*
X43494336Y-101755693D03*
X44144337Y-101755693D03*
D30*
X41869338Y-98855694D03*
%TD*%
D17*
%TO.C,C29*%
X37331838Y-105605694D03*
X39406838Y-105605694D03*
%TD*%
D32*
%TO.C,C28*%
X45931838Y-106855694D03*
X42806838Y-106855694D03*
%TD*%
D17*
%TO.C,C22*%
X37331838Y-88855694D03*
X39406838Y-88855694D03*
%TD*%
D32*
%TO.C,C21*%
X45931838Y-90105694D03*
X42806838Y-90105694D03*
%TD*%
D17*
%TO.C,C15*%
X37331838Y-72105694D03*
X39406838Y-72105694D03*
%TD*%
D32*
%TO.C,C14*%
X45931838Y-73355694D03*
X42806838Y-73355694D03*
%TD*%
D19*
%TO.C,C32*%
X46250000Y-120037500D03*
X46250000Y-117962500D03*
%TD*%
D33*
%TO.C,R5*%
X98451500Y-66069250D03*
X98451500Y-68069250D03*
%TD*%
D34*
%TO.C,JP2*%
X41000000Y-110850000D03*
D35*
X41000000Y-112150000D03*
%TD*%
D36*
%TO.C,H4*%
X96775000Y-35000000D03*
X97719581Y-32719581D03*
X97719581Y-37280419D03*
X100000000Y-31775000D03*
D37*
X100000000Y-35000000D03*
D36*
X100000000Y-38225000D03*
X102280419Y-32719581D03*
X102280419Y-37280419D03*
X103225000Y-35000000D03*
%TD*%
D19*
%TO.C,C3*%
X80800000Y-103187500D03*
X80800000Y-101112500D03*
%TD*%
D36*
%TO.C,H2*%
X31775000Y-115000000D03*
X32719581Y-112719581D03*
X32719581Y-117280419D03*
X35000000Y-111775000D03*
D37*
X35000000Y-115000000D03*
D36*
X35000000Y-118225000D03*
X37280419Y-112719581D03*
X37280419Y-117280419D03*
X38225000Y-115000000D03*
%TD*%
D34*
%TO.C,JP5*%
X105800000Y-110150000D03*
D35*
X105800000Y-111450000D03*
%TD*%
D33*
%TO.C,R2*%
X101598500Y-56750000D03*
X101598500Y-58750000D03*
%TD*%
D32*
%TO.C,C7*%
X42831250Y-56605694D03*
X45956250Y-56605694D03*
%TD*%
D19*
%TO.C,C33*%
X84750000Y-112537500D03*
X84750000Y-110462500D03*
%TD*%
D17*
%TO.C,C8*%
X39431250Y-55355694D03*
X37356250Y-55355694D03*
%TD*%
D33*
%TO.C,R4*%
X101550000Y-64975000D03*
X101550000Y-66975000D03*
%TD*%
D24*
%TO.C,JP4*%
X102600000Y-41750000D03*
D25*
X103900000Y-41750000D03*
%TD*%
D33*
%TO.C,R3*%
X98500000Y-57844250D03*
X98500000Y-59844250D03*
%TD*%
D38*
%TO.C,J1*%
X28805000Y-102500000D03*
D39*
X28805000Y-97500000D03*
X28805000Y-92500000D03*
X28805000Y-87500000D03*
X28805000Y-82500000D03*
X28805000Y-77500000D03*
X28805000Y-72500000D03*
X28805000Y-67500000D03*
X28805000Y-62500000D03*
X28805000Y-57500000D03*
X28805000Y-52500000D03*
X28805000Y-47500000D03*
%TD*%
D36*
%TO.C,H3*%
X96775000Y-115000000D03*
X97719581Y-112719581D03*
X97719581Y-117280419D03*
X100000000Y-111775000D03*
D37*
X100000000Y-115000000D03*
D36*
X100000000Y-118225000D03*
X102280419Y-112719581D03*
X102280419Y-117280419D03*
X103225000Y-115000000D03*
%TD*%
D40*
%TO.C,U13*%
X73440000Y-112440000D03*
X73440000Y-114980000D03*
X73440000Y-117520000D03*
X73440000Y-120060000D03*
X81060000Y-120060000D03*
X81060000Y-117520000D03*
X81060000Y-114980000D03*
X81060000Y-112440000D03*
%TD*%
D36*
%TO.C,H1*%
X31775000Y-35000000D03*
X32719581Y-32719581D03*
X32719581Y-37280419D03*
X35000000Y-31775000D03*
D37*
X35000000Y-35000000D03*
D36*
X35000000Y-38225000D03*
X37280419Y-32719581D03*
X37280419Y-37280419D03*
X38225000Y-35000000D03*
%TD*%
D24*
%TO.C,JP1*%
X34350000Y-28000000D03*
D25*
X35650000Y-28000000D03*
%TD*%
D26*
%TO.C,R1*%
X91800000Y-103200000D03*
X91800000Y-101200000D03*
%TD*%
D41*
%TO.C,R16*%
X67750000Y-116800000D03*
X67750000Y-110700000D03*
%TD*%
D24*
%TO.C,JP3*%
X93350000Y-110750000D03*
D25*
X94650000Y-110750000D03*
%TD*%
D40*
%TO.C,U12*%
X57060000Y-120060000D03*
X57060000Y-117520000D03*
X57060000Y-114980000D03*
X57060000Y-112440000D03*
X49440000Y-112440000D03*
X49440000Y-114980000D03*
X49440000Y-117520000D03*
X49440000Y-120060000D03*
%TD*%
D41*
%TO.C,R15*%
X62500000Y-116800000D03*
X62500000Y-110700000D03*
%TD*%
D42*
%TO.C,R12*%
X45119338Y-93605694D03*
X43119338Y-93605694D03*
%TD*%
%TO.C,R10*%
X45119338Y-76855694D03*
X43119338Y-76855694D03*
%TD*%
%TO.C,R8*%
X45119338Y-60105694D03*
X43119338Y-60105694D03*
%TD*%
%TO.C,R6*%
X45143750Y-43355694D03*
X43143750Y-43355694D03*
%TD*%
M02*
