%TF.GenerationSoftware,KiCad,Pcbnew,8.0.6*%
%TF.CreationDate,2025-01-28T00:54:01-05:00*%
%TF.ProjectId,Pico_LCC,5069636f-5f4c-4434-932e-6b696361645f,1*%
%TF.SameCoordinates,Original*%
%TF.FileFunction,Copper,L2,Bot*%
%TF.FilePolarity,Positive*%
%FSLAX46Y46*%
G04 Gerber Fmt 4.6, Leading zero omitted, Abs format (unit mm)*
G04 Created by KiCad (PCBNEW 8.0.6) date 2025-01-28 00:54:01*
%MOMM*%
%LPD*%
G01*
G04 APERTURE LIST*
%TA.AperFunction,Conductor*%
%ADD10C,0.000000*%
%TD*%
%TA.AperFunction,ComponentPad*%
%ADD11C,0.900000*%
%TD*%
%TA.AperFunction,ComponentPad*%
%ADD12C,8.600000*%
%TD*%
%TA.AperFunction,ComponentPad*%
%ADD13O,1.700000X1.700000*%
%TD*%
%TA.AperFunction,ComponentPad*%
%ADD14R,1.700000X1.700000*%
%TD*%
%TA.AperFunction,ComponentPad*%
%ADD15R,2.600000X2.600000*%
%TD*%
%TA.AperFunction,ComponentPad*%
%ADD16C,2.600000*%
%TD*%
%TA.AperFunction,ComponentPad*%
%ADD17C,1.448000*%
%TD*%
%TA.AperFunction,ViaPad*%
%ADD18C,0.600000*%
%TD*%
%TA.AperFunction,Conductor*%
%ADD19C,0.200000*%
%TD*%
%TA.AperFunction,Conductor*%
%ADD20C,0.400000*%
%TD*%
%TA.AperFunction,Conductor*%
%ADD21C,1.000000*%
%TD*%
%TA.AperFunction,Conductor*%
%ADD22C,1.750000*%
%TD*%
G04 APERTURE END LIST*
D10*
%TA.AperFunction,Conductor*%
%TO.N,VTRACK*%
G36*
X42250000Y-87500000D02*
G01*
X42250000Y-87500000D01*
G75*
G02*
X43250000Y-88500000I0J-1000000D01*
G01*
X43250000Y-90000000D01*
G75*
G02*
X42250000Y-91000000I-1000000J0D01*
G01*
X38000000Y-91000000D01*
G75*
G02*
X37000000Y-90000000I0J1000000D01*
G01*
X37000000Y-88500000D01*
G75*
G02*
X38000000Y-87500000I1000000J0D01*
G01*
X42250000Y-87500000D01*
G37*
%TD.AperFunction*%
%TA.AperFunction,Conductor*%
G36*
X42250000Y-104500000D02*
G01*
X42250000Y-104500000D01*
G75*
G02*
X43250000Y-105500000I0J-1000000D01*
G01*
X43250000Y-107000000D01*
G75*
G02*
X42250000Y-108000000I-1000000J0D01*
G01*
X38000000Y-108000000D01*
G75*
G02*
X37000000Y-107000000I0J1000000D01*
G01*
X37000000Y-105500000D01*
G75*
G02*
X38000000Y-104500000I1000000J0D01*
G01*
X42250000Y-104500000D01*
G37*
%TD.AperFunction*%
%TA.AperFunction,Conductor*%
G36*
X42250000Y-71000000D02*
G01*
X42250000Y-71000000D01*
G75*
G02*
X43250000Y-72000000I0J-1000000D01*
G01*
X43250000Y-73500000D01*
G75*
G02*
X42250000Y-74500000I-1000000J0D01*
G01*
X38000000Y-74500000D01*
G75*
G02*
X37000000Y-73500000I0J1000000D01*
G01*
X37000000Y-72000000D01*
G75*
G02*
X38000000Y-71000000I1000000J0D01*
G01*
X42250000Y-71000000D01*
G37*
%TD.AperFunction*%
%TA.AperFunction,Conductor*%
G36*
X42250000Y-54250000D02*
G01*
X42250000Y-54250000D01*
G75*
G02*
X43250000Y-55250000I0J-1000000D01*
G01*
X43250000Y-56750000D01*
G75*
G02*
X42250000Y-57750000I-1000000J0D01*
G01*
X38000000Y-57750000D01*
G75*
G02*
X37000000Y-56750000I0J1000000D01*
G01*
X37000000Y-55250000D01*
G75*
G02*
X38000000Y-54250000I1000000J0D01*
G01*
X42250000Y-54250000D01*
G37*
%TD.AperFunction*%
%TD*%
D11*
%TO.P,H4,1,1*%
%TO.N,Net-(JP5-B)*%
X96775000Y-35000000D03*
X97719581Y-32719581D03*
X97719581Y-37280419D03*
X100000000Y-31775000D03*
D12*
X100000000Y-35000000D03*
D11*
X100000000Y-38225000D03*
X102280419Y-32719581D03*
X102280419Y-37280419D03*
X103225000Y-35000000D03*
%TD*%
%TO.P,H2,1,1*%
%TO.N,Net-(JP3-B)*%
X31775000Y-115000000D03*
X32719581Y-112719581D03*
X32719581Y-117280419D03*
X35000000Y-111775000D03*
D12*
X35000000Y-115000000D03*
D11*
X35000000Y-118225000D03*
X37280419Y-112719581D03*
X37280419Y-117280419D03*
X38225000Y-115000000D03*
%TD*%
D13*
%TO.P,U1,1,GPIO0*%
%TO.N,/nFault_A*%
X70360000Y-26870000D03*
%TO.P,U1,2,GPIO1*%
%TO.N,/dcc_en_A*%
X70360000Y-29410000D03*
D14*
%TO.P,U1,3,GND*%
%TO.N,GND*%
X70360000Y-31950000D03*
D13*
%TO.P,U1,4,GPIO2*%
%TO.N,/dir_A*%
X70360000Y-34490000D03*
%TO.P,U1,5,GPIO3*%
%TO.N,/pwm_A*%
X70360000Y-37030000D03*
%TO.P,U1,6,GPIO4*%
%TO.N,/nFault_B*%
X70360000Y-39570000D03*
%TO.P,U1,7,GPIO5*%
%TO.N,/dcc_en_B*%
X70360000Y-42110000D03*
D14*
%TO.P,U1,8,GND*%
%TO.N,GND*%
X70360000Y-44650000D03*
D13*
%TO.P,U1,9,GPIO6*%
%TO.N,/dir_B*%
X70360000Y-47190000D03*
%TO.P,U1,10,GPIO7*%
%TO.N,/pwm_B*%
X70360000Y-49730000D03*
%TO.P,U1,11,GPIO8*%
%TO.N,/nFault_C*%
X70360000Y-52270000D03*
%TO.P,U1,12,GPIO9*%
%TO.N,/dcc_en_C*%
X70360000Y-54810000D03*
D14*
%TO.P,U1,13,GND*%
%TO.N,GND*%
X70360000Y-57350000D03*
D13*
%TO.P,U1,14,GPIO10*%
%TO.N,/dir_C*%
X70360000Y-59890000D03*
%TO.P,U1,15,GPIO11*%
%TO.N,/pwm_C*%
X70360000Y-62430000D03*
%TO.P,U1,16,GPIO12*%
%TO.N,/nFault_D*%
X70360000Y-64970000D03*
%TO.P,U1,17,GPIO13*%
%TO.N,/dcc_en_D*%
X70360000Y-67510000D03*
D14*
%TO.P,U1,18,GND*%
%TO.N,GND*%
X70360000Y-70050000D03*
D13*
%TO.P,U1,19,GPIO14*%
%TO.N,/dir_D*%
X70360000Y-72590000D03*
%TO.P,U1,20,GPIO15*%
%TO.N,/pwm_D*%
X70360000Y-75130000D03*
%TO.P,U1,21,GPIO16*%
%TO.N,/cantx*%
X88140000Y-75130000D03*
%TO.P,U1,22,GPIO17*%
%TO.N,/canrx*%
X88140000Y-72590000D03*
D14*
%TO.P,U1,23,GND*%
%TO.N,GND*%
X88140000Y-70050000D03*
D13*
%TO.P,U1,24,GPIO18*%
%TO.N,/i2c1_sda*%
X88140000Y-67510000D03*
%TO.P,U1,25,GPIO19*%
%TO.N,/i2c1_scl*%
X88140000Y-64970000D03*
%TO.P,U1,26,GPIO20*%
%TO.N,/i2c0_sda*%
X88140000Y-62430000D03*
%TO.P,U1,27,GPIO21*%
%TO.N,/i2c0_scl*%
X88140000Y-59890000D03*
D14*
%TO.P,U1,28,GND*%
%TO.N,GND*%
X88140000Y-57350000D03*
D13*
%TO.P,U1,29,GPIO22*%
%TO.N,/adc_sel*%
X88140000Y-54810000D03*
%TO.P,U1,30,RUN*%
%TO.N,unconnected-(U1-RUN-Pad30)_1*%
X88140000Y-52270000D03*
%TO.P,U1,31,GPIO26_ADC0*%
%TO.N,/adc0*%
X88140000Y-49730000D03*
%TO.P,U1,32,GPIO27_ADC1*%
%TO.N,/adc1*%
X88140000Y-47190000D03*
D14*
%TO.P,U1,33,AGND*%
%TO.N,GND*%
X88140000Y-44650000D03*
D13*
%TO.P,U1,34,GPIO28_ADC2*%
%TO.N,/dcc_p*%
X88140000Y-42110000D03*
%TO.P,U1,35,ADC_VREF*%
%TO.N,unconnected-(U1-ADC_VREF-Pad35)_1*%
X88140000Y-39570000D03*
%TO.P,U1,36,3V3*%
%TO.N,+3.3V*%
X88140000Y-37030000D03*
%TO.P,U1,37,3V3_EN*%
%TO.N,unconnected-(U1-3V3_EN-Pad37)_1*%
X88140000Y-34490000D03*
D14*
%TO.P,U1,38,GND*%
%TO.N,GND*%
X88140000Y-31950000D03*
D13*
%TO.P,U1,39,VSYS*%
%TO.N,unconnected-(U1-VSYS-Pad39)_1*%
X88140000Y-29410000D03*
%TO.P,U1,40,VBUS*%
%TO.N,+5V*%
X88140000Y-26870000D03*
%TO.P,U1,41,SWCLK*%
%TO.N,unconnected-(U1-SWCLK-Pad41)_1*%
X76710000Y-74900000D03*
D14*
%TO.P,U1,42,GND*%
%TO.N,unconnected-(U1-GND-Pad42)*%
X79250000Y-74900000D03*
D13*
%TO.P,U1,43,SWDIO*%
%TO.N,unconnected-(U1-SWDIO-Pad43)*%
X81790000Y-74900000D03*
%TD*%
D15*
%TO.P,J1,1,Pin_1*%
%TO.N,/raw_dcc_n*%
X28805000Y-102500000D03*
D16*
%TO.P,J1,2,Pin_2*%
%TO.N,/raw_dcc_p*%
X28805000Y-97500000D03*
%TO.P,J1,3,Pin_3*%
%TO.N,/out2_D*%
X28805000Y-92500000D03*
%TO.P,J1,4,Pin_4*%
%TO.N,/out1_D*%
X28805000Y-87500000D03*
%TO.P,J1,5,Pin_5*%
%TO.N,/out2_C*%
X28805000Y-82500000D03*
%TO.P,J1,6,Pin_6*%
%TO.N,/out1_C*%
X28805000Y-77500000D03*
%TO.P,J1,7,Pin_7*%
%TO.N,/out2_B*%
X28805000Y-72500000D03*
%TO.P,J1,8,Pin_8*%
%TO.N,/out1_B*%
X28805000Y-67500000D03*
%TO.P,J1,9,Pin_9*%
%TO.N,/out2_A*%
X28805000Y-62500000D03*
%TO.P,J1,10,Pin_10*%
%TO.N,/out1_A*%
X28805000Y-57500000D03*
%TO.P,J1,11,Pin_11*%
%TO.N,GND*%
X28805000Y-52500000D03*
%TO.P,J1,12,Pin_12*%
%TO.N,VTRACK*%
X28805000Y-47500000D03*
%TD*%
D11*
%TO.P,H3,1,1*%
%TO.N,Net-(JP4-B)*%
X96775000Y-115000000D03*
X97719581Y-112719581D03*
X97719581Y-117280419D03*
X100000000Y-111775000D03*
D12*
X100000000Y-115000000D03*
D11*
X100000000Y-118225000D03*
X102280419Y-112719581D03*
X102280419Y-117280419D03*
X103225000Y-115000000D03*
%TD*%
D17*
%TO.P,J2,1_1,1_1*%
%TO.N,/can_h+*%
X102520000Y-96843500D03*
%TO.P,J2,1_2,1_2*%
%TO.N,/can_l-*%
X100740000Y-97859500D03*
%TO.P,J2,1_3,1_3*%
%TO.N,GND*%
X102520000Y-98875500D03*
%TO.P,J2,1_4,1_4*%
%TO.N,/raw_dcc_n*%
X100740000Y-99891500D03*
%TO.P,J2,1_5,1_5*%
%TO.N,/raw_dcc_p*%
X102520000Y-100907500D03*
%TO.P,J2,1_6,1_6*%
%TO.N,/can_shield*%
X100740000Y-101923500D03*
%TO.P,J2,1_7,1_7*%
%TO.N,/pwr_n*%
X102520000Y-102939500D03*
%TO.P,J2,1_8,1_8*%
%TO.N,/pwr_p*%
X100740000Y-103955500D03*
%TO.P,J2,2_1,2_1*%
%TO.N,/can_h+*%
X102520000Y-81093500D03*
%TO.P,J2,2_2,2_2*%
%TO.N,/can_l-*%
X100740000Y-82109500D03*
%TO.P,J2,2_3,2_3*%
%TO.N,GND*%
X102520000Y-83125500D03*
%TO.P,J2,2_4,2_4*%
%TO.N,/raw_dcc_n*%
X100740000Y-84141500D03*
%TO.P,J2,2_5,2_5*%
%TO.N,/raw_dcc_p*%
X102520000Y-85157500D03*
%TO.P,J2,2_6,2_6*%
%TO.N,/can_shield*%
X100740000Y-86173500D03*
%TO.P,J2,2_7,2_7*%
%TO.N,/pwr_n*%
X102520000Y-87189500D03*
%TO.P,J2,2_8,2_8*%
%TO.N,/pwr_p*%
X100740000Y-88205500D03*
%TD*%
D11*
%TO.P,H1,1,1*%
%TO.N,Net-(JP2-B)*%
X31775000Y-35000000D03*
X32719581Y-32719581D03*
X32719581Y-37280419D03*
X35000000Y-31775000D03*
D12*
X35000000Y-35000000D03*
D11*
X35000000Y-38225000D03*
X37280419Y-32719581D03*
X37280419Y-37280419D03*
X38225000Y-35000000D03*
%TD*%
D18*
%TO.N,GND*%
X109000000Y-120750000D03*
X91750000Y-52000000D03*
X109000000Y-26000000D03*
X94750000Y-50750000D03*
X96000000Y-60250000D03*
X49750000Y-76250000D03*
X91250000Y-76750000D03*
X100750000Y-71000000D03*
X93750000Y-66250000D03*
X101500000Y-63000000D03*
X108000000Y-61500000D03*
X108000000Y-69000000D03*
X67000000Y-73250000D03*
X65500000Y-58750000D03*
X65000000Y-54250000D03*
X65000000Y-46500000D03*
X64250000Y-41250000D03*
X64250000Y-38500000D03*
X60000000Y-35250000D03*
X64500000Y-31750000D03*
X64250000Y-35750000D03*
X68250000Y-87500000D03*
X68750000Y-82000000D03*
X61500000Y-91750000D03*
X49750000Y-97500000D03*
X27250000Y-122500000D03*
X68000000Y-123750000D03*
X78500000Y-103250000D03*
X84750000Y-103750000D03*
X102250000Y-92750000D03*
X106250000Y-103750000D03*
%TO.N,+3.3V*%
X94000000Y-97750000D03*
X57000000Y-41000000D03*
X101750000Y-78250000D03*
X41643750Y-44605694D03*
X57500000Y-95250000D03*
X47500000Y-84500000D03*
X46500000Y-77750000D03*
X57500000Y-78500000D03*
X42893750Y-44605694D03*
X42869338Y-78105694D03*
X41619338Y-94855694D03*
X41619338Y-78105694D03*
X46500000Y-95000000D03*
X47500000Y-51000000D03*
X57750001Y-45000000D03*
X47500000Y-67250000D03*
X41619338Y-61355694D03*
X57250000Y-61750000D03*
X47250000Y-101000000D03*
X46250000Y-61500000D03*
X42869338Y-61355694D03*
X42869338Y-94855694D03*
X46500000Y-44750000D03*
%TO.N,GND*%
X41893750Y-48605694D03*
X41869338Y-82105694D03*
X41869338Y-98855694D03*
X40869338Y-65355694D03*
X42369338Y-98355694D03*
X55694322Y-63305678D03*
X41869338Y-97855694D03*
X41393750Y-48105694D03*
X49250000Y-46750000D03*
X41369338Y-82605694D03*
X42393750Y-48105694D03*
X49250000Y-60250000D03*
X42369338Y-81605694D03*
X41869338Y-64355694D03*
X42393750Y-49105694D03*
X40869338Y-98855694D03*
X42893750Y-48605694D03*
X41369338Y-64855694D03*
X49000000Y-86250000D03*
X41869338Y-66355694D03*
X41369338Y-99355694D03*
X42369338Y-64855694D03*
X42869338Y-65355694D03*
X49250000Y-80500000D03*
X60000000Y-85250000D03*
X42369338Y-82605694D03*
X40869338Y-82105694D03*
X40893750Y-48605694D03*
X53000000Y-101500000D03*
X42869338Y-82105694D03*
X41893750Y-47605694D03*
X41393750Y-49105694D03*
X41369338Y-81605694D03*
X41869338Y-83105694D03*
X42869338Y-98855694D03*
X53000000Y-51250000D03*
X41893750Y-49605694D03*
X41369338Y-98355694D03*
X41869338Y-99855694D03*
X41869338Y-65355694D03*
X42369338Y-65855694D03*
X53000000Y-84750000D03*
X41369338Y-65855694D03*
X42369338Y-99355694D03*
X49250000Y-56750000D03*
X41869338Y-81105694D03*
X59250000Y-78250000D03*
X59000000Y-82750000D03*
X53000000Y-67750000D03*
X104560000Y-84020500D03*
X52000000Y-73750000D03*
%TO.N,VTRACK*%
X41143750Y-55355694D03*
X41487232Y-73895181D03*
X41869338Y-106855694D03*
X40393750Y-55355694D03*
X41119338Y-88855694D03*
X41487232Y-107395181D03*
X40619338Y-104855694D03*
X40891115Y-72717772D03*
X41869338Y-90105694D03*
X41119338Y-90105694D03*
X41838088Y-105886944D03*
X40524412Y-57000000D03*
X40891115Y-106217772D03*
X40369338Y-106605694D03*
X40915527Y-55967772D03*
X40500000Y-90500000D03*
X41119338Y-72105694D03*
X40500000Y-107250000D03*
X40500000Y-73750000D03*
X41119338Y-106855694D03*
X40619338Y-71355694D03*
X41119338Y-73355694D03*
X41893750Y-56605694D03*
X41511644Y-57145181D03*
X40891115Y-89467772D03*
X41838088Y-72386944D03*
X40619338Y-88105694D03*
X40369338Y-73105694D03*
X41838088Y-89136944D03*
X40369338Y-105605694D03*
X41862500Y-55636944D03*
X41487232Y-90645181D03*
X41119338Y-105605694D03*
X40369338Y-72105694D03*
X40369338Y-88855694D03*
X41143750Y-56605694D03*
X40369338Y-89855694D03*
X41869338Y-73355694D03*
X40393750Y-56355694D03*
%TO.N,/sense_A*%
X95619997Y-54000000D03*
X52435902Y-42166647D03*
%TO.N,/sense_B*%
X96500000Y-54000000D03*
X57750000Y-57000000D03*
%TO.N,/sense_C*%
X58750000Y-74500000D03*
X97157454Y-47250000D03*
%TO.N,/sense_D*%
X98144993Y-47250000D03*
X59500000Y-89500000D03*
%TO.N,+5V*%
X79000000Y-112500000D03*
X82475000Y-96305000D03*
X52500000Y-116250000D03*
%TO.N,/raw_dcc_p*%
X65750000Y-121500000D03*
X65250000Y-122000000D03*
X65250000Y-121000000D03*
X64750000Y-121500000D03*
%TO.N,/raw_dcc_n*%
X59500000Y-118250000D03*
X59500000Y-119250000D03*
X71000000Y-118250000D03*
X71000000Y-119250000D03*
X59000000Y-118750000D03*
X60000000Y-118750000D03*
X70500000Y-118750000D03*
X71500000Y-118750000D03*
%TO.N,/pwr_p*%
X105810000Y-95520500D03*
%TO.N,/pwr_n*%
X105060000Y-99270500D03*
%TO.N,/can_shield*%
X97060000Y-90770500D03*
X97060000Y-97770500D03*
%TO.N,/dcc_p*%
X65250000Y-44250000D03*
X53750000Y-49545694D03*
X53750000Y-99795694D03*
X53750000Y-66295694D03*
X47250000Y-115000000D03*
X53750000Y-83045694D03*
%TO.N,/dcc_n*%
X54829338Y-101065694D03*
X54853750Y-50815694D03*
X54829338Y-84315694D03*
X75500000Y-114000000D03*
X54829338Y-67565694D03*
%TO.N,VTRACK*%
X40643750Y-54605694D03*
%TD*%
D19*
%TO.N,/sense_B*%
X57750000Y-57000000D02*
X58630000Y-56120000D01*
X58630000Y-56120000D02*
X94461663Y-56120000D01*
X94461663Y-56120000D02*
X96500000Y-54081663D01*
X96500000Y-54081663D02*
X96500000Y-54000000D01*
D20*
%TO.N,+3.3V*%
X46250000Y-66000000D02*
X46250000Y-61500000D01*
X46250000Y-78000000D02*
X46500000Y-77750000D01*
X73000000Y-34750000D02*
X73000000Y-39750000D01*
X41619338Y-94855694D02*
X42869338Y-94855694D01*
X41619338Y-61355694D02*
X42869338Y-61355694D01*
X47875000Y-45125000D02*
X46875000Y-45125000D01*
X57500000Y-95250000D02*
X57250000Y-95000000D01*
X47250000Y-101000000D02*
X46500000Y-100250000D01*
X41619338Y-78105694D02*
X42869338Y-78105694D01*
X73000000Y-39750000D02*
X74750000Y-41500000D01*
X94000000Y-97750000D02*
X95000000Y-96750000D01*
X95000000Y-85000000D02*
X101750000Y-78250000D01*
X47500000Y-45500000D02*
X52000000Y-41000000D01*
X47500000Y-84500000D02*
X46500000Y-85500000D01*
X83670000Y-41500000D02*
X88140000Y-37030000D01*
X57000000Y-35500000D02*
X59250000Y-33250000D01*
X57750001Y-45000000D02*
X56750000Y-46000001D01*
X52000000Y-41000000D02*
X57000000Y-41000000D01*
X46500000Y-77750000D02*
X47500000Y-76750000D01*
X95000000Y-96750000D02*
X95000000Y-85000000D01*
X47500000Y-51000000D02*
X47500000Y-60250000D01*
X47500000Y-67250000D02*
X46250000Y-66000000D01*
X71500000Y-33250000D02*
X73000000Y-34750000D01*
X41643750Y-44605694D02*
X42893750Y-44605694D01*
X57500000Y-62000000D02*
X57250000Y-61750000D01*
X47500000Y-51000000D02*
X47500000Y-45500000D01*
X57000000Y-41000000D02*
X57000000Y-35500000D01*
X47500000Y-60250000D02*
X46250000Y-61500000D01*
X59250000Y-33250000D02*
X71500000Y-33250000D01*
X46500000Y-100250000D02*
X46500000Y-95000000D01*
X46500000Y-44750000D02*
X46875000Y-45125000D01*
X47500000Y-76750000D02*
X47500000Y-67250000D01*
X46250000Y-83250000D02*
X46250000Y-78000000D01*
X47500000Y-84500000D02*
X46250000Y-83250000D01*
X57250000Y-95000000D02*
X57250000Y-78750000D01*
X57250000Y-78750000D02*
X57500000Y-78500000D01*
X74750000Y-41500000D02*
X83670000Y-41500000D01*
X57500000Y-78500000D02*
X57500000Y-62000000D01*
X56750000Y-61250000D02*
X57250000Y-61750000D01*
X56750000Y-46000001D02*
X56750000Y-61250000D01*
X46500000Y-85500000D02*
X46500000Y-95000000D01*
D21*
%TO.N,GND*%
X103665000Y-83125500D02*
X102520000Y-83125500D01*
X104560000Y-84020500D02*
X103665000Y-83125500D01*
D22*
%TO.N,VTRACK*%
X37750000Y-50000000D02*
X37750000Y-103875000D01*
X35250000Y-47500000D02*
X37750000Y-50000000D01*
X40125000Y-106250000D02*
X39500000Y-106250000D01*
X28805000Y-47500000D02*
X35250000Y-47500000D01*
X37750000Y-103875000D02*
X40125000Y-106250000D01*
D19*
%TO.N,/sense_A*%
X75500000Y-45500000D02*
X81750000Y-45500000D01*
X87210000Y-50960000D02*
X92579997Y-50960000D01*
X81750000Y-45500000D02*
X87210000Y-50960000D01*
X53689255Y-43420000D02*
X73420000Y-43420000D01*
X73420000Y-43420000D02*
X75500000Y-45500000D01*
X52435902Y-42166647D02*
X53689255Y-43420000D01*
X92579997Y-50960000D02*
X95619997Y-54000000D01*
%TO.N,/sense_C*%
X97464993Y-46942461D02*
X97157454Y-47250000D01*
X58750000Y-74500000D02*
X59750000Y-74500000D01*
X97464993Y-73285007D02*
X97464993Y-46942461D01*
X65000000Y-79750000D02*
X91000000Y-79750000D01*
X91000000Y-79750000D02*
X97464993Y-73285007D01*
X59750000Y-74500000D02*
X65000000Y-79750000D01*
%TO.N,/sense_D*%
X65000000Y-84000000D02*
X88000000Y-84000000D01*
X98250000Y-47750000D02*
X98250000Y-47355007D01*
X98250000Y-73750000D02*
X98250000Y-47750000D01*
X98250000Y-47355007D02*
X98144993Y-47250000D01*
X88000000Y-84000000D02*
X98250000Y-73750000D01*
X98250000Y-47750000D02*
X98250000Y-47250000D01*
X59500000Y-89500000D02*
X65000000Y-84000000D01*
D21*
%TO.N,+5V*%
X52500000Y-116250000D02*
X77500000Y-116250000D01*
D20*
X102000000Y-75500000D02*
X93500000Y-84000000D01*
X107500000Y-75300000D02*
X107500000Y-75500000D01*
D21*
X77500000Y-116250000D02*
X79000000Y-114750000D01*
D20*
X106120000Y-26870000D02*
X109300000Y-30050000D01*
X88140000Y-26870000D02*
X106120000Y-26870000D01*
X93500000Y-84000000D02*
X93500000Y-91250000D01*
X109300000Y-30050000D02*
X109300000Y-73500000D01*
D21*
X79000000Y-114750000D02*
X79000000Y-112500000D01*
D20*
X93500000Y-91250000D02*
X88445000Y-96305000D01*
X107500000Y-75500000D02*
X102000000Y-75500000D01*
X109300000Y-73500000D02*
X107500000Y-75300000D01*
X88445000Y-96305000D02*
X82475000Y-96305000D01*
D22*
%TO.N,/raw_dcc_p*%
X80750000Y-123000000D02*
X104250000Y-123000000D01*
X108250000Y-100750000D02*
X108250000Y-97250000D01*
X108092500Y-100907500D02*
X108250000Y-100750000D01*
X108250000Y-90389471D02*
X103018029Y-85157500D01*
X104250000Y-123000000D02*
X108250000Y-119000000D01*
X31250000Y-123000000D02*
X39500000Y-123000000D01*
X26440000Y-99865000D02*
X26440000Y-118190000D01*
X28805000Y-97500000D02*
X26440000Y-99865000D01*
X79250000Y-121500000D02*
X80750000Y-123000000D01*
X39500000Y-123000000D02*
X41000000Y-121500000D01*
X26440000Y-118190000D02*
X31250000Y-123000000D01*
X102520000Y-100907500D02*
X108092500Y-100907500D01*
X41000000Y-121500000D02*
X79250000Y-121500000D01*
X108250000Y-119000000D02*
X108250000Y-90389471D01*
X103018029Y-85157500D02*
X102520000Y-85157500D01*
%TO.N,/raw_dcc_n*%
X59500000Y-118750000D02*
X59000000Y-118750000D01*
X105365000Y-112777744D02*
X105365000Y-117635000D01*
X29250000Y-102945000D02*
X28805000Y-102500000D01*
X98951000Y-85432471D02*
X100241971Y-84141500D01*
X60000000Y-118750000D02*
X71500000Y-118750000D01*
X71500000Y-118750000D02*
X71000000Y-118750000D01*
X102500000Y-120500000D02*
X82872574Y-120500000D01*
X100740000Y-99891500D02*
X100241971Y-99891500D01*
X29250000Y-116837256D02*
X29250000Y-102945000D01*
X82872574Y-120500000D02*
X81122574Y-118750000D01*
X98951000Y-106363744D02*
X105365000Y-112777744D01*
X100241971Y-84141500D02*
X100740000Y-84141500D01*
X60000000Y-118750000D02*
X39750000Y-118750000D01*
X32777744Y-120365000D02*
X29250000Y-116837256D01*
X39750000Y-118750000D02*
X38135000Y-120365000D01*
X38135000Y-120365000D02*
X32777744Y-120365000D01*
X98951000Y-98600529D02*
X98951000Y-85432471D01*
X105365000Y-117635000D02*
X102500000Y-120500000D01*
X100241971Y-99891500D02*
X98951000Y-98600529D01*
X98951000Y-98600529D02*
X98951000Y-106363744D01*
X71000000Y-118750000D02*
X70500000Y-118750000D01*
X60000000Y-118750000D02*
X59500000Y-118750000D01*
X81122574Y-118750000D02*
X71500000Y-118750000D01*
D20*
%TO.N,/pwr_p*%
X100740000Y-88205500D02*
X101960566Y-88205500D01*
X101960566Y-88205500D02*
X105810000Y-92054934D01*
X105810000Y-92054934D02*
X105810000Y-95520500D01*
%TO.N,/pwr_n*%
X105060000Y-99270500D02*
X106500000Y-97830500D01*
X106500000Y-97830500D02*
X106500000Y-91169500D01*
X106500000Y-91169500D02*
X102520000Y-87189500D01*
D21*
%TO.N,/can_shield*%
X97060000Y-97770500D02*
X97060000Y-90770500D01*
D19*
%TO.N,/dcc_p*%
X53750000Y-66000000D02*
X53750000Y-66295694D01*
X53750000Y-82750000D02*
X53750000Y-66000000D01*
X53750000Y-99500000D02*
X53750000Y-99795694D01*
X53750000Y-48165613D02*
X57665614Y-44250000D01*
X63500000Y-111000000D02*
X53750000Y-101250000D01*
X53750000Y-101250000D02*
X53750000Y-99500000D01*
X53750000Y-48165613D02*
X53750000Y-49545694D01*
X48250000Y-114000000D02*
X62750000Y-114000000D01*
X47250000Y-115000000D02*
X48250000Y-114000000D01*
X65250000Y-44250000D02*
X57665614Y-44250000D01*
X53750000Y-66000000D02*
X53750000Y-49545694D01*
X62750000Y-114000000D02*
X63500000Y-113250000D01*
X53750000Y-99500000D02*
X53750000Y-82750000D01*
X63500000Y-113250000D02*
X63500000Y-111000000D01*
X53750000Y-82750000D02*
X53750000Y-83045694D01*
%TO.N,/dcc_n*%
X54829338Y-84315694D02*
X54829338Y-101065694D01*
X54829338Y-67565694D02*
X54829338Y-84315694D01*
X54853750Y-50815694D02*
X54853750Y-67541282D01*
X75500000Y-114000000D02*
X65500000Y-114000000D01*
X54829338Y-101079338D02*
X54829338Y-101065694D01*
X65500000Y-114000000D02*
X64500000Y-113000000D01*
X64500000Y-110750000D02*
X54829338Y-101079338D01*
X64500000Y-113000000D02*
X64500000Y-110750000D01*
X54853750Y-67541282D02*
X54829338Y-67565694D01*
%TD*%
%TA.AperFunction,Conductor*%
%TO.N,GND*%
G36*
X25705703Y-119401399D02*
G01*
X25712181Y-119407431D01*
X30200828Y-123896078D01*
X30353922Y-124049172D01*
X30529081Y-124176433D01*
X30676088Y-124251337D01*
X30702932Y-124265015D01*
X30753728Y-124312990D01*
X30770523Y-124380811D01*
X30747985Y-124446946D01*
X30693270Y-124490397D01*
X30646637Y-124499500D01*
X25624500Y-124499500D01*
X25557461Y-124479815D01*
X25511706Y-124427011D01*
X25500500Y-124375500D01*
X25500500Y-119495112D01*
X25520185Y-119428073D01*
X25572989Y-119382318D01*
X25642147Y-119372374D01*
X25705703Y-119401399D01*
G37*
%TD.AperFunction*%
%TA.AperFunction,Conductor*%
G36*
X78695926Y-122895185D02*
G01*
X78716568Y-122911819D01*
X79700828Y-123896078D01*
X79853922Y-124049172D01*
X80029081Y-124176433D01*
X80176088Y-124251337D01*
X80202932Y-124265015D01*
X80253728Y-124312990D01*
X80270523Y-124380811D01*
X80247985Y-124446946D01*
X80193270Y-124490397D01*
X80146637Y-124499500D01*
X40103363Y-124499500D01*
X40036324Y-124479815D01*
X39990569Y-124427011D01*
X39980625Y-124357853D01*
X40009650Y-124294297D01*
X40047068Y-124265015D01*
X40054519Y-124261218D01*
X40220919Y-124176433D01*
X40220920Y-124176432D01*
X40396078Y-124049173D01*
X41533431Y-122911818D01*
X41594754Y-122878334D01*
X41621112Y-122875500D01*
X78628887Y-122875500D01*
X78695926Y-122895185D01*
G37*
%TD.AperFunction*%
%TA.AperFunction,Conductor*%
G36*
X109418834Y-119878930D02*
G01*
X109474767Y-119920802D01*
X109499184Y-119986266D01*
X109499500Y-119995112D01*
X109499500Y-124375500D01*
X109479815Y-124442539D01*
X109427011Y-124488294D01*
X109375500Y-124499500D01*
X104853363Y-124499500D01*
X104786324Y-124479815D01*
X104740569Y-124427011D01*
X104730625Y-124357853D01*
X104759650Y-124294297D01*
X104797068Y-124265015D01*
X104804519Y-124261218D01*
X104970919Y-124176433D01*
X104970920Y-124176432D01*
X105146078Y-124049173D01*
X109287819Y-119907430D01*
X109349142Y-119873946D01*
X109418834Y-119878930D01*
G37*
%TD.AperFunction*%
%TA.AperFunction,Conductor*%
G36*
X69635085Y-25520185D02*
G01*
X69680840Y-25572989D01*
X69690784Y-25642147D01*
X69661759Y-25705703D01*
X69639169Y-25726075D01*
X69488597Y-25831505D01*
X69321505Y-25998597D01*
X69185965Y-26192169D01*
X69185964Y-26192171D01*
X69086098Y-26406335D01*
X69086094Y-26406344D01*
X69024938Y-26634586D01*
X69024936Y-26634596D01*
X69004341Y-26869999D01*
X69004341Y-26870000D01*
X69024936Y-27105403D01*
X69024938Y-27105413D01*
X69086094Y-27333655D01*
X69086096Y-27333659D01*
X69086097Y-27333663D01*
X69185965Y-27547830D01*
X69185967Y-27547834D01*
X69321501Y-27741395D01*
X69321506Y-27741402D01*
X69488597Y-27908493D01*
X69488603Y-27908498D01*
X69674158Y-28038425D01*
X69717783Y-28093002D01*
X69724977Y-28162500D01*
X69693454Y-28224855D01*
X69674158Y-28241575D01*
X69488597Y-28371505D01*
X69321505Y-28538597D01*
X69185965Y-28732169D01*
X69185964Y-28732171D01*
X69086098Y-28946335D01*
X69086094Y-28946344D01*
X69024938Y-29174586D01*
X69024936Y-29174596D01*
X69004341Y-29409999D01*
X69004341Y-29410000D01*
X69024936Y-29645403D01*
X69024938Y-29645413D01*
X69086094Y-29873655D01*
X69086096Y-29873659D01*
X69086097Y-29873663D01*
X69185965Y-30087830D01*
X69185967Y-30087834D01*
X69264157Y-30199500D01*
X69321501Y-30281396D01*
X69321506Y-30281402D01*
X69443818Y-30403714D01*
X69477303Y-30465037D01*
X69472319Y-30534729D01*
X69430447Y-30590662D01*
X69399471Y-30607577D01*
X69267912Y-30656646D01*
X69267906Y-30656649D01*
X69152812Y-30742809D01*
X69152809Y-30742812D01*
X69066649Y-30857906D01*
X69066645Y-30857913D01*
X69016403Y-30992620D01*
X69016401Y-30992627D01*
X69010000Y-31052155D01*
X69010000Y-31700000D01*
X69915440Y-31700000D01*
X69884755Y-31753147D01*
X69850000Y-31882857D01*
X69850000Y-32017143D01*
X69884755Y-32146853D01*
X69915440Y-32200000D01*
X69010000Y-32200000D01*
X69010000Y-32425500D01*
X68990315Y-32492539D01*
X68937511Y-32538294D01*
X68886000Y-32549500D01*
X59181005Y-32549500D01*
X59045677Y-32576418D01*
X59045667Y-32576421D01*
X58918192Y-32629222D01*
X58803454Y-32705887D01*
X56455887Y-35053454D01*
X56379223Y-35168192D01*
X56326421Y-35295668D01*
X56326421Y-35295669D01*
X56326420Y-35295672D01*
X56313346Y-35361401D01*
X56313346Y-35361402D01*
X56299500Y-35431005D01*
X56299500Y-40175500D01*
X56279815Y-40242539D01*
X56227011Y-40288294D01*
X56175500Y-40299500D01*
X51931004Y-40299500D01*
X51795677Y-40326418D01*
X51795667Y-40326421D01*
X51668192Y-40379222D01*
X51553454Y-40455887D01*
X51553453Y-40455888D01*
X47621162Y-44388181D01*
X47559839Y-44421666D01*
X47533481Y-44424500D01*
X47309415Y-44424500D01*
X47242376Y-44404815D01*
X47204422Y-44366473D01*
X47129816Y-44247738D01*
X47002262Y-44120184D01*
X46849523Y-44024211D01*
X46679254Y-43964631D01*
X46679249Y-43964630D01*
X46500004Y-43944435D01*
X46499996Y-43944435D01*
X46320750Y-43964630D01*
X46320745Y-43964631D01*
X46150476Y-44024211D01*
X45997737Y-44120184D01*
X45870184Y-44247737D01*
X45774211Y-44400476D01*
X45714631Y-44570745D01*
X45714630Y-44570750D01*
X45694435Y-44749996D01*
X45694435Y-44750003D01*
X45714630Y-44929249D01*
X45714631Y-44929254D01*
X45774211Y-45099523D01*
X45859657Y-45235509D01*
X45870184Y-45252262D01*
X45997738Y-45379816D01*
X46150478Y-45475789D01*
X46253984Y-45512007D01*
X46300708Y-45541365D01*
X46366715Y-45607372D01*
X46428456Y-45669113D01*
X46543192Y-45745777D01*
X46650337Y-45790157D01*
X46670672Y-45798580D01*
X46699691Y-45804352D01*
X46761600Y-45836735D01*
X46796176Y-45897450D01*
X46799500Y-45925969D01*
X46799500Y-50574507D01*
X46780494Y-50640478D01*
X46774209Y-50650479D01*
X46714633Y-50820737D01*
X46714630Y-50820750D01*
X46694435Y-50999996D01*
X46694435Y-51000003D01*
X46714630Y-51179249D01*
X46714631Y-51179254D01*
X46774212Y-51349525D01*
X46780492Y-51359519D01*
X46799500Y-51425493D01*
X46799500Y-59908480D01*
X46779815Y-59975519D01*
X46763181Y-59996161D01*
X46050709Y-60708632D01*
X46003984Y-60737992D01*
X45900476Y-60774211D01*
X45900475Y-60774212D01*
X45747737Y-60870184D01*
X45620184Y-60997737D01*
X45524211Y-61150476D01*
X45464631Y-61320745D01*
X45464630Y-61320750D01*
X45444435Y-61499996D01*
X45444435Y-61500003D01*
X45464630Y-61679249D01*
X45464631Y-61679254D01*
X45524212Y-61849525D01*
X45530492Y-61859519D01*
X45549500Y-61925493D01*
X45549500Y-65931006D01*
X45549500Y-66068994D01*
X45549500Y-66068996D01*
X45549499Y-66068996D01*
X45576418Y-66204322D01*
X45576421Y-66204332D01*
X45629222Y-66331807D01*
X45705887Y-66446545D01*
X45705888Y-66446546D01*
X46708630Y-67449287D01*
X46737990Y-67496013D01*
X46774209Y-67599521D01*
X46780492Y-67609519D01*
X46799500Y-67675493D01*
X46799500Y-76408480D01*
X46779815Y-76475519D01*
X46763181Y-76496161D01*
X46300709Y-76958632D01*
X46253984Y-76987992D01*
X46150476Y-77024211D01*
X46150475Y-77024212D01*
X45997737Y-77120184D01*
X45870184Y-77247737D01*
X45774209Y-77400480D01*
X45737991Y-77503984D01*
X45708637Y-77550704D01*
X45705891Y-77553449D01*
X45705887Y-77553454D01*
X45629222Y-77668192D01*
X45576421Y-77795667D01*
X45576418Y-77795678D01*
X45550411Y-77926429D01*
X45550408Y-77926445D01*
X45549500Y-77931003D01*
X45549500Y-77931007D01*
X45549500Y-83181006D01*
X45549500Y-83318994D01*
X45549500Y-83318996D01*
X45549499Y-83318996D01*
X45576418Y-83454322D01*
X45576421Y-83454332D01*
X45629222Y-83581807D01*
X45705887Y-83696545D01*
X45705888Y-83696546D01*
X46421661Y-84412318D01*
X46455146Y-84473641D01*
X46450162Y-84543332D01*
X46421661Y-84587680D01*
X45955887Y-85053454D01*
X45904866Y-85129815D01*
X45904865Y-85129816D01*
X45892045Y-85149002D01*
X45879225Y-85168188D01*
X45879221Y-85168195D01*
X45826421Y-85295667D01*
X45826418Y-85295677D01*
X45799500Y-85431004D01*
X45799500Y-94574507D01*
X45780494Y-94640478D01*
X45774209Y-94650479D01*
X45714633Y-94820737D01*
X45714630Y-94820750D01*
X45694435Y-94999996D01*
X45694435Y-95000003D01*
X45714630Y-95179249D01*
X45714631Y-95179254D01*
X45774212Y-95349525D01*
X45780492Y-95359519D01*
X45799500Y-95425493D01*
X45799500Y-100181006D01*
X45799500Y-100318994D01*
X45799500Y-100318996D01*
X45799499Y-100318996D01*
X45826418Y-100454322D01*
X45826421Y-100454332D01*
X45879222Y-100581807D01*
X45955887Y-100696545D01*
X45955888Y-100696546D01*
X46458630Y-101199287D01*
X46487990Y-101246013D01*
X46524209Y-101349519D01*
X46524211Y-101349522D01*
X46620184Y-101502262D01*
X46747738Y-101629816D01*
X46900478Y-101725789D01*
X47070745Y-101785368D01*
X47070750Y-101785369D01*
X47249996Y-101805565D01*
X47250000Y-101805565D01*
X47250004Y-101805565D01*
X47429249Y-101785369D01*
X47429252Y-101785368D01*
X47429255Y-101785368D01*
X47599522Y-101725789D01*
X47752262Y-101629816D01*
X47879816Y-101502262D01*
X47975789Y-101349522D01*
X48035368Y-101179255D01*
X48036305Y-101170939D01*
X48055565Y-101000003D01*
X48055565Y-100999996D01*
X48035369Y-100820750D01*
X48035368Y-100820745D01*
X47998776Y-100716172D01*
X47975789Y-100650478D01*
X47879816Y-100497738D01*
X47752262Y-100370184D01*
X47599522Y-100274211D01*
X47599519Y-100274209D01*
X47496013Y-100237990D01*
X47449287Y-100208630D01*
X47236819Y-99996162D01*
X47203334Y-99934839D01*
X47200500Y-99908481D01*
X47200500Y-95425493D01*
X47219508Y-95359519D01*
X47225787Y-95349525D01*
X47225786Y-95349525D01*
X47225789Y-95349522D01*
X47285368Y-95179255D01*
X47285369Y-95179249D01*
X47305565Y-95000003D01*
X47305565Y-94999996D01*
X47285369Y-94820750D01*
X47285366Y-94820737D01*
X47225790Y-94650479D01*
X47219506Y-94640478D01*
X47200500Y-94574507D01*
X47200500Y-85841518D01*
X47220185Y-85774479D01*
X47236815Y-85753841D01*
X47699290Y-85291365D01*
X47746013Y-85262007D01*
X47849522Y-85225789D01*
X48002262Y-85129816D01*
X48129816Y-85002262D01*
X48225789Y-84849522D01*
X48285368Y-84679255D01*
X48286950Y-84665216D01*
X48305565Y-84500003D01*
X48305565Y-84499996D01*
X48285369Y-84320750D01*
X48285368Y-84320745D01*
X48236377Y-84180737D01*
X48225789Y-84150478D01*
X48199302Y-84108325D01*
X48129815Y-83997737D01*
X48002262Y-83870184D01*
X47849519Y-83774209D01*
X47746013Y-83737990D01*
X47699287Y-83708630D01*
X46986819Y-82996162D01*
X46953334Y-82934839D01*
X46950500Y-82908481D01*
X46950500Y-78480809D01*
X46970185Y-78413770D01*
X46997191Y-78383859D01*
X47002252Y-78379821D01*
X47002262Y-78379816D01*
X47129816Y-78252262D01*
X47225789Y-78099522D01*
X47262007Y-77996013D01*
X47291365Y-77949290D01*
X48044114Y-77196543D01*
X48120775Y-77081811D01*
X48138211Y-77039718D01*
X48159636Y-76987992D01*
X48173580Y-76954328D01*
X48200500Y-76818994D01*
X48200500Y-76681006D01*
X48200500Y-67675493D01*
X48219508Y-67609519D01*
X48225787Y-67599525D01*
X48225786Y-67599525D01*
X48225789Y-67599522D01*
X48285368Y-67429255D01*
X48302794Y-67274596D01*
X48305565Y-67250003D01*
X48305565Y-67249996D01*
X48285369Y-67070750D01*
X48285368Y-67070745D01*
X48225788Y-66900476D01*
X48129815Y-66747737D01*
X48002262Y-66620184D01*
X47849519Y-66524209D01*
X47746013Y-66487990D01*
X47699287Y-66458630D01*
X46986819Y-65746162D01*
X46953334Y-65684839D01*
X46950500Y-65658481D01*
X46950500Y-61925493D01*
X46969508Y-61859519D01*
X46975787Y-61849526D01*
X46975789Y-61849521D01*
X47012007Y-61746013D01*
X47041365Y-61699290D01*
X48044114Y-60696543D01*
X48120775Y-60581811D01*
X48125533Y-60570326D01*
X48173578Y-60454332D01*
X48173580Y-60454328D01*
X48193604Y-60353663D01*
X48200500Y-60318996D01*
X48200500Y-51425493D01*
X48219508Y-51359519D01*
X48225787Y-51349525D01*
X48225786Y-51349525D01*
X48225789Y-51349522D01*
X48285368Y-51179255D01*
X48286950Y-51165216D01*
X48305565Y-51000003D01*
X48305565Y-50999996D01*
X48285369Y-50820750D01*
X48285366Y-50820737D01*
X48225790Y-50650479D01*
X48219506Y-50640478D01*
X48200500Y-50574507D01*
X48200500Y-45841518D01*
X48220185Y-45774479D01*
X48236814Y-45753842D01*
X51509951Y-42480704D01*
X51571272Y-42447221D01*
X51640964Y-42452205D01*
X51696897Y-42494077D01*
X51709351Y-42514588D01*
X51710111Y-42516166D01*
X51789866Y-42643095D01*
X51806086Y-42668909D01*
X51933640Y-42796463D01*
X52086380Y-42892436D01*
X52256647Y-42952015D01*
X52343571Y-42961808D01*
X52407982Y-42988873D01*
X52417367Y-42997347D01*
X53204394Y-43784374D01*
X53204404Y-43784385D01*
X53208734Y-43788715D01*
X53208735Y-43788716D01*
X53320539Y-43900520D01*
X53396603Y-43944435D01*
X53457470Y-43979577D01*
X53610198Y-44020501D01*
X53610201Y-44020501D01*
X53775909Y-44020501D01*
X53775925Y-44020500D01*
X56746516Y-44020500D01*
X56813555Y-44040185D01*
X56859310Y-44092989D01*
X56869254Y-44162147D01*
X56840229Y-44225703D01*
X56834197Y-44232180D01*
X55085857Y-45980520D01*
X53381286Y-47685091D01*
X53269481Y-47796895D01*
X53269475Y-47796903D01*
X53228527Y-47867829D01*
X53228527Y-47867830D01*
X53190423Y-47933828D01*
X53149499Y-48086556D01*
X53149499Y-48086558D01*
X53149499Y-48254659D01*
X53149500Y-48254672D01*
X53149500Y-48963281D01*
X53129815Y-49030320D01*
X53122450Y-49040590D01*
X53120186Y-49043428D01*
X53024211Y-49196170D01*
X52964631Y-49366439D01*
X52964630Y-49366444D01*
X52944435Y-49545690D01*
X52944435Y-49545697D01*
X52964630Y-49724943D01*
X52964631Y-49724948D01*
X53024211Y-49895217D01*
X53068319Y-49965413D01*
X53119536Y-50046925D01*
X53120185Y-50047957D01*
X53122445Y-50050791D01*
X53123334Y-50052969D01*
X53123889Y-50053852D01*
X53123734Y-50053949D01*
X53148855Y-50115477D01*
X53149500Y-50128106D01*
X53149500Y-65713281D01*
X53129815Y-65780320D01*
X53122450Y-65790590D01*
X53120186Y-65793428D01*
X53024211Y-65946170D01*
X52964631Y-66116439D01*
X52964630Y-66116444D01*
X52944435Y-66295690D01*
X52944435Y-66295697D01*
X52964630Y-66474943D01*
X52964631Y-66474948D01*
X53024211Y-66645217D01*
X53120185Y-66797957D01*
X53122445Y-66800791D01*
X53123334Y-66802969D01*
X53123889Y-66803852D01*
X53123734Y-66803949D01*
X53148855Y-66865477D01*
X53149500Y-66878106D01*
X53149500Y-82463281D01*
X53129815Y-82530320D01*
X53122450Y-82540590D01*
X53120186Y-82543428D01*
X53024211Y-82696170D01*
X52964631Y-82866439D01*
X52964630Y-82866444D01*
X52944435Y-83045690D01*
X52944435Y-83045697D01*
X52964630Y-83224943D01*
X52964631Y-83224948D01*
X53024211Y-83395217D01*
X53061356Y-83454332D01*
X53118787Y-83545733D01*
X53120185Y-83547957D01*
X53122445Y-83550791D01*
X53123334Y-83552969D01*
X53123889Y-83553852D01*
X53123734Y-83553949D01*
X53148855Y-83615477D01*
X53149500Y-83628106D01*
X53149500Y-99213281D01*
X53129815Y-99280320D01*
X53122450Y-99290590D01*
X53120186Y-99293428D01*
X53024211Y-99446170D01*
X52964631Y-99616439D01*
X52964630Y-99616444D01*
X52944435Y-99795690D01*
X52944435Y-99795697D01*
X52964630Y-99974943D01*
X52964631Y-99974948D01*
X53024211Y-100145217D01*
X53120185Y-100297957D01*
X53122445Y-100300791D01*
X53123334Y-100302969D01*
X53123889Y-100303852D01*
X53123734Y-100303949D01*
X53148855Y-100365477D01*
X53149500Y-100378106D01*
X53149500Y-101163330D01*
X53149499Y-101163348D01*
X53149499Y-101329054D01*
X53149498Y-101329054D01*
X53190423Y-101481784D01*
X53190424Y-101481787D01*
X53201066Y-101500221D01*
X53201069Y-101500224D01*
X53269477Y-101618712D01*
X53269481Y-101618717D01*
X53388349Y-101737585D01*
X53388355Y-101737590D01*
X62863181Y-111212416D01*
X62896666Y-111273739D01*
X62899500Y-111300097D01*
X62899500Y-112949903D01*
X62879815Y-113016942D01*
X62863181Y-113037584D01*
X62537584Y-113363181D01*
X62476261Y-113396666D01*
X62449903Y-113399500D01*
X48336670Y-113399500D01*
X48336654Y-113399499D01*
X48329058Y-113399499D01*
X48170943Y-113399499D01*
X48094579Y-113419961D01*
X48018214Y-113440423D01*
X48018209Y-113440426D01*
X47881290Y-113519475D01*
X47881282Y-113519481D01*
X47231465Y-114169298D01*
X47170142Y-114202783D01*
X47157668Y-114204837D01*
X47070750Y-114214630D01*
X46900478Y-114274210D01*
X46747737Y-114370184D01*
X46620184Y-114497737D01*
X46524211Y-114650476D01*
X46464631Y-114820745D01*
X46464630Y-114820750D01*
X46444435Y-114999996D01*
X46444435Y-115000003D01*
X46464630Y-115179249D01*
X46464631Y-115179254D01*
X46524211Y-115349523D01*
X46548251Y-115387782D01*
X46620184Y-115502262D01*
X46747738Y-115629816D01*
X46900478Y-115725789D01*
X47044199Y-115776079D01*
X47070745Y-115785368D01*
X47070750Y-115785369D01*
X47249996Y-115805565D01*
X47250000Y-115805565D01*
X47250004Y-115805565D01*
X47429249Y-115785369D01*
X47429252Y-115785368D01*
X47429255Y-115785368D01*
X47599522Y-115725789D01*
X47752262Y-115629816D01*
X47879816Y-115502262D01*
X47975789Y-115349522D01*
X48035368Y-115179255D01*
X48045161Y-115092329D01*
X48072226Y-115027918D01*
X48080680Y-115018553D01*
X48462418Y-114636816D01*
X48523740Y-114603334D01*
X48550098Y-114600500D01*
X62663331Y-114600500D01*
X62663347Y-114600501D01*
X62670943Y-114600501D01*
X62829054Y-114600501D01*
X62829057Y-114600501D01*
X62981785Y-114559577D01*
X63031904Y-114530639D01*
X63118716Y-114480520D01*
X63230520Y-114368716D01*
X63230520Y-114368714D01*
X63240728Y-114358507D01*
X63240730Y-114358504D01*
X63868713Y-113730521D01*
X63868716Y-113730520D01*
X63980520Y-113618716D01*
X64005487Y-113575470D01*
X64056050Y-113527256D01*
X64124656Y-113514031D01*
X64189522Y-113539997D01*
X64200553Y-113549788D01*
X65131284Y-114480520D01*
X65131286Y-114480521D01*
X65131290Y-114480524D01*
X65268209Y-114559573D01*
X65268216Y-114559577D01*
X65420943Y-114600501D01*
X65420945Y-114600501D01*
X65586654Y-114600501D01*
X65586670Y-114600500D01*
X74917588Y-114600500D01*
X74984627Y-114620185D01*
X74994903Y-114627555D01*
X74997736Y-114629814D01*
X74997738Y-114629816D01*
X75150478Y-114725789D01*
X75320745Y-114785368D01*
X75320750Y-114785369D01*
X75499996Y-114805565D01*
X75500000Y-114805565D01*
X75500004Y-114805565D01*
X75679249Y-114785369D01*
X75679252Y-114785368D01*
X75679255Y-114785368D01*
X75849522Y-114725789D01*
X76002262Y-114629816D01*
X76129816Y-114502262D01*
X76225789Y-114349522D01*
X76285368Y-114179255D01*
X76305565Y-114000000D01*
X76285368Y-113820745D01*
X76225789Y-113650478D01*
X76129816Y-113497738D01*
X76002262Y-113370184D01*
X75991117Y-113363181D01*
X75849523Y-113274211D01*
X75679254Y-113214631D01*
X75679249Y-113214630D01*
X75500004Y-113194435D01*
X75499996Y-113194435D01*
X75320750Y-113214630D01*
X75320745Y-113214631D01*
X75150476Y-113274211D01*
X74997736Y-113370185D01*
X74994903Y-113372445D01*
X74992724Y-113373334D01*
X74991842Y-113373889D01*
X74991744Y-113373734D01*
X74930217Y-113398855D01*
X74917588Y-113399500D01*
X65800098Y-113399500D01*
X65733059Y-113379815D01*
X65712417Y-113363181D01*
X65136819Y-112787583D01*
X65103334Y-112726260D01*
X65100500Y-112699902D01*
X65100500Y-110670945D01*
X65100500Y-110670943D01*
X65059577Y-110518216D01*
X65059573Y-110518209D01*
X64980524Y-110381290D01*
X64980521Y-110381286D01*
X64980520Y-110381284D01*
X64868716Y-110269480D01*
X64868715Y-110269479D01*
X64864385Y-110265149D01*
X64864374Y-110265139D01*
X55661771Y-101062536D01*
X55628286Y-101001213D01*
X55626232Y-100988737D01*
X55614707Y-100886444D01*
X55614706Y-100886439D01*
X55591719Y-100820745D01*
X55555127Y-100716172D01*
X55548678Y-100705909D01*
X55470702Y-100581811D01*
X55459154Y-100563432D01*
X55459152Y-100563430D01*
X55459151Y-100563428D01*
X55456888Y-100560590D01*
X55455997Y-100558409D01*
X55455449Y-100557536D01*
X55455602Y-100557439D01*
X55430482Y-100495903D01*
X55429838Y-100483281D01*
X55429838Y-84898106D01*
X55449523Y-84831067D01*
X55456893Y-84820791D01*
X55459148Y-84817961D01*
X55459154Y-84817956D01*
X55555127Y-84665216D01*
X55614706Y-84494949D01*
X55617107Y-84473641D01*
X55634903Y-84315697D01*
X55634903Y-84315690D01*
X55614707Y-84136444D01*
X55614706Y-84136439D01*
X55566172Y-83997737D01*
X55555127Y-83966172D01*
X55459154Y-83813432D01*
X55459152Y-83813430D01*
X55459151Y-83813428D01*
X55456888Y-83810590D01*
X55455997Y-83808409D01*
X55455449Y-83807536D01*
X55455602Y-83807439D01*
X55430482Y-83745903D01*
X55429838Y-83733281D01*
X55429838Y-68148106D01*
X55449523Y-68081067D01*
X55456893Y-68070791D01*
X55459148Y-68067961D01*
X55459154Y-68067956D01*
X55555127Y-67915216D01*
X55614706Y-67744949D01*
X55629965Y-67609519D01*
X55634903Y-67565697D01*
X55634903Y-67565690D01*
X55614707Y-67386444D01*
X55614706Y-67386439D01*
X55566964Y-67250000D01*
X55555127Y-67216172D01*
X55473256Y-67085875D01*
X55454250Y-67019903D01*
X55454250Y-51398106D01*
X55473935Y-51331067D01*
X55481305Y-51320791D01*
X55483560Y-51317961D01*
X55483566Y-51317956D01*
X55579539Y-51165216D01*
X55639118Y-50994949D01*
X55641084Y-50977500D01*
X55659315Y-50815697D01*
X55659315Y-50815690D01*
X55639119Y-50636444D01*
X55639118Y-50636439D01*
X55584196Y-50479481D01*
X55579539Y-50466172D01*
X55556408Y-50429360D01*
X55512512Y-50359499D01*
X55483566Y-50313432D01*
X55356012Y-50185878D01*
X55203273Y-50089905D01*
X55033004Y-50030325D01*
X55032999Y-50030324D01*
X54853754Y-50010129D01*
X54853746Y-50010129D01*
X54674500Y-50030324D01*
X54674493Y-50030326D01*
X54637228Y-50043365D01*
X54567449Y-50046925D01*
X54506822Y-50012194D01*
X54474597Y-49950200D01*
X54479235Y-49885367D01*
X54535366Y-49724956D01*
X54535369Y-49724943D01*
X54555565Y-49545697D01*
X54555565Y-49545690D01*
X54535369Y-49366444D01*
X54535368Y-49366439D01*
X54512295Y-49300500D01*
X54475789Y-49196172D01*
X54379816Y-49043432D01*
X54379814Y-49043430D01*
X54379813Y-49043428D01*
X54377550Y-49040590D01*
X54376659Y-49038409D01*
X54376111Y-49037536D01*
X54376264Y-49037439D01*
X54351144Y-48975903D01*
X54350500Y-48963281D01*
X54350500Y-48465710D01*
X54370185Y-48398671D01*
X54386819Y-48378029D01*
X55837819Y-46927029D01*
X55899142Y-46893544D01*
X55968834Y-46898528D01*
X56024767Y-46940400D01*
X56049184Y-47005864D01*
X56049500Y-47014710D01*
X56049500Y-61181006D01*
X56049500Y-61318994D01*
X56049500Y-61318996D01*
X56049499Y-61318996D01*
X56076418Y-61454322D01*
X56076421Y-61454332D01*
X56129222Y-61581807D01*
X56205887Y-61696545D01*
X56458630Y-61949288D01*
X56487990Y-61996013D01*
X56524209Y-62099520D01*
X56583950Y-62194596D01*
X56620184Y-62252262D01*
X56747738Y-62379816D01*
X56747742Y-62379819D01*
X56752809Y-62383859D01*
X56792952Y-62441046D01*
X56799500Y-62480809D01*
X56799500Y-78074507D01*
X56780494Y-78140478D01*
X56774210Y-78150478D01*
X56737991Y-78253985D01*
X56708637Y-78300704D01*
X56705891Y-78303449D01*
X56705887Y-78303454D01*
X56629222Y-78418192D01*
X56576421Y-78545667D01*
X56576418Y-78545679D01*
X56554312Y-78656815D01*
X56554312Y-78656818D01*
X56549849Y-78679255D01*
X56549500Y-78681007D01*
X56549500Y-94931006D01*
X56549500Y-95068994D01*
X56549500Y-95068996D01*
X56549499Y-95068996D01*
X56576418Y-95204322D01*
X56576421Y-95204332D01*
X56629222Y-95331807D01*
X56705886Y-95446543D01*
X56708631Y-95449288D01*
X56737991Y-95496014D01*
X56774209Y-95599518D01*
X56774210Y-95599522D01*
X56862302Y-95739718D01*
X56870184Y-95752262D01*
X56997738Y-95879816D01*
X57150478Y-95975789D01*
X57284719Y-96022762D01*
X57320745Y-96035368D01*
X57320750Y-96035369D01*
X57499996Y-96055565D01*
X57500000Y-96055565D01*
X57500004Y-96055565D01*
X57679249Y-96035369D01*
X57679252Y-96035368D01*
X57679255Y-96035368D01*
X57849522Y-95975789D01*
X58002262Y-95879816D01*
X58129816Y-95752262D01*
X58225789Y-95599522D01*
X58285368Y-95429255D01*
X58289817Y-95389769D01*
X58305565Y-95250003D01*
X58305565Y-95249996D01*
X58285369Y-95070750D01*
X58285368Y-95070745D01*
X58225788Y-94900476D01*
X58186582Y-94838080D01*
X58129816Y-94747738D01*
X58002262Y-94620184D01*
X58002261Y-94620183D01*
X57997185Y-94616135D01*
X57957046Y-94558946D01*
X57950500Y-94519190D01*
X57950500Y-79230809D01*
X57970185Y-79163770D01*
X57997191Y-79133859D01*
X58002252Y-79129821D01*
X58002262Y-79129816D01*
X58129816Y-79002262D01*
X58225789Y-78849522D01*
X58285368Y-78679255D01*
X58285369Y-78679249D01*
X58305565Y-78500003D01*
X58305565Y-78499996D01*
X58285369Y-78320750D01*
X58285366Y-78320737D01*
X58225790Y-78150479D01*
X58219506Y-78140478D01*
X58200500Y-78074507D01*
X58200500Y-75324496D01*
X58220185Y-75257457D01*
X58272989Y-75211702D01*
X58342147Y-75201758D01*
X58390473Y-75219503D01*
X58400475Y-75225788D01*
X58570745Y-75285368D01*
X58570750Y-75285369D01*
X58749996Y-75305565D01*
X58750000Y-75305565D01*
X58750004Y-75305565D01*
X58929249Y-75285369D01*
X58929252Y-75285368D01*
X58929255Y-75285368D01*
X59099522Y-75225789D01*
X59252262Y-75129816D01*
X59252267Y-75129810D01*
X59255097Y-75127555D01*
X59257275Y-75126665D01*
X59258158Y-75126111D01*
X59258255Y-75126265D01*
X59319783Y-75101145D01*
X59332412Y-75100500D01*
X59449903Y-75100500D01*
X59516942Y-75120185D01*
X59537584Y-75136819D01*
X64515139Y-80114374D01*
X64515149Y-80114385D01*
X64519479Y-80118715D01*
X64519480Y-80118716D01*
X64631284Y-80230520D01*
X64718095Y-80280639D01*
X64718097Y-80280641D01*
X64768213Y-80309576D01*
X64768215Y-80309577D01*
X64920942Y-80350500D01*
X64920943Y-80350500D01*
X90500903Y-80350500D01*
X90567942Y-80370185D01*
X90613697Y-80422989D01*
X90623641Y-80492147D01*
X90594616Y-80555703D01*
X90588584Y-80562181D01*
X87787584Y-83363181D01*
X87726261Y-83396666D01*
X87699903Y-83399500D01*
X65086670Y-83399500D01*
X65086654Y-83399499D01*
X65079058Y-83399499D01*
X64920943Y-83399499D01*
X64844912Y-83419872D01*
X64768214Y-83440423D01*
X64768209Y-83440426D01*
X64631290Y-83519475D01*
X64631282Y-83519481D01*
X59481465Y-88669298D01*
X59420142Y-88702783D01*
X59407668Y-88704837D01*
X59320750Y-88714630D01*
X59150478Y-88774210D01*
X58997737Y-88870184D01*
X58870184Y-88997737D01*
X58774211Y-89150476D01*
X58714631Y-89320745D01*
X58714630Y-89320750D01*
X58694435Y-89499996D01*
X58694435Y-89500003D01*
X58714630Y-89679249D01*
X58714631Y-89679254D01*
X58774211Y-89849523D01*
X58813251Y-89911654D01*
X58870184Y-90002262D01*
X58997738Y-90129816D01*
X59150478Y-90225789D01*
X59320745Y-90285368D01*
X59320750Y-90285369D01*
X59499996Y-90305565D01*
X59500000Y-90305565D01*
X59500004Y-90305565D01*
X59679249Y-90285369D01*
X59679252Y-90285368D01*
X59679255Y-90285368D01*
X59849522Y-90225789D01*
X60002262Y-90129816D01*
X60129816Y-90002262D01*
X60225789Y-89849522D01*
X60285368Y-89679255D01*
X60295161Y-89592329D01*
X60322226Y-89527918D01*
X60330690Y-89518543D01*
X65212417Y-84636819D01*
X65273740Y-84603334D01*
X65300098Y-84600500D01*
X87913331Y-84600500D01*
X87913347Y-84600501D01*
X87920943Y-84600501D01*
X88079054Y-84600501D01*
X88079057Y-84600501D01*
X88231785Y-84559577D01*
X88281904Y-84530639D01*
X88368716Y-84480520D01*
X88480520Y-84368716D01*
X88480520Y-84368714D01*
X88490728Y-84358507D01*
X88490730Y-84358504D01*
X98608506Y-74240728D01*
X98608511Y-74240724D01*
X98618714Y-74230520D01*
X98618716Y-74230520D01*
X98730520Y-74118716D01*
X98746230Y-74091505D01*
X98787813Y-74019482D01*
X98787814Y-74019480D01*
X98809574Y-73981790D01*
X98809575Y-73981789D01*
X98809575Y-73981787D01*
X98809577Y-73981785D01*
X98850501Y-73829057D01*
X98850501Y-73670943D01*
X98850501Y-73663348D01*
X98850500Y-73663330D01*
X98850500Y-47667523D01*
X98868221Y-47606016D01*
X98867761Y-47605795D01*
X98869065Y-47603086D01*
X98869508Y-47601548D01*
X98870782Y-47599522D01*
X98930361Y-47429255D01*
X98930794Y-47425413D01*
X98950558Y-47250003D01*
X98950558Y-47249996D01*
X98930362Y-47070750D01*
X98930361Y-47070745D01*
X98870782Y-46900478D01*
X98774809Y-46747738D01*
X98647255Y-46620184D01*
X98494516Y-46524211D01*
X98324247Y-46464631D01*
X98324242Y-46464630D01*
X98144997Y-46444435D01*
X98144989Y-46444435D01*
X97965743Y-46464630D01*
X97965732Y-46464633D01*
X97940123Y-46473594D01*
X97870345Y-46477155D01*
X97837171Y-46463940D01*
X97815884Y-46451650D01*
X97735246Y-46405094D01*
X97735245Y-46405093D01*
X97696776Y-46382883D01*
X97640874Y-46367904D01*
X97544050Y-46341960D01*
X97385936Y-46341960D01*
X97306003Y-46363378D01*
X97233209Y-46382883D01*
X97194738Y-46405095D01*
X97194737Y-46405095D01*
X97141521Y-46435818D01*
X97093407Y-46451650D01*
X96978204Y-46464630D01*
X96807932Y-46524210D01*
X96655191Y-46620184D01*
X96527638Y-46747737D01*
X96431665Y-46900476D01*
X96372085Y-47070745D01*
X96372084Y-47070750D01*
X96351889Y-47249996D01*
X96351889Y-47250003D01*
X96372084Y-47429249D01*
X96372085Y-47429254D01*
X96431665Y-47599523D01*
X96485433Y-47685093D01*
X96527638Y-47752262D01*
X96655192Y-47879816D01*
X96806467Y-47974868D01*
X96852756Y-48027200D01*
X96864493Y-48079860D01*
X96864493Y-53104687D01*
X96844808Y-53171726D01*
X96792004Y-53217481D01*
X96722846Y-53227425D01*
X96699540Y-53221729D01*
X96679260Y-53214633D01*
X96679249Y-53214630D01*
X96500004Y-53194435D01*
X96499996Y-53194435D01*
X96320750Y-53214630D01*
X96320737Y-53214633D01*
X96150480Y-53274209D01*
X96125968Y-53289611D01*
X96058731Y-53308610D01*
X95994025Y-53289609D01*
X95969519Y-53274211D01*
X95799246Y-53214630D01*
X95712327Y-53204837D01*
X95647913Y-53177770D01*
X95638530Y-53169298D01*
X93067587Y-50598355D01*
X93067585Y-50598352D01*
X92948714Y-50479481D01*
X92948713Y-50479480D01*
X92861901Y-50429360D01*
X92861901Y-50429359D01*
X92861897Y-50429358D01*
X92811782Y-50400423D01*
X92659054Y-50359499D01*
X92500940Y-50359499D01*
X92493344Y-50359499D01*
X92493328Y-50359500D01*
X89530634Y-50359500D01*
X89463595Y-50339815D01*
X89417840Y-50287011D01*
X89407896Y-50217853D01*
X89412645Y-50198931D01*
X89412502Y-50198893D01*
X89434853Y-50115477D01*
X89475063Y-49965408D01*
X89495659Y-49730000D01*
X89475063Y-49494592D01*
X89413903Y-49266337D01*
X89314035Y-49052171D01*
X89307914Y-49043428D01*
X89178494Y-48858597D01*
X89011402Y-48691506D01*
X89011396Y-48691501D01*
X88825842Y-48561575D01*
X88782217Y-48506998D01*
X88775023Y-48437500D01*
X88806546Y-48375145D01*
X88825842Y-48358425D01*
X88848026Y-48342891D01*
X89011401Y-48228495D01*
X89178495Y-48061401D01*
X89314035Y-47867830D01*
X89413903Y-47653663D01*
X89475063Y-47425408D01*
X89495659Y-47190000D01*
X89475063Y-46954592D01*
X89413903Y-46726337D01*
X89314035Y-46512171D01*
X89287023Y-46473594D01*
X89178496Y-46318600D01*
X89131806Y-46271910D01*
X89056179Y-46196283D01*
X89022696Y-46134963D01*
X89027680Y-46065271D01*
X89069551Y-46009337D01*
X89100529Y-45992422D01*
X89232086Y-45943354D01*
X89232093Y-45943350D01*
X89347187Y-45857190D01*
X89347190Y-45857187D01*
X89433350Y-45742093D01*
X89433354Y-45742086D01*
X89483596Y-45607379D01*
X89483598Y-45607372D01*
X89489999Y-45547844D01*
X89490000Y-45547827D01*
X89490000Y-44900000D01*
X88584560Y-44900000D01*
X88615245Y-44846853D01*
X88650000Y-44717143D01*
X88650000Y-44582857D01*
X88615245Y-44453147D01*
X88584560Y-44400000D01*
X89490000Y-44400000D01*
X89490000Y-43752172D01*
X89489999Y-43752155D01*
X89483598Y-43692627D01*
X89483596Y-43692620D01*
X89433354Y-43557913D01*
X89433350Y-43557906D01*
X89347190Y-43442812D01*
X89347187Y-43442809D01*
X89232093Y-43356649D01*
X89232088Y-43356646D01*
X89100528Y-43307577D01*
X89044595Y-43265705D01*
X89020178Y-43200241D01*
X89035030Y-43131968D01*
X89056175Y-43103720D01*
X89178495Y-42981401D01*
X89314035Y-42787830D01*
X89413903Y-42573663D01*
X89475063Y-42345408D01*
X89495659Y-42110000D01*
X89475063Y-41874592D01*
X89413903Y-41646337D01*
X89314035Y-41432171D01*
X89256165Y-41349523D01*
X89178494Y-41238597D01*
X89011402Y-41071506D01*
X89011396Y-41071501D01*
X88825842Y-40941575D01*
X88782217Y-40886998D01*
X88775023Y-40817500D01*
X88806546Y-40755145D01*
X88825842Y-40738425D01*
X88848026Y-40722891D01*
X89011401Y-40608495D01*
X89178495Y-40441401D01*
X89314035Y-40247830D01*
X89413903Y-40033663D01*
X89475063Y-39805408D01*
X89495659Y-39570000D01*
X89475063Y-39334592D01*
X89413903Y-39106337D01*
X89314035Y-38892171D01*
X89219364Y-38756965D01*
X89178494Y-38698597D01*
X89011402Y-38531506D01*
X89011396Y-38531501D01*
X88825842Y-38401575D01*
X88782217Y-38346998D01*
X88775023Y-38277500D01*
X88806546Y-38215145D01*
X88825842Y-38198425D01*
X88878423Y-38161607D01*
X89011401Y-38068495D01*
X89178495Y-37901401D01*
X89314035Y-37707830D01*
X89413903Y-37493663D01*
X89475063Y-37265408D01*
X89495659Y-37030000D01*
X89475063Y-36794592D01*
X89413903Y-36566337D01*
X89314035Y-36352171D01*
X89262379Y-36278397D01*
X89178494Y-36158597D01*
X89011402Y-35991506D01*
X89011396Y-35991501D01*
X88825842Y-35861575D01*
X88782217Y-35806998D01*
X88775023Y-35737500D01*
X88806546Y-35675145D01*
X88825842Y-35658425D01*
X88848026Y-35642891D01*
X89011401Y-35528495D01*
X89178495Y-35361401D01*
X89314035Y-35167830D01*
X89392298Y-34999996D01*
X95194661Y-34999996D01*
X95194661Y-35000003D01*
X95214005Y-35430737D01*
X95214006Y-35430746D01*
X95271885Y-35858027D01*
X95367830Y-36278391D01*
X95501073Y-36688472D01*
X95501076Y-36688480D01*
X95670533Y-37084947D01*
X95670537Y-37084955D01*
X95670539Y-37084958D01*
X95874863Y-37464655D01*
X95874867Y-37464661D01*
X95874867Y-37464662D01*
X96112394Y-37824501D01*
X96112404Y-37824514D01*
X96381225Y-38161607D01*
X96381235Y-38161618D01*
X96381236Y-38161619D01*
X96679210Y-38473274D01*
X97003920Y-38756965D01*
X97352753Y-39010407D01*
X97722900Y-39231560D01*
X97722903Y-39231561D01*
X97722904Y-39231562D01*
X97722906Y-39231563D01*
X98111372Y-39418639D01*
X98111386Y-39418645D01*
X98515055Y-39570144D01*
X98515059Y-39570145D01*
X98515069Y-39570149D01*
X98930711Y-39684859D01*
X99354964Y-39761850D01*
X99784409Y-39800500D01*
X99784416Y-39800500D01*
X100215584Y-39800500D01*
X100215591Y-39800500D01*
X100645036Y-39761850D01*
X101069289Y-39684859D01*
X101484931Y-39570149D01*
X101888619Y-39418643D01*
X102277100Y-39231560D01*
X102647247Y-39010407D01*
X102996080Y-38756965D01*
X103320790Y-38473274D01*
X103618764Y-38161619D01*
X103887601Y-37824507D01*
X104125137Y-37464655D01*
X104329461Y-37084958D01*
X104498926Y-36688475D01*
X104632168Y-36278397D01*
X104728115Y-35858026D01*
X104785994Y-35430747D01*
X104805339Y-35000000D01*
X104785994Y-34569253D01*
X104728115Y-34141974D01*
X104632168Y-33721603D01*
X104498926Y-33311525D01*
X104423194Y-33134341D01*
X104329466Y-32915052D01*
X104329462Y-32915044D01*
X104325337Y-32907379D01*
X104125137Y-32535345D01*
X104096881Y-32492539D01*
X103887605Y-32175498D01*
X103887595Y-32175485D01*
X103618774Y-31838392D01*
X103618762Y-31838379D01*
X103320794Y-31526730D01*
X103320793Y-31526729D01*
X103320790Y-31526726D01*
X102996080Y-31243035D01*
X102733380Y-31052172D01*
X102647256Y-30989599D01*
X102647251Y-30989596D01*
X102647247Y-30989593D01*
X102277100Y-30768440D01*
X102277095Y-30768437D01*
X102277093Y-30768436D01*
X101888627Y-30581360D01*
X101888613Y-30581354D01*
X101484944Y-30429855D01*
X101484919Y-30429847D01*
X101069295Y-30315142D01*
X100645043Y-30238151D01*
X100645040Y-30238150D01*
X100645036Y-30238150D01*
X100215591Y-30199500D01*
X99784409Y-30199500D01*
X99354964Y-30238150D01*
X99354960Y-30238150D01*
X99354956Y-30238151D01*
X98930704Y-30315142D01*
X98515080Y-30429847D01*
X98515055Y-30429855D01*
X98111386Y-30581354D01*
X98111372Y-30581360D01*
X97722906Y-30768436D01*
X97722904Y-30768437D01*
X97352743Y-30989599D01*
X97003931Y-31243026D01*
X97003914Y-31243039D01*
X96679210Y-31526726D01*
X96679205Y-31526730D01*
X96381237Y-31838379D01*
X96381225Y-31838392D01*
X96112404Y-32175485D01*
X96112394Y-32175498D01*
X95874867Y-32535337D01*
X95874867Y-32535338D01*
X95670537Y-32915044D01*
X95670533Y-32915052D01*
X95501076Y-33311519D01*
X95501073Y-33311527D01*
X95367830Y-33721608D01*
X95271885Y-34141972D01*
X95214006Y-34569253D01*
X95214005Y-34569262D01*
X95194661Y-34999996D01*
X89392298Y-34999996D01*
X89413903Y-34953663D01*
X89475063Y-34725408D01*
X89495659Y-34490000D01*
X89475063Y-34254592D01*
X89413903Y-34026337D01*
X89314035Y-33812171D01*
X89250622Y-33721608D01*
X89178496Y-33618600D01*
X89178495Y-33618599D01*
X89056179Y-33496283D01*
X89022696Y-33434963D01*
X89027680Y-33365271D01*
X89069551Y-33309337D01*
X89100529Y-33292422D01*
X89232086Y-33243354D01*
X89232093Y-33243350D01*
X89347187Y-33157190D01*
X89347190Y-33157187D01*
X89433350Y-33042093D01*
X89433354Y-33042086D01*
X89483596Y-32907379D01*
X89483598Y-32907372D01*
X89489999Y-32847844D01*
X89490000Y-32847827D01*
X89490000Y-32200000D01*
X88584560Y-32200000D01*
X88615245Y-32146853D01*
X88650000Y-32017143D01*
X88650000Y-31882857D01*
X88615245Y-31753147D01*
X88584560Y-31700000D01*
X89490000Y-31700000D01*
X89490000Y-31052172D01*
X89489999Y-31052155D01*
X89483598Y-30992627D01*
X89483596Y-30992620D01*
X89433354Y-30857913D01*
X89433350Y-30857906D01*
X89347190Y-30742812D01*
X89347187Y-30742809D01*
X89232093Y-30656649D01*
X89232088Y-30656646D01*
X89100528Y-30607577D01*
X89044595Y-30565705D01*
X89020178Y-30500241D01*
X89035030Y-30431968D01*
X89056175Y-30403720D01*
X89178495Y-30281401D01*
X89314035Y-30087830D01*
X89413903Y-29873663D01*
X89475063Y-29645408D01*
X89495659Y-29410000D01*
X89475063Y-29174592D01*
X89413903Y-28946337D01*
X89314035Y-28732171D01*
X89178495Y-28538599D01*
X89178494Y-28538597D01*
X89011402Y-28371506D01*
X89011396Y-28371501D01*
X88825842Y-28241575D01*
X88782217Y-28186998D01*
X88775023Y-28117500D01*
X88806546Y-28055145D01*
X88825842Y-28038425D01*
X88848026Y-28022891D01*
X89011401Y-27908495D01*
X89178495Y-27741401D01*
X89261136Y-27623376D01*
X89315713Y-27579752D01*
X89362711Y-27570500D01*
X105778481Y-27570500D01*
X105845520Y-27590185D01*
X105866162Y-27606819D01*
X108563181Y-30303838D01*
X108596666Y-30365161D01*
X108599500Y-30391519D01*
X108599500Y-73158481D01*
X108579815Y-73225520D01*
X108563181Y-73246162D01*
X107046162Y-74763181D01*
X106984839Y-74796666D01*
X106958481Y-74799500D01*
X101931003Y-74799500D01*
X101822590Y-74821065D01*
X101822589Y-74821065D01*
X101795671Y-74826420D01*
X101668190Y-74879224D01*
X101553454Y-74955887D01*
X92955887Y-83553454D01*
X92879223Y-83668192D01*
X92826421Y-83795668D01*
X92826421Y-83795669D01*
X92826420Y-83795672D01*
X92811599Y-83870184D01*
X92811599Y-83870185D01*
X92799500Y-83931005D01*
X92799500Y-90908481D01*
X92779815Y-90975520D01*
X92763181Y-90996162D01*
X88191162Y-95568181D01*
X88129839Y-95601666D01*
X88103481Y-95604500D01*
X82900494Y-95604500D01*
X82834523Y-95585494D01*
X82824525Y-95579212D01*
X82654254Y-95519631D01*
X82654249Y-95519630D01*
X82475004Y-95499435D01*
X82474996Y-95499435D01*
X82295750Y-95519630D01*
X82295745Y-95519631D01*
X82125476Y-95579211D01*
X81972737Y-95675184D01*
X81845184Y-95802737D01*
X81749211Y-95955476D01*
X81689631Y-96125745D01*
X81689630Y-96125750D01*
X81669435Y-96304996D01*
X81669435Y-96305003D01*
X81689630Y-96484249D01*
X81689631Y-96484254D01*
X81749211Y-96654523D01*
X81788218Y-96716602D01*
X81845184Y-96807262D01*
X81972738Y-96934816D01*
X82057367Y-96987992D01*
X82125474Y-97030787D01*
X82125478Y-97030789D01*
X82295745Y-97090368D01*
X82295750Y-97090369D01*
X82474996Y-97110565D01*
X82475000Y-97110565D01*
X82475004Y-97110565D01*
X82654249Y-97090369D01*
X82654252Y-97090368D01*
X82654255Y-97090368D01*
X82824522Y-97030789D01*
X82825488Y-97030181D01*
X82834523Y-97024506D01*
X82900494Y-97005500D01*
X88513996Y-97005500D01*
X88605040Y-96987389D01*
X88649328Y-96978580D01*
X88713069Y-96952177D01*
X88776807Y-96925777D01*
X88776808Y-96925776D01*
X88776811Y-96925775D01*
X88891543Y-96849114D01*
X94044114Y-91696543D01*
X94072397Y-91654213D01*
X94126009Y-91609408D01*
X94195334Y-91600701D01*
X94258362Y-91630855D01*
X94295082Y-91690298D01*
X94299500Y-91723104D01*
X94299500Y-96408480D01*
X94279815Y-96475519D01*
X94263181Y-96496161D01*
X93800709Y-96958632D01*
X93753984Y-96987992D01*
X93650476Y-97024211D01*
X93650475Y-97024212D01*
X93497737Y-97120184D01*
X93370184Y-97247737D01*
X93274211Y-97400476D01*
X93214631Y-97570745D01*
X93214630Y-97570750D01*
X93194435Y-97749996D01*
X93194435Y-97750003D01*
X93214630Y-97929249D01*
X93214631Y-97929254D01*
X93274211Y-98099523D01*
X93340233Y-98204595D01*
X93370184Y-98252262D01*
X93497738Y-98379816D01*
X93650478Y-98475789D01*
X93717226Y-98499145D01*
X93820745Y-98535368D01*
X93820750Y-98535369D01*
X93999996Y-98555565D01*
X94000000Y-98555565D01*
X94000004Y-98555565D01*
X94179249Y-98535369D01*
X94179252Y-98535368D01*
X94179255Y-98535368D01*
X94349522Y-98475789D01*
X94502262Y-98379816D01*
X94629816Y-98252262D01*
X94725789Y-98099522D01*
X94762007Y-97996013D01*
X94791365Y-97949290D01*
X95544114Y-97196543D01*
X95620775Y-97081811D01*
X95673580Y-96954328D01*
X95695625Y-96843501D01*
X95700500Y-96818996D01*
X95700500Y-85341518D01*
X95720185Y-85274479D01*
X95736814Y-85253842D01*
X99361451Y-81629205D01*
X99422771Y-81595722D01*
X99492463Y-81600706D01*
X99548396Y-81642578D01*
X99572813Y-81708042D01*
X99568904Y-81748980D01*
X99529499Y-81896047D01*
X99529496Y-81896061D01*
X99510823Y-82109498D01*
X99510823Y-82109501D01*
X99529496Y-82322938D01*
X99529498Y-82322949D01*
X99584948Y-82529895D01*
X99584950Y-82529899D01*
X99584951Y-82529903D01*
X99591258Y-82543428D01*
X99675501Y-82724089D01*
X99675508Y-82724100D01*
X99677439Y-82726859D01*
X99677914Y-82728268D01*
X99678210Y-82728781D01*
X99678107Y-82728840D01*
X99699761Y-82793067D01*
X99682744Y-82860833D01*
X99632153Y-82908458D01*
X99521051Y-82965067D01*
X99502925Y-82978236D01*
X99491620Y-82986451D01*
X99420919Y-83037818D01*
X99345892Y-83092327D01*
X97901827Y-84536392D01*
X97864565Y-84587680D01*
X97808232Y-84665216D01*
X97798033Y-84679254D01*
X97774567Y-84711551D01*
X97676273Y-84904461D01*
X97676272Y-84904464D01*
X97609370Y-85110372D01*
X97575500Y-85324217D01*
X97575500Y-89715514D01*
X97555815Y-89782553D01*
X97503011Y-89828308D01*
X97433853Y-89838252D01*
X97404049Y-89830076D01*
X97351835Y-89808449D01*
X97351829Y-89808447D01*
X97158543Y-89770000D01*
X97158541Y-89770000D01*
X96961459Y-89770000D01*
X96961457Y-89770000D01*
X96768170Y-89808447D01*
X96768160Y-89808450D01*
X96586092Y-89883864D01*
X96586079Y-89883871D01*
X96422218Y-89993360D01*
X96422214Y-89993363D01*
X96282863Y-90132714D01*
X96282860Y-90132718D01*
X96173371Y-90296579D01*
X96173364Y-90296592D01*
X96097950Y-90478660D01*
X96097947Y-90478670D01*
X96059500Y-90671956D01*
X96059500Y-90671959D01*
X96059500Y-97869041D01*
X96059500Y-97869043D01*
X96059499Y-97869043D01*
X96097947Y-98062329D01*
X96097950Y-98062339D01*
X96173364Y-98244407D01*
X96173371Y-98244420D01*
X96282860Y-98408281D01*
X96282863Y-98408285D01*
X96422214Y-98547636D01*
X96422218Y-98547639D01*
X96586079Y-98657128D01*
X96586092Y-98657135D01*
X96768160Y-98732549D01*
X96768165Y-98732551D01*
X96768169Y-98732551D01*
X96768170Y-98732552D01*
X96961456Y-98771000D01*
X96961459Y-98771000D01*
X97158543Y-98771000D01*
X97288582Y-98745132D01*
X97351835Y-98732551D01*
X97404047Y-98710923D01*
X97473517Y-98703455D01*
X97535996Y-98734730D01*
X97571648Y-98794819D01*
X97575500Y-98825485D01*
X97575500Y-106471996D01*
X97604058Y-106652302D01*
X97604058Y-106652303D01*
X97609369Y-106685841D01*
X97676272Y-106891750D01*
X97676273Y-106891753D01*
X97774569Y-107084666D01*
X97901821Y-107259815D01*
X97901825Y-107259820D01*
X100661569Y-110019564D01*
X100695054Y-110080887D01*
X100690070Y-110150579D01*
X100648198Y-110206512D01*
X100582734Y-110230929D01*
X100562773Y-110230746D01*
X100394247Y-110215579D01*
X100215591Y-110199500D01*
X99784409Y-110199500D01*
X99354964Y-110238150D01*
X99354960Y-110238150D01*
X99354956Y-110238151D01*
X98930704Y-110315142D01*
X98515080Y-110429847D01*
X98515055Y-110429855D01*
X98111386Y-110581354D01*
X98111372Y-110581360D01*
X97722906Y-110768436D01*
X97722904Y-110768437D01*
X97352743Y-110989599D01*
X97003931Y-111243026D01*
X97003914Y-111243039D01*
X96679210Y-111526726D01*
X96679205Y-111526730D01*
X96381237Y-111838379D01*
X96381225Y-111838392D01*
X96112404Y-112175485D01*
X96112394Y-112175498D01*
X95874867Y-112535337D01*
X95874867Y-112535338D01*
X95874864Y-112535343D01*
X95874863Y-112535345D01*
X95836653Y-112606351D01*
X95670537Y-112915044D01*
X95670533Y-112915052D01*
X95501076Y-113311519D01*
X95501073Y-113311527D01*
X95367830Y-113721608D01*
X95271885Y-114141972D01*
X95214006Y-114569253D01*
X95214005Y-114569262D01*
X95194661Y-114999996D01*
X95194661Y-115000003D01*
X95214005Y-115430737D01*
X95214006Y-115430746D01*
X95271885Y-115858027D01*
X95367830Y-116278391D01*
X95501073Y-116688472D01*
X95501076Y-116688480D01*
X95670533Y-117084947D01*
X95670537Y-117084955D01*
X95700686Y-117140980D01*
X95874863Y-117464655D01*
X95874867Y-117464661D01*
X95874867Y-117464662D01*
X96112394Y-117824501D01*
X96112404Y-117824514D01*
X96381225Y-118161607D01*
X96381237Y-118161620D01*
X96653062Y-118445926D01*
X96679210Y-118473274D01*
X97003920Y-118756965D01*
X97003930Y-118756972D01*
X97003931Y-118756973D01*
X97201041Y-118900182D01*
X97243707Y-118955512D01*
X97249686Y-119025125D01*
X97217080Y-119086920D01*
X97156242Y-119121277D01*
X97128156Y-119124500D01*
X83493687Y-119124500D01*
X83426648Y-119104815D01*
X83406006Y-119088181D01*
X82018650Y-117700825D01*
X82018645Y-117700821D01*
X81843496Y-117573569D01*
X81843495Y-117573568D01*
X81843493Y-117573567D01*
X81751602Y-117526746D01*
X81650583Y-117475273D01*
X81650577Y-117475271D01*
X81444672Y-117408370D01*
X81444615Y-117408360D01*
X81258155Y-117378828D01*
X81230828Y-117374500D01*
X78023039Y-117374500D01*
X77956000Y-117354815D01*
X77910245Y-117302011D01*
X77900301Y-117232853D01*
X77929326Y-117169297D01*
X77969128Y-117140597D01*
X77968543Y-117139502D01*
X77973902Y-117136636D01*
X77973914Y-117136632D01*
X78137782Y-117027139D01*
X78277139Y-116887782D01*
X78277139Y-116887780D01*
X78287347Y-116877573D01*
X78287348Y-116877570D01*
X79777139Y-115387782D01*
X79880229Y-115233497D01*
X79886632Y-115223914D01*
X79946633Y-115079057D01*
X79962051Y-115041836D01*
X80000500Y-114848541D01*
X80000500Y-114651460D01*
X80000500Y-112401459D01*
X80000500Y-112401456D01*
X79962052Y-112208170D01*
X79962051Y-112208169D01*
X79962051Y-112208165D01*
X79948515Y-112175485D01*
X79886635Y-112026092D01*
X79886628Y-112026079D01*
X79777139Y-111862218D01*
X79777136Y-111862214D01*
X79637785Y-111722863D01*
X79637781Y-111722860D01*
X79473920Y-111613371D01*
X79473907Y-111613364D01*
X79291839Y-111537950D01*
X79291829Y-111537947D01*
X79098543Y-111499500D01*
X79098541Y-111499500D01*
X78901459Y-111499500D01*
X78901457Y-111499500D01*
X78708170Y-111537947D01*
X78708160Y-111537950D01*
X78526092Y-111613364D01*
X78526079Y-111613371D01*
X78362218Y-111722860D01*
X78362214Y-111722863D01*
X78222863Y-111862214D01*
X78222860Y-111862218D01*
X78113371Y-112026079D01*
X78113364Y-112026092D01*
X78037950Y-112208160D01*
X78037947Y-112208170D01*
X77999500Y-112401456D01*
X77999500Y-114284217D01*
X77979815Y-114351256D01*
X77963181Y-114371898D01*
X77121899Y-115213181D01*
X77060576Y-115246666D01*
X77034218Y-115249500D01*
X52401457Y-115249500D01*
X52208170Y-115287947D01*
X52208160Y-115287950D01*
X52026092Y-115363364D01*
X52026079Y-115363371D01*
X51862218Y-115472860D01*
X51862214Y-115472863D01*
X51722863Y-115612214D01*
X51722860Y-115612218D01*
X51613371Y-115776079D01*
X51613364Y-115776092D01*
X51537950Y-115958160D01*
X51537947Y-115958170D01*
X51499500Y-116151456D01*
X51499500Y-116151459D01*
X51499500Y-116348541D01*
X51499500Y-116348543D01*
X51499499Y-116348543D01*
X51537947Y-116541829D01*
X51537950Y-116541839D01*
X51613364Y-116723907D01*
X51613371Y-116723920D01*
X51722860Y-116887781D01*
X51722863Y-116887785D01*
X51862214Y-117027136D01*
X51862218Y-117027139D01*
X52026079Y-117136628D01*
X52031456Y-117139502D01*
X52030665Y-117140980D01*
X52078813Y-117179775D01*
X52100881Y-117246068D01*
X52083605Y-117313769D01*
X52032470Y-117361381D01*
X51976960Y-117374500D01*
X39641741Y-117374500D01*
X39427901Y-117408369D01*
X39391685Y-117420136D01*
X39321844Y-117422130D01*
X39262012Y-117386048D01*
X39231185Y-117323347D01*
X39239150Y-117253933D01*
X39244167Y-117243459D01*
X39329461Y-117084958D01*
X39498926Y-116688475D01*
X39632168Y-116278397D01*
X39728115Y-115858026D01*
X39785994Y-115430747D01*
X39803460Y-115041832D01*
X39805339Y-115000003D01*
X39805339Y-114999996D01*
X39789642Y-114650478D01*
X39785994Y-114569253D01*
X39728115Y-114141974D01*
X39632168Y-113721603D01*
X39498926Y-113311525D01*
X39374500Y-113020415D01*
X39329466Y-112915052D01*
X39329462Y-112915044D01*
X39241328Y-112751264D01*
X39125137Y-112535345D01*
X38961681Y-112287719D01*
X38887605Y-112175498D01*
X38887595Y-112175485D01*
X38618774Y-111838392D01*
X38618762Y-111838379D01*
X38320794Y-111526730D01*
X38320793Y-111526729D01*
X38320790Y-111526726D01*
X38031224Y-111273739D01*
X37996085Y-111243039D01*
X37996068Y-111243026D01*
X37647256Y-110989599D01*
X37647251Y-110989596D01*
X37647247Y-110989593D01*
X37277100Y-110768440D01*
X37277095Y-110768437D01*
X37277093Y-110768436D01*
X36888627Y-110581360D01*
X36888613Y-110581354D01*
X36484944Y-110429855D01*
X36484919Y-110429847D01*
X36069295Y-110315142D01*
X35645043Y-110238151D01*
X35645040Y-110238150D01*
X35645036Y-110238150D01*
X35215591Y-110199500D01*
X34784409Y-110199500D01*
X34354964Y-110238150D01*
X34354960Y-110238150D01*
X34354956Y-110238151D01*
X33930704Y-110315142D01*
X33515080Y-110429847D01*
X33515055Y-110429855D01*
X33111386Y-110581354D01*
X33111372Y-110581360D01*
X32722906Y-110768436D01*
X32722904Y-110768437D01*
X32352743Y-110989599D01*
X32003931Y-111243026D01*
X32003914Y-111243039D01*
X31679210Y-111526726D01*
X31679205Y-111526730D01*
X31381237Y-111838379D01*
X31381225Y-111838392D01*
X31112404Y-112175485D01*
X31112394Y-112175498D01*
X30874867Y-112535337D01*
X30874861Y-112535347D01*
X30858693Y-112565393D01*
X30809590Y-112615099D01*
X30741409Y-112630368D01*
X30675797Y-112606351D01*
X30633585Y-112550674D01*
X30625500Y-112506632D01*
X30625500Y-102836747D01*
X30607026Y-102720109D01*
X30605499Y-102700711D01*
X30605499Y-101152129D01*
X30605498Y-101152123D01*
X30599091Y-101092516D01*
X30548797Y-100957671D01*
X30548793Y-100957664D01*
X30462547Y-100842455D01*
X30462544Y-100842452D01*
X30347335Y-100756206D01*
X30347328Y-100756202D01*
X30212482Y-100705908D01*
X30212483Y-100705908D01*
X30152883Y-100699501D01*
X30152881Y-100699500D01*
X30152873Y-100699500D01*
X30152865Y-100699500D01*
X27939500Y-100699500D01*
X27872461Y-100679815D01*
X27826706Y-100627011D01*
X27815500Y-100575500D01*
X27815500Y-100486111D01*
X27835185Y-100419072D01*
X27851814Y-100398434D01*
X28922642Y-99327606D01*
X28983963Y-99294123D01*
X28991820Y-99292677D01*
X29206772Y-99260280D01*
X29464641Y-99180738D01*
X29707775Y-99063651D01*
X29930741Y-98911635D01*
X30118768Y-98737172D01*
X30128557Y-98728089D01*
X30128557Y-98728087D01*
X30128561Y-98728085D01*
X30296815Y-98517102D01*
X30431743Y-98283398D01*
X30530334Y-98032195D01*
X30590383Y-97769103D01*
X30610549Y-97500000D01*
X30609723Y-97488980D01*
X30590383Y-97230898D01*
X30590382Y-97230893D01*
X30530334Y-96967805D01*
X30431743Y-96716602D01*
X30296815Y-96482898D01*
X30128561Y-96271915D01*
X30128560Y-96271914D01*
X30128557Y-96271910D01*
X29930741Y-96088365D01*
X29879457Y-96053400D01*
X29707775Y-95936349D01*
X29707769Y-95936346D01*
X29707768Y-95936345D01*
X29707767Y-95936344D01*
X29464643Y-95819263D01*
X29464645Y-95819263D01*
X29206773Y-95739720D01*
X29206767Y-95739718D01*
X28939936Y-95699500D01*
X28939929Y-95699500D01*
X28670071Y-95699500D01*
X28670063Y-95699500D01*
X28403232Y-95739718D01*
X28403226Y-95739720D01*
X28145358Y-95819262D01*
X27902230Y-95936346D01*
X27679258Y-96088365D01*
X27481442Y-96271910D01*
X27313185Y-96482898D01*
X27178258Y-96716599D01*
X27178256Y-96716603D01*
X27079666Y-96967804D01*
X27079663Y-96967813D01*
X27019618Y-97230893D01*
X27019617Y-97230900D01*
X27014205Y-97303102D01*
X26989565Y-97368482D01*
X26978233Y-97381514D01*
X25712181Y-98647567D01*
X25650858Y-98681052D01*
X25581166Y-98676068D01*
X25525233Y-98634196D01*
X25500816Y-98568732D01*
X25500500Y-98559886D01*
X25500500Y-92499995D01*
X26999451Y-92499995D01*
X26999451Y-92500004D01*
X27019616Y-92769101D01*
X27079664Y-93032188D01*
X27079666Y-93032195D01*
X27178257Y-93283398D01*
X27313185Y-93517102D01*
X27449080Y-93687509D01*
X27481442Y-93728089D01*
X27668183Y-93901358D01*
X27679259Y-93911635D01*
X27902226Y-94063651D01*
X28145359Y-94180738D01*
X28403228Y-94260280D01*
X28403229Y-94260280D01*
X28403232Y-94260281D01*
X28670063Y-94300499D01*
X28670068Y-94300499D01*
X28670071Y-94300500D01*
X28670072Y-94300500D01*
X28939928Y-94300500D01*
X28939929Y-94300500D01*
X28939936Y-94300499D01*
X29206767Y-94260281D01*
X29206768Y-94260280D01*
X29206772Y-94260280D01*
X29464641Y-94180738D01*
X29693916Y-94070325D01*
X29707767Y-94063655D01*
X29707767Y-94063654D01*
X29707775Y-94063651D01*
X29930741Y-93911635D01*
X30128561Y-93728085D01*
X30296815Y-93517102D01*
X30431743Y-93283398D01*
X30530334Y-93032195D01*
X30590383Y-92769103D01*
X30610549Y-92500000D01*
X30602789Y-92396453D01*
X30590383Y-92230898D01*
X30530335Y-91967811D01*
X30530334Y-91967805D01*
X30431743Y-91716602D01*
X30296815Y-91482898D01*
X30128561Y-91271915D01*
X30128560Y-91271914D01*
X30128557Y-91271910D01*
X29930741Y-91088365D01*
X29795504Y-90996162D01*
X29707775Y-90936349D01*
X29707769Y-90936346D01*
X29707768Y-90936345D01*
X29707767Y-90936344D01*
X29464643Y-90819263D01*
X29464645Y-90819263D01*
X29206773Y-90739720D01*
X29206767Y-90739718D01*
X28939936Y-90699500D01*
X28939929Y-90699500D01*
X28670071Y-90699500D01*
X28670063Y-90699500D01*
X28403232Y-90739718D01*
X28403226Y-90739720D01*
X28145358Y-90819262D01*
X27902230Y-90936346D01*
X27679258Y-91088365D01*
X27481442Y-91271910D01*
X27313185Y-91482898D01*
X27178258Y-91716599D01*
X27178256Y-91716603D01*
X27079666Y-91967804D01*
X27079664Y-91967811D01*
X27019616Y-92230898D01*
X26999451Y-92499995D01*
X25500500Y-92499995D01*
X25500500Y-87499995D01*
X26999451Y-87499995D01*
X26999451Y-87500004D01*
X27019616Y-87769101D01*
X27075869Y-88015559D01*
X27079666Y-88032195D01*
X27178257Y-88283398D01*
X27313185Y-88517102D01*
X27434558Y-88669298D01*
X27481442Y-88728089D01*
X27634585Y-88870184D01*
X27679259Y-88911635D01*
X27902226Y-89063651D01*
X28145359Y-89180738D01*
X28403228Y-89260280D01*
X28403229Y-89260280D01*
X28403232Y-89260281D01*
X28670063Y-89300499D01*
X28670068Y-89300499D01*
X28670071Y-89300500D01*
X28670072Y-89300500D01*
X28939928Y-89300500D01*
X28939929Y-89300500D01*
X28939936Y-89300499D01*
X29206767Y-89260281D01*
X29206768Y-89260280D01*
X29206772Y-89260280D01*
X29464641Y-89180738D01*
X29707775Y-89063651D01*
X29930741Y-88911635D01*
X30128561Y-88728085D01*
X30296815Y-88517102D01*
X30431743Y-88283398D01*
X30530334Y-88032195D01*
X30590383Y-87769103D01*
X30597105Y-87679402D01*
X30610549Y-87500004D01*
X30610549Y-87499995D01*
X30590383Y-87230898D01*
X30582335Y-87195637D01*
X30530334Y-86967805D01*
X30431743Y-86716602D01*
X30296815Y-86482898D01*
X30128561Y-86271915D01*
X30128560Y-86271914D01*
X30128557Y-86271910D01*
X29930741Y-86088365D01*
X29707775Y-85936349D01*
X29707769Y-85936346D01*
X29707768Y-85936345D01*
X29707767Y-85936344D01*
X29464643Y-85819263D01*
X29464645Y-85819263D01*
X29206773Y-85739720D01*
X29206767Y-85739718D01*
X28939936Y-85699500D01*
X28939929Y-85699500D01*
X28670071Y-85699500D01*
X28670063Y-85699500D01*
X28403232Y-85739718D01*
X28403226Y-85739720D01*
X28145358Y-85819262D01*
X27902230Y-85936346D01*
X27679258Y-86088365D01*
X27481442Y-86271910D01*
X27313185Y-86482898D01*
X27178258Y-86716599D01*
X27178256Y-86716603D01*
X27079666Y-86967804D01*
X27079664Y-86967811D01*
X27019616Y-87230898D01*
X26999451Y-87499995D01*
X25500500Y-87499995D01*
X25500500Y-82499995D01*
X26999451Y-82499995D01*
X26999451Y-82500004D01*
X27019616Y-82769101D01*
X27079664Y-83032188D01*
X27079666Y-83032195D01*
X27178257Y-83283398D01*
X27313185Y-83517102D01*
X27364786Y-83581807D01*
X27481442Y-83728089D01*
X27634584Y-83870183D01*
X27679259Y-83911635D01*
X27902226Y-84063651D01*
X28145359Y-84180738D01*
X28403228Y-84260280D01*
X28403229Y-84260280D01*
X28403232Y-84260281D01*
X28670063Y-84300499D01*
X28670068Y-84300499D01*
X28670071Y-84300500D01*
X28670072Y-84300500D01*
X28939928Y-84300500D01*
X28939929Y-84300500D01*
X29008551Y-84290157D01*
X29206767Y-84260281D01*
X29206768Y-84260280D01*
X29206772Y-84260280D01*
X29464641Y-84180738D01*
X29707775Y-84063651D01*
X29930741Y-83911635D01*
X30110778Y-83744585D01*
X30128557Y-83728089D01*
X30128557Y-83728087D01*
X30128561Y-83728085D01*
X30296815Y-83517102D01*
X30431743Y-83283398D01*
X30530334Y-83032195D01*
X30590383Y-82769103D01*
X30598896Y-82655500D01*
X30610549Y-82500004D01*
X30610549Y-82499995D01*
X30590383Y-82230898D01*
X30579831Y-82184666D01*
X30530334Y-81967805D01*
X30431743Y-81716602D01*
X30296815Y-81482898D01*
X30128561Y-81271915D01*
X30128560Y-81271914D01*
X30128557Y-81271910D01*
X29930741Y-81088365D01*
X29828023Y-81018333D01*
X29707775Y-80936349D01*
X29707769Y-80936346D01*
X29707768Y-80936345D01*
X29707767Y-80936344D01*
X29464643Y-80819263D01*
X29464645Y-80819263D01*
X29206773Y-80739720D01*
X29206767Y-80739718D01*
X28939936Y-80699500D01*
X28939929Y-80699500D01*
X28670071Y-80699500D01*
X28670063Y-80699500D01*
X28403232Y-80739718D01*
X28403226Y-80739720D01*
X28145358Y-80819262D01*
X27902230Y-80936346D01*
X27679258Y-81088365D01*
X27481442Y-81271910D01*
X27313185Y-81482898D01*
X27178258Y-81716599D01*
X27178256Y-81716603D01*
X27079666Y-81967804D01*
X27079664Y-81967811D01*
X27019616Y-82230898D01*
X26999451Y-82499995D01*
X25500500Y-82499995D01*
X25500500Y-77499995D01*
X26999451Y-77499995D01*
X26999451Y-77500004D01*
X27019616Y-77769101D01*
X27079664Y-78032188D01*
X27079666Y-78032195D01*
X27178256Y-78283396D01*
X27178258Y-78283400D01*
X27199819Y-78320745D01*
X27313185Y-78517102D01*
X27378913Y-78599522D01*
X27481442Y-78728089D01*
X27657088Y-78891063D01*
X27679259Y-78911635D01*
X27902226Y-79063651D01*
X28145359Y-79180738D01*
X28403228Y-79260280D01*
X28403229Y-79260280D01*
X28403232Y-79260281D01*
X28670063Y-79300499D01*
X28670068Y-79300499D01*
X28670071Y-79300500D01*
X28670072Y-79300500D01*
X28939928Y-79300500D01*
X28939929Y-79300500D01*
X28939936Y-79300499D01*
X29206767Y-79260281D01*
X29206768Y-79260280D01*
X29206772Y-79260280D01*
X29464641Y-79180738D01*
X29707775Y-79063651D01*
X29930741Y-78911635D01*
X30128561Y-78728085D01*
X30296815Y-78517102D01*
X30431743Y-78283398D01*
X30530334Y-78032195D01*
X30590383Y-77769103D01*
X30606544Y-77553449D01*
X30610549Y-77500004D01*
X30610549Y-77499995D01*
X30590383Y-77230898D01*
X30590383Y-77230897D01*
X30530334Y-76967805D01*
X30431743Y-76716602D01*
X30296815Y-76482898D01*
X30128561Y-76271915D01*
X30128560Y-76271914D01*
X30128557Y-76271910D01*
X29930741Y-76088365D01*
X29865832Y-76044111D01*
X29707775Y-75936349D01*
X29707769Y-75936346D01*
X29707768Y-75936345D01*
X29707767Y-75936344D01*
X29464643Y-75819263D01*
X29464645Y-75819263D01*
X29206773Y-75739720D01*
X29206767Y-75739718D01*
X28939936Y-75699500D01*
X28939929Y-75699500D01*
X28670071Y-75699500D01*
X28670063Y-75699500D01*
X28403232Y-75739718D01*
X28403226Y-75739720D01*
X28145358Y-75819262D01*
X27902230Y-75936346D01*
X27679258Y-76088365D01*
X27481442Y-76271910D01*
X27313185Y-76482898D01*
X27178258Y-76716599D01*
X27178256Y-76716603D01*
X27079666Y-76967804D01*
X27079664Y-76967811D01*
X27019616Y-77230898D01*
X26999451Y-77499995D01*
X25500500Y-77499995D01*
X25500500Y-72499995D01*
X26999451Y-72499995D01*
X26999451Y-72500004D01*
X27019616Y-72769101D01*
X27079664Y-73032188D01*
X27079666Y-73032195D01*
X27172148Y-73267834D01*
X27178257Y-73283398D01*
X27313185Y-73517102D01*
X27429813Y-73663348D01*
X27481442Y-73728089D01*
X27655516Y-73889605D01*
X27679259Y-73911635D01*
X27902226Y-74063651D01*
X28145359Y-74180738D01*
X28403228Y-74260280D01*
X28403229Y-74260280D01*
X28403232Y-74260281D01*
X28670063Y-74300499D01*
X28670068Y-74300499D01*
X28670071Y-74300500D01*
X28670072Y-74300500D01*
X28939928Y-74300500D01*
X28939929Y-74300500D01*
X29001923Y-74291156D01*
X29206767Y-74260281D01*
X29206768Y-74260280D01*
X29206772Y-74260280D01*
X29464641Y-74180738D01*
X29707775Y-74063651D01*
X29930741Y-73911635D01*
X30128561Y-73728085D01*
X30296815Y-73517102D01*
X30431743Y-73283398D01*
X30530334Y-73032195D01*
X30590383Y-72769103D01*
X30610549Y-72500000D01*
X30599652Y-72354592D01*
X30590383Y-72230898D01*
X30566517Y-72126335D01*
X30530334Y-71967805D01*
X30431743Y-71716602D01*
X30296815Y-71482898D01*
X30128561Y-71271915D01*
X30128560Y-71271914D01*
X30128557Y-71271910D01*
X29930741Y-71088365D01*
X29923203Y-71083226D01*
X29707775Y-70936349D01*
X29707769Y-70936346D01*
X29707768Y-70936345D01*
X29707767Y-70936344D01*
X29464643Y-70819263D01*
X29464645Y-70819263D01*
X29206773Y-70739720D01*
X29206767Y-70739718D01*
X28939936Y-70699500D01*
X28939929Y-70699500D01*
X28670071Y-70699500D01*
X28670063Y-70699500D01*
X28403232Y-70739718D01*
X28403226Y-70739720D01*
X28145358Y-70819262D01*
X27902230Y-70936346D01*
X27679258Y-71088365D01*
X27481442Y-71271910D01*
X27313185Y-71482898D01*
X27178258Y-71716599D01*
X27178256Y-71716603D01*
X27079666Y-71967804D01*
X27079664Y-71967811D01*
X27019616Y-72230898D01*
X26999451Y-72499995D01*
X25500500Y-72499995D01*
X25500500Y-67499995D01*
X26999451Y-67499995D01*
X26999451Y-67500004D01*
X27019616Y-67769101D01*
X27079664Y-68032188D01*
X27079666Y-68032195D01*
X27178257Y-68283398D01*
X27313185Y-68517102D01*
X27446310Y-68684035D01*
X27481442Y-68728089D01*
X27668183Y-68901358D01*
X27679259Y-68911635D01*
X27902226Y-69063651D01*
X28145359Y-69180738D01*
X28403228Y-69260280D01*
X28403229Y-69260280D01*
X28403232Y-69260281D01*
X28670063Y-69300499D01*
X28670068Y-69300499D01*
X28670071Y-69300500D01*
X28670072Y-69300500D01*
X28939928Y-69300500D01*
X28939929Y-69300500D01*
X28939936Y-69300499D01*
X29206767Y-69260281D01*
X29206768Y-69260280D01*
X29206772Y-69260280D01*
X29464641Y-69180738D01*
X29707775Y-69063651D01*
X29930741Y-68911635D01*
X30128561Y-68728085D01*
X30296815Y-68517102D01*
X30431743Y-68283398D01*
X30530334Y-68032195D01*
X30590383Y-67769103D01*
X30605626Y-67565694D01*
X30610549Y-67500004D01*
X30610549Y-67499995D01*
X30591815Y-67250003D01*
X30590383Y-67230897D01*
X30530334Y-66967805D01*
X30431743Y-66716602D01*
X30296815Y-66482898D01*
X30128561Y-66271915D01*
X30128560Y-66271914D01*
X30128557Y-66271910D01*
X29930741Y-66088365D01*
X29902329Y-66068994D01*
X29707775Y-65936349D01*
X29707769Y-65936346D01*
X29707768Y-65936345D01*
X29707767Y-65936344D01*
X29464643Y-65819263D01*
X29464645Y-65819263D01*
X29206773Y-65739720D01*
X29206767Y-65739718D01*
X28939936Y-65699500D01*
X28939929Y-65699500D01*
X28670071Y-65699500D01*
X28670063Y-65699500D01*
X28403232Y-65739718D01*
X28403226Y-65739720D01*
X28145358Y-65819262D01*
X27902230Y-65936346D01*
X27679258Y-66088365D01*
X27481442Y-66271910D01*
X27313185Y-66482898D01*
X27178258Y-66716599D01*
X27178256Y-66716603D01*
X27079666Y-66967804D01*
X27079664Y-66967811D01*
X27019616Y-67230898D01*
X26999451Y-67499995D01*
X25500500Y-67499995D01*
X25500500Y-62499995D01*
X26999451Y-62499995D01*
X26999451Y-62500004D01*
X27019616Y-62769101D01*
X27079664Y-63032188D01*
X27079666Y-63032195D01*
X27178256Y-63283396D01*
X27178258Y-63283400D01*
X27206770Y-63332784D01*
X27313185Y-63517102D01*
X27382512Y-63604035D01*
X27481442Y-63728089D01*
X27560642Y-63801575D01*
X27679259Y-63911635D01*
X27902226Y-64063651D01*
X28145359Y-64180738D01*
X28403228Y-64260280D01*
X28403229Y-64260280D01*
X28403232Y-64260281D01*
X28670063Y-64300499D01*
X28670068Y-64300499D01*
X28670071Y-64300500D01*
X28670072Y-64300500D01*
X28939928Y-64300500D01*
X28939929Y-64300500D01*
X28939936Y-64300499D01*
X29206767Y-64260281D01*
X29206768Y-64260280D01*
X29206772Y-64260280D01*
X29464641Y-64180738D01*
X29707775Y-64063651D01*
X29930741Y-63911635D01*
X30128561Y-63728085D01*
X30296815Y-63517102D01*
X30431743Y-63283398D01*
X30530334Y-63032195D01*
X30590383Y-62769103D01*
X30610549Y-62500000D01*
X30605303Y-62430000D01*
X30590383Y-62230898D01*
X30590383Y-62230897D01*
X30530334Y-61967805D01*
X30431743Y-61716602D01*
X30296815Y-61482898D01*
X30128561Y-61271915D01*
X30128560Y-61271914D01*
X30128557Y-61271910D01*
X29930741Y-61088365D01*
X29911351Y-61075145D01*
X29707775Y-60936349D01*
X29707769Y-60936346D01*
X29707768Y-60936345D01*
X29707767Y-60936344D01*
X29464643Y-60819263D01*
X29464645Y-60819263D01*
X29206773Y-60739720D01*
X29206767Y-60739718D01*
X28939936Y-60699500D01*
X28939929Y-60699500D01*
X28670071Y-60699500D01*
X28670063Y-60699500D01*
X28403232Y-60739718D01*
X28403226Y-60739720D01*
X28145358Y-60819262D01*
X27902230Y-60936346D01*
X27679258Y-61088365D01*
X27481442Y-61271910D01*
X27313185Y-61482898D01*
X27178258Y-61716599D01*
X27178256Y-61716603D01*
X27079666Y-61967804D01*
X27079664Y-61967811D01*
X27019616Y-62230898D01*
X26999451Y-62499995D01*
X25500500Y-62499995D01*
X25500500Y-57499995D01*
X26999451Y-57499995D01*
X26999451Y-57500004D01*
X27019616Y-57769101D01*
X27079664Y-58032188D01*
X27079666Y-58032195D01*
X27167247Y-58255347D01*
X27178257Y-58283398D01*
X27313185Y-58517102D01*
X27413865Y-58643350D01*
X27481442Y-58728089D01*
X27596626Y-58834963D01*
X27679259Y-58911635D01*
X27902226Y-59063651D01*
X28145359Y-59180738D01*
X28403228Y-59260280D01*
X28403229Y-59260280D01*
X28403232Y-59260281D01*
X28670063Y-59300499D01*
X28670068Y-59300499D01*
X28670071Y-59300500D01*
X28670072Y-59300500D01*
X28939928Y-59300500D01*
X28939929Y-59300500D01*
X28939936Y-59300499D01*
X29206767Y-59260281D01*
X29206768Y-59260280D01*
X29206772Y-59260280D01*
X29464641Y-59180738D01*
X29707775Y-59063651D01*
X29930741Y-58911635D01*
X30088484Y-58765271D01*
X30128557Y-58728089D01*
X30128557Y-58728087D01*
X30128561Y-58728085D01*
X30296815Y-58517102D01*
X30431743Y-58283398D01*
X30530334Y-58032195D01*
X30590383Y-57769103D01*
X30610296Y-57503377D01*
X30610549Y-57500004D01*
X30610549Y-57499995D01*
X30593744Y-57275747D01*
X30590383Y-57230897D01*
X30530334Y-56967805D01*
X30431743Y-56716602D01*
X30296815Y-56482898D01*
X30128561Y-56271915D01*
X30128560Y-56271914D01*
X30128557Y-56271910D01*
X29930741Y-56088365D01*
X29707775Y-55936349D01*
X29707769Y-55936346D01*
X29707768Y-55936345D01*
X29707767Y-55936344D01*
X29464643Y-55819263D01*
X29464645Y-55819263D01*
X29206773Y-55739720D01*
X29206767Y-55739718D01*
X28939936Y-55699500D01*
X28939929Y-55699500D01*
X28670071Y-55699500D01*
X28670063Y-55699500D01*
X28403232Y-55739718D01*
X28403226Y-55739720D01*
X28145358Y-55819262D01*
X27902230Y-55936346D01*
X27679258Y-56088365D01*
X27481442Y-56271910D01*
X27313185Y-56482898D01*
X27178258Y-56716599D01*
X27178256Y-56716603D01*
X27079666Y-56967804D01*
X27079664Y-56967811D01*
X27019616Y-57230898D01*
X26999451Y-57499995D01*
X25500500Y-57499995D01*
X25500500Y-52499995D01*
X26999953Y-52499995D01*
X26999953Y-52500004D01*
X27020113Y-52769026D01*
X27020113Y-52769028D01*
X27080142Y-53032033D01*
X27080148Y-53032052D01*
X27178709Y-53283181D01*
X27178708Y-53283181D01*
X27313602Y-53516822D01*
X27367294Y-53584151D01*
X27367295Y-53584151D01*
X28203958Y-52747488D01*
X28228978Y-52807890D01*
X28300112Y-52914351D01*
X28390649Y-53004888D01*
X28497110Y-53076022D01*
X28557510Y-53101041D01*
X27719848Y-53938702D01*
X27902483Y-54063220D01*
X27902485Y-54063221D01*
X28145539Y-54180269D01*
X28145537Y-54180269D01*
X28403337Y-54259790D01*
X28403343Y-54259792D01*
X28670101Y-54299999D01*
X28670110Y-54300000D01*
X28939890Y-54300000D01*
X28939898Y-54299999D01*
X29206656Y-54259792D01*
X29206662Y-54259790D01*
X29464461Y-54180269D01*
X29707521Y-54063218D01*
X29890150Y-53938702D01*
X29052488Y-53101041D01*
X29112890Y-53076022D01*
X29219351Y-53004888D01*
X29309888Y-52914351D01*
X29381022Y-52807890D01*
X29406041Y-52747488D01*
X30242703Y-53584151D01*
X30242704Y-53584150D01*
X30296393Y-53516828D01*
X30296400Y-53516817D01*
X30431290Y-53283181D01*
X30529851Y-53032052D01*
X30529857Y-53032033D01*
X30589886Y-52769028D01*
X30589886Y-52769026D01*
X30610047Y-52500004D01*
X30610047Y-52499995D01*
X30589886Y-52230973D01*
X30589886Y-52230971D01*
X30529857Y-51967966D01*
X30529851Y-51967947D01*
X30431290Y-51716818D01*
X30431291Y-51716818D01*
X30296397Y-51483177D01*
X30242704Y-51415847D01*
X29406041Y-52252510D01*
X29381022Y-52192110D01*
X29309888Y-52085649D01*
X29219351Y-51995112D01*
X29112890Y-51923978D01*
X29052488Y-51898958D01*
X29890150Y-51061296D01*
X29707517Y-50936779D01*
X29707516Y-50936778D01*
X29464460Y-50819730D01*
X29464462Y-50819730D01*
X29206662Y-50740209D01*
X29206656Y-50740207D01*
X28939898Y-50700000D01*
X28670101Y-50700000D01*
X28403343Y-50740207D01*
X28403337Y-50740209D01*
X28145538Y-50819730D01*
X27902485Y-50936778D01*
X27902476Y-50936783D01*
X27719848Y-51061296D01*
X28557511Y-51898958D01*
X28497110Y-51923978D01*
X28390649Y-51995112D01*
X28300112Y-52085649D01*
X28228978Y-52192110D01*
X28203958Y-52252511D01*
X27367295Y-51415848D01*
X27313600Y-51483180D01*
X27178709Y-51716818D01*
X27080148Y-51967947D01*
X27080142Y-51967966D01*
X27020113Y-52230971D01*
X27020113Y-52230973D01*
X26999953Y-52499995D01*
X25500500Y-52499995D01*
X25500500Y-47499995D01*
X26999451Y-47499995D01*
X26999451Y-47500004D01*
X27019616Y-47769101D01*
X27079664Y-48032188D01*
X27079666Y-48032195D01*
X27166977Y-48254659D01*
X27178257Y-48283398D01*
X27313185Y-48517102D01*
X27449080Y-48687509D01*
X27481442Y-48728089D01*
X27640315Y-48875500D01*
X27679259Y-48911635D01*
X27902226Y-49063651D01*
X28145359Y-49180738D01*
X28403228Y-49260280D01*
X28403229Y-49260280D01*
X28403232Y-49260281D01*
X28670063Y-49300499D01*
X28670068Y-49300499D01*
X28670071Y-49300500D01*
X28670072Y-49300500D01*
X28939928Y-49300500D01*
X28939929Y-49300500D01*
X28939936Y-49300499D01*
X29206767Y-49260281D01*
X29206768Y-49260280D01*
X29206772Y-49260280D01*
X29464641Y-49180738D01*
X29707775Y-49063651D01*
X29930741Y-48911635D01*
X29930745Y-48911630D01*
X29930748Y-48911629D01*
X29930749Y-48911628D01*
X29934010Y-48908603D01*
X29996541Y-48877433D01*
X30018352Y-48875500D01*
X34628887Y-48875500D01*
X34695926Y-48895185D01*
X34716568Y-48911819D01*
X36338181Y-50533432D01*
X36371666Y-50594755D01*
X36374500Y-50621113D01*
X36374500Y-103983254D01*
X36382010Y-104030666D01*
X36392128Y-104094550D01*
X36408370Y-104197098D01*
X36475272Y-104403006D01*
X36475273Y-104403009D01*
X36567103Y-104583232D01*
X36573567Y-104595919D01*
X36644651Y-104693759D01*
X36668131Y-104759564D01*
X36653693Y-104825093D01*
X36648925Y-104834012D01*
X36648921Y-104834022D01*
X36573724Y-105015559D01*
X36544954Y-105110404D01*
X36544951Y-105110415D01*
X36506623Y-105303106D01*
X36506620Y-105303128D01*
X36497059Y-105389366D01*
X36497059Y-105389371D01*
X36497058Y-105389379D01*
X36494652Y-105487603D01*
X36494500Y-105500032D01*
X36494500Y-106999967D01*
X36494652Y-107012396D01*
X36497058Y-107110620D01*
X36497058Y-107110626D01*
X36497059Y-107110634D01*
X36504211Y-107175146D01*
X36506619Y-107196865D01*
X36506623Y-107196893D01*
X36544951Y-107389584D01*
X36544954Y-107389595D01*
X36573724Y-107484440D01*
X36648921Y-107665979D01*
X36648923Y-107665984D01*
X36648924Y-107665985D01*
X36695637Y-107753377D01*
X36695642Y-107753385D01*
X36695647Y-107753393D01*
X36804798Y-107916750D01*
X36804815Y-107916773D01*
X36867681Y-107993375D01*
X37006624Y-108132318D01*
X37006629Y-108132322D01*
X37006630Y-108132323D01*
X37083232Y-108195189D01*
X37083239Y-108195194D01*
X37083249Y-108195201D01*
X37246606Y-108304352D01*
X37246609Y-108304354D01*
X37246623Y-108304363D01*
X37334015Y-108351076D01*
X37334020Y-108351078D01*
X37515559Y-108426275D01*
X37515563Y-108426276D01*
X37515565Y-108426277D01*
X37610395Y-108455043D01*
X37610401Y-108455044D01*
X37610404Y-108455045D01*
X37610415Y-108455048D01*
X37803106Y-108493376D01*
X37803112Y-108493376D01*
X37803128Y-108493380D01*
X37889366Y-108502941D01*
X37987620Y-108505348D01*
X38000000Y-108505500D01*
X38000032Y-108505500D01*
X42249968Y-108505500D01*
X42250000Y-108505500D01*
X42262380Y-108505348D01*
X42360634Y-108502941D01*
X42446872Y-108493380D01*
X42446889Y-108493376D01*
X42446893Y-108493376D01*
X42639584Y-108455048D01*
X42639595Y-108455045D01*
X42639595Y-108455044D01*
X42639605Y-108455043D01*
X42734435Y-108426277D01*
X42915985Y-108351076D01*
X43003377Y-108304363D01*
X43166768Y-108195189D01*
X43243370Y-108132323D01*
X43382323Y-107993370D01*
X43445189Y-107916768D01*
X43554363Y-107753377D01*
X43601076Y-107665985D01*
X43676277Y-107484435D01*
X43705043Y-107389605D01*
X43705045Y-107389595D01*
X43705048Y-107389584D01*
X43743376Y-107196893D01*
X43743376Y-107196889D01*
X43743380Y-107196872D01*
X43752941Y-107110634D01*
X43755348Y-107012380D01*
X43755500Y-107000000D01*
X43755500Y-105500000D01*
X43755348Y-105487620D01*
X43752941Y-105389366D01*
X43743380Y-105303128D01*
X43719819Y-105184677D01*
X43705048Y-105110415D01*
X43705045Y-105110404D01*
X43705044Y-105110401D01*
X43705043Y-105110395D01*
X43676277Y-105015565D01*
X43645804Y-104941998D01*
X43601078Y-104834020D01*
X43601076Y-104834015D01*
X43596307Y-104825093D01*
X43554363Y-104746623D01*
X43554352Y-104746606D01*
X43445201Y-104583249D01*
X43445194Y-104583239D01*
X43445189Y-104583232D01*
X43382323Y-104506630D01*
X43382322Y-104506629D01*
X43382318Y-104506624D01*
X43243375Y-104367681D01*
X43166773Y-104304815D01*
X43166750Y-104304798D01*
X43003393Y-104195647D01*
X43003385Y-104195642D01*
X43003377Y-104195637D01*
X42918004Y-104150003D01*
X42915984Y-104148923D01*
X42915979Y-104148921D01*
X42734440Y-104073724D01*
X42639595Y-104044954D01*
X42639584Y-104044951D01*
X42446893Y-104006623D01*
X42446865Y-104006619D01*
X42423222Y-104003998D01*
X42360634Y-103997059D01*
X42360626Y-103997058D01*
X42360620Y-103997058D01*
X42262396Y-103994652D01*
X42258253Y-103994601D01*
X42250000Y-103994500D01*
X42249968Y-103994500D01*
X39866113Y-103994500D01*
X39799074Y-103974815D01*
X39778432Y-103958181D01*
X39161819Y-103341568D01*
X39128334Y-103280245D01*
X39125500Y-103253887D01*
X39125500Y-94855690D01*
X40813773Y-94855690D01*
X40813773Y-94855697D01*
X40833968Y-95034943D01*
X40833969Y-95034948D01*
X40893549Y-95205217D01*
X40973091Y-95331807D01*
X40989522Y-95357956D01*
X41117076Y-95485510D01*
X41171378Y-95519630D01*
X41269812Y-95581481D01*
X41269816Y-95581483D01*
X41440083Y-95641062D01*
X41440088Y-95641063D01*
X41619334Y-95661259D01*
X41619338Y-95661259D01*
X41619342Y-95661259D01*
X41798587Y-95641063D01*
X41798590Y-95641062D01*
X41798593Y-95641062D01*
X41968860Y-95581483D01*
X41969826Y-95580875D01*
X41978861Y-95575200D01*
X42044832Y-95556194D01*
X42443844Y-95556194D01*
X42509815Y-95575200D01*
X42519812Y-95581481D01*
X42519813Y-95581481D01*
X42519816Y-95581483D01*
X42690083Y-95641062D01*
X42690088Y-95641063D01*
X42869334Y-95661259D01*
X42869338Y-95661259D01*
X42869342Y-95661259D01*
X43048587Y-95641063D01*
X43048590Y-95641062D01*
X43048593Y-95641062D01*
X43218860Y-95581483D01*
X43371600Y-95485510D01*
X43499154Y-95357956D01*
X43595127Y-95205216D01*
X43654706Y-95034949D01*
X43654707Y-95034943D01*
X43674903Y-94855697D01*
X43674903Y-94855690D01*
X43654707Y-94676444D01*
X43654706Y-94676439D01*
X43642123Y-94640478D01*
X43595127Y-94506172D01*
X43499154Y-94353432D01*
X43371600Y-94225878D01*
X43218861Y-94129905D01*
X43048592Y-94070325D01*
X43048587Y-94070324D01*
X42869342Y-94050129D01*
X42869334Y-94050129D01*
X42690088Y-94070324D01*
X42690083Y-94070325D01*
X42519812Y-94129906D01*
X42509815Y-94136188D01*
X42443844Y-94155194D01*
X42044832Y-94155194D01*
X41978861Y-94136188D01*
X41968863Y-94129906D01*
X41798592Y-94070325D01*
X41798587Y-94070324D01*
X41619342Y-94050129D01*
X41619334Y-94050129D01*
X41440088Y-94070324D01*
X41440083Y-94070325D01*
X41269814Y-94129905D01*
X41117075Y-94225878D01*
X40989522Y-94353431D01*
X40893549Y-94506170D01*
X40833969Y-94676439D01*
X40833968Y-94676444D01*
X40813773Y-94855690D01*
X39125500Y-94855690D01*
X39125500Y-91629500D01*
X39145185Y-91562461D01*
X39197989Y-91516706D01*
X39249500Y-91505500D01*
X42249968Y-91505500D01*
X42250000Y-91505500D01*
X42262380Y-91505348D01*
X42360634Y-91502941D01*
X42446872Y-91493380D01*
X42446889Y-91493376D01*
X42446893Y-91493376D01*
X42639584Y-91455048D01*
X42639595Y-91455045D01*
X42639595Y-91455044D01*
X42639605Y-91455043D01*
X42734435Y-91426277D01*
X42915985Y-91351076D01*
X43003377Y-91304363D01*
X43166768Y-91195189D01*
X43243370Y-91132323D01*
X43382323Y-90993370D01*
X43445189Y-90916768D01*
X43554363Y-90753377D01*
X43601076Y-90665985D01*
X43676277Y-90484435D01*
X43705043Y-90389605D01*
X43705045Y-90389595D01*
X43705048Y-90389584D01*
X43743376Y-90196893D01*
X43743376Y-90196889D01*
X43743380Y-90196872D01*
X43752941Y-90110634D01*
X43755348Y-90012380D01*
X43755500Y-90000000D01*
X43755500Y-88500000D01*
X43755348Y-88487620D01*
X43752941Y-88389366D01*
X43743380Y-88303128D01*
X43739456Y-88283400D01*
X43705048Y-88110415D01*
X43705045Y-88110404D01*
X43705044Y-88110401D01*
X43705043Y-88110395D01*
X43676277Y-88015565D01*
X43601076Y-87834015D01*
X43554363Y-87746623D01*
X43554352Y-87746606D01*
X43445201Y-87583249D01*
X43445194Y-87583239D01*
X43445189Y-87583232D01*
X43382323Y-87506630D01*
X43382322Y-87506629D01*
X43382318Y-87506624D01*
X43243375Y-87367681D01*
X43166773Y-87304815D01*
X43166750Y-87304798D01*
X43003393Y-87195647D01*
X43003385Y-87195642D01*
X43003377Y-87195637D01*
X42951725Y-87168028D01*
X42915984Y-87148923D01*
X42915979Y-87148921D01*
X42734440Y-87073724D01*
X42639595Y-87044954D01*
X42639584Y-87044951D01*
X42446893Y-87006623D01*
X42446865Y-87006619D01*
X42425146Y-87004211D01*
X42360634Y-86997059D01*
X42360626Y-86997058D01*
X42360620Y-86997058D01*
X42262396Y-86994652D01*
X42258253Y-86994601D01*
X42250000Y-86994500D01*
X42249968Y-86994500D01*
X39249500Y-86994500D01*
X39182461Y-86974815D01*
X39136706Y-86922011D01*
X39125500Y-86870500D01*
X39125500Y-78105690D01*
X40813773Y-78105690D01*
X40813773Y-78105697D01*
X40833968Y-78284943D01*
X40833969Y-78284948D01*
X40893549Y-78455217D01*
X40984223Y-78599522D01*
X40989522Y-78607956D01*
X41117076Y-78735510D01*
X41143737Y-78752262D01*
X41269812Y-78831481D01*
X41269816Y-78831483D01*
X41407941Y-78879815D01*
X41440083Y-78891062D01*
X41440088Y-78891063D01*
X41619334Y-78911259D01*
X41619338Y-78911259D01*
X41619342Y-78911259D01*
X41798587Y-78891063D01*
X41798590Y-78891062D01*
X41798593Y-78891062D01*
X41968860Y-78831483D01*
X41969826Y-78830875D01*
X41978861Y-78825200D01*
X42044832Y-78806194D01*
X42443844Y-78806194D01*
X42509815Y-78825200D01*
X42519812Y-78831481D01*
X42519813Y-78831481D01*
X42519816Y-78831483D01*
X42657941Y-78879815D01*
X42690083Y-78891062D01*
X42690088Y-78891063D01*
X42869334Y-78911259D01*
X42869338Y-78911259D01*
X42869342Y-78911259D01*
X43048587Y-78891063D01*
X43048590Y-78891062D01*
X43048593Y-78891062D01*
X43218860Y-78831483D01*
X43371600Y-78735510D01*
X43499154Y-78607956D01*
X43595127Y-78455216D01*
X43654706Y-78284949D01*
X43658389Y-78252262D01*
X43674903Y-78105697D01*
X43674903Y-78105690D01*
X43654707Y-77926444D01*
X43654706Y-77926439D01*
X43608951Y-77795678D01*
X43595127Y-77756172D01*
X43499154Y-77603432D01*
X43371600Y-77475878D01*
X43321559Y-77444435D01*
X43218861Y-77379905D01*
X43048592Y-77320325D01*
X43048587Y-77320324D01*
X42869342Y-77300129D01*
X42869334Y-77300129D01*
X42690088Y-77320324D01*
X42690083Y-77320325D01*
X42519812Y-77379906D01*
X42509815Y-77386188D01*
X42443844Y-77405194D01*
X42044832Y-77405194D01*
X41978861Y-77386188D01*
X41968863Y-77379906D01*
X41798592Y-77320325D01*
X41798587Y-77320324D01*
X41619342Y-77300129D01*
X41619334Y-77300129D01*
X41440088Y-77320324D01*
X41440083Y-77320325D01*
X41269814Y-77379905D01*
X41117075Y-77475878D01*
X40989522Y-77603431D01*
X40893549Y-77756170D01*
X40833969Y-77926439D01*
X40833968Y-77926444D01*
X40813773Y-78105690D01*
X39125500Y-78105690D01*
X39125500Y-75129500D01*
X39145185Y-75062461D01*
X39197989Y-75016706D01*
X39249500Y-75005500D01*
X42249968Y-75005500D01*
X42250000Y-75005500D01*
X42262380Y-75005348D01*
X42360634Y-75002941D01*
X42446872Y-74993380D01*
X42446889Y-74993376D01*
X42446893Y-74993376D01*
X42639584Y-74955048D01*
X42639595Y-74955045D01*
X42639595Y-74955044D01*
X42639605Y-74955043D01*
X42734435Y-74926277D01*
X42915985Y-74851076D01*
X43003377Y-74804363D01*
X43166768Y-74695189D01*
X43243370Y-74632323D01*
X43382323Y-74493370D01*
X43445189Y-74416768D01*
X43554363Y-74253377D01*
X43601076Y-74165985D01*
X43676277Y-73984435D01*
X43705043Y-73889605D01*
X43705045Y-73889595D01*
X43705048Y-73889584D01*
X43743376Y-73696893D01*
X43743376Y-73696889D01*
X43743380Y-73696872D01*
X43752941Y-73610634D01*
X43755348Y-73512380D01*
X43755500Y-73500000D01*
X43755500Y-72000000D01*
X43755348Y-71987620D01*
X43752941Y-71889366D01*
X43743380Y-71803128D01*
X43743376Y-71803106D01*
X43705048Y-71610415D01*
X43705045Y-71610404D01*
X43705044Y-71610401D01*
X43705043Y-71610395D01*
X43676277Y-71515565D01*
X43655444Y-71465271D01*
X43601078Y-71334020D01*
X43601076Y-71334015D01*
X43591498Y-71316097D01*
X43554363Y-71246623D01*
X43554352Y-71246606D01*
X43445201Y-71083249D01*
X43445194Y-71083239D01*
X43445189Y-71083232D01*
X43382323Y-71006630D01*
X43382322Y-71006629D01*
X43382318Y-71006624D01*
X43243375Y-70867681D01*
X43166773Y-70804815D01*
X43166750Y-70804798D01*
X43003393Y-70695647D01*
X43003385Y-70695642D01*
X43003377Y-70695637D01*
X42951725Y-70668028D01*
X42915984Y-70648923D01*
X42915979Y-70648921D01*
X42734440Y-70573724D01*
X42639595Y-70544954D01*
X42639584Y-70544951D01*
X42446893Y-70506623D01*
X42446865Y-70506619D01*
X42425146Y-70504211D01*
X42360634Y-70497059D01*
X42360626Y-70497058D01*
X42360620Y-70497058D01*
X42262396Y-70494652D01*
X42258253Y-70494601D01*
X42250000Y-70494500D01*
X42249968Y-70494500D01*
X39249500Y-70494500D01*
X39182461Y-70474815D01*
X39136706Y-70422011D01*
X39125500Y-70370500D01*
X39125500Y-61355690D01*
X40813773Y-61355690D01*
X40813773Y-61355697D01*
X40833968Y-61534943D01*
X40833969Y-61534948D01*
X40893549Y-61705217D01*
X40950391Y-61795680D01*
X40989522Y-61857956D01*
X41117076Y-61985510D01*
X41207418Y-62042276D01*
X41269812Y-62081481D01*
X41269816Y-62081483D01*
X41321363Y-62099520D01*
X41440083Y-62141062D01*
X41440088Y-62141063D01*
X41619334Y-62161259D01*
X41619338Y-62161259D01*
X41619342Y-62161259D01*
X41798587Y-62141063D01*
X41798590Y-62141062D01*
X41798593Y-62141062D01*
X41968860Y-62081483D01*
X41969826Y-62080875D01*
X41978861Y-62075200D01*
X42044832Y-62056194D01*
X42443844Y-62056194D01*
X42509815Y-62075200D01*
X42519812Y-62081481D01*
X42519813Y-62081481D01*
X42519816Y-62081483D01*
X42690083Y-62141062D01*
X42690088Y-62141063D01*
X42869334Y-62161259D01*
X42869338Y-62161259D01*
X42869342Y-62161259D01*
X43048587Y-62141063D01*
X43048590Y-62141062D01*
X43048593Y-62141062D01*
X43218860Y-62081483D01*
X43371600Y-61985510D01*
X43499154Y-61857956D01*
X43595127Y-61705216D01*
X43654706Y-61534949D01*
X43658195Y-61503984D01*
X43674903Y-61355697D01*
X43674903Y-61355690D01*
X43654707Y-61176444D01*
X43654706Y-61176439D01*
X43641081Y-61137500D01*
X43595127Y-61006172D01*
X43591954Y-61001123D01*
X43525554Y-60895448D01*
X43499154Y-60853432D01*
X43371600Y-60725878D01*
X43329620Y-60699500D01*
X43218861Y-60629905D01*
X43048592Y-60570325D01*
X43048587Y-60570324D01*
X42869342Y-60550129D01*
X42869334Y-60550129D01*
X42690088Y-60570324D01*
X42690083Y-60570325D01*
X42519812Y-60629906D01*
X42509815Y-60636188D01*
X42443844Y-60655194D01*
X42044832Y-60655194D01*
X41978861Y-60636188D01*
X41968863Y-60629906D01*
X41798592Y-60570325D01*
X41798587Y-60570324D01*
X41619342Y-60550129D01*
X41619334Y-60550129D01*
X41440088Y-60570324D01*
X41440083Y-60570325D01*
X41269814Y-60629905D01*
X41117075Y-60725878D01*
X40989522Y-60853431D01*
X40893549Y-61006170D01*
X40833969Y-61176439D01*
X40833968Y-61176444D01*
X40813773Y-61355690D01*
X39125500Y-61355690D01*
X39125500Y-58379500D01*
X39145185Y-58312461D01*
X39197989Y-58266706D01*
X39249500Y-58255500D01*
X42249968Y-58255500D01*
X42250000Y-58255500D01*
X42262380Y-58255348D01*
X42360634Y-58252941D01*
X42446872Y-58243380D01*
X42446889Y-58243376D01*
X42446893Y-58243376D01*
X42639584Y-58205048D01*
X42639595Y-58205045D01*
X42639595Y-58205044D01*
X42639605Y-58205043D01*
X42734435Y-58176277D01*
X42915985Y-58101076D01*
X43003377Y-58054363D01*
X43166768Y-57945189D01*
X43243370Y-57882323D01*
X43382323Y-57743370D01*
X43445189Y-57666768D01*
X43554363Y-57503377D01*
X43601076Y-57415985D01*
X43676277Y-57234435D01*
X43705043Y-57139605D01*
X43705045Y-57139595D01*
X43705048Y-57139584D01*
X43743376Y-56946893D01*
X43743376Y-56946889D01*
X43743380Y-56946872D01*
X43752941Y-56860634D01*
X43755348Y-56762380D01*
X43755500Y-56750000D01*
X43755500Y-55250000D01*
X43755348Y-55237620D01*
X43752941Y-55139366D01*
X43743380Y-55053128D01*
X43743376Y-55053106D01*
X43705048Y-54860415D01*
X43705045Y-54860404D01*
X43705044Y-54860401D01*
X43705043Y-54860395D01*
X43676277Y-54765565D01*
X43601076Y-54584015D01*
X43554363Y-54496623D01*
X43456074Y-54349522D01*
X43445201Y-54333249D01*
X43445194Y-54333239D01*
X43445189Y-54333232D01*
X43382323Y-54256630D01*
X43382322Y-54256629D01*
X43382318Y-54256624D01*
X43243375Y-54117681D01*
X43166773Y-54054815D01*
X43166750Y-54054798D01*
X43003393Y-53945647D01*
X43003385Y-53945642D01*
X43003377Y-53945637D01*
X42951725Y-53918028D01*
X42915984Y-53898923D01*
X42915979Y-53898921D01*
X42734440Y-53823724D01*
X42639595Y-53794954D01*
X42639584Y-53794951D01*
X42446893Y-53756623D01*
X42446865Y-53756619D01*
X42425146Y-53754211D01*
X42360634Y-53747059D01*
X42360626Y-53747058D01*
X42360620Y-53747058D01*
X42262396Y-53744652D01*
X42258253Y-53744601D01*
X42250000Y-53744500D01*
X42249968Y-53744500D01*
X39249500Y-53744500D01*
X39182461Y-53724815D01*
X39136706Y-53672011D01*
X39125500Y-53620500D01*
X39125500Y-49891740D01*
X39091631Y-49677902D01*
X39060588Y-49582365D01*
X39024726Y-49471991D01*
X39024724Y-49471988D01*
X39024724Y-49471986D01*
X38970944Y-49366439D01*
X38926433Y-49279081D01*
X38910174Y-49256702D01*
X38799178Y-49103928D01*
X38799174Y-49103923D01*
X36146076Y-46450825D01*
X36146071Y-46450821D01*
X35970922Y-46323569D01*
X35970921Y-46323568D01*
X35970919Y-46323567D01*
X35869537Y-46271910D01*
X35778009Y-46225273D01*
X35778006Y-46225272D01*
X35572098Y-46158370D01*
X35465175Y-46141435D01*
X35358254Y-46124500D01*
X35358253Y-46124500D01*
X30018352Y-46124500D01*
X29951313Y-46104815D01*
X29934010Y-46091397D01*
X29930749Y-46088371D01*
X29930748Y-46088370D01*
X29896868Y-46065271D01*
X29707775Y-45936349D01*
X29707769Y-45936346D01*
X29707768Y-45936345D01*
X29707767Y-45936344D01*
X29464643Y-45819263D01*
X29464645Y-45819263D01*
X29206773Y-45739720D01*
X29206767Y-45739718D01*
X28939936Y-45699500D01*
X28939929Y-45699500D01*
X28670071Y-45699500D01*
X28670063Y-45699500D01*
X28403232Y-45739718D01*
X28403226Y-45739720D01*
X28145358Y-45819262D01*
X27902230Y-45936346D01*
X27679258Y-46088365D01*
X27481442Y-46271910D01*
X27313185Y-46482898D01*
X27178258Y-46716599D01*
X27178256Y-46716603D01*
X27079666Y-46967804D01*
X27079664Y-46967811D01*
X27019616Y-47230898D01*
X26999451Y-47499995D01*
X25500500Y-47499995D01*
X25500500Y-44605690D01*
X40838185Y-44605690D01*
X40838185Y-44605697D01*
X40858380Y-44784943D01*
X40858381Y-44784948D01*
X40917961Y-44955217D01*
X41008635Y-45099522D01*
X41013934Y-45107956D01*
X41141488Y-45235510D01*
X41168149Y-45252262D01*
X41294224Y-45331481D01*
X41294228Y-45331483D01*
X41432353Y-45379815D01*
X41464495Y-45391062D01*
X41464500Y-45391063D01*
X41643746Y-45411259D01*
X41643750Y-45411259D01*
X41643754Y-45411259D01*
X41822999Y-45391063D01*
X41823002Y-45391062D01*
X41823005Y-45391062D01*
X41993272Y-45331483D01*
X41994238Y-45330875D01*
X42003273Y-45325200D01*
X42069244Y-45306194D01*
X42468256Y-45306194D01*
X42534227Y-45325200D01*
X42544224Y-45331481D01*
X42544225Y-45331481D01*
X42544228Y-45331483D01*
X42682353Y-45379815D01*
X42714495Y-45391062D01*
X42714500Y-45391063D01*
X42893746Y-45411259D01*
X42893750Y-45411259D01*
X42893754Y-45411259D01*
X43072999Y-45391063D01*
X43073002Y-45391062D01*
X43073005Y-45391062D01*
X43243272Y-45331483D01*
X43396012Y-45235510D01*
X43523566Y-45107956D01*
X43619539Y-44955216D01*
X43679118Y-44784949D01*
X43682801Y-44752262D01*
X43699315Y-44605697D01*
X43699315Y-44605690D01*
X43679119Y-44426444D01*
X43679118Y-44426439D01*
X43658135Y-44366472D01*
X43619539Y-44256172D01*
X43615658Y-44249996D01*
X43523565Y-44103431D01*
X43396012Y-43975878D01*
X43243273Y-43879905D01*
X43073004Y-43820325D01*
X43072999Y-43820324D01*
X42893754Y-43800129D01*
X42893746Y-43800129D01*
X42714500Y-43820324D01*
X42714495Y-43820325D01*
X42544224Y-43879906D01*
X42534227Y-43886188D01*
X42468256Y-43905194D01*
X42069244Y-43905194D01*
X42003273Y-43886188D01*
X41993275Y-43879906D01*
X41823004Y-43820325D01*
X41822999Y-43820324D01*
X41643754Y-43800129D01*
X41643746Y-43800129D01*
X41464500Y-43820324D01*
X41464495Y-43820325D01*
X41294226Y-43879905D01*
X41141487Y-43975878D01*
X41013934Y-44103431D01*
X40917961Y-44256170D01*
X40858381Y-44426439D01*
X40858380Y-44426444D01*
X40838185Y-44605690D01*
X25500500Y-44605690D01*
X25500500Y-34999996D01*
X30194661Y-34999996D01*
X30194661Y-35000003D01*
X30214005Y-35430737D01*
X30214006Y-35430746D01*
X30271885Y-35858027D01*
X30367830Y-36278391D01*
X30501073Y-36688472D01*
X30501076Y-36688480D01*
X30670533Y-37084947D01*
X30670537Y-37084955D01*
X30670539Y-37084958D01*
X30874863Y-37464655D01*
X30874867Y-37464661D01*
X30874867Y-37464662D01*
X31112394Y-37824501D01*
X31112404Y-37824514D01*
X31381225Y-38161607D01*
X31381235Y-38161618D01*
X31381236Y-38161619D01*
X31679210Y-38473274D01*
X32003920Y-38756965D01*
X32352753Y-39010407D01*
X32722900Y-39231560D01*
X32722903Y-39231561D01*
X32722904Y-39231562D01*
X32722906Y-39231563D01*
X33111372Y-39418639D01*
X33111386Y-39418645D01*
X33515055Y-39570144D01*
X33515059Y-39570145D01*
X33515069Y-39570149D01*
X33930711Y-39684859D01*
X34354964Y-39761850D01*
X34784409Y-39800500D01*
X34784416Y-39800500D01*
X35215584Y-39800500D01*
X35215591Y-39800500D01*
X35645036Y-39761850D01*
X36069289Y-39684859D01*
X36484931Y-39570149D01*
X36888619Y-39418643D01*
X37277100Y-39231560D01*
X37647247Y-39010407D01*
X37996080Y-38756965D01*
X38320790Y-38473274D01*
X38618764Y-38161619D01*
X38887601Y-37824507D01*
X39125137Y-37464655D01*
X39329461Y-37084958D01*
X39498926Y-36688475D01*
X39632168Y-36278397D01*
X39728115Y-35858026D01*
X39785994Y-35430747D01*
X39805339Y-35000000D01*
X39785994Y-34569253D01*
X39728115Y-34141974D01*
X39632168Y-33721603D01*
X39498926Y-33311525D01*
X39423194Y-33134341D01*
X39329466Y-32915052D01*
X39329462Y-32915044D01*
X39325337Y-32907379D01*
X39125137Y-32535345D01*
X39096881Y-32492539D01*
X38887605Y-32175498D01*
X38887595Y-32175485D01*
X38618774Y-31838392D01*
X38618762Y-31838379D01*
X38320794Y-31526730D01*
X38320793Y-31526729D01*
X38320790Y-31526726D01*
X37996080Y-31243035D01*
X37733380Y-31052172D01*
X37647256Y-30989599D01*
X37647251Y-30989596D01*
X37647247Y-30989593D01*
X37277100Y-30768440D01*
X37277095Y-30768437D01*
X37277093Y-30768436D01*
X36888627Y-30581360D01*
X36888613Y-30581354D01*
X36484944Y-30429855D01*
X36484919Y-30429847D01*
X36069295Y-30315142D01*
X35645043Y-30238151D01*
X35645040Y-30238150D01*
X35645036Y-30238150D01*
X35215591Y-30199500D01*
X34784409Y-30199500D01*
X34354964Y-30238150D01*
X34354960Y-30238150D01*
X34354956Y-30238151D01*
X33930704Y-30315142D01*
X33515080Y-30429847D01*
X33515055Y-30429855D01*
X33111386Y-30581354D01*
X33111372Y-30581360D01*
X32722906Y-30768436D01*
X32722904Y-30768437D01*
X32352743Y-30989599D01*
X32003931Y-31243026D01*
X32003914Y-31243039D01*
X31679210Y-31526726D01*
X31679205Y-31526730D01*
X31381237Y-31838379D01*
X31381225Y-31838392D01*
X31112404Y-32175485D01*
X31112394Y-32175498D01*
X30874867Y-32535337D01*
X30874867Y-32535338D01*
X30670537Y-32915044D01*
X30670533Y-32915052D01*
X30501076Y-33311519D01*
X30501073Y-33311527D01*
X30367830Y-33721608D01*
X30271885Y-34141972D01*
X30214006Y-34569253D01*
X30214005Y-34569262D01*
X30194661Y-34999996D01*
X25500500Y-34999996D01*
X25500500Y-25624500D01*
X25520185Y-25557461D01*
X25572989Y-25511706D01*
X25624500Y-25500500D01*
X69568046Y-25500500D01*
X69635085Y-25520185D01*
G37*
%TD.AperFunction*%
%TA.AperFunction,Conductor*%
G36*
X106817539Y-102302685D02*
G01*
X106863294Y-102355489D01*
X106874500Y-102407000D01*
X106874500Y-105624530D01*
X106854815Y-105691569D01*
X106802011Y-105737324D01*
X106732853Y-105747268D01*
X106669297Y-105718243D01*
X106646331Y-105690432D01*
X106645856Y-105690750D01*
X106643601Y-105687375D01*
X106491939Y-105489725D01*
X106491933Y-105489718D01*
X106315781Y-105313566D01*
X106315774Y-105313560D01*
X106118126Y-105161900D01*
X105902376Y-105037337D01*
X105902361Y-105037330D01*
X105672207Y-104941998D01*
X105431561Y-104877517D01*
X105184575Y-104845001D01*
X105184570Y-104845000D01*
X105184565Y-104845000D01*
X104935435Y-104845000D01*
X104935429Y-104845000D01*
X104935424Y-104845001D01*
X104688438Y-104877517D01*
X104447792Y-104941998D01*
X104217638Y-105037330D01*
X104217623Y-105037337D01*
X104001873Y-105161900D01*
X103804225Y-105313560D01*
X103804218Y-105313566D01*
X103628066Y-105489718D01*
X103628060Y-105489725D01*
X103476400Y-105687373D01*
X103351837Y-105903123D01*
X103351830Y-105903138D01*
X103256498Y-106133292D01*
X103192017Y-106373938D01*
X103159501Y-106620924D01*
X103159500Y-106620941D01*
X103159500Y-106870058D01*
X103159501Y-106870075D01*
X103192017Y-107117061D01*
X103256498Y-107357707D01*
X103351830Y-107587861D01*
X103351837Y-107587876D01*
X103476400Y-107803626D01*
X103628060Y-108001274D01*
X103628066Y-108001281D01*
X103804218Y-108177433D01*
X103804225Y-108177439D01*
X104001873Y-108329099D01*
X104217623Y-108453662D01*
X104217638Y-108453669D01*
X104313500Y-108493376D01*
X104447793Y-108549002D01*
X104688435Y-108613482D01*
X104935435Y-108646000D01*
X104935442Y-108646000D01*
X105184558Y-108646000D01*
X105184565Y-108646000D01*
X105431565Y-108613482D01*
X105672207Y-108549002D01*
X105902373Y-108453664D01*
X106118127Y-108329099D01*
X106315776Y-108177438D01*
X106491938Y-108001276D01*
X106643599Y-107803627D01*
X106643601Y-107803624D01*
X106645856Y-107800250D01*
X106646846Y-107800911D01*
X106693672Y-107756258D01*
X106762278Y-107743030D01*
X106827145Y-107768993D01*
X106867677Y-107825904D01*
X106874500Y-107866469D01*
X106874500Y-112194006D01*
X106854815Y-112261045D01*
X106802011Y-112306800D01*
X106732853Y-112316744D01*
X106669297Y-112287719D01*
X106640015Y-112250301D01*
X106601861Y-112175422D01*
X106541433Y-112056825D01*
X106519095Y-112026079D01*
X106414178Y-111881672D01*
X106414174Y-111881667D01*
X100362819Y-105830312D01*
X100329334Y-105768989D01*
X100326500Y-105742631D01*
X100326500Y-105273998D01*
X100346185Y-105206959D01*
X100398989Y-105161204D01*
X100468147Y-105151260D01*
X100482587Y-105154221D01*
X100526556Y-105166003D01*
X100679016Y-105179341D01*
X100739998Y-105184677D01*
X100740000Y-105184677D01*
X100740002Y-105184677D01*
X100793361Y-105180008D01*
X100953444Y-105166003D01*
X101160403Y-105110549D01*
X101354589Y-105019999D01*
X101530100Y-104897104D01*
X101681604Y-104745600D01*
X101804499Y-104570089D01*
X101895049Y-104375903D01*
X101946996Y-104182032D01*
X101983360Y-104122374D01*
X102046206Y-104091844D01*
X102098863Y-104094352D01*
X102099595Y-104094548D01*
X102099597Y-104094549D01*
X102306556Y-104150003D01*
X102459016Y-104163341D01*
X102519998Y-104168677D01*
X102520000Y-104168677D01*
X102520002Y-104168677D01*
X102573361Y-104164008D01*
X102733444Y-104150003D01*
X102940403Y-104094549D01*
X103134589Y-104003999D01*
X103310100Y-103881104D01*
X103461604Y-103729600D01*
X103584499Y-103554089D01*
X103675049Y-103359903D01*
X103730503Y-103152944D01*
X103749177Y-102939500D01*
X103730503Y-102726056D01*
X103675049Y-102519097D01*
X103647213Y-102459404D01*
X103636722Y-102390327D01*
X103665242Y-102326543D01*
X103723718Y-102288304D01*
X103759596Y-102283000D01*
X106750500Y-102283000D01*
X106817539Y-102302685D01*
G37*
%TD.AperFunction*%
%TA.AperFunction,Conductor*%
G36*
X101764139Y-89015577D02*
G01*
X101808487Y-89044078D01*
X105073181Y-92308772D01*
X105106666Y-92370095D01*
X105109500Y-92396453D01*
X105109500Y-95095007D01*
X105090494Y-95160978D01*
X105084209Y-95170979D01*
X105024633Y-95341237D01*
X105024630Y-95341250D01*
X105004435Y-95520496D01*
X105004435Y-95520503D01*
X105024630Y-95699749D01*
X105024631Y-95699754D01*
X105084211Y-95870023D01*
X105150668Y-95975788D01*
X105180184Y-96022762D01*
X105307738Y-96150316D01*
X105460478Y-96246289D01*
X105630745Y-96305868D01*
X105689385Y-96312474D01*
X105753795Y-96339539D01*
X105793352Y-96397133D01*
X105799500Y-96435694D01*
X105799500Y-97488980D01*
X105779815Y-97556019D01*
X105763181Y-97576661D01*
X104860709Y-98479132D01*
X104813984Y-98508492D01*
X104710476Y-98544711D01*
X104710475Y-98544712D01*
X104557737Y-98640684D01*
X104430184Y-98768237D01*
X104334211Y-98920976D01*
X104274631Y-99091245D01*
X104274630Y-99091250D01*
X104254435Y-99270496D01*
X104254435Y-99270502D01*
X104268363Y-99394116D01*
X104256309Y-99462938D01*
X104208960Y-99514318D01*
X104145143Y-99532000D01*
X103759044Y-99532000D01*
X103692005Y-99512315D01*
X103646250Y-99459511D01*
X103636306Y-99390353D01*
X103646662Y-99355595D01*
X103674576Y-99295733D01*
X103674579Y-99295724D01*
X103730007Y-99088862D01*
X103730009Y-99088851D01*
X103748675Y-98875502D01*
X103748675Y-98875497D01*
X103730009Y-98662148D01*
X103730007Y-98662137D01*
X103674579Y-98455275D01*
X103674575Y-98455266D01*
X103584061Y-98261159D01*
X103544456Y-98204596D01*
X103544455Y-98204595D01*
X102978467Y-98770582D01*
X102957971Y-98694087D01*
X102896094Y-98586913D01*
X102808587Y-98499406D01*
X102701413Y-98437529D01*
X102624913Y-98417031D01*
X103124775Y-97917170D01*
X103141327Y-97903280D01*
X103310100Y-97785104D01*
X103461604Y-97633600D01*
X103584499Y-97458089D01*
X103675049Y-97263903D01*
X103730503Y-97056944D01*
X103749177Y-96843500D01*
X103730503Y-96630056D01*
X103675049Y-96423097D01*
X103584499Y-96228912D01*
X103461604Y-96053400D01*
X103310100Y-95901896D01*
X103134589Y-95779001D01*
X102940403Y-95688451D01*
X102940399Y-95688450D01*
X102940395Y-95688448D01*
X102733449Y-95632998D01*
X102733445Y-95632997D01*
X102733444Y-95632997D01*
X102733443Y-95632996D01*
X102733438Y-95632996D01*
X102520002Y-95614323D01*
X102519998Y-95614323D01*
X102306561Y-95632996D01*
X102306550Y-95632998D01*
X102099604Y-95688448D01*
X102099595Y-95688452D01*
X101905412Y-95779000D01*
X101788319Y-95860990D01*
X101729900Y-95901896D01*
X101729898Y-95901897D01*
X101729895Y-95901900D01*
X101578400Y-96053395D01*
X101578397Y-96053398D01*
X101578396Y-96053400D01*
X101553913Y-96088365D01*
X101455500Y-96228912D01*
X101364952Y-96423095D01*
X101364948Y-96423104D01*
X101313004Y-96616965D01*
X101276639Y-96676626D01*
X101213792Y-96707155D01*
X101161136Y-96704647D01*
X100953449Y-96648998D01*
X100953445Y-96648997D01*
X100953444Y-96648997D01*
X100953443Y-96648996D01*
X100953438Y-96648996D01*
X100740002Y-96630323D01*
X100739998Y-96630323D01*
X100526561Y-96648996D01*
X100526544Y-96648999D01*
X100482591Y-96660776D01*
X100412742Y-96659112D01*
X100354880Y-96619949D01*
X100327377Y-96555720D01*
X100326500Y-96541001D01*
X100326500Y-89523998D01*
X100346185Y-89456959D01*
X100398989Y-89411204D01*
X100468147Y-89401260D01*
X100482587Y-89404221D01*
X100526556Y-89416003D01*
X100679016Y-89429341D01*
X100739998Y-89434677D01*
X100740000Y-89434677D01*
X100740002Y-89434677D01*
X100793361Y-89430008D01*
X100953444Y-89416003D01*
X101160403Y-89360549D01*
X101354589Y-89269999D01*
X101530100Y-89147104D01*
X101633128Y-89044075D01*
X101694447Y-89010593D01*
X101764139Y-89015577D01*
G37*
%TD.AperFunction*%
%TA.AperFunction,Conductor*%
G36*
X109418834Y-74474335D02*
G01*
X109474767Y-74516207D01*
X109499184Y-74581671D01*
X109499500Y-74590517D01*
X109499500Y-89394359D01*
X109479815Y-89461398D01*
X109427011Y-89507153D01*
X109357853Y-89517097D01*
X109294297Y-89488072D01*
X109287819Y-89482040D01*
X109146078Y-89340299D01*
X103914105Y-84108325D01*
X103914100Y-84108321D01*
X103738951Y-83981069D01*
X103738950Y-83981068D01*
X103738948Y-83981067D01*
X103627396Y-83924228D01*
X103576600Y-83876253D01*
X103559805Y-83808432D01*
X103581450Y-83744585D01*
X103581355Y-83744530D01*
X103581632Y-83744049D01*
X103582118Y-83742617D01*
X103584062Y-83739840D01*
X103584063Y-83739838D01*
X103674575Y-83545733D01*
X103674579Y-83545724D01*
X103730007Y-83338862D01*
X103730009Y-83338851D01*
X103748675Y-83125502D01*
X103748675Y-83125497D01*
X103730009Y-82912148D01*
X103730007Y-82912137D01*
X103674579Y-82705275D01*
X103674575Y-82705266D01*
X103584061Y-82511159D01*
X103544456Y-82454596D01*
X103544455Y-82454595D01*
X102978467Y-83020582D01*
X102957971Y-82944087D01*
X102896094Y-82836913D01*
X102808587Y-82749406D01*
X102701413Y-82687529D01*
X102624913Y-82667031D01*
X103124775Y-82167170D01*
X103141327Y-82153280D01*
X103310100Y-82035104D01*
X103461604Y-81883600D01*
X103584499Y-81708089D01*
X103675049Y-81513903D01*
X103730503Y-81306944D01*
X103749177Y-81093500D01*
X103730503Y-80880056D01*
X103675049Y-80673097D01*
X103584499Y-80478912D01*
X103461604Y-80303400D01*
X103310100Y-80151896D01*
X103134589Y-80029001D01*
X102940403Y-79938451D01*
X102940399Y-79938450D01*
X102940395Y-79938448D01*
X102733449Y-79882998D01*
X102733445Y-79882997D01*
X102733444Y-79882997D01*
X102733443Y-79882996D01*
X102733438Y-79882996D01*
X102520002Y-79864323D01*
X102519998Y-79864323D01*
X102306561Y-79882996D01*
X102306550Y-79882998D01*
X102099604Y-79938448D01*
X102099595Y-79938452D01*
X101905412Y-80029000D01*
X101805442Y-80099001D01*
X101729900Y-80151896D01*
X101729898Y-80151897D01*
X101729895Y-80151900D01*
X101578400Y-80303395D01*
X101455500Y-80478912D01*
X101364952Y-80673095D01*
X101364948Y-80673104D01*
X101313004Y-80866965D01*
X101276639Y-80926626D01*
X101213792Y-80957155D01*
X101161136Y-80954647D01*
X100953449Y-80898998D01*
X100953445Y-80898997D01*
X100953444Y-80898997D01*
X100953443Y-80898996D01*
X100953438Y-80898996D01*
X100740002Y-80880323D01*
X100739998Y-80880323D01*
X100526561Y-80898996D01*
X100526547Y-80898999D01*
X100379480Y-80938404D01*
X100309630Y-80936741D01*
X100251768Y-80897578D01*
X100224265Y-80833349D01*
X100235852Y-80764447D01*
X100259703Y-80730952D01*
X101949290Y-79041365D01*
X101996013Y-79012007D01*
X102099522Y-78975789D01*
X102252262Y-78879816D01*
X102379816Y-78752262D01*
X102475789Y-78599522D01*
X102535368Y-78429255D01*
X102535369Y-78429249D01*
X102555565Y-78250003D01*
X102555565Y-78249996D01*
X102535369Y-78070750D01*
X102535368Y-78070745D01*
X102509219Y-77996016D01*
X102475789Y-77900478D01*
X102379816Y-77747738D01*
X102252262Y-77620184D01*
X102099523Y-77524211D01*
X101929254Y-77464631D01*
X101929249Y-77464630D01*
X101750004Y-77444435D01*
X101749996Y-77444435D01*
X101570750Y-77464630D01*
X101570745Y-77464631D01*
X101400476Y-77524211D01*
X101247737Y-77620184D01*
X101120184Y-77747737D01*
X101024212Y-77900475D01*
X101024211Y-77900476D01*
X100987992Y-78003984D01*
X100958632Y-78050709D01*
X94455888Y-84553453D01*
X94455885Y-84553457D01*
X94427602Y-84595786D01*
X94373989Y-84640591D01*
X94304664Y-84649298D01*
X94241637Y-84619143D01*
X94204918Y-84559700D01*
X94200500Y-84526895D01*
X94200500Y-84341519D01*
X94220185Y-84274480D01*
X94236819Y-84253838D01*
X102253838Y-76236819D01*
X102315161Y-76203334D01*
X102341519Y-76200500D01*
X104593805Y-76200500D01*
X104660844Y-76220185D01*
X104706599Y-76272989D01*
X104716543Y-76342147D01*
X104687518Y-76405703D01*
X104628740Y-76443477D01*
X104625936Y-76444264D01*
X104548316Y-76465063D01*
X104447792Y-76491998D01*
X104217638Y-76587330D01*
X104217623Y-76587337D01*
X104001873Y-76711900D01*
X103804225Y-76863560D01*
X103804218Y-76863566D01*
X103628066Y-77039718D01*
X103628060Y-77039725D01*
X103476400Y-77237373D01*
X103351837Y-77453123D01*
X103351830Y-77453138D01*
X103256498Y-77683292D01*
X103192017Y-77923938D01*
X103159501Y-78170924D01*
X103159500Y-78170941D01*
X103159500Y-78420058D01*
X103159501Y-78420075D01*
X103190668Y-78656818D01*
X103192018Y-78667065D01*
X103195754Y-78681007D01*
X103256498Y-78907707D01*
X103351830Y-79137861D01*
X103351837Y-79137876D01*
X103476400Y-79353626D01*
X103628060Y-79551274D01*
X103628066Y-79551281D01*
X103804218Y-79727433D01*
X103804225Y-79727439D01*
X104001873Y-79879099D01*
X104217623Y-80003662D01*
X104217638Y-80003669D01*
X104316825Y-80044753D01*
X104447793Y-80099002D01*
X104688435Y-80163482D01*
X104935435Y-80196000D01*
X104935442Y-80196000D01*
X105184558Y-80196000D01*
X105184565Y-80196000D01*
X105431565Y-80163482D01*
X105672207Y-80099002D01*
X105902373Y-80003664D01*
X106118127Y-79879099D01*
X106315776Y-79727438D01*
X106491938Y-79551276D01*
X106643599Y-79353627D01*
X106768164Y-79137873D01*
X106863502Y-78907707D01*
X106927982Y-78667065D01*
X106960500Y-78420065D01*
X106960500Y-78170935D01*
X106927982Y-77923935D01*
X106863502Y-77683293D01*
X106787581Y-77500004D01*
X106768169Y-77453138D01*
X106768162Y-77453123D01*
X106643599Y-77237373D01*
X106491939Y-77039725D01*
X106491933Y-77039718D01*
X106315781Y-76863566D01*
X106315774Y-76863560D01*
X106118126Y-76711900D01*
X105902376Y-76587337D01*
X105902361Y-76587330D01*
X105672207Y-76491998D01*
X105494099Y-76444274D01*
X105434441Y-76407910D01*
X105403912Y-76345063D01*
X105412207Y-76275687D01*
X105456692Y-76221809D01*
X105523244Y-76200535D01*
X105526195Y-76200500D01*
X107568995Y-76200500D01*
X107660041Y-76182389D01*
X107704328Y-76173580D01*
X107831811Y-76120775D01*
X107946542Y-76044114D01*
X108044114Y-75946542D01*
X108120775Y-75831811D01*
X108173580Y-75704328D01*
X108187906Y-75632301D01*
X108220289Y-75570392D01*
X108221783Y-75568871D01*
X109287820Y-74502834D01*
X109349142Y-74469351D01*
X109418834Y-74474335D01*
G37*
%TD.AperFunction*%
%TA.AperFunction,Conductor*%
G36*
X96829944Y-54809437D02*
G01*
X96862171Y-54871430D01*
X96864493Y-54895312D01*
X96864493Y-72984909D01*
X96844808Y-73051948D01*
X96828174Y-73072590D01*
X90787584Y-79113181D01*
X90726261Y-79146666D01*
X90699903Y-79149500D01*
X65300097Y-79149500D01*
X65233058Y-79129815D01*
X65212416Y-79113181D01*
X60237590Y-74138355D01*
X60237588Y-74138352D01*
X60118716Y-74019480D01*
X60118709Y-74019475D01*
X60008705Y-73955965D01*
X60008704Y-73955964D01*
X59989461Y-73944855D01*
X59981785Y-73940423D01*
X59829057Y-73899499D01*
X59670943Y-73899499D01*
X59663347Y-73899499D01*
X59663331Y-73899500D01*
X59332412Y-73899500D01*
X59265373Y-73879815D01*
X59255097Y-73872445D01*
X59252263Y-73870185D01*
X59252262Y-73870184D01*
X59186804Y-73829054D01*
X59099523Y-73774211D01*
X58929254Y-73714631D01*
X58929249Y-73714630D01*
X58750004Y-73694435D01*
X58749996Y-73694435D01*
X58570750Y-73714630D01*
X58570745Y-73714631D01*
X58400473Y-73774212D01*
X58390468Y-73780499D01*
X58323230Y-73799496D01*
X58256396Y-73779126D01*
X58211184Y-73725857D01*
X58200500Y-73675503D01*
X58200500Y-61931004D01*
X58200499Y-61931002D01*
X58173582Y-61795680D01*
X58173580Y-61795674D01*
X58173580Y-61795672D01*
X58171323Y-61790224D01*
X58135744Y-61704328D01*
X58120775Y-61668189D01*
X58044114Y-61553458D01*
X58044111Y-61553454D01*
X58041368Y-61550711D01*
X58012007Y-61503984D01*
X57975788Y-61400476D01*
X57936582Y-61338080D01*
X57879816Y-61247738D01*
X57752262Y-61120184D01*
X57740832Y-61113002D01*
X57599520Y-61024209D01*
X57533544Y-61001123D01*
X57476769Y-60960401D01*
X57451022Y-60895448D01*
X57450500Y-60884082D01*
X57450500Y-57910576D01*
X57470185Y-57843537D01*
X57522989Y-57797782D01*
X57588383Y-57787356D01*
X57749996Y-57805565D01*
X57750000Y-57805565D01*
X57750004Y-57805565D01*
X57929249Y-57785369D01*
X57929252Y-57785368D01*
X57929255Y-57785368D01*
X58099522Y-57725789D01*
X58252262Y-57629816D01*
X58379816Y-57502262D01*
X58475789Y-57349522D01*
X58535368Y-57179255D01*
X58545161Y-57092329D01*
X58572226Y-57027918D01*
X58580680Y-57018553D01*
X58842417Y-56756816D01*
X58903739Y-56723334D01*
X58930097Y-56720500D01*
X68886000Y-56720500D01*
X68953039Y-56740185D01*
X68998794Y-56792989D01*
X69010000Y-56844500D01*
X69010000Y-57100000D01*
X69915440Y-57100000D01*
X69884755Y-57153147D01*
X69850000Y-57282857D01*
X69850000Y-57417143D01*
X69884755Y-57546853D01*
X69915440Y-57600000D01*
X69010000Y-57600000D01*
X69010000Y-58247844D01*
X69016401Y-58307372D01*
X69016403Y-58307379D01*
X69066645Y-58442086D01*
X69066649Y-58442093D01*
X69152809Y-58557187D01*
X69152812Y-58557190D01*
X69267906Y-58643350D01*
X69267913Y-58643354D01*
X69399470Y-58692421D01*
X69455403Y-58734292D01*
X69479821Y-58799756D01*
X69464970Y-58868029D01*
X69443819Y-58896284D01*
X69321503Y-59018600D01*
X69185965Y-59212169D01*
X69185964Y-59212171D01*
X69086098Y-59426335D01*
X69086094Y-59426344D01*
X69024938Y-59654586D01*
X69024936Y-59654596D01*
X69004341Y-59889999D01*
X69004341Y-59890000D01*
X69024936Y-60125403D01*
X69024938Y-60125413D01*
X69086094Y-60353655D01*
X69086096Y-60353659D01*
X69086097Y-60353663D01*
X69133035Y-60454322D01*
X69185965Y-60567830D01*
X69185967Y-60567834D01*
X69321501Y-60761395D01*
X69321506Y-60761402D01*
X69488597Y-60928493D01*
X69488603Y-60928498D01*
X69674158Y-61058425D01*
X69717783Y-61113002D01*
X69724977Y-61182500D01*
X69693454Y-61244855D01*
X69674158Y-61261575D01*
X69488597Y-61391505D01*
X69321505Y-61558597D01*
X69185965Y-61752169D01*
X69185964Y-61752171D01*
X69086098Y-61966335D01*
X69086094Y-61966344D01*
X69024938Y-62194586D01*
X69024936Y-62194596D01*
X69004341Y-62429999D01*
X69004341Y-62430000D01*
X69024936Y-62665403D01*
X69024938Y-62665413D01*
X69086094Y-62893655D01*
X69086096Y-62893659D01*
X69086097Y-62893663D01*
X69150696Y-63032195D01*
X69185965Y-63107830D01*
X69185967Y-63107834D01*
X69321501Y-63301395D01*
X69321506Y-63301402D01*
X69488597Y-63468493D01*
X69488603Y-63468498D01*
X69674158Y-63598425D01*
X69717783Y-63653002D01*
X69724977Y-63722500D01*
X69693454Y-63784855D01*
X69674158Y-63801575D01*
X69488597Y-63931505D01*
X69321505Y-64098597D01*
X69185965Y-64292169D01*
X69185964Y-64292171D01*
X69086098Y-64506335D01*
X69086094Y-64506344D01*
X69024938Y-64734586D01*
X69024936Y-64734596D01*
X69004341Y-64969999D01*
X69004341Y-64970000D01*
X69024936Y-65205403D01*
X69024938Y-65205413D01*
X69086094Y-65433655D01*
X69086096Y-65433659D01*
X69086097Y-65433663D01*
X69185965Y-65647830D01*
X69185967Y-65647834D01*
X69321501Y-65841395D01*
X69321506Y-65841402D01*
X69488597Y-66008493D01*
X69488603Y-66008498D01*
X69674158Y-66138425D01*
X69717783Y-66193002D01*
X69724977Y-66262500D01*
X69693454Y-66324855D01*
X69674158Y-66341575D01*
X69488597Y-66471505D01*
X69321505Y-66638597D01*
X69185965Y-66832169D01*
X69185964Y-66832171D01*
X69086098Y-67046335D01*
X69086094Y-67046344D01*
X69024938Y-67274586D01*
X69024936Y-67274596D01*
X69004341Y-67509999D01*
X69004341Y-67510000D01*
X69024936Y-67745403D01*
X69024938Y-67745413D01*
X69086094Y-67973655D01*
X69086096Y-67973659D01*
X69086097Y-67973663D01*
X69143737Y-68097272D01*
X69185965Y-68187830D01*
X69185967Y-68187834D01*
X69252881Y-68283396D01*
X69321501Y-68381396D01*
X69321506Y-68381402D01*
X69443818Y-68503714D01*
X69477303Y-68565037D01*
X69472319Y-68634729D01*
X69430447Y-68690662D01*
X69399471Y-68707577D01*
X69267912Y-68756646D01*
X69267906Y-68756649D01*
X69152812Y-68842809D01*
X69152809Y-68842812D01*
X69066649Y-68957906D01*
X69066645Y-68957913D01*
X69016403Y-69092620D01*
X69016401Y-69092627D01*
X69010000Y-69152155D01*
X69010000Y-69800000D01*
X69915440Y-69800000D01*
X69884755Y-69853147D01*
X69850000Y-69982857D01*
X69850000Y-70117143D01*
X69884755Y-70246853D01*
X69915440Y-70300000D01*
X69010000Y-70300000D01*
X69010000Y-70947844D01*
X69016401Y-71007372D01*
X69016403Y-71007379D01*
X69066645Y-71142086D01*
X69066649Y-71142093D01*
X69152809Y-71257187D01*
X69152812Y-71257190D01*
X69267906Y-71343350D01*
X69267913Y-71343354D01*
X69399470Y-71392421D01*
X69455403Y-71434292D01*
X69479821Y-71499756D01*
X69464970Y-71568029D01*
X69443819Y-71596284D01*
X69321503Y-71718600D01*
X69185965Y-71912169D01*
X69185964Y-71912171D01*
X69086098Y-72126335D01*
X69086094Y-72126344D01*
X69024938Y-72354586D01*
X69024936Y-72354596D01*
X69004341Y-72589999D01*
X69004341Y-72590000D01*
X69024936Y-72825403D01*
X69024938Y-72825413D01*
X69086094Y-73053655D01*
X69086096Y-73053659D01*
X69086097Y-73053663D01*
X69175861Y-73246162D01*
X69185965Y-73267830D01*
X69185967Y-73267834D01*
X69321501Y-73461395D01*
X69321506Y-73461402D01*
X69488597Y-73628493D01*
X69488603Y-73628498D01*
X69674158Y-73758425D01*
X69717783Y-73813002D01*
X69724977Y-73882500D01*
X69693454Y-73944855D01*
X69674158Y-73961575D01*
X69488597Y-74091505D01*
X69321505Y-74258597D01*
X69185965Y-74452169D01*
X69185964Y-74452171D01*
X69086098Y-74666335D01*
X69086094Y-74666344D01*
X69024938Y-74894586D01*
X69024936Y-74894596D01*
X69004341Y-75129999D01*
X69004341Y-75130000D01*
X69024936Y-75365403D01*
X69024938Y-75365413D01*
X69086094Y-75593655D01*
X69086096Y-75593659D01*
X69086097Y-75593663D01*
X69181322Y-75797873D01*
X69185965Y-75807830D01*
X69185967Y-75807834D01*
X69283092Y-75946542D01*
X69321505Y-76001401D01*
X69488599Y-76168495D01*
X69562420Y-76220185D01*
X69682165Y-76304032D01*
X69682167Y-76304033D01*
X69682170Y-76304035D01*
X69896337Y-76403903D01*
X69896343Y-76403904D01*
X69896344Y-76403905D01*
X69951285Y-76418626D01*
X70124592Y-76465063D01*
X70312918Y-76481539D01*
X70359999Y-76485659D01*
X70360000Y-76485659D01*
X70360001Y-76485659D01*
X70399234Y-76482226D01*
X70595408Y-76465063D01*
X70823663Y-76403903D01*
X71037830Y-76304035D01*
X71231401Y-76168495D01*
X71398495Y-76001401D01*
X71534035Y-75807830D01*
X71633903Y-75593663D01*
X71695063Y-75365408D01*
X71715659Y-75130000D01*
X71695536Y-74899999D01*
X75354341Y-74899999D01*
X75354341Y-74900000D01*
X75374936Y-75135403D01*
X75374938Y-75135413D01*
X75436094Y-75363655D01*
X75436096Y-75363659D01*
X75436097Y-75363663D01*
X75520499Y-75544663D01*
X75535965Y-75577830D01*
X75535967Y-75577834D01*
X75624540Y-75704328D01*
X75671505Y-75771401D01*
X75838599Y-75938495D01*
X75928429Y-76001395D01*
X76032165Y-76074032D01*
X76032167Y-76074033D01*
X76032170Y-76074035D01*
X76246337Y-76173903D01*
X76474592Y-76235063D01*
X76651034Y-76250500D01*
X76709999Y-76255659D01*
X76710000Y-76255659D01*
X76710001Y-76255659D01*
X76768966Y-76250500D01*
X76945408Y-76235063D01*
X77173663Y-76173903D01*
X77387830Y-76074035D01*
X77581401Y-75938495D01*
X77703329Y-75816566D01*
X77764648Y-75783084D01*
X77834340Y-75788068D01*
X77890274Y-75829939D01*
X77907189Y-75860917D01*
X77956202Y-75992328D01*
X77956206Y-75992335D01*
X78042452Y-76107544D01*
X78042455Y-76107547D01*
X78157664Y-76193793D01*
X78157671Y-76193797D01*
X78292517Y-76244091D01*
X78292516Y-76244091D01*
X78299444Y-76244835D01*
X78352127Y-76250500D01*
X80147872Y-76250499D01*
X80207483Y-76244091D01*
X80342331Y-76193796D01*
X80457546Y-76107546D01*
X80543796Y-75992331D01*
X80592810Y-75860916D01*
X80634681Y-75804984D01*
X80700145Y-75780566D01*
X80768418Y-75795417D01*
X80796673Y-75816569D01*
X80918599Y-75938495D01*
X81008429Y-76001395D01*
X81112165Y-76074032D01*
X81112167Y-76074033D01*
X81112170Y-76074035D01*
X81326337Y-76173903D01*
X81554592Y-76235063D01*
X81731034Y-76250500D01*
X81789999Y-76255659D01*
X81790000Y-76255659D01*
X81790001Y-76255659D01*
X81848966Y-76250500D01*
X82025408Y-76235063D01*
X82253663Y-76173903D01*
X82467830Y-76074035D01*
X82661401Y-75938495D01*
X82828495Y-75771401D01*
X82964035Y-75577830D01*
X83063903Y-75363663D01*
X83125063Y-75135408D01*
X83145659Y-74900000D01*
X83125063Y-74664592D01*
X83063903Y-74436337D01*
X82964035Y-74222171D01*
X82935024Y-74180738D01*
X82828494Y-74028597D01*
X82661402Y-73861506D01*
X82661395Y-73861501D01*
X82659251Y-73860000D01*
X82622521Y-73834281D01*
X82467834Y-73725967D01*
X82467830Y-73725965D01*
X82400214Y-73694435D01*
X82253663Y-73626097D01*
X82253659Y-73626096D01*
X82253655Y-73626094D01*
X82025413Y-73564938D01*
X82025403Y-73564936D01*
X81790001Y-73544341D01*
X81789999Y-73544341D01*
X81554596Y-73564936D01*
X81554586Y-73564938D01*
X81326344Y-73626094D01*
X81326335Y-73626098D01*
X81112171Y-73725964D01*
X81112169Y-73725965D01*
X80918600Y-73861503D01*
X80796673Y-73983430D01*
X80735350Y-74016914D01*
X80665658Y-74011930D01*
X80609725Y-73970058D01*
X80592810Y-73939081D01*
X80543797Y-73807671D01*
X80543793Y-73807664D01*
X80457547Y-73692455D01*
X80457544Y-73692452D01*
X80342335Y-73606206D01*
X80342328Y-73606202D01*
X80207482Y-73555908D01*
X80207483Y-73555908D01*
X80147883Y-73549501D01*
X80147881Y-73549500D01*
X80147873Y-73549500D01*
X80147864Y-73549500D01*
X78352129Y-73549500D01*
X78352123Y-73549501D01*
X78292516Y-73555908D01*
X78157671Y-73606202D01*
X78157664Y-73606206D01*
X78042455Y-73692452D01*
X78042452Y-73692455D01*
X77956206Y-73807664D01*
X77956203Y-73807669D01*
X77907189Y-73939083D01*
X77865317Y-73995016D01*
X77799853Y-74019433D01*
X77731580Y-74004581D01*
X77703326Y-73983430D01*
X77581402Y-73861506D01*
X77581395Y-73861501D01*
X77579251Y-73860000D01*
X77542521Y-73834281D01*
X77387834Y-73725967D01*
X77387830Y-73725965D01*
X77320214Y-73694435D01*
X77173663Y-73626097D01*
X77173659Y-73626096D01*
X77173655Y-73626094D01*
X76945413Y-73564938D01*
X76945403Y-73564936D01*
X76710001Y-73544341D01*
X76709999Y-73544341D01*
X76474596Y-73564936D01*
X76474586Y-73564938D01*
X76246344Y-73626094D01*
X76246335Y-73626098D01*
X76032171Y-73725964D01*
X76032169Y-73725965D01*
X75838597Y-73861505D01*
X75671505Y-74028597D01*
X75535965Y-74222169D01*
X75535964Y-74222171D01*
X75436098Y-74436335D01*
X75436094Y-74436344D01*
X75374938Y-74664586D01*
X75374936Y-74664596D01*
X75354341Y-74899999D01*
X71695536Y-74899999D01*
X71695063Y-74894592D01*
X71633903Y-74666337D01*
X71534035Y-74452171D01*
X71509250Y-74416773D01*
X71398494Y-74258597D01*
X71231402Y-74091506D01*
X71231396Y-74091501D01*
X71045842Y-73961575D01*
X71002217Y-73906998D01*
X70995023Y-73837500D01*
X71026546Y-73775145D01*
X71045842Y-73758425D01*
X71092197Y-73725967D01*
X71231401Y-73628495D01*
X71398495Y-73461401D01*
X71534035Y-73267830D01*
X71633903Y-73053663D01*
X71695063Y-72825408D01*
X71715659Y-72590000D01*
X71695063Y-72354592D01*
X71633903Y-72126337D01*
X71534035Y-71912171D01*
X71518070Y-71889371D01*
X71398496Y-71718600D01*
X71396495Y-71716599D01*
X71276179Y-71596283D01*
X71242696Y-71534963D01*
X71247680Y-71465271D01*
X71289551Y-71409337D01*
X71320529Y-71392422D01*
X71452086Y-71343354D01*
X71452093Y-71343350D01*
X71567187Y-71257190D01*
X71567190Y-71257187D01*
X71653350Y-71142093D01*
X71653354Y-71142086D01*
X71703596Y-71007379D01*
X71703598Y-71007372D01*
X71709999Y-70947844D01*
X71710000Y-70947827D01*
X71710000Y-70300000D01*
X70804560Y-70300000D01*
X70835245Y-70246853D01*
X70870000Y-70117143D01*
X70870000Y-69982857D01*
X70835245Y-69853147D01*
X70804560Y-69800000D01*
X71710000Y-69800000D01*
X71710000Y-69152172D01*
X71709999Y-69152155D01*
X71703598Y-69092627D01*
X71703596Y-69092620D01*
X71653354Y-68957913D01*
X71653350Y-68957906D01*
X71567190Y-68842812D01*
X71567187Y-68842809D01*
X71452093Y-68756649D01*
X71452088Y-68756646D01*
X71320528Y-68707577D01*
X71264595Y-68665705D01*
X71240178Y-68600241D01*
X71255030Y-68531968D01*
X71276175Y-68503720D01*
X71398495Y-68381401D01*
X71534035Y-68187830D01*
X71633903Y-67973663D01*
X71695063Y-67745408D01*
X71715659Y-67510000D01*
X71714784Y-67500004D01*
X71704849Y-67386444D01*
X71695063Y-67274592D01*
X71633903Y-67046337D01*
X71534035Y-66832171D01*
X71510079Y-66797957D01*
X71398494Y-66638597D01*
X71231402Y-66471506D01*
X71231396Y-66471501D01*
X71045842Y-66341575D01*
X71002217Y-66286998D01*
X70995023Y-66217500D01*
X71026546Y-66155145D01*
X71045842Y-66138425D01*
X71117335Y-66088365D01*
X71231401Y-66008495D01*
X71398495Y-65841401D01*
X71534035Y-65647830D01*
X71633903Y-65433663D01*
X71695063Y-65205408D01*
X71715659Y-64970000D01*
X71695063Y-64734592D01*
X71633903Y-64506337D01*
X71534035Y-64292171D01*
X71511706Y-64260281D01*
X71398494Y-64098597D01*
X71231402Y-63931506D01*
X71231396Y-63931501D01*
X71045842Y-63801575D01*
X71002217Y-63746998D01*
X70995023Y-63677500D01*
X71026546Y-63615145D01*
X71045842Y-63598425D01*
X71161983Y-63517102D01*
X71231401Y-63468495D01*
X71398495Y-63301401D01*
X71534035Y-63107830D01*
X71633903Y-62893663D01*
X71695063Y-62665408D01*
X71715659Y-62430000D01*
X71695063Y-62194592D01*
X71639040Y-61985509D01*
X71633905Y-61966344D01*
X71633904Y-61966343D01*
X71633903Y-61966337D01*
X71534035Y-61752171D01*
X71529726Y-61746016D01*
X71398494Y-61558597D01*
X71231402Y-61391506D01*
X71231396Y-61391501D01*
X71045842Y-61261575D01*
X71002217Y-61206998D01*
X70995023Y-61137500D01*
X71026546Y-61075145D01*
X71045842Y-61058425D01*
X71068026Y-61042891D01*
X71231401Y-60928495D01*
X71398495Y-60761401D01*
X71534035Y-60567830D01*
X71633903Y-60353663D01*
X71695063Y-60125408D01*
X71715659Y-59890000D01*
X71695063Y-59654592D01*
X71633903Y-59426337D01*
X71534035Y-59212171D01*
X71512025Y-59180738D01*
X71398496Y-59018600D01*
X71398495Y-59018599D01*
X71276179Y-58896283D01*
X71242696Y-58834963D01*
X71247680Y-58765271D01*
X71289551Y-58709337D01*
X71320529Y-58692422D01*
X71452086Y-58643354D01*
X71452093Y-58643350D01*
X71567187Y-58557190D01*
X71567190Y-58557187D01*
X71653350Y-58442093D01*
X71653354Y-58442086D01*
X71703596Y-58307379D01*
X71703598Y-58307372D01*
X71709999Y-58247844D01*
X71710000Y-58247827D01*
X71710000Y-57600000D01*
X70804560Y-57600000D01*
X70835245Y-57546853D01*
X70870000Y-57417143D01*
X70870000Y-57282857D01*
X70835245Y-57153147D01*
X70804560Y-57100000D01*
X71710000Y-57100000D01*
X71710000Y-56844500D01*
X71729685Y-56777461D01*
X71782489Y-56731706D01*
X71834000Y-56720500D01*
X86666000Y-56720500D01*
X86733039Y-56740185D01*
X86778794Y-56792989D01*
X86790000Y-56844500D01*
X86790000Y-57100000D01*
X87695440Y-57100000D01*
X87664755Y-57153147D01*
X87630000Y-57282857D01*
X87630000Y-57417143D01*
X87664755Y-57546853D01*
X87695440Y-57600000D01*
X86790000Y-57600000D01*
X86790000Y-58247844D01*
X86796401Y-58307372D01*
X86796403Y-58307379D01*
X86846645Y-58442086D01*
X86846649Y-58442093D01*
X86932809Y-58557187D01*
X86932812Y-58557190D01*
X87047906Y-58643350D01*
X87047913Y-58643354D01*
X87179470Y-58692421D01*
X87235403Y-58734292D01*
X87259821Y-58799756D01*
X87244970Y-58868029D01*
X87223819Y-58896284D01*
X87101503Y-59018600D01*
X86965965Y-59212169D01*
X86965964Y-59212171D01*
X86866098Y-59426335D01*
X86866094Y-59426344D01*
X86804938Y-59654586D01*
X86804936Y-59654596D01*
X86784341Y-59889999D01*
X86784341Y-59890000D01*
X86804936Y-60125403D01*
X86804938Y-60125413D01*
X86866094Y-60353655D01*
X86866096Y-60353659D01*
X86866097Y-60353663D01*
X86913035Y-60454322D01*
X86965965Y-60567830D01*
X86965967Y-60567834D01*
X87101501Y-60761395D01*
X87101506Y-60761402D01*
X87268597Y-60928493D01*
X87268603Y-60928498D01*
X87454158Y-61058425D01*
X87497783Y-61113002D01*
X87504977Y-61182500D01*
X87473454Y-61244855D01*
X87454158Y-61261575D01*
X87268597Y-61391505D01*
X87101505Y-61558597D01*
X86965965Y-61752169D01*
X86965964Y-61752171D01*
X86866098Y-61966335D01*
X86866094Y-61966344D01*
X86804938Y-62194586D01*
X86804936Y-62194596D01*
X86784341Y-62429999D01*
X86784341Y-62430000D01*
X86804936Y-62665403D01*
X86804938Y-62665413D01*
X86866094Y-62893655D01*
X86866096Y-62893659D01*
X86866097Y-62893663D01*
X86930696Y-63032195D01*
X86965965Y-63107830D01*
X86965967Y-63107834D01*
X87101501Y-63301395D01*
X87101506Y-63301402D01*
X87268597Y-63468493D01*
X87268603Y-63468498D01*
X87454158Y-63598425D01*
X87497783Y-63653002D01*
X87504977Y-63722500D01*
X87473454Y-63784855D01*
X87454158Y-63801575D01*
X87268597Y-63931505D01*
X87101505Y-64098597D01*
X86965965Y-64292169D01*
X86965964Y-64292171D01*
X86866098Y-64506335D01*
X86866094Y-64506344D01*
X86804938Y-64734586D01*
X86804936Y-64734596D01*
X86784341Y-64969999D01*
X86784341Y-64970000D01*
X86804936Y-65205403D01*
X86804938Y-65205413D01*
X86866094Y-65433655D01*
X86866096Y-65433659D01*
X86866097Y-65433663D01*
X86965965Y-65647830D01*
X86965967Y-65647834D01*
X87101501Y-65841395D01*
X87101506Y-65841402D01*
X87268597Y-66008493D01*
X87268603Y-66008498D01*
X87454158Y-66138425D01*
X87497783Y-66193002D01*
X87504977Y-66262500D01*
X87473454Y-66324855D01*
X87454158Y-66341575D01*
X87268597Y-66471505D01*
X87101505Y-66638597D01*
X86965965Y-66832169D01*
X86965964Y-66832171D01*
X86866098Y-67046335D01*
X86866094Y-67046344D01*
X86804938Y-67274586D01*
X86804936Y-67274596D01*
X86784341Y-67509999D01*
X86784341Y-67510000D01*
X86804936Y-67745403D01*
X86804938Y-67745413D01*
X86866094Y-67973655D01*
X86866096Y-67973659D01*
X86866097Y-67973663D01*
X86923737Y-68097272D01*
X86965965Y-68187830D01*
X86965967Y-68187834D01*
X87032881Y-68283396D01*
X87101501Y-68381396D01*
X87101506Y-68381402D01*
X87223818Y-68503714D01*
X87257303Y-68565037D01*
X87252319Y-68634729D01*
X87210447Y-68690662D01*
X87179471Y-68707577D01*
X87047912Y-68756646D01*
X87047906Y-68756649D01*
X86932812Y-68842809D01*
X86932809Y-68842812D01*
X86846649Y-68957906D01*
X86846645Y-68957913D01*
X86796403Y-69092620D01*
X86796401Y-69092627D01*
X86790000Y-69152155D01*
X86790000Y-69800000D01*
X87695440Y-69800000D01*
X87664755Y-69853147D01*
X87630000Y-69982857D01*
X87630000Y-70117143D01*
X87664755Y-70246853D01*
X87695440Y-70300000D01*
X86790000Y-70300000D01*
X86790000Y-70947844D01*
X86796401Y-71007372D01*
X86796403Y-71007379D01*
X86846645Y-71142086D01*
X86846649Y-71142093D01*
X86932809Y-71257187D01*
X86932812Y-71257190D01*
X87047906Y-71343350D01*
X87047913Y-71343354D01*
X87179470Y-71392421D01*
X87235403Y-71434292D01*
X87259821Y-71499756D01*
X87244970Y-71568029D01*
X87223819Y-71596284D01*
X87101503Y-71718600D01*
X86965965Y-71912169D01*
X86965964Y-71912171D01*
X86866098Y-72126335D01*
X86866094Y-72126344D01*
X86804938Y-72354586D01*
X86804936Y-72354596D01*
X86784341Y-72589999D01*
X86784341Y-72590000D01*
X86804936Y-72825403D01*
X86804938Y-72825413D01*
X86866094Y-73053655D01*
X86866096Y-73053659D01*
X86866097Y-73053663D01*
X86955861Y-73246162D01*
X86965965Y-73267830D01*
X86965967Y-73267834D01*
X87101501Y-73461395D01*
X87101506Y-73461402D01*
X87268597Y-73628493D01*
X87268603Y-73628498D01*
X87454158Y-73758425D01*
X87497783Y-73813002D01*
X87504977Y-73882500D01*
X87473454Y-73944855D01*
X87454158Y-73961575D01*
X87268597Y-74091505D01*
X87101505Y-74258597D01*
X86965965Y-74452169D01*
X86965964Y-74452171D01*
X86866098Y-74666335D01*
X86866094Y-74666344D01*
X86804938Y-74894586D01*
X86804936Y-74894596D01*
X86784341Y-75129999D01*
X86784341Y-75130000D01*
X86804936Y-75365403D01*
X86804938Y-75365413D01*
X86866094Y-75593655D01*
X86866096Y-75593659D01*
X86866097Y-75593663D01*
X86961322Y-75797873D01*
X86965965Y-75807830D01*
X86965967Y-75807834D01*
X87063092Y-75946542D01*
X87101505Y-76001401D01*
X87268599Y-76168495D01*
X87342420Y-76220185D01*
X87462165Y-76304032D01*
X87462167Y-76304033D01*
X87462170Y-76304035D01*
X87676337Y-76403903D01*
X87676343Y-76403904D01*
X87676344Y-76403905D01*
X87731285Y-76418626D01*
X87904592Y-76465063D01*
X88092918Y-76481539D01*
X88139999Y-76485659D01*
X88140000Y-76485659D01*
X88140001Y-76485659D01*
X88179234Y-76482226D01*
X88375408Y-76465063D01*
X88603663Y-76403903D01*
X88817830Y-76304035D01*
X89011401Y-76168495D01*
X89178495Y-76001401D01*
X89314035Y-75807830D01*
X89413903Y-75593663D01*
X89475063Y-75365408D01*
X89495659Y-75130000D01*
X89475063Y-74894592D01*
X89413903Y-74666337D01*
X89314035Y-74452171D01*
X89289250Y-74416773D01*
X89178494Y-74258597D01*
X89011402Y-74091506D01*
X89011396Y-74091501D01*
X88825842Y-73961575D01*
X88782217Y-73906998D01*
X88775023Y-73837500D01*
X88806546Y-73775145D01*
X88825842Y-73758425D01*
X88872197Y-73725967D01*
X89011401Y-73628495D01*
X89178495Y-73461401D01*
X89314035Y-73267830D01*
X89413903Y-73053663D01*
X89475063Y-72825408D01*
X89495659Y-72590000D01*
X89475063Y-72354592D01*
X89413903Y-72126337D01*
X89314035Y-71912171D01*
X89298070Y-71889371D01*
X89178496Y-71718600D01*
X89176495Y-71716599D01*
X89056179Y-71596283D01*
X89022696Y-71534963D01*
X89027680Y-71465271D01*
X89069551Y-71409337D01*
X89100529Y-71392422D01*
X89232086Y-71343354D01*
X89232093Y-71343350D01*
X89347187Y-71257190D01*
X89347190Y-71257187D01*
X89433350Y-71142093D01*
X89433354Y-71142086D01*
X89483596Y-71007379D01*
X89483598Y-71007372D01*
X89489999Y-70947844D01*
X89490000Y-70947827D01*
X89490000Y-70300000D01*
X88584560Y-70300000D01*
X88615245Y-70246853D01*
X88650000Y-70117143D01*
X88650000Y-69982857D01*
X88615245Y-69853147D01*
X88584560Y-69800000D01*
X89490000Y-69800000D01*
X89490000Y-69152172D01*
X89489999Y-69152155D01*
X89483598Y-69092627D01*
X89483596Y-69092620D01*
X89433354Y-68957913D01*
X89433350Y-68957906D01*
X89347190Y-68842812D01*
X89347187Y-68842809D01*
X89232093Y-68756649D01*
X89232088Y-68756646D01*
X89100528Y-68707577D01*
X89044595Y-68665705D01*
X89020178Y-68600241D01*
X89035030Y-68531968D01*
X89056175Y-68503720D01*
X89178495Y-68381401D01*
X89314035Y-68187830D01*
X89413903Y-67973663D01*
X89475063Y-67745408D01*
X89495659Y-67510000D01*
X89494784Y-67500004D01*
X89484849Y-67386444D01*
X89475063Y-67274592D01*
X89413903Y-67046337D01*
X89314035Y-66832171D01*
X89290079Y-66797957D01*
X89178494Y-66638597D01*
X89011402Y-66471506D01*
X89011396Y-66471501D01*
X88825842Y-66341575D01*
X88782217Y-66286998D01*
X88775023Y-66217500D01*
X88806546Y-66155145D01*
X88825842Y-66138425D01*
X88897335Y-66088365D01*
X89011401Y-66008495D01*
X89178495Y-65841401D01*
X89314035Y-65647830D01*
X89413903Y-65433663D01*
X89475063Y-65205408D01*
X89495659Y-64970000D01*
X89475063Y-64734592D01*
X89413903Y-64506337D01*
X89314035Y-64292171D01*
X89291706Y-64260281D01*
X89178494Y-64098597D01*
X89011402Y-63931506D01*
X89011396Y-63931501D01*
X88825842Y-63801575D01*
X88782217Y-63746998D01*
X88775023Y-63677500D01*
X88806546Y-63615145D01*
X88825842Y-63598425D01*
X88941983Y-63517102D01*
X89011401Y-63468495D01*
X89178495Y-63301401D01*
X89314035Y-63107830D01*
X89413903Y-62893663D01*
X89475063Y-62665408D01*
X89495659Y-62430000D01*
X89475063Y-62194592D01*
X89419040Y-61985509D01*
X89413905Y-61966344D01*
X89413904Y-61966343D01*
X89413903Y-61966337D01*
X89314035Y-61752171D01*
X89309726Y-61746016D01*
X89178494Y-61558597D01*
X89011402Y-61391506D01*
X89011396Y-61391501D01*
X88825842Y-61261575D01*
X88782217Y-61206998D01*
X88775023Y-61137500D01*
X88806546Y-61075145D01*
X88825842Y-61058425D01*
X88848026Y-61042891D01*
X89011401Y-60928495D01*
X89178495Y-60761401D01*
X89314035Y-60567830D01*
X89413903Y-60353663D01*
X89475063Y-60125408D01*
X89495659Y-59890000D01*
X89475063Y-59654592D01*
X89413903Y-59426337D01*
X89314035Y-59212171D01*
X89292025Y-59180738D01*
X89178496Y-59018600D01*
X89178495Y-59018599D01*
X89056179Y-58896283D01*
X89022696Y-58834963D01*
X89027680Y-58765271D01*
X89069551Y-58709337D01*
X89100529Y-58692422D01*
X89232086Y-58643354D01*
X89232093Y-58643350D01*
X89347187Y-58557190D01*
X89347190Y-58557187D01*
X89433350Y-58442093D01*
X89433354Y-58442086D01*
X89483596Y-58307379D01*
X89483598Y-58307372D01*
X89489999Y-58247844D01*
X89490000Y-58247827D01*
X89490000Y-57600000D01*
X88584560Y-57600000D01*
X88615245Y-57546853D01*
X88650000Y-57417143D01*
X88650000Y-57282857D01*
X88615245Y-57153147D01*
X88584560Y-57100000D01*
X89490000Y-57100000D01*
X89490000Y-56844500D01*
X89509685Y-56777461D01*
X89562489Y-56731706D01*
X89614000Y-56720500D01*
X94374994Y-56720500D01*
X94375010Y-56720501D01*
X94382606Y-56720501D01*
X94540717Y-56720501D01*
X94540720Y-56720501D01*
X94693448Y-56679577D01*
X94756941Y-56642919D01*
X94830379Y-56600520D01*
X94942183Y-56488716D01*
X94942183Y-56488714D01*
X94952387Y-56478511D01*
X94952391Y-56478506D01*
X96610566Y-54820330D01*
X96671887Y-54786847D01*
X96675071Y-54786322D01*
X96679252Y-54785368D01*
X96679255Y-54785368D01*
X96699537Y-54778270D01*
X96769316Y-54774708D01*
X96829944Y-54809437D01*
G37*
%TD.AperFunction*%
%TA.AperFunction,Conductor*%
G36*
X68953039Y-44040185D02*
G01*
X68998794Y-44092989D01*
X69010000Y-44144500D01*
X69010000Y-44400000D01*
X69915440Y-44400000D01*
X69884755Y-44453147D01*
X69850000Y-44582857D01*
X69850000Y-44717143D01*
X69884755Y-44846853D01*
X69915440Y-44900000D01*
X69010000Y-44900000D01*
X69010000Y-45547844D01*
X69016401Y-45607372D01*
X69016403Y-45607379D01*
X69066645Y-45742086D01*
X69066649Y-45742093D01*
X69152809Y-45857187D01*
X69152812Y-45857190D01*
X69267906Y-45943350D01*
X69267913Y-45943354D01*
X69399470Y-45992421D01*
X69455403Y-46034292D01*
X69479821Y-46099756D01*
X69464970Y-46168029D01*
X69443819Y-46196284D01*
X69321503Y-46318600D01*
X69185965Y-46512169D01*
X69185964Y-46512171D01*
X69086098Y-46726335D01*
X69086094Y-46726344D01*
X69024938Y-46954586D01*
X69024936Y-46954596D01*
X69004341Y-47189999D01*
X69004341Y-47190000D01*
X69024936Y-47425403D01*
X69024938Y-47425413D01*
X69086094Y-47653655D01*
X69086096Y-47653659D01*
X69086097Y-47653663D01*
X69185965Y-47867829D01*
X69185967Y-47867834D01*
X69321501Y-48061395D01*
X69321506Y-48061402D01*
X69488597Y-48228493D01*
X69488603Y-48228498D01*
X69674158Y-48358425D01*
X69717783Y-48413002D01*
X69724977Y-48482500D01*
X69693454Y-48544855D01*
X69674158Y-48561575D01*
X69488597Y-48691505D01*
X69321505Y-48858597D01*
X69185965Y-49052169D01*
X69185964Y-49052171D01*
X69086098Y-49266335D01*
X69086094Y-49266344D01*
X69024938Y-49494586D01*
X69024936Y-49494596D01*
X69004341Y-49729999D01*
X69004341Y-49730000D01*
X69024936Y-49965403D01*
X69024938Y-49965413D01*
X69086094Y-50193655D01*
X69086096Y-50193659D01*
X69086097Y-50193663D01*
X69154249Y-50339815D01*
X69185965Y-50407830D01*
X69185967Y-50407834D01*
X69294281Y-50562521D01*
X69316851Y-50594755D01*
X69321501Y-50601395D01*
X69321506Y-50601402D01*
X69488597Y-50768493D01*
X69488603Y-50768498D01*
X69674158Y-50898425D01*
X69717783Y-50953002D01*
X69724977Y-51022500D01*
X69693454Y-51084855D01*
X69674158Y-51101575D01*
X69488597Y-51231505D01*
X69321505Y-51398597D01*
X69185965Y-51592169D01*
X69185964Y-51592171D01*
X69086098Y-51806335D01*
X69086094Y-51806344D01*
X69024938Y-52034586D01*
X69024936Y-52034596D01*
X69004341Y-52269999D01*
X69004341Y-52270000D01*
X69024936Y-52505403D01*
X69024938Y-52505413D01*
X69086094Y-52733655D01*
X69086096Y-52733659D01*
X69086097Y-52733663D01*
X69185965Y-52947830D01*
X69185967Y-52947834D01*
X69321501Y-53141395D01*
X69321506Y-53141402D01*
X69488597Y-53308493D01*
X69488603Y-53308498D01*
X69674158Y-53438425D01*
X69717783Y-53493002D01*
X69724977Y-53562500D01*
X69693454Y-53624855D01*
X69674158Y-53641575D01*
X69488597Y-53771505D01*
X69321505Y-53938597D01*
X69185965Y-54132169D01*
X69185964Y-54132171D01*
X69086098Y-54346335D01*
X69086094Y-54346344D01*
X69024938Y-54574586D01*
X69024936Y-54574596D01*
X69004341Y-54809999D01*
X69004341Y-54810000D01*
X69024936Y-55045403D01*
X69024938Y-55045413D01*
X69086094Y-55273655D01*
X69086096Y-55273659D01*
X69086097Y-55273663D01*
X69118474Y-55343095D01*
X69128966Y-55412173D01*
X69100446Y-55475957D01*
X69041970Y-55514196D01*
X69006092Y-55519500D01*
X58716669Y-55519500D01*
X58716653Y-55519499D01*
X58709057Y-55519499D01*
X58550943Y-55519499D01*
X58436397Y-55550192D01*
X58398214Y-55560423D01*
X58381065Y-55570325D01*
X58381062Y-55570326D01*
X58261290Y-55639475D01*
X58261282Y-55639481D01*
X58149478Y-55751286D01*
X57731465Y-56169298D01*
X57670142Y-56202783D01*
X57657669Y-56204837D01*
X57588385Y-56212644D01*
X57519563Y-56200590D01*
X57468183Y-56153241D01*
X57450500Y-56089424D01*
X57450500Y-46341519D01*
X57470185Y-46274480D01*
X57486815Y-46253842D01*
X57949291Y-45791365D01*
X57996014Y-45762007D01*
X58099523Y-45725789D01*
X58252263Y-45629816D01*
X58379817Y-45502262D01*
X58475790Y-45349522D01*
X58535369Y-45179255D01*
X58535370Y-45179249D01*
X58555566Y-45000003D01*
X58555566Y-45000001D01*
X58554257Y-44988386D01*
X58566310Y-44919564D01*
X58613658Y-44868184D01*
X58677477Y-44850500D01*
X64667588Y-44850500D01*
X64734627Y-44870185D01*
X64744903Y-44877555D01*
X64747736Y-44879814D01*
X64747738Y-44879816D01*
X64900478Y-44975789D01*
X64969672Y-45000001D01*
X65070745Y-45035368D01*
X65070750Y-45035369D01*
X65249996Y-45055565D01*
X65250000Y-45055565D01*
X65250004Y-45055565D01*
X65429249Y-45035369D01*
X65429252Y-45035368D01*
X65429255Y-45035368D01*
X65599522Y-44975789D01*
X65752262Y-44879816D01*
X65879816Y-44752262D01*
X65975789Y-44599522D01*
X66035368Y-44429255D01*
X66035685Y-44426444D01*
X66055565Y-44250003D01*
X66055565Y-44249996D01*
X66045243Y-44158383D01*
X66057298Y-44089561D01*
X66104647Y-44038182D01*
X66168463Y-44020500D01*
X68886000Y-44020500D01*
X68953039Y-44040185D01*
G37*
%TD.AperFunction*%
%TA.AperFunction,Conductor*%
G36*
X73186942Y-44040185D02*
G01*
X73207584Y-44056819D01*
X75015139Y-45864374D01*
X75015149Y-45864385D01*
X75019479Y-45868715D01*
X75019480Y-45868716D01*
X75131284Y-45980520D01*
X75181198Y-46009337D01*
X75218095Y-46030639D01*
X75218097Y-46030641D01*
X75268213Y-46059576D01*
X75268215Y-46059577D01*
X75420942Y-46100500D01*
X75420943Y-46100500D01*
X81449903Y-46100500D01*
X81516942Y-46120185D01*
X81537584Y-46136819D01*
X86725139Y-51324374D01*
X86725149Y-51324385D01*
X86729479Y-51328715D01*
X86729480Y-51328716D01*
X86841284Y-51440520D01*
X86896832Y-51472590D01*
X86945047Y-51523156D01*
X86958271Y-51591762D01*
X86947214Y-51632382D01*
X86866098Y-51806335D01*
X86866094Y-51806344D01*
X86804938Y-52034586D01*
X86804936Y-52034596D01*
X86784341Y-52269999D01*
X86784341Y-52270000D01*
X86804936Y-52505403D01*
X86804938Y-52505413D01*
X86866094Y-52733655D01*
X86866096Y-52733659D01*
X86866097Y-52733663D01*
X86965965Y-52947830D01*
X86965967Y-52947834D01*
X87101501Y-53141395D01*
X87101506Y-53141402D01*
X87268597Y-53308493D01*
X87268603Y-53308498D01*
X87454158Y-53438425D01*
X87497783Y-53493002D01*
X87504977Y-53562500D01*
X87473454Y-53624855D01*
X87454158Y-53641575D01*
X87268597Y-53771505D01*
X87101505Y-53938597D01*
X86965965Y-54132169D01*
X86965964Y-54132171D01*
X86866098Y-54346335D01*
X86866094Y-54346344D01*
X86804938Y-54574586D01*
X86804936Y-54574596D01*
X86784341Y-54809999D01*
X86784341Y-54810000D01*
X86804936Y-55045403D01*
X86804938Y-55045413D01*
X86866094Y-55273655D01*
X86866096Y-55273659D01*
X86866097Y-55273663D01*
X86898474Y-55343095D01*
X86908966Y-55412173D01*
X86880446Y-55475957D01*
X86821970Y-55514196D01*
X86786092Y-55519500D01*
X71713908Y-55519500D01*
X71646869Y-55499815D01*
X71601114Y-55447011D01*
X71591170Y-55377853D01*
X71601526Y-55343095D01*
X71633903Y-55273663D01*
X71695063Y-55045408D01*
X71715659Y-54810000D01*
X71695063Y-54574592D01*
X71648626Y-54401285D01*
X71633905Y-54346344D01*
X71633904Y-54346343D01*
X71633903Y-54346337D01*
X71534035Y-54132171D01*
X71523887Y-54117677D01*
X71398494Y-53938597D01*
X71231402Y-53771506D01*
X71231396Y-53771501D01*
X71045842Y-53641575D01*
X71002217Y-53586998D01*
X70995023Y-53517500D01*
X71026546Y-53455145D01*
X71045842Y-53438425D01*
X71068026Y-53422891D01*
X71231401Y-53308495D01*
X71398495Y-53141401D01*
X71534035Y-52947830D01*
X71633903Y-52733663D01*
X71695063Y-52505408D01*
X71715659Y-52270000D01*
X71695063Y-52034592D01*
X71633903Y-51806337D01*
X71534035Y-51592171D01*
X71525643Y-51580185D01*
X71398494Y-51398597D01*
X71231402Y-51231506D01*
X71231396Y-51231501D01*
X71045842Y-51101575D01*
X71002217Y-51046998D01*
X70995023Y-50977500D01*
X71026546Y-50915145D01*
X71045842Y-50898425D01*
X71156780Y-50820745D01*
X71231401Y-50768495D01*
X71398495Y-50601401D01*
X71534035Y-50407830D01*
X71633903Y-50193663D01*
X71695063Y-49965408D01*
X71715659Y-49730000D01*
X71695063Y-49494592D01*
X71633903Y-49266337D01*
X71534035Y-49052171D01*
X71527914Y-49043428D01*
X71398494Y-48858597D01*
X71231402Y-48691506D01*
X71231396Y-48691501D01*
X71045842Y-48561575D01*
X71002217Y-48506998D01*
X70995023Y-48437500D01*
X71026546Y-48375145D01*
X71045842Y-48358425D01*
X71068026Y-48342891D01*
X71231401Y-48228495D01*
X71398495Y-48061401D01*
X71534035Y-47867830D01*
X71633903Y-47653663D01*
X71695063Y-47425408D01*
X71715659Y-47190000D01*
X71695063Y-46954592D01*
X71633903Y-46726337D01*
X71534035Y-46512171D01*
X71507023Y-46473594D01*
X71398496Y-46318600D01*
X71351806Y-46271910D01*
X71276179Y-46196283D01*
X71242696Y-46134963D01*
X71247680Y-46065271D01*
X71289551Y-46009337D01*
X71320529Y-45992422D01*
X71452086Y-45943354D01*
X71452093Y-45943350D01*
X71567187Y-45857190D01*
X71567190Y-45857187D01*
X71653350Y-45742093D01*
X71653354Y-45742086D01*
X71703596Y-45607379D01*
X71703598Y-45607372D01*
X71709999Y-45547844D01*
X71710000Y-45547827D01*
X71710000Y-44900000D01*
X70804560Y-44900000D01*
X70835245Y-44846853D01*
X70870000Y-44717143D01*
X70870000Y-44582857D01*
X70835245Y-44453147D01*
X70804560Y-44400000D01*
X71710000Y-44400000D01*
X71710000Y-44144500D01*
X71729685Y-44077461D01*
X71782489Y-44031706D01*
X71834000Y-44020500D01*
X73119903Y-44020500D01*
X73186942Y-44040185D01*
G37*
%TD.AperFunction*%
%TA.AperFunction,Conductor*%
G36*
X92346939Y-51580185D02*
G01*
X92367581Y-51596819D01*
X94789295Y-54018533D01*
X94822780Y-54079856D01*
X94824834Y-54092330D01*
X94834627Y-54179249D01*
X94894207Y-54349521D01*
X94990181Y-54502262D01*
X95022492Y-54534573D01*
X95055977Y-54595896D01*
X95050993Y-54665588D01*
X95022492Y-54709935D01*
X94249247Y-55483181D01*
X94187924Y-55516666D01*
X94161566Y-55519500D01*
X89493908Y-55519500D01*
X89426869Y-55499815D01*
X89381114Y-55447011D01*
X89371170Y-55377853D01*
X89381526Y-55343095D01*
X89413903Y-55273663D01*
X89475063Y-55045408D01*
X89495659Y-54810000D01*
X89475063Y-54574592D01*
X89428626Y-54401285D01*
X89413905Y-54346344D01*
X89413904Y-54346343D01*
X89413903Y-54346337D01*
X89314035Y-54132171D01*
X89303887Y-54117677D01*
X89178494Y-53938597D01*
X89011402Y-53771506D01*
X89011396Y-53771501D01*
X88825842Y-53641575D01*
X88782217Y-53586998D01*
X88775023Y-53517500D01*
X88806546Y-53455145D01*
X88825842Y-53438425D01*
X88848026Y-53422891D01*
X89011401Y-53308495D01*
X89178495Y-53141401D01*
X89314035Y-52947830D01*
X89413903Y-52733663D01*
X89475063Y-52505408D01*
X89495659Y-52270000D01*
X89475063Y-52034592D01*
X89413903Y-51806337D01*
X89381525Y-51736904D01*
X89371034Y-51667827D01*
X89399554Y-51604043D01*
X89458030Y-51565804D01*
X89493908Y-51560500D01*
X92279900Y-51560500D01*
X92346939Y-51580185D01*
G37*
%TD.AperFunction*%
%TA.AperFunction,Conductor*%
G36*
X71906401Y-34647057D02*
G01*
X72263181Y-35003837D01*
X72296666Y-35065160D01*
X72299500Y-35091518D01*
X72299500Y-39681006D01*
X72299500Y-39818994D01*
X72299500Y-39818996D01*
X72299499Y-39818996D01*
X72326418Y-39954322D01*
X72326421Y-39954332D01*
X72379222Y-40081807D01*
X72455887Y-40196545D01*
X74303454Y-42044112D01*
X74418192Y-42120777D01*
X74545667Y-42173578D01*
X74545672Y-42173580D01*
X74545676Y-42173580D01*
X74545677Y-42173581D01*
X74681003Y-42200500D01*
X74681006Y-42200500D01*
X83738996Y-42200500D01*
X83830040Y-42182389D01*
X83874328Y-42173580D01*
X83938069Y-42147177D01*
X84001807Y-42120777D01*
X84001808Y-42120776D01*
X84001811Y-42120775D01*
X84116543Y-42044114D01*
X86580728Y-39579927D01*
X86642049Y-39546444D01*
X86711740Y-39551428D01*
X86767674Y-39593300D01*
X86791935Y-39656802D01*
X86804936Y-39805403D01*
X86804938Y-39805413D01*
X86866094Y-40033655D01*
X86866096Y-40033659D01*
X86866097Y-40033663D01*
X86942050Y-40196545D01*
X86965965Y-40247830D01*
X86965967Y-40247834D01*
X87101501Y-40441395D01*
X87101506Y-40441402D01*
X87268597Y-40608493D01*
X87268603Y-40608498D01*
X87454158Y-40738425D01*
X87497783Y-40793002D01*
X87504977Y-40862500D01*
X87473454Y-40924855D01*
X87454158Y-40941575D01*
X87268597Y-41071505D01*
X87101505Y-41238597D01*
X86965965Y-41432169D01*
X86965964Y-41432171D01*
X86866098Y-41646335D01*
X86866094Y-41646344D01*
X86804938Y-41874586D01*
X86804936Y-41874596D01*
X86784341Y-42109999D01*
X86784341Y-42110000D01*
X86804936Y-42345403D01*
X86804938Y-42345413D01*
X86866094Y-42573655D01*
X86866096Y-42573659D01*
X86866097Y-42573663D01*
X86946931Y-42747011D01*
X86965965Y-42787830D01*
X86965967Y-42787834D01*
X87037056Y-42889359D01*
X87101501Y-42981396D01*
X87101506Y-42981402D01*
X87223818Y-43103714D01*
X87257303Y-43165037D01*
X87252319Y-43234729D01*
X87210447Y-43290662D01*
X87179471Y-43307577D01*
X87047912Y-43356646D01*
X87047906Y-43356649D01*
X86932812Y-43442809D01*
X86932809Y-43442812D01*
X86846649Y-43557906D01*
X86846645Y-43557913D01*
X86796403Y-43692620D01*
X86796401Y-43692627D01*
X86790000Y-43752155D01*
X86790000Y-44400000D01*
X87695440Y-44400000D01*
X87664755Y-44453147D01*
X87630000Y-44582857D01*
X87630000Y-44717143D01*
X87664755Y-44846853D01*
X87695440Y-44900000D01*
X86790000Y-44900000D01*
X86790000Y-45547844D01*
X86796401Y-45607372D01*
X86796403Y-45607379D01*
X86846645Y-45742086D01*
X86846649Y-45742093D01*
X86932809Y-45857187D01*
X86932812Y-45857190D01*
X87047906Y-45943350D01*
X87047913Y-45943354D01*
X87179470Y-45992421D01*
X87235403Y-46034292D01*
X87259821Y-46099756D01*
X87244970Y-46168029D01*
X87223819Y-46196284D01*
X87101503Y-46318600D01*
X86965965Y-46512169D01*
X86965964Y-46512171D01*
X86866098Y-46726335D01*
X86866094Y-46726344D01*
X86804938Y-46954586D01*
X86804936Y-46954596D01*
X86784341Y-47189999D01*
X86784341Y-47190000D01*
X86804936Y-47425403D01*
X86804938Y-47425413D01*
X86866094Y-47653655D01*
X86866096Y-47653659D01*
X86866097Y-47653663D01*
X86965965Y-47867829D01*
X86965967Y-47867834D01*
X87101501Y-48061395D01*
X87101506Y-48061402D01*
X87268597Y-48228493D01*
X87268603Y-48228498D01*
X87454158Y-48358425D01*
X87497783Y-48413002D01*
X87504977Y-48482500D01*
X87473454Y-48544855D01*
X87454158Y-48561575D01*
X87268597Y-48691505D01*
X87101505Y-48858597D01*
X86965965Y-49052169D01*
X86965964Y-49052171D01*
X86866098Y-49266335D01*
X86866095Y-49266341D01*
X86815911Y-49453633D01*
X86779546Y-49513293D01*
X86716699Y-49543822D01*
X86647323Y-49535527D01*
X86608455Y-49509220D01*
X82237590Y-45138355D01*
X82237588Y-45138352D01*
X82118717Y-45019481D01*
X82118716Y-45019480D01*
X82008568Y-44955886D01*
X82008566Y-44955885D01*
X81981785Y-44940423D01*
X81981784Y-44940422D01*
X81981783Y-44940422D01*
X81903939Y-44919564D01*
X81829057Y-44899499D01*
X81670943Y-44899499D01*
X81663347Y-44899499D01*
X81663331Y-44899500D01*
X75800097Y-44899500D01*
X75733058Y-44879815D01*
X75712416Y-44863181D01*
X73907590Y-43058355D01*
X73907588Y-43058352D01*
X73788717Y-42939481D01*
X73788716Y-42939480D01*
X73701904Y-42889360D01*
X73701904Y-42889359D01*
X73701900Y-42889358D01*
X73651785Y-42860423D01*
X73499057Y-42819499D01*
X73340943Y-42819499D01*
X73333347Y-42819499D01*
X73333331Y-42819500D01*
X71713908Y-42819500D01*
X71646869Y-42799815D01*
X71601114Y-42747011D01*
X71591170Y-42677853D01*
X71601526Y-42643095D01*
X71633903Y-42573663D01*
X71695063Y-42345408D01*
X71715659Y-42110000D01*
X71695063Y-41874592D01*
X71633903Y-41646337D01*
X71534035Y-41432171D01*
X71476165Y-41349523D01*
X71398494Y-41238597D01*
X71231402Y-41071506D01*
X71231396Y-41071501D01*
X71045842Y-40941575D01*
X71002217Y-40886998D01*
X70995023Y-40817500D01*
X71026546Y-40755145D01*
X71045842Y-40738425D01*
X71068026Y-40722891D01*
X71231401Y-40608495D01*
X71398495Y-40441401D01*
X71534035Y-40247830D01*
X71633903Y-40033663D01*
X71695063Y-39805408D01*
X71715659Y-39570000D01*
X71695063Y-39334592D01*
X71633903Y-39106337D01*
X71534035Y-38892171D01*
X71439364Y-38756965D01*
X71398494Y-38698597D01*
X71231402Y-38531506D01*
X71231396Y-38531501D01*
X71045842Y-38401575D01*
X71002217Y-38346998D01*
X70995023Y-38277500D01*
X71026546Y-38215145D01*
X71045842Y-38198425D01*
X71098423Y-38161607D01*
X71231401Y-38068495D01*
X71398495Y-37901401D01*
X71534035Y-37707830D01*
X71633903Y-37493663D01*
X71695063Y-37265408D01*
X71715659Y-37030000D01*
X71695063Y-36794592D01*
X71633903Y-36566337D01*
X71534035Y-36352171D01*
X71482379Y-36278397D01*
X71398494Y-36158597D01*
X71231402Y-35991506D01*
X71231396Y-35991501D01*
X71045842Y-35861575D01*
X71002217Y-35806998D01*
X70995023Y-35737500D01*
X71026546Y-35675145D01*
X71045842Y-35658425D01*
X71068026Y-35642891D01*
X71231401Y-35528495D01*
X71398495Y-35361401D01*
X71534035Y-35167830D01*
X71633903Y-34953663D01*
X71695063Y-34725408D01*
X71695192Y-34723932D01*
X71695429Y-34723325D01*
X71696002Y-34720079D01*
X71696654Y-34720194D01*
X71720643Y-34658864D01*
X71777233Y-34617884D01*
X71846995Y-34614005D01*
X71906401Y-34647057D01*
G37*
%TD.AperFunction*%
%TA.AperFunction,Conductor*%
G36*
X69011857Y-33970185D02*
G01*
X69057612Y-34022989D01*
X69067556Y-34092147D01*
X69064593Y-34106593D01*
X69024938Y-34254586D01*
X69024936Y-34254596D01*
X69004341Y-34489999D01*
X69004341Y-34490000D01*
X69024936Y-34725403D01*
X69024938Y-34725413D01*
X69086094Y-34953655D01*
X69086096Y-34953659D01*
X69086097Y-34953663D01*
X69132632Y-35053457D01*
X69185965Y-35167830D01*
X69185967Y-35167834D01*
X69321501Y-35361395D01*
X69321504Y-35361400D01*
X69488597Y-35528493D01*
X69488603Y-35528498D01*
X69674158Y-35658425D01*
X69717783Y-35713002D01*
X69724977Y-35782500D01*
X69693454Y-35844855D01*
X69674158Y-35861575D01*
X69488597Y-35991505D01*
X69321505Y-36158597D01*
X69185965Y-36352169D01*
X69185964Y-36352171D01*
X69086098Y-36566335D01*
X69086094Y-36566344D01*
X69024938Y-36794586D01*
X69024936Y-36794596D01*
X69004341Y-37029999D01*
X69004341Y-37030000D01*
X69024936Y-37265403D01*
X69024938Y-37265413D01*
X69086094Y-37493655D01*
X69086096Y-37493659D01*
X69086097Y-37493663D01*
X69185965Y-37707830D01*
X69185967Y-37707834D01*
X69321501Y-37901395D01*
X69321506Y-37901402D01*
X69488597Y-38068493D01*
X69488603Y-38068498D01*
X69674158Y-38198425D01*
X69717783Y-38253002D01*
X69724977Y-38322500D01*
X69693454Y-38384855D01*
X69674158Y-38401575D01*
X69488597Y-38531505D01*
X69321505Y-38698597D01*
X69185965Y-38892169D01*
X69185964Y-38892171D01*
X69086098Y-39106335D01*
X69086094Y-39106344D01*
X69024938Y-39334586D01*
X69024936Y-39334596D01*
X69004341Y-39569999D01*
X69004341Y-39570000D01*
X69024936Y-39805403D01*
X69024938Y-39805413D01*
X69086094Y-40033655D01*
X69086096Y-40033659D01*
X69086097Y-40033663D01*
X69162050Y-40196545D01*
X69185965Y-40247830D01*
X69185967Y-40247834D01*
X69321501Y-40441395D01*
X69321506Y-40441402D01*
X69488597Y-40608493D01*
X69488603Y-40608498D01*
X69674158Y-40738425D01*
X69717783Y-40793002D01*
X69724977Y-40862500D01*
X69693454Y-40924855D01*
X69674158Y-40941575D01*
X69488597Y-41071505D01*
X69321505Y-41238597D01*
X69185965Y-41432169D01*
X69185964Y-41432171D01*
X69086098Y-41646335D01*
X69086094Y-41646344D01*
X69024938Y-41874586D01*
X69024936Y-41874596D01*
X69004341Y-42109999D01*
X69004341Y-42110000D01*
X69024936Y-42345403D01*
X69024938Y-42345413D01*
X69086094Y-42573655D01*
X69086096Y-42573659D01*
X69086097Y-42573663D01*
X69118474Y-42643095D01*
X69128966Y-42712173D01*
X69100446Y-42775957D01*
X69041970Y-42814196D01*
X69006092Y-42819500D01*
X53989352Y-42819500D01*
X53922313Y-42799815D01*
X53901671Y-42783181D01*
X53266602Y-42148112D01*
X53233117Y-42086789D01*
X53231065Y-42074333D01*
X53221270Y-41987392D01*
X53178601Y-41865453D01*
X53175041Y-41795676D01*
X53209770Y-41735048D01*
X53271763Y-41702821D01*
X53295644Y-41700500D01*
X56574506Y-41700500D01*
X56640477Y-41719506D01*
X56650474Y-41725787D01*
X56650475Y-41725787D01*
X56650478Y-41725789D01*
X56820745Y-41785368D01*
X56820750Y-41785369D01*
X56999996Y-41805565D01*
X57000000Y-41805565D01*
X57000004Y-41805565D01*
X57179249Y-41785369D01*
X57179252Y-41785368D01*
X57179255Y-41785368D01*
X57349522Y-41725789D01*
X57502262Y-41629816D01*
X57629816Y-41502262D01*
X57725789Y-41349522D01*
X57785368Y-41179255D01*
X57785369Y-41179249D01*
X57805565Y-41000003D01*
X57805565Y-40999996D01*
X57785369Y-40820750D01*
X57785366Y-40820737D01*
X57725790Y-40650479D01*
X57719506Y-40640478D01*
X57700500Y-40574507D01*
X57700500Y-35841519D01*
X57720185Y-35774480D01*
X57736819Y-35753838D01*
X59503838Y-33986819D01*
X59565161Y-33953334D01*
X59591519Y-33950500D01*
X68944818Y-33950500D01*
X69011857Y-33970185D01*
G37*
%TD.AperFunction*%
%TA.AperFunction,Conductor*%
G36*
X74693039Y-25520185D02*
G01*
X74738794Y-25572989D01*
X74750000Y-25624500D01*
X74750000Y-31750000D01*
X83750000Y-31750000D01*
X83750000Y-25624500D01*
X83769685Y-25557461D01*
X83822489Y-25511706D01*
X83874000Y-25500500D01*
X87348046Y-25500500D01*
X87415085Y-25520185D01*
X87460840Y-25572989D01*
X87470784Y-25642147D01*
X87441759Y-25705703D01*
X87419169Y-25726075D01*
X87268597Y-25831505D01*
X87101505Y-25998597D01*
X86965965Y-26192169D01*
X86965964Y-26192171D01*
X86866098Y-26406335D01*
X86866094Y-26406344D01*
X86804938Y-26634586D01*
X86804936Y-26634596D01*
X86784341Y-26869999D01*
X86784341Y-26870000D01*
X86804936Y-27105403D01*
X86804938Y-27105413D01*
X86866094Y-27333655D01*
X86866096Y-27333659D01*
X86866097Y-27333663D01*
X86965965Y-27547830D01*
X86965967Y-27547834D01*
X87101501Y-27741395D01*
X87101506Y-27741402D01*
X87268597Y-27908493D01*
X87268603Y-27908498D01*
X87454158Y-28038425D01*
X87497783Y-28093002D01*
X87504977Y-28162500D01*
X87473454Y-28224855D01*
X87454158Y-28241575D01*
X87268597Y-28371505D01*
X87101505Y-28538597D01*
X86965965Y-28732169D01*
X86965964Y-28732171D01*
X86866098Y-28946335D01*
X86866094Y-28946344D01*
X86804938Y-29174586D01*
X86804936Y-29174596D01*
X86784341Y-29409999D01*
X86784341Y-29410000D01*
X86804936Y-29645403D01*
X86804938Y-29645413D01*
X86866094Y-29873655D01*
X86866096Y-29873659D01*
X86866097Y-29873663D01*
X86965965Y-30087830D01*
X86965967Y-30087834D01*
X87044157Y-30199500D01*
X87101501Y-30281396D01*
X87101506Y-30281402D01*
X87223818Y-30403714D01*
X87257303Y-30465037D01*
X87252319Y-30534729D01*
X87210447Y-30590662D01*
X87179471Y-30607577D01*
X87047912Y-30656646D01*
X87047906Y-30656649D01*
X86932812Y-30742809D01*
X86932809Y-30742812D01*
X86846649Y-30857906D01*
X86846645Y-30857913D01*
X86796403Y-30992620D01*
X86796401Y-30992627D01*
X86790000Y-31052155D01*
X86790000Y-31700000D01*
X87695440Y-31700000D01*
X87664755Y-31753147D01*
X87630000Y-31882857D01*
X87630000Y-32017143D01*
X87664755Y-32146853D01*
X87695440Y-32200000D01*
X86790000Y-32200000D01*
X86790000Y-32847844D01*
X86796401Y-32907372D01*
X86796403Y-32907379D01*
X86846645Y-33042086D01*
X86846649Y-33042093D01*
X86932809Y-33157187D01*
X86932812Y-33157190D01*
X87047906Y-33243350D01*
X87047913Y-33243354D01*
X87179470Y-33292421D01*
X87235403Y-33334292D01*
X87259821Y-33399756D01*
X87244970Y-33468029D01*
X87223819Y-33496284D01*
X87101503Y-33618600D01*
X86965965Y-33812169D01*
X86965964Y-33812171D01*
X86866098Y-34026335D01*
X86866094Y-34026344D01*
X86804938Y-34254586D01*
X86804936Y-34254596D01*
X86784341Y-34489999D01*
X86784341Y-34490000D01*
X86804936Y-34725403D01*
X86804938Y-34725413D01*
X86866094Y-34953655D01*
X86866096Y-34953659D01*
X86866097Y-34953663D01*
X86912632Y-35053457D01*
X86965965Y-35167830D01*
X86965967Y-35167834D01*
X87101501Y-35361395D01*
X87101504Y-35361400D01*
X87268597Y-35528493D01*
X87268603Y-35528498D01*
X87454158Y-35658425D01*
X87497783Y-35713002D01*
X87504977Y-35782500D01*
X87473454Y-35844855D01*
X87454158Y-35861575D01*
X87268597Y-35991505D01*
X87101505Y-36158597D01*
X86965965Y-36352169D01*
X86965964Y-36352171D01*
X86866098Y-36566335D01*
X86866094Y-36566344D01*
X86804938Y-36794586D01*
X86804936Y-36794596D01*
X86784341Y-37029999D01*
X86784341Y-37030000D01*
X86804937Y-37265409D01*
X86804937Y-37265410D01*
X86809442Y-37282225D01*
X86807776Y-37352075D01*
X86777347Y-37401994D01*
X83416162Y-40763181D01*
X83354839Y-40796666D01*
X83328481Y-40799500D01*
X75091519Y-40799500D01*
X75024480Y-40779815D01*
X75003838Y-40763181D01*
X73736819Y-39496162D01*
X73703334Y-39434839D01*
X73700500Y-39408481D01*
X73700500Y-34681004D01*
X73673581Y-34545677D01*
X73673580Y-34545676D01*
X73673580Y-34545672D01*
X73650520Y-34489999D01*
X73620778Y-34418195D01*
X73620771Y-34418182D01*
X73544115Y-34303459D01*
X73544114Y-34303458D01*
X73446542Y-34205886D01*
X73191156Y-33950500D01*
X71946546Y-32705888D01*
X71946545Y-32705887D01*
X71889558Y-32667810D01*
X71831811Y-32629225D01*
X71831809Y-32629224D01*
X71831806Y-32629222D01*
X71786546Y-32610474D01*
X71732143Y-32566633D01*
X71710079Y-32500338D01*
X71710000Y-32495914D01*
X71710000Y-32200000D01*
X70804560Y-32200000D01*
X70835245Y-32146853D01*
X70870000Y-32017143D01*
X70870000Y-31882857D01*
X70835245Y-31753147D01*
X70804560Y-31700000D01*
X71710000Y-31700000D01*
X71710000Y-31052172D01*
X71709999Y-31052155D01*
X71703598Y-30992627D01*
X71703596Y-30992620D01*
X71653354Y-30857913D01*
X71653350Y-30857906D01*
X71567190Y-30742812D01*
X71567187Y-30742809D01*
X71452093Y-30656649D01*
X71452088Y-30656646D01*
X71320528Y-30607577D01*
X71264595Y-30565705D01*
X71240178Y-30500241D01*
X71255030Y-30431968D01*
X71276175Y-30403720D01*
X71398495Y-30281401D01*
X71534035Y-30087830D01*
X71633903Y-29873663D01*
X71695063Y-29645408D01*
X71715659Y-29410000D01*
X71695063Y-29174592D01*
X71633903Y-28946337D01*
X71534035Y-28732171D01*
X71398495Y-28538599D01*
X71398494Y-28538597D01*
X71231402Y-28371506D01*
X71231396Y-28371501D01*
X71045842Y-28241575D01*
X71002217Y-28186998D01*
X70995023Y-28117500D01*
X71026546Y-28055145D01*
X71045842Y-28038425D01*
X71068026Y-28022891D01*
X71231401Y-27908495D01*
X71398495Y-27741401D01*
X71534035Y-27547830D01*
X71633903Y-27333663D01*
X71695063Y-27105408D01*
X71715659Y-26870000D01*
X71695063Y-26634592D01*
X71633903Y-26406337D01*
X71534035Y-26192171D01*
X71504378Y-26149815D01*
X71398494Y-25998597D01*
X71231402Y-25831506D01*
X71231395Y-25831501D01*
X71080832Y-25726075D01*
X71037207Y-25671498D01*
X71030014Y-25602000D01*
X71061536Y-25539645D01*
X71121766Y-25504231D01*
X71151955Y-25500500D01*
X74626000Y-25500500D01*
X74693039Y-25520185D01*
G37*
%TD.AperFunction*%
%TA.AperFunction,Conductor*%
G36*
X109442539Y-25520185D02*
G01*
X109488294Y-25572989D01*
X109499500Y-25624500D01*
X109499500Y-28959480D01*
X109479815Y-29026519D01*
X109427011Y-29072274D01*
X109357853Y-29082218D01*
X109294297Y-29053193D01*
X109287819Y-29047161D01*
X106566545Y-26325887D01*
X106451807Y-26249222D01*
X106324332Y-26196421D01*
X106324322Y-26196418D01*
X106188996Y-26169500D01*
X106188994Y-26169500D01*
X106188993Y-26169500D01*
X89362711Y-26169500D01*
X89295672Y-26149815D01*
X89261136Y-26116623D01*
X89178494Y-25998597D01*
X89011402Y-25831506D01*
X89011395Y-25831501D01*
X88860832Y-25726075D01*
X88817207Y-25671498D01*
X88810014Y-25602000D01*
X88841536Y-25539645D01*
X88901766Y-25504231D01*
X88931955Y-25500500D01*
X109375500Y-25500500D01*
X109442539Y-25520185D01*
G37*
%TD.AperFunction*%
%TD*%
M02*
