M48
; DRILL file {KiCad 9.0.1-9.0.1-0~ubuntu24.04.1} date 2025-04-07T11:01:36-0400
; FORMAT={-:-/ absolute / inch / decimal}
; #@! TF.CreationDate,2025-04-07T11:01:36-04:00
; #@! TF.GenerationSoftware,Kicad,Pcbnew,9.0.1-9.0.1-0~ubuntu24.04.1
; #@! TF.FileFunction,Plated,1,2,PTH
FMAT,2
INCH
; #@! TA.AperFunction,Plated,PTH,ViaDrill
T1C0.0118
; #@! TA.AperFunction,Plated,PTH,ComponentDrill
T2C0.0236
; #@! TA.AperFunction,Plated,PTH,ComponentDrill
T3C0.0370
; #@! TA.AperFunction,Plated,PTH,ComponentDrill
T4C0.0512
; #@! TA.AperFunction,Plated,PTH,ComponentDrill
T5C0.1693
%
G90
G05
T1
X2.0571Y-5.4134
X2.5736Y-3.4294
X2.5736Y-3.4687
X2.5736Y-4.0888
X2.5736Y-4.1282
X2.5736Y-4.7483
X2.5736Y-4.7876
X2.5746Y-2.7699
X2.5746Y-2.8093
X2.5787Y-3.4941
X2.5787Y-4.1535
X2.5787Y-4.813
X2.5797Y-2.8346
X2.5834Y-3.3998
X2.5834Y-4.0593
X2.5834Y-4.7187
X2.5844Y-2.7404
X2.5933Y-3.1636
X2.5933Y-3.8231
X2.5933Y-4.4825
X2.5941Y-3.4535
X2.5941Y-4.1129
X2.5941Y-4.7724
X2.5942Y-2.5042
X2.5951Y-2.794
X2.6031Y-3.4294
X2.6031Y-3.4786
X2.6031Y-4.0888
X2.6031Y-4.138
X2.6031Y-4.7483
X2.6031Y-4.7975
X2.6041Y-2.7699
X2.6041Y-2.8191
X2.613Y-3.1439
X2.613Y-3.1833
X2.613Y-3.8034
X2.613Y-3.8427
X2.613Y-4.4628
X2.613Y-4.5022
X2.6139Y-2.4845
X2.6139Y-2.5238
X2.6176Y-3.4998
X2.6176Y-4.1593
X2.6176Y-4.8187
X2.6186Y-2.8404
X2.6228Y-3.0061
X2.6228Y-3.6656
X2.6228Y-4.325
X2.6238Y-2.3467
X2.6314Y-3.4404
X2.6314Y-4.0999
X2.6314Y-4.7593
X2.6324Y-2.781
X2.6327Y-3.1242
X2.6327Y-3.1636
X2.6327Y-3.203
X2.6327Y-3.4786
X2.6327Y-3.7837
X2.6327Y-3.8231
X2.6327Y-3.8624
X2.6327Y-4.138
X2.6327Y-4.4431
X2.6327Y-4.4825
X2.6327Y-4.5219
X2.6327Y-4.7975
X2.6336Y-2.4648
X2.6336Y-2.5042
X2.6336Y-2.5435
X2.6336Y-2.8191
X2.6523Y-3.1439
X2.6523Y-3.1833
X2.6523Y-3.8034
X2.6523Y-3.8427
X2.6523Y-4.4628
X2.6523Y-4.5022
X2.6533Y-2.4845
X2.6533Y-2.5238
X2.672Y-3.0061
X2.672Y-3.1636
X2.672Y-3.6656
X2.672Y-3.8231
X2.672Y-4.325
X2.672Y-4.4825
X2.673Y-2.3467
X2.673Y-2.5042
X2.8051Y-3.0118
X2.815Y-2.3524
X2.815Y-3.6516
X2.815Y-4.3307
X2.8445Y-4.625
X2.8445Y-5.1181
X2.8543Y-2.5984
X2.8543Y-3.2382
X2.8543Y-3.9173
X2.9134Y-3.9862
X2.9232Y-2.4311
X2.9232Y-2.8248
X2.9232Y-2.9626
X2.9232Y-3.7598
X2.9429Y-3.5925
X2.9429Y-4.4291
X3.0315Y-3.4941
X3.0487Y-2.2507
X3.0512Y-5.1673
X3.0709Y-2.6083
X3.0709Y-3.2579
X3.0709Y-3.9272
X3.0709Y-4.5866
X3.1004Y-2.5412
X3.1004Y-3.2006
X3.1004Y-3.8601
X3.1004Y-4.5195
X3.1429Y-3.2506
X3.1429Y-3.9101
X3.1429Y-4.5695
X3.1438Y-2.5912
X3.1769Y-3.0829
X3.1801Y-2.249
X3.2283Y-2.2569
X3.2382Y-3.0217
X3.2421Y-2.3602
X3.248Y-3.6811
X3.248Y-4.3406
X3.2579Y-2.8346
X3.2972Y-3.5236
X3.3071Y-3.8484
X3.3071Y-5.2657
X3.3169Y-3.6713
X3.3268Y-4.1142
X3.3268Y-5.2461
X3.3268Y-5.2854
X3.3465Y-3.9469
X3.3465Y-5.2657
X3.3858Y-3.874
X3.4055Y-4.2028
X3.5138Y-1.998
X3.5138Y-2.1063
X3.5138Y-2.2146
X3.5246Y-1.8504
X3.5335Y-5.374
X3.5394Y-1.7067
X3.5433Y-2.4213
X3.5433Y-2.7264
X3.5531Y-5.3543
X3.5531Y-5.3937
X3.563Y-2.9035
X3.5728Y-5.374
X3.622Y-3.4744
X3.626Y-4.0512
X3.6614Y-5.4626
X3.6929Y-3.8425
X3.7598Y-5.2657
X3.7795Y-5.2461
X3.7795Y-5.2854
X3.7992Y-5.2657
X3.8031Y-3.811
X3.8494Y-1.9774
X3.8524Y-1.748
X3.8602Y-2.5069
X3.8681Y-2.8927
X3.9567Y-5.0787
X4.0748Y-4.6555
X4.0843Y-3.1331
X4.0945Y-5.0197
X4.1102Y-4.1969
X4.1659Y-4.725
X4.3071Y-4.127
X4.3258Y-3.7844
X4.3393Y-2.0484
X4.3493Y-3.0381
X4.3743Y-2.0484
X4.3918Y-1.6481
X4.5256Y-3.6604
X4.5433Y-4.7638
X4.5768Y-1.6484
X4.5925Y-2.1063
X4.5965Y-2.6378
X4.6118Y-2.3831
X4.6752Y-3.1988
X4.7146Y-2.5886
X4.7488Y-2.7165
X4.7638Y-2.9626
X4.7835Y-2.7165
X4.8055Y-4.1642
X4.8093Y-2.4508
X4.8172Y-4.6676
X4.8482Y-2.4508
X4.8868Y-2.6881
X4.9293Y-2.2356
X4.9293Y-2.6881
X4.9508Y-3.3858
X4.9508Y-4.3632
X4.9803Y-3.0709
X4.9902Y-3.6713
X5.0273Y-4.2768
X5.051Y-4.3004
X5.0668Y-2.5456
X5.1205Y-4.4988
X5.15Y-4.3512
X5.1673Y-4.6752
X5.1732Y-3.873
X5.2362Y-3.0118
X5.2362Y-3.3071
X5.2756Y-1.6142
X5.2756Y-5.3445
T2
X2.2352Y-1.9685
X2.2352Y-5.1181
X2.2724Y-1.8787
X2.2724Y-2.0583
X2.2724Y-5.0283
X2.2724Y-5.2079
X2.3622Y-1.8415
X2.3622Y-2.0955
X2.3622Y-4.9911
X2.3622Y-5.2451
X2.452Y-1.8787
X2.452Y-2.0583
X2.452Y-5.0283
X2.452Y-5.2079
X2.4892Y-1.9685
X2.4892Y-5.1181
X4.7943Y-1.9685
X4.7943Y-5.1181
X4.8315Y-1.8787
X4.8315Y-2.0583
X4.8315Y-5.0283
X4.8315Y-5.2079
X4.9213Y-1.8415
X4.9213Y-2.0955
X4.9213Y-4.9911
X4.9213Y-5.2451
X5.011Y-1.8787
X5.011Y-2.0583
X5.011Y-5.0283
X5.011Y-5.2079
X5.0482Y-1.9685
X5.0482Y-5.1181
T3
X4.9504Y-3.8232
X4.9504Y-3.9032
X4.9504Y-3.9832
X4.9504Y-4.0632
X4.9504Y-4.4433
X4.9504Y-4.5233
X4.9504Y-4.6033
X4.9504Y-4.6833
X5.0205Y-3.7832
X5.0205Y-3.8632
X5.0205Y-3.9432
X5.0205Y-4.0232
X5.0205Y-4.4033
X5.0205Y-4.4833
X5.0205Y-4.5633
X5.0205Y-4.6433
T4
X2.1183Y-2.4606
X2.1183Y-2.6575
X2.1183Y-2.8543
X2.1183Y-3.0512
X2.1183Y-3.248
X2.1183Y-3.4449
X2.1183Y-3.6417
X2.1183Y-3.8386
X2.1183Y-4.0354
X2.1183Y-4.2323
X2.1183Y-4.4291
X2.1183Y-4.626
T5
X2.3622Y-1.9685
X2.3622Y-5.1181
X4.9213Y-1.9685
X4.9213Y-5.1181
M30
