%TF.GenerationSoftware,KiCad,Pcbnew,8.0.6*%
%TF.CreationDate,2025-01-28T00:54:02-05:00*%
%TF.ProjectId,Pico_LCC,5069636f-5f4c-4434-932e-6b696361645f,1*%
%TF.SameCoordinates,Original*%
%TF.FileFunction,Soldermask,Bot*%
%TF.FilePolarity,Negative*%
%FSLAX46Y46*%
G04 Gerber Fmt 4.6, Leading zero omitted, Abs format (unit mm)*
G04 Created by KiCad (PCBNEW 8.0.6) date 2025-01-28 00:54:02*
%MOMM*%
%LPD*%
G01*
G04 APERTURE LIST*
%ADD10C,0.900000*%
%ADD11C,8.600000*%
%ADD12O,1.800000X1.800000*%
%ADD13O,1.500000X1.500000*%
%ADD14O,1.700000X1.700000*%
%ADD15R,1.700000X1.700000*%
%ADD16R,2.600000X2.600000*%
%ADD17C,2.600000*%
%ADD18C,3.300000*%
%ADD19C,1.652000*%
G04 APERTURE END LIST*
D10*
%TO.C,H4*%
X96775000Y-35000000D03*
X97719581Y-32719581D03*
X97719581Y-37280419D03*
X100000000Y-31775000D03*
D11*
X100000000Y-35000000D03*
D10*
X100000000Y-38225000D03*
X102280419Y-32719581D03*
X102280419Y-37280419D03*
X103225000Y-35000000D03*
%TD*%
%TO.C,H2*%
X31775000Y-115000000D03*
X32719581Y-112719581D03*
X32719581Y-117280419D03*
X35000000Y-111775000D03*
D11*
X35000000Y-115000000D03*
D10*
X35000000Y-118225000D03*
X37280419Y-112719581D03*
X37280419Y-117280419D03*
X38225000Y-115000000D03*
%TD*%
D12*
%TO.C,U1*%
X76525000Y-27000000D03*
D13*
X76825000Y-30030000D03*
X81675000Y-30030000D03*
D12*
X81975000Y-27000000D03*
D14*
X70360000Y-26870000D03*
X70360000Y-29410000D03*
D15*
X70360000Y-31950000D03*
D14*
X70360000Y-34490000D03*
X70360000Y-37030000D03*
X70360000Y-39570000D03*
X70360000Y-42110000D03*
D15*
X70360000Y-44650000D03*
D14*
X70360000Y-47190000D03*
X70360000Y-49730000D03*
X70360000Y-52270000D03*
X70360000Y-54810000D03*
D15*
X70360000Y-57350000D03*
D14*
X70360000Y-59890000D03*
X70360000Y-62430000D03*
X70360000Y-64970000D03*
X70360000Y-67510000D03*
D15*
X70360000Y-70050000D03*
D14*
X70360000Y-72590000D03*
X70360000Y-75130000D03*
X88140000Y-75130000D03*
X88140000Y-72590000D03*
D15*
X88140000Y-70050000D03*
D14*
X88140000Y-67510000D03*
X88140000Y-64970000D03*
X88140000Y-62430000D03*
X88140000Y-59890000D03*
D15*
X88140000Y-57350000D03*
D14*
X88140000Y-54810000D03*
X88140000Y-52270000D03*
X88140000Y-49730000D03*
X88140000Y-47190000D03*
D15*
X88140000Y-44650000D03*
D14*
X88140000Y-42110000D03*
X88140000Y-39570000D03*
X88140000Y-37030000D03*
X88140000Y-34490000D03*
D15*
X88140000Y-31950000D03*
D14*
X88140000Y-29410000D03*
X88140000Y-26870000D03*
X76710000Y-74900000D03*
D15*
X79250000Y-74900000D03*
D14*
X81790000Y-74900000D03*
%TD*%
D16*
%TO.C,J1*%
X28805000Y-102500000D03*
D17*
X28805000Y-97500000D03*
X28805000Y-92500000D03*
X28805000Y-87500000D03*
X28805000Y-82500000D03*
X28805000Y-77500000D03*
X28805000Y-72500000D03*
X28805000Y-67500000D03*
X28805000Y-62500000D03*
X28805000Y-57500000D03*
X28805000Y-52500000D03*
X28805000Y-47500000D03*
%TD*%
D10*
%TO.C,H3*%
X96775000Y-115000000D03*
X97719581Y-112719581D03*
X97719581Y-117280419D03*
X100000000Y-111775000D03*
D11*
X100000000Y-115000000D03*
D10*
X100000000Y-118225000D03*
X102280419Y-112719581D03*
X102280419Y-117280419D03*
X103225000Y-115000000D03*
%TD*%
D18*
%TO.C,J2*%
X105060000Y-106745500D03*
X105060000Y-78295500D03*
D19*
X102520000Y-96843500D03*
X100740000Y-97859500D03*
X102520000Y-98875500D03*
X100740000Y-99891500D03*
X102520000Y-100907500D03*
X100740000Y-101923500D03*
X102520000Y-102939500D03*
X100740000Y-103955500D03*
X102520000Y-81093500D03*
X100740000Y-82109500D03*
X102520000Y-83125500D03*
X100740000Y-84141500D03*
X102520000Y-85157500D03*
X100740000Y-86173500D03*
X102520000Y-87189500D03*
X100740000Y-88205500D03*
%TD*%
D10*
%TO.C,H1*%
X31775000Y-35000000D03*
X32719581Y-32719581D03*
X32719581Y-37280419D03*
X35000000Y-31775000D03*
D11*
X35000000Y-35000000D03*
D10*
X35000000Y-38225000D03*
X37280419Y-32719581D03*
X37280419Y-37280419D03*
X38225000Y-35000000D03*
%TD*%
M02*
