%TF.GenerationSoftware,KiCad,Pcbnew,8.0.6*%
%TF.CreationDate,2025-02-14T22:15:32-05:00*%
%TF.ProjectId,Pico_LCC,5069636f-5f4c-4434-932e-6b696361645f,3*%
%TF.SameCoordinates,Original*%
%TF.FileFunction,Drillmap*%
%TF.FilePolarity,Positive*%
%FSLAX45Y45*%
G04 Gerber Fmt 4.5, Leading zero omitted, Abs format (unit mm)*
G04 Created by KiCad (PCBNEW 8.0.6) date 2025-02-14 22:15:32*
%MOMM*%
%LPD*%
G01*
G04 APERTURE LIST*
%ADD10C,0.200000*%
%ADD11C,0.150000*%
%ADD12C,0.180000*%
%ADD13C,0.330000*%
G04 APERTURE END LIST*
D10*
X2500000Y-2500000D02*
X11000000Y-2500000D01*
X11000000Y-12500000D01*
X2500000Y-12500000D01*
X2500000Y-2500000D01*
D11*
X7607500Y-2928000D02*
X7757500Y-3078000D01*
X7757500Y-2928000D02*
X7607500Y-3078000D01*
X8092500Y-2928000D02*
X8242500Y-3078000D01*
X8242500Y-2928000D02*
X8092500Y-3078000D01*
D12*
X7742500Y-2700000D02*
G75*
G02*
X7562500Y-2700000I-90000J0D01*
G01*
X7562500Y-2700000D02*
G75*
G02*
X7742500Y-2700000I90000J0D01*
G01*
X8287500Y-2700000D02*
G75*
G02*
X8107500Y-2700000I-90000J0D01*
G01*
X8107500Y-2700000D02*
G75*
G02*
X8287500Y-2700000I90000J0D01*
G01*
D13*
X10506000Y-7664550D02*
X10506000Y-7994550D01*
X10341000Y-7829550D02*
X10671000Y-7829550D01*
X10506000Y-10509550D02*
X10506000Y-10839550D01*
X10341000Y-10674550D02*
X10671000Y-10674550D01*
D10*
X2750777Y-12821484D02*
X2750777Y-12621484D01*
X2750777Y-12621484D02*
X2798396Y-12621484D01*
X2798396Y-12621484D02*
X2826967Y-12631008D01*
X2826967Y-12631008D02*
X2846015Y-12650055D01*
X2846015Y-12650055D02*
X2855539Y-12669103D01*
X2855539Y-12669103D02*
X2865062Y-12707198D01*
X2865062Y-12707198D02*
X2865062Y-12735769D01*
X2865062Y-12735769D02*
X2855539Y-12773865D01*
X2855539Y-12773865D02*
X2846015Y-12792912D01*
X2846015Y-12792912D02*
X2826967Y-12811960D01*
X2826967Y-12811960D02*
X2798396Y-12821484D01*
X2798396Y-12821484D02*
X2750777Y-12821484D01*
X2950777Y-12821484D02*
X2950777Y-12688150D01*
X2950777Y-12726246D02*
X2960301Y-12707198D01*
X2960301Y-12707198D02*
X2969824Y-12697674D01*
X2969824Y-12697674D02*
X2988872Y-12688150D01*
X2988872Y-12688150D02*
X3007920Y-12688150D01*
X3074586Y-12821484D02*
X3074586Y-12688150D01*
X3074586Y-12621484D02*
X3065062Y-12631008D01*
X3065062Y-12631008D02*
X3074586Y-12640531D01*
X3074586Y-12640531D02*
X3084110Y-12631008D01*
X3084110Y-12631008D02*
X3074586Y-12621484D01*
X3074586Y-12621484D02*
X3074586Y-12640531D01*
X3198396Y-12821484D02*
X3179348Y-12811960D01*
X3179348Y-12811960D02*
X3169824Y-12792912D01*
X3169824Y-12792912D02*
X3169824Y-12621484D01*
X3303158Y-12821484D02*
X3284110Y-12811960D01*
X3284110Y-12811960D02*
X3274586Y-12792912D01*
X3274586Y-12792912D02*
X3274586Y-12621484D01*
X3531729Y-12821484D02*
X3531729Y-12621484D01*
X3531729Y-12621484D02*
X3598396Y-12764341D01*
X3598396Y-12764341D02*
X3665062Y-12621484D01*
X3665062Y-12621484D02*
X3665062Y-12821484D01*
X3846015Y-12821484D02*
X3846015Y-12716722D01*
X3846015Y-12716722D02*
X3836491Y-12697674D01*
X3836491Y-12697674D02*
X3817443Y-12688150D01*
X3817443Y-12688150D02*
X3779348Y-12688150D01*
X3779348Y-12688150D02*
X3760301Y-12697674D01*
X3846015Y-12811960D02*
X3826967Y-12821484D01*
X3826967Y-12821484D02*
X3779348Y-12821484D01*
X3779348Y-12821484D02*
X3760301Y-12811960D01*
X3760301Y-12811960D02*
X3750777Y-12792912D01*
X3750777Y-12792912D02*
X3750777Y-12773865D01*
X3750777Y-12773865D02*
X3760301Y-12754817D01*
X3760301Y-12754817D02*
X3779348Y-12745293D01*
X3779348Y-12745293D02*
X3826967Y-12745293D01*
X3826967Y-12745293D02*
X3846015Y-12735769D01*
X3941253Y-12688150D02*
X3941253Y-12888150D01*
X3941253Y-12697674D02*
X3960301Y-12688150D01*
X3960301Y-12688150D02*
X3998396Y-12688150D01*
X3998396Y-12688150D02*
X4017443Y-12697674D01*
X4017443Y-12697674D02*
X4026967Y-12707198D01*
X4026967Y-12707198D02*
X4036491Y-12726246D01*
X4036491Y-12726246D02*
X4036491Y-12783388D01*
X4036491Y-12783388D02*
X4026967Y-12802436D01*
X4026967Y-12802436D02*
X4017443Y-12811960D01*
X4017443Y-12811960D02*
X3998396Y-12821484D01*
X3998396Y-12821484D02*
X3960301Y-12821484D01*
X3960301Y-12821484D02*
X3941253Y-12811960D01*
X4122205Y-12802436D02*
X4131729Y-12811960D01*
X4131729Y-12811960D02*
X4122205Y-12821484D01*
X4122205Y-12821484D02*
X4112682Y-12811960D01*
X4112682Y-12811960D02*
X4122205Y-12802436D01*
X4122205Y-12802436D02*
X4122205Y-12821484D01*
X4122205Y-12697674D02*
X4131729Y-12707198D01*
X4131729Y-12707198D02*
X4122205Y-12716722D01*
X4122205Y-12716722D02*
X4112682Y-12707198D01*
X4112682Y-12707198D02*
X4122205Y-12697674D01*
X4122205Y-12697674D02*
X4122205Y-12716722D01*
D11*
X2340000Y-13075000D02*
X2490000Y-13225000D01*
X2490000Y-13075000D02*
X2340000Y-13225000D01*
D10*
X2855539Y-13241484D02*
X2741253Y-13241484D01*
X2798396Y-13241484D02*
X2798396Y-13041484D01*
X2798396Y-13041484D02*
X2779348Y-13070055D01*
X2779348Y-13070055D02*
X2760301Y-13089103D01*
X2760301Y-13089103D02*
X2741253Y-13098627D01*
X2941253Y-13222436D02*
X2950777Y-13231960D01*
X2950777Y-13231960D02*
X2941253Y-13241484D01*
X2941253Y-13241484D02*
X2931729Y-13231960D01*
X2931729Y-13231960D02*
X2941253Y-13222436D01*
X2941253Y-13222436D02*
X2941253Y-13241484D01*
X3131729Y-13041484D02*
X3036491Y-13041484D01*
X3036491Y-13041484D02*
X3026967Y-13136722D01*
X3026967Y-13136722D02*
X3036491Y-13127198D01*
X3036491Y-13127198D02*
X3055539Y-13117674D01*
X3055539Y-13117674D02*
X3103158Y-13117674D01*
X3103158Y-13117674D02*
X3122205Y-13127198D01*
X3122205Y-13127198D02*
X3131729Y-13136722D01*
X3131729Y-13136722D02*
X3141253Y-13155769D01*
X3141253Y-13155769D02*
X3141253Y-13203388D01*
X3141253Y-13203388D02*
X3131729Y-13222436D01*
X3131729Y-13222436D02*
X3122205Y-13231960D01*
X3122205Y-13231960D02*
X3103158Y-13241484D01*
X3103158Y-13241484D02*
X3055539Y-13241484D01*
X3055539Y-13241484D02*
X3036491Y-13231960D01*
X3036491Y-13231960D02*
X3026967Y-13222436D01*
X3265062Y-13041484D02*
X3284110Y-13041484D01*
X3284110Y-13041484D02*
X3303158Y-13051008D01*
X3303158Y-13051008D02*
X3312682Y-13060531D01*
X3312682Y-13060531D02*
X3322205Y-13079579D01*
X3322205Y-13079579D02*
X3331729Y-13117674D01*
X3331729Y-13117674D02*
X3331729Y-13165293D01*
X3331729Y-13165293D02*
X3322205Y-13203388D01*
X3322205Y-13203388D02*
X3312682Y-13222436D01*
X3312682Y-13222436D02*
X3303158Y-13231960D01*
X3303158Y-13231960D02*
X3284110Y-13241484D01*
X3284110Y-13241484D02*
X3265062Y-13241484D01*
X3265062Y-13241484D02*
X3246015Y-13231960D01*
X3246015Y-13231960D02*
X3236491Y-13222436D01*
X3236491Y-13222436D02*
X3226967Y-13203388D01*
X3226967Y-13203388D02*
X3217443Y-13165293D01*
X3217443Y-13165293D02*
X3217443Y-13117674D01*
X3217443Y-13117674D02*
X3226967Y-13079579D01*
X3226967Y-13079579D02*
X3236491Y-13060531D01*
X3236491Y-13060531D02*
X3246015Y-13051008D01*
X3246015Y-13051008D02*
X3265062Y-13041484D01*
X3455539Y-13041484D02*
X3474586Y-13041484D01*
X3474586Y-13041484D02*
X3493634Y-13051008D01*
X3493634Y-13051008D02*
X3503158Y-13060531D01*
X3503158Y-13060531D02*
X3512682Y-13079579D01*
X3512682Y-13079579D02*
X3522205Y-13117674D01*
X3522205Y-13117674D02*
X3522205Y-13165293D01*
X3522205Y-13165293D02*
X3512682Y-13203388D01*
X3512682Y-13203388D02*
X3503158Y-13222436D01*
X3503158Y-13222436D02*
X3493634Y-13231960D01*
X3493634Y-13231960D02*
X3474586Y-13241484D01*
X3474586Y-13241484D02*
X3455539Y-13241484D01*
X3455539Y-13241484D02*
X3436491Y-13231960D01*
X3436491Y-13231960D02*
X3426967Y-13222436D01*
X3426967Y-13222436D02*
X3417443Y-13203388D01*
X3417443Y-13203388D02*
X3407920Y-13165293D01*
X3407920Y-13165293D02*
X3407920Y-13117674D01*
X3407920Y-13117674D02*
X3417443Y-13079579D01*
X3417443Y-13079579D02*
X3426967Y-13060531D01*
X3426967Y-13060531D02*
X3436491Y-13051008D01*
X3436491Y-13051008D02*
X3455539Y-13041484D01*
X3607920Y-13241484D02*
X3607920Y-13108150D01*
X3607920Y-13127198D02*
X3617443Y-13117674D01*
X3617443Y-13117674D02*
X3636491Y-13108150D01*
X3636491Y-13108150D02*
X3665063Y-13108150D01*
X3665063Y-13108150D02*
X3684110Y-13117674D01*
X3684110Y-13117674D02*
X3693634Y-13136722D01*
X3693634Y-13136722D02*
X3693634Y-13241484D01*
X3693634Y-13136722D02*
X3703158Y-13117674D01*
X3703158Y-13117674D02*
X3722205Y-13108150D01*
X3722205Y-13108150D02*
X3750777Y-13108150D01*
X3750777Y-13108150D02*
X3769824Y-13117674D01*
X3769824Y-13117674D02*
X3779348Y-13136722D01*
X3779348Y-13136722D02*
X3779348Y-13241484D01*
X3874586Y-13241484D02*
X3874586Y-13108150D01*
X3874586Y-13127198D02*
X3884110Y-13117674D01*
X3884110Y-13117674D02*
X3903158Y-13108150D01*
X3903158Y-13108150D02*
X3931729Y-13108150D01*
X3931729Y-13108150D02*
X3950777Y-13117674D01*
X3950777Y-13117674D02*
X3960301Y-13136722D01*
X3960301Y-13136722D02*
X3960301Y-13241484D01*
X3960301Y-13136722D02*
X3969824Y-13117674D01*
X3969824Y-13117674D02*
X3988872Y-13108150D01*
X3988872Y-13108150D02*
X4017443Y-13108150D01*
X4017443Y-13108150D02*
X4036491Y-13117674D01*
X4036491Y-13117674D02*
X4046015Y-13136722D01*
X4046015Y-13136722D02*
X4046015Y-13241484D01*
X4436491Y-13031960D02*
X4265063Y-13289103D01*
X4693634Y-13041484D02*
X4712682Y-13041484D01*
X4712682Y-13041484D02*
X4731729Y-13051008D01*
X4731729Y-13051008D02*
X4741253Y-13060531D01*
X4741253Y-13060531D02*
X4750777Y-13079579D01*
X4750777Y-13079579D02*
X4760301Y-13117674D01*
X4760301Y-13117674D02*
X4760301Y-13165293D01*
X4760301Y-13165293D02*
X4750777Y-13203388D01*
X4750777Y-13203388D02*
X4741253Y-13222436D01*
X4741253Y-13222436D02*
X4731729Y-13231960D01*
X4731729Y-13231960D02*
X4712682Y-13241484D01*
X4712682Y-13241484D02*
X4693634Y-13241484D01*
X4693634Y-13241484D02*
X4674587Y-13231960D01*
X4674587Y-13231960D02*
X4665063Y-13222436D01*
X4665063Y-13222436D02*
X4655539Y-13203388D01*
X4655539Y-13203388D02*
X4646015Y-13165293D01*
X4646015Y-13165293D02*
X4646015Y-13117674D01*
X4646015Y-13117674D02*
X4655539Y-13079579D01*
X4655539Y-13079579D02*
X4665063Y-13060531D01*
X4665063Y-13060531D02*
X4674587Y-13051008D01*
X4674587Y-13051008D02*
X4693634Y-13041484D01*
X4846015Y-13222436D02*
X4855539Y-13231960D01*
X4855539Y-13231960D02*
X4846015Y-13241484D01*
X4846015Y-13241484D02*
X4836491Y-13231960D01*
X4836491Y-13231960D02*
X4846015Y-13222436D01*
X4846015Y-13222436D02*
X4846015Y-13241484D01*
X4979348Y-13041484D02*
X4998396Y-13041484D01*
X4998396Y-13041484D02*
X5017444Y-13051008D01*
X5017444Y-13051008D02*
X5026968Y-13060531D01*
X5026968Y-13060531D02*
X5036491Y-13079579D01*
X5036491Y-13079579D02*
X5046015Y-13117674D01*
X5046015Y-13117674D02*
X5046015Y-13165293D01*
X5046015Y-13165293D02*
X5036491Y-13203388D01*
X5036491Y-13203388D02*
X5026968Y-13222436D01*
X5026968Y-13222436D02*
X5017444Y-13231960D01*
X5017444Y-13231960D02*
X4998396Y-13241484D01*
X4998396Y-13241484D02*
X4979348Y-13241484D01*
X4979348Y-13241484D02*
X4960301Y-13231960D01*
X4960301Y-13231960D02*
X4950777Y-13222436D01*
X4950777Y-13222436D02*
X4941253Y-13203388D01*
X4941253Y-13203388D02*
X4931729Y-13165293D01*
X4931729Y-13165293D02*
X4931729Y-13117674D01*
X4931729Y-13117674D02*
X4941253Y-13079579D01*
X4941253Y-13079579D02*
X4950777Y-13060531D01*
X4950777Y-13060531D02*
X4960301Y-13051008D01*
X4960301Y-13051008D02*
X4979348Y-13041484D01*
X5226968Y-13041484D02*
X5131729Y-13041484D01*
X5131729Y-13041484D02*
X5122206Y-13136722D01*
X5122206Y-13136722D02*
X5131729Y-13127198D01*
X5131729Y-13127198D02*
X5150777Y-13117674D01*
X5150777Y-13117674D02*
X5198396Y-13117674D01*
X5198396Y-13117674D02*
X5217444Y-13127198D01*
X5217444Y-13127198D02*
X5226968Y-13136722D01*
X5226968Y-13136722D02*
X5236491Y-13155769D01*
X5236491Y-13155769D02*
X5236491Y-13203388D01*
X5236491Y-13203388D02*
X5226968Y-13222436D01*
X5226968Y-13222436D02*
X5217444Y-13231960D01*
X5217444Y-13231960D02*
X5198396Y-13241484D01*
X5198396Y-13241484D02*
X5150777Y-13241484D01*
X5150777Y-13241484D02*
X5131729Y-13231960D01*
X5131729Y-13231960D02*
X5122206Y-13222436D01*
X5331729Y-13241484D02*
X5369825Y-13241484D01*
X5369825Y-13241484D02*
X5388872Y-13231960D01*
X5388872Y-13231960D02*
X5398396Y-13222436D01*
X5398396Y-13222436D02*
X5417444Y-13193865D01*
X5417444Y-13193865D02*
X5426968Y-13155769D01*
X5426968Y-13155769D02*
X5426968Y-13079579D01*
X5426968Y-13079579D02*
X5417444Y-13060531D01*
X5417444Y-13060531D02*
X5407920Y-13051008D01*
X5407920Y-13051008D02*
X5388872Y-13041484D01*
X5388872Y-13041484D02*
X5350777Y-13041484D01*
X5350777Y-13041484D02*
X5331729Y-13051008D01*
X5331729Y-13051008D02*
X5322206Y-13060531D01*
X5322206Y-13060531D02*
X5312682Y-13079579D01*
X5312682Y-13079579D02*
X5312682Y-13127198D01*
X5312682Y-13127198D02*
X5322206Y-13146246D01*
X5322206Y-13146246D02*
X5331729Y-13155769D01*
X5331729Y-13155769D02*
X5350777Y-13165293D01*
X5350777Y-13165293D02*
X5388872Y-13165293D01*
X5388872Y-13165293D02*
X5407920Y-13155769D01*
X5407920Y-13155769D02*
X5417444Y-13146246D01*
X5417444Y-13146246D02*
X5426968Y-13127198D01*
X5617444Y-13241484D02*
X5503158Y-13241484D01*
X5560301Y-13241484D02*
X5560301Y-13041484D01*
X5560301Y-13041484D02*
X5541253Y-13070055D01*
X5541253Y-13070055D02*
X5522206Y-13089103D01*
X5522206Y-13089103D02*
X5503158Y-13098627D01*
X5693634Y-13041484D02*
X5693634Y-13079579D01*
X5769825Y-13041484D02*
X5769825Y-13079579D01*
X6065063Y-13317674D02*
X6055539Y-13308150D01*
X6055539Y-13308150D02*
X6036491Y-13279579D01*
X6036491Y-13279579D02*
X6026968Y-13260531D01*
X6026968Y-13260531D02*
X6017444Y-13231960D01*
X6017444Y-13231960D02*
X6007920Y-13184341D01*
X6007920Y-13184341D02*
X6007920Y-13146246D01*
X6007920Y-13146246D02*
X6017444Y-13098627D01*
X6017444Y-13098627D02*
X6026968Y-13070055D01*
X6026968Y-13070055D02*
X6036491Y-13051008D01*
X6036491Y-13051008D02*
X6055539Y-13022436D01*
X6055539Y-13022436D02*
X6065063Y-13012912D01*
X6131729Y-13060531D02*
X6141253Y-13051008D01*
X6141253Y-13051008D02*
X6160301Y-13041484D01*
X6160301Y-13041484D02*
X6207920Y-13041484D01*
X6207920Y-13041484D02*
X6226968Y-13051008D01*
X6226968Y-13051008D02*
X6236491Y-13060531D01*
X6236491Y-13060531D02*
X6246015Y-13079579D01*
X6246015Y-13079579D02*
X6246015Y-13098627D01*
X6246015Y-13098627D02*
X6236491Y-13127198D01*
X6236491Y-13127198D02*
X6122206Y-13241484D01*
X6122206Y-13241484D02*
X6246015Y-13241484D01*
X6484110Y-13241484D02*
X6484110Y-13041484D01*
X6569825Y-13241484D02*
X6569825Y-13136722D01*
X6569825Y-13136722D02*
X6560301Y-13117674D01*
X6560301Y-13117674D02*
X6541253Y-13108150D01*
X6541253Y-13108150D02*
X6512682Y-13108150D01*
X6512682Y-13108150D02*
X6493634Y-13117674D01*
X6493634Y-13117674D02*
X6484110Y-13127198D01*
X6693634Y-13241484D02*
X6674587Y-13231960D01*
X6674587Y-13231960D02*
X6665063Y-13222436D01*
X6665063Y-13222436D02*
X6655539Y-13203388D01*
X6655539Y-13203388D02*
X6655539Y-13146246D01*
X6655539Y-13146246D02*
X6665063Y-13127198D01*
X6665063Y-13127198D02*
X6674587Y-13117674D01*
X6674587Y-13117674D02*
X6693634Y-13108150D01*
X6693634Y-13108150D02*
X6722206Y-13108150D01*
X6722206Y-13108150D02*
X6741253Y-13117674D01*
X6741253Y-13117674D02*
X6750777Y-13127198D01*
X6750777Y-13127198D02*
X6760301Y-13146246D01*
X6760301Y-13146246D02*
X6760301Y-13203388D01*
X6760301Y-13203388D02*
X6750777Y-13222436D01*
X6750777Y-13222436D02*
X6741253Y-13231960D01*
X6741253Y-13231960D02*
X6722206Y-13241484D01*
X6722206Y-13241484D02*
X6693634Y-13241484D01*
X6874587Y-13241484D02*
X6855539Y-13231960D01*
X6855539Y-13231960D02*
X6846015Y-13212912D01*
X6846015Y-13212912D02*
X6846015Y-13041484D01*
X7026968Y-13231960D02*
X7007920Y-13241484D01*
X7007920Y-13241484D02*
X6969825Y-13241484D01*
X6969825Y-13241484D02*
X6950777Y-13231960D01*
X6950777Y-13231960D02*
X6941253Y-13212912D01*
X6941253Y-13212912D02*
X6941253Y-13136722D01*
X6941253Y-13136722D02*
X6950777Y-13117674D01*
X6950777Y-13117674D02*
X6969825Y-13108150D01*
X6969825Y-13108150D02*
X7007920Y-13108150D01*
X7007920Y-13108150D02*
X7026968Y-13117674D01*
X7026968Y-13117674D02*
X7036491Y-13136722D01*
X7036491Y-13136722D02*
X7036491Y-13155769D01*
X7036491Y-13155769D02*
X6941253Y-13174817D01*
X7112682Y-13231960D02*
X7131730Y-13241484D01*
X7131730Y-13241484D02*
X7169825Y-13241484D01*
X7169825Y-13241484D02*
X7188872Y-13231960D01*
X7188872Y-13231960D02*
X7198396Y-13212912D01*
X7198396Y-13212912D02*
X7198396Y-13203388D01*
X7198396Y-13203388D02*
X7188872Y-13184341D01*
X7188872Y-13184341D02*
X7169825Y-13174817D01*
X7169825Y-13174817D02*
X7141253Y-13174817D01*
X7141253Y-13174817D02*
X7122206Y-13165293D01*
X7122206Y-13165293D02*
X7112682Y-13146246D01*
X7112682Y-13146246D02*
X7112682Y-13136722D01*
X7112682Y-13136722D02*
X7122206Y-13117674D01*
X7122206Y-13117674D02*
X7141253Y-13108150D01*
X7141253Y-13108150D02*
X7169825Y-13108150D01*
X7169825Y-13108150D02*
X7188872Y-13117674D01*
X7265063Y-13317674D02*
X7274587Y-13308150D01*
X7274587Y-13308150D02*
X7293634Y-13279579D01*
X7293634Y-13279579D02*
X7303158Y-13260531D01*
X7303158Y-13260531D02*
X7312682Y-13231960D01*
X7312682Y-13231960D02*
X7322206Y-13184341D01*
X7322206Y-13184341D02*
X7322206Y-13146246D01*
X7322206Y-13146246D02*
X7312682Y-13098627D01*
X7312682Y-13098627D02*
X7303158Y-13070055D01*
X7303158Y-13070055D02*
X7293634Y-13051008D01*
X7293634Y-13051008D02*
X7274587Y-13022436D01*
X7274587Y-13022436D02*
X7265063Y-13012912D01*
X7626968Y-13317674D02*
X7617444Y-13308150D01*
X7617444Y-13308150D02*
X7598396Y-13279579D01*
X7598396Y-13279579D02*
X7588872Y-13260531D01*
X7588872Y-13260531D02*
X7579349Y-13231960D01*
X7579349Y-13231960D02*
X7569825Y-13184341D01*
X7569825Y-13184341D02*
X7569825Y-13146246D01*
X7569825Y-13146246D02*
X7579349Y-13098627D01*
X7579349Y-13098627D02*
X7588872Y-13070055D01*
X7588872Y-13070055D02*
X7598396Y-13051008D01*
X7598396Y-13051008D02*
X7617444Y-13022436D01*
X7617444Y-13022436D02*
X7626968Y-13012912D01*
X7703158Y-13108150D02*
X7703158Y-13241484D01*
X7703158Y-13127198D02*
X7712682Y-13117674D01*
X7712682Y-13117674D02*
X7731730Y-13108150D01*
X7731730Y-13108150D02*
X7760301Y-13108150D01*
X7760301Y-13108150D02*
X7779349Y-13117674D01*
X7779349Y-13117674D02*
X7788872Y-13136722D01*
X7788872Y-13136722D02*
X7788872Y-13241484D01*
X7912682Y-13241484D02*
X7893634Y-13231960D01*
X7893634Y-13231960D02*
X7884111Y-13222436D01*
X7884111Y-13222436D02*
X7874587Y-13203388D01*
X7874587Y-13203388D02*
X7874587Y-13146246D01*
X7874587Y-13146246D02*
X7884111Y-13127198D01*
X7884111Y-13127198D02*
X7893634Y-13117674D01*
X7893634Y-13117674D02*
X7912682Y-13108150D01*
X7912682Y-13108150D02*
X7941253Y-13108150D01*
X7941253Y-13108150D02*
X7960301Y-13117674D01*
X7960301Y-13117674D02*
X7969825Y-13127198D01*
X7969825Y-13127198D02*
X7979349Y-13146246D01*
X7979349Y-13146246D02*
X7979349Y-13203388D01*
X7979349Y-13203388D02*
X7969825Y-13222436D01*
X7969825Y-13222436D02*
X7960301Y-13231960D01*
X7960301Y-13231960D02*
X7941253Y-13241484D01*
X7941253Y-13241484D02*
X7912682Y-13241484D01*
X8036492Y-13108150D02*
X8112682Y-13108150D01*
X8065063Y-13041484D02*
X8065063Y-13212912D01*
X8065063Y-13212912D02*
X8074587Y-13231960D01*
X8074587Y-13231960D02*
X8093634Y-13241484D01*
X8093634Y-13241484D02*
X8112682Y-13241484D01*
X8331730Y-13108150D02*
X8331730Y-13308150D01*
X8331730Y-13117674D02*
X8350777Y-13108150D01*
X8350777Y-13108150D02*
X8388873Y-13108150D01*
X8388873Y-13108150D02*
X8407920Y-13117674D01*
X8407920Y-13117674D02*
X8417444Y-13127198D01*
X8417444Y-13127198D02*
X8426968Y-13146246D01*
X8426968Y-13146246D02*
X8426968Y-13203388D01*
X8426968Y-13203388D02*
X8417444Y-13222436D01*
X8417444Y-13222436D02*
X8407920Y-13231960D01*
X8407920Y-13231960D02*
X8388873Y-13241484D01*
X8388873Y-13241484D02*
X8350777Y-13241484D01*
X8350777Y-13241484D02*
X8331730Y-13231960D01*
X8541254Y-13241484D02*
X8522206Y-13231960D01*
X8522206Y-13231960D02*
X8512682Y-13212912D01*
X8512682Y-13212912D02*
X8512682Y-13041484D01*
X8703158Y-13241484D02*
X8703158Y-13136722D01*
X8703158Y-13136722D02*
X8693635Y-13117674D01*
X8693635Y-13117674D02*
X8674587Y-13108150D01*
X8674587Y-13108150D02*
X8636492Y-13108150D01*
X8636492Y-13108150D02*
X8617444Y-13117674D01*
X8703158Y-13231960D02*
X8684111Y-13241484D01*
X8684111Y-13241484D02*
X8636492Y-13241484D01*
X8636492Y-13241484D02*
X8617444Y-13231960D01*
X8617444Y-13231960D02*
X8607920Y-13212912D01*
X8607920Y-13212912D02*
X8607920Y-13193865D01*
X8607920Y-13193865D02*
X8617444Y-13174817D01*
X8617444Y-13174817D02*
X8636492Y-13165293D01*
X8636492Y-13165293D02*
X8684111Y-13165293D01*
X8684111Y-13165293D02*
X8703158Y-13155769D01*
X8769825Y-13108150D02*
X8846015Y-13108150D01*
X8798396Y-13041484D02*
X8798396Y-13212912D01*
X8798396Y-13212912D02*
X8807920Y-13231960D01*
X8807920Y-13231960D02*
X8826968Y-13241484D01*
X8826968Y-13241484D02*
X8846015Y-13241484D01*
X8988873Y-13231960D02*
X8969825Y-13241484D01*
X8969825Y-13241484D02*
X8931730Y-13241484D01*
X8931730Y-13241484D02*
X8912682Y-13231960D01*
X8912682Y-13231960D02*
X8903158Y-13212912D01*
X8903158Y-13212912D02*
X8903158Y-13136722D01*
X8903158Y-13136722D02*
X8912682Y-13117674D01*
X8912682Y-13117674D02*
X8931730Y-13108150D01*
X8931730Y-13108150D02*
X8969825Y-13108150D01*
X8969825Y-13108150D02*
X8988873Y-13117674D01*
X8988873Y-13117674D02*
X8998396Y-13136722D01*
X8998396Y-13136722D02*
X8998396Y-13155769D01*
X8998396Y-13155769D02*
X8903158Y-13174817D01*
X9169825Y-13241484D02*
X9169825Y-13041484D01*
X9169825Y-13231960D02*
X9150777Y-13241484D01*
X9150777Y-13241484D02*
X9112682Y-13241484D01*
X9112682Y-13241484D02*
X9093635Y-13231960D01*
X9093635Y-13231960D02*
X9084111Y-13222436D01*
X9084111Y-13222436D02*
X9074587Y-13203388D01*
X9074587Y-13203388D02*
X9074587Y-13146246D01*
X9074587Y-13146246D02*
X9084111Y-13127198D01*
X9084111Y-13127198D02*
X9093635Y-13117674D01*
X9093635Y-13117674D02*
X9112682Y-13108150D01*
X9112682Y-13108150D02*
X9150777Y-13108150D01*
X9150777Y-13108150D02*
X9169825Y-13117674D01*
X9246016Y-13317674D02*
X9255539Y-13308150D01*
X9255539Y-13308150D02*
X9274587Y-13279579D01*
X9274587Y-13279579D02*
X9284111Y-13260531D01*
X9284111Y-13260531D02*
X9293635Y-13231960D01*
X9293635Y-13231960D02*
X9303158Y-13184341D01*
X9303158Y-13184341D02*
X9303158Y-13146246D01*
X9303158Y-13146246D02*
X9293635Y-13098627D01*
X9293635Y-13098627D02*
X9284111Y-13070055D01*
X9284111Y-13070055D02*
X9274587Y-13051008D01*
X9274587Y-13051008D02*
X9255539Y-13022436D01*
X9255539Y-13022436D02*
X9246016Y-13012912D01*
D12*
X2490000Y-13420000D02*
G75*
G02*
X2310000Y-13420000I-90000J0D01*
G01*
X2310000Y-13420000D02*
G75*
G02*
X2490000Y-13420000I90000J0D01*
G01*
D10*
X2855539Y-13511484D02*
X2741253Y-13511484D01*
X2798396Y-13511484D02*
X2798396Y-13311484D01*
X2798396Y-13311484D02*
X2779348Y-13340055D01*
X2779348Y-13340055D02*
X2760301Y-13359103D01*
X2760301Y-13359103D02*
X2741253Y-13368627D01*
X2941253Y-13492436D02*
X2950777Y-13501960D01*
X2950777Y-13501960D02*
X2941253Y-13511484D01*
X2941253Y-13511484D02*
X2931729Y-13501960D01*
X2931729Y-13501960D02*
X2941253Y-13492436D01*
X2941253Y-13492436D02*
X2941253Y-13511484D01*
X3065062Y-13397198D02*
X3046015Y-13387674D01*
X3046015Y-13387674D02*
X3036491Y-13378150D01*
X3036491Y-13378150D02*
X3026967Y-13359103D01*
X3026967Y-13359103D02*
X3026967Y-13349579D01*
X3026967Y-13349579D02*
X3036491Y-13330531D01*
X3036491Y-13330531D02*
X3046015Y-13321008D01*
X3046015Y-13321008D02*
X3065062Y-13311484D01*
X3065062Y-13311484D02*
X3103158Y-13311484D01*
X3103158Y-13311484D02*
X3122205Y-13321008D01*
X3122205Y-13321008D02*
X3131729Y-13330531D01*
X3131729Y-13330531D02*
X3141253Y-13349579D01*
X3141253Y-13349579D02*
X3141253Y-13359103D01*
X3141253Y-13359103D02*
X3131729Y-13378150D01*
X3131729Y-13378150D02*
X3122205Y-13387674D01*
X3122205Y-13387674D02*
X3103158Y-13397198D01*
X3103158Y-13397198D02*
X3065062Y-13397198D01*
X3065062Y-13397198D02*
X3046015Y-13406722D01*
X3046015Y-13406722D02*
X3036491Y-13416246D01*
X3036491Y-13416246D02*
X3026967Y-13435293D01*
X3026967Y-13435293D02*
X3026967Y-13473388D01*
X3026967Y-13473388D02*
X3036491Y-13492436D01*
X3036491Y-13492436D02*
X3046015Y-13501960D01*
X3046015Y-13501960D02*
X3065062Y-13511484D01*
X3065062Y-13511484D02*
X3103158Y-13511484D01*
X3103158Y-13511484D02*
X3122205Y-13501960D01*
X3122205Y-13501960D02*
X3131729Y-13492436D01*
X3131729Y-13492436D02*
X3141253Y-13473388D01*
X3141253Y-13473388D02*
X3141253Y-13435293D01*
X3141253Y-13435293D02*
X3131729Y-13416246D01*
X3131729Y-13416246D02*
X3122205Y-13406722D01*
X3122205Y-13406722D02*
X3103158Y-13397198D01*
X3265062Y-13311484D02*
X3284110Y-13311484D01*
X3284110Y-13311484D02*
X3303158Y-13321008D01*
X3303158Y-13321008D02*
X3312682Y-13330531D01*
X3312682Y-13330531D02*
X3322205Y-13349579D01*
X3322205Y-13349579D02*
X3331729Y-13387674D01*
X3331729Y-13387674D02*
X3331729Y-13435293D01*
X3331729Y-13435293D02*
X3322205Y-13473388D01*
X3322205Y-13473388D02*
X3312682Y-13492436D01*
X3312682Y-13492436D02*
X3303158Y-13501960D01*
X3303158Y-13501960D02*
X3284110Y-13511484D01*
X3284110Y-13511484D02*
X3265062Y-13511484D01*
X3265062Y-13511484D02*
X3246015Y-13501960D01*
X3246015Y-13501960D02*
X3236491Y-13492436D01*
X3236491Y-13492436D02*
X3226967Y-13473388D01*
X3226967Y-13473388D02*
X3217443Y-13435293D01*
X3217443Y-13435293D02*
X3217443Y-13387674D01*
X3217443Y-13387674D02*
X3226967Y-13349579D01*
X3226967Y-13349579D02*
X3236491Y-13330531D01*
X3236491Y-13330531D02*
X3246015Y-13321008D01*
X3246015Y-13321008D02*
X3265062Y-13311484D01*
X3455539Y-13311484D02*
X3474586Y-13311484D01*
X3474586Y-13311484D02*
X3493634Y-13321008D01*
X3493634Y-13321008D02*
X3503158Y-13330531D01*
X3503158Y-13330531D02*
X3512682Y-13349579D01*
X3512682Y-13349579D02*
X3522205Y-13387674D01*
X3522205Y-13387674D02*
X3522205Y-13435293D01*
X3522205Y-13435293D02*
X3512682Y-13473388D01*
X3512682Y-13473388D02*
X3503158Y-13492436D01*
X3503158Y-13492436D02*
X3493634Y-13501960D01*
X3493634Y-13501960D02*
X3474586Y-13511484D01*
X3474586Y-13511484D02*
X3455539Y-13511484D01*
X3455539Y-13511484D02*
X3436491Y-13501960D01*
X3436491Y-13501960D02*
X3426967Y-13492436D01*
X3426967Y-13492436D02*
X3417443Y-13473388D01*
X3417443Y-13473388D02*
X3407920Y-13435293D01*
X3407920Y-13435293D02*
X3407920Y-13387674D01*
X3407920Y-13387674D02*
X3417443Y-13349579D01*
X3417443Y-13349579D02*
X3426967Y-13330531D01*
X3426967Y-13330531D02*
X3436491Y-13321008D01*
X3436491Y-13321008D02*
X3455539Y-13311484D01*
X3607920Y-13511484D02*
X3607920Y-13378150D01*
X3607920Y-13397198D02*
X3617443Y-13387674D01*
X3617443Y-13387674D02*
X3636491Y-13378150D01*
X3636491Y-13378150D02*
X3665063Y-13378150D01*
X3665063Y-13378150D02*
X3684110Y-13387674D01*
X3684110Y-13387674D02*
X3693634Y-13406722D01*
X3693634Y-13406722D02*
X3693634Y-13511484D01*
X3693634Y-13406722D02*
X3703158Y-13387674D01*
X3703158Y-13387674D02*
X3722205Y-13378150D01*
X3722205Y-13378150D02*
X3750777Y-13378150D01*
X3750777Y-13378150D02*
X3769824Y-13387674D01*
X3769824Y-13387674D02*
X3779348Y-13406722D01*
X3779348Y-13406722D02*
X3779348Y-13511484D01*
X3874586Y-13511484D02*
X3874586Y-13378150D01*
X3874586Y-13397198D02*
X3884110Y-13387674D01*
X3884110Y-13387674D02*
X3903158Y-13378150D01*
X3903158Y-13378150D02*
X3931729Y-13378150D01*
X3931729Y-13378150D02*
X3950777Y-13387674D01*
X3950777Y-13387674D02*
X3960301Y-13406722D01*
X3960301Y-13406722D02*
X3960301Y-13511484D01*
X3960301Y-13406722D02*
X3969824Y-13387674D01*
X3969824Y-13387674D02*
X3988872Y-13378150D01*
X3988872Y-13378150D02*
X4017443Y-13378150D01*
X4017443Y-13378150D02*
X4036491Y-13387674D01*
X4036491Y-13387674D02*
X4046015Y-13406722D01*
X4046015Y-13406722D02*
X4046015Y-13511484D01*
X4436491Y-13301960D02*
X4265063Y-13559103D01*
X4693634Y-13311484D02*
X4712682Y-13311484D01*
X4712682Y-13311484D02*
X4731729Y-13321008D01*
X4731729Y-13321008D02*
X4741253Y-13330531D01*
X4741253Y-13330531D02*
X4750777Y-13349579D01*
X4750777Y-13349579D02*
X4760301Y-13387674D01*
X4760301Y-13387674D02*
X4760301Y-13435293D01*
X4760301Y-13435293D02*
X4750777Y-13473388D01*
X4750777Y-13473388D02*
X4741253Y-13492436D01*
X4741253Y-13492436D02*
X4731729Y-13501960D01*
X4731729Y-13501960D02*
X4712682Y-13511484D01*
X4712682Y-13511484D02*
X4693634Y-13511484D01*
X4693634Y-13511484D02*
X4674587Y-13501960D01*
X4674587Y-13501960D02*
X4665063Y-13492436D01*
X4665063Y-13492436D02*
X4655539Y-13473388D01*
X4655539Y-13473388D02*
X4646015Y-13435293D01*
X4646015Y-13435293D02*
X4646015Y-13387674D01*
X4646015Y-13387674D02*
X4655539Y-13349579D01*
X4655539Y-13349579D02*
X4665063Y-13330531D01*
X4665063Y-13330531D02*
X4674587Y-13321008D01*
X4674587Y-13321008D02*
X4693634Y-13311484D01*
X4846015Y-13492436D02*
X4855539Y-13501960D01*
X4855539Y-13501960D02*
X4846015Y-13511484D01*
X4846015Y-13511484D02*
X4836491Y-13501960D01*
X4836491Y-13501960D02*
X4846015Y-13492436D01*
X4846015Y-13492436D02*
X4846015Y-13511484D01*
X4979348Y-13311484D02*
X4998396Y-13311484D01*
X4998396Y-13311484D02*
X5017444Y-13321008D01*
X5017444Y-13321008D02*
X5026968Y-13330531D01*
X5026968Y-13330531D02*
X5036491Y-13349579D01*
X5036491Y-13349579D02*
X5046015Y-13387674D01*
X5046015Y-13387674D02*
X5046015Y-13435293D01*
X5046015Y-13435293D02*
X5036491Y-13473388D01*
X5036491Y-13473388D02*
X5026968Y-13492436D01*
X5026968Y-13492436D02*
X5017444Y-13501960D01*
X5017444Y-13501960D02*
X4998396Y-13511484D01*
X4998396Y-13511484D02*
X4979348Y-13511484D01*
X4979348Y-13511484D02*
X4960301Y-13501960D01*
X4960301Y-13501960D02*
X4950777Y-13492436D01*
X4950777Y-13492436D02*
X4941253Y-13473388D01*
X4941253Y-13473388D02*
X4931729Y-13435293D01*
X4931729Y-13435293D02*
X4931729Y-13387674D01*
X4931729Y-13387674D02*
X4941253Y-13349579D01*
X4941253Y-13349579D02*
X4950777Y-13330531D01*
X4950777Y-13330531D02*
X4960301Y-13321008D01*
X4960301Y-13321008D02*
X4979348Y-13311484D01*
X5112682Y-13311484D02*
X5246015Y-13311484D01*
X5246015Y-13311484D02*
X5160301Y-13511484D01*
X5360301Y-13311484D02*
X5379349Y-13311484D01*
X5379349Y-13311484D02*
X5398396Y-13321008D01*
X5398396Y-13321008D02*
X5407920Y-13330531D01*
X5407920Y-13330531D02*
X5417444Y-13349579D01*
X5417444Y-13349579D02*
X5426968Y-13387674D01*
X5426968Y-13387674D02*
X5426968Y-13435293D01*
X5426968Y-13435293D02*
X5417444Y-13473388D01*
X5417444Y-13473388D02*
X5407920Y-13492436D01*
X5407920Y-13492436D02*
X5398396Y-13501960D01*
X5398396Y-13501960D02*
X5379349Y-13511484D01*
X5379349Y-13511484D02*
X5360301Y-13511484D01*
X5360301Y-13511484D02*
X5341253Y-13501960D01*
X5341253Y-13501960D02*
X5331729Y-13492436D01*
X5331729Y-13492436D02*
X5322206Y-13473388D01*
X5322206Y-13473388D02*
X5312682Y-13435293D01*
X5312682Y-13435293D02*
X5312682Y-13387674D01*
X5312682Y-13387674D02*
X5322206Y-13349579D01*
X5322206Y-13349579D02*
X5331729Y-13330531D01*
X5331729Y-13330531D02*
X5341253Y-13321008D01*
X5341253Y-13321008D02*
X5360301Y-13311484D01*
X5522206Y-13511484D02*
X5560301Y-13511484D01*
X5560301Y-13511484D02*
X5579349Y-13501960D01*
X5579349Y-13501960D02*
X5588872Y-13492436D01*
X5588872Y-13492436D02*
X5607920Y-13463865D01*
X5607920Y-13463865D02*
X5617444Y-13425769D01*
X5617444Y-13425769D02*
X5617444Y-13349579D01*
X5617444Y-13349579D02*
X5607920Y-13330531D01*
X5607920Y-13330531D02*
X5598396Y-13321008D01*
X5598396Y-13321008D02*
X5579349Y-13311484D01*
X5579349Y-13311484D02*
X5541253Y-13311484D01*
X5541253Y-13311484D02*
X5522206Y-13321008D01*
X5522206Y-13321008D02*
X5512682Y-13330531D01*
X5512682Y-13330531D02*
X5503158Y-13349579D01*
X5503158Y-13349579D02*
X5503158Y-13397198D01*
X5503158Y-13397198D02*
X5512682Y-13416246D01*
X5512682Y-13416246D02*
X5522206Y-13425769D01*
X5522206Y-13425769D02*
X5541253Y-13435293D01*
X5541253Y-13435293D02*
X5579349Y-13435293D01*
X5579349Y-13435293D02*
X5598396Y-13425769D01*
X5598396Y-13425769D02*
X5607920Y-13416246D01*
X5607920Y-13416246D02*
X5617444Y-13397198D01*
X5693634Y-13311484D02*
X5693634Y-13349579D01*
X5769825Y-13311484D02*
X5769825Y-13349579D01*
X6065063Y-13587674D02*
X6055539Y-13578150D01*
X6055539Y-13578150D02*
X6036491Y-13549579D01*
X6036491Y-13549579D02*
X6026968Y-13530531D01*
X6026968Y-13530531D02*
X6017444Y-13501960D01*
X6017444Y-13501960D02*
X6007920Y-13454341D01*
X6007920Y-13454341D02*
X6007920Y-13416246D01*
X6007920Y-13416246D02*
X6017444Y-13368627D01*
X6017444Y-13368627D02*
X6026968Y-13340055D01*
X6026968Y-13340055D02*
X6036491Y-13321008D01*
X6036491Y-13321008D02*
X6055539Y-13292436D01*
X6055539Y-13292436D02*
X6065063Y-13282912D01*
X6131729Y-13330531D02*
X6141253Y-13321008D01*
X6141253Y-13321008D02*
X6160301Y-13311484D01*
X6160301Y-13311484D02*
X6207920Y-13311484D01*
X6207920Y-13311484D02*
X6226968Y-13321008D01*
X6226968Y-13321008D02*
X6236491Y-13330531D01*
X6236491Y-13330531D02*
X6246015Y-13349579D01*
X6246015Y-13349579D02*
X6246015Y-13368627D01*
X6246015Y-13368627D02*
X6236491Y-13397198D01*
X6236491Y-13397198D02*
X6122206Y-13511484D01*
X6122206Y-13511484D02*
X6246015Y-13511484D01*
X6484110Y-13511484D02*
X6484110Y-13311484D01*
X6569825Y-13511484D02*
X6569825Y-13406722D01*
X6569825Y-13406722D02*
X6560301Y-13387674D01*
X6560301Y-13387674D02*
X6541253Y-13378150D01*
X6541253Y-13378150D02*
X6512682Y-13378150D01*
X6512682Y-13378150D02*
X6493634Y-13387674D01*
X6493634Y-13387674D02*
X6484110Y-13397198D01*
X6693634Y-13511484D02*
X6674587Y-13501960D01*
X6674587Y-13501960D02*
X6665063Y-13492436D01*
X6665063Y-13492436D02*
X6655539Y-13473388D01*
X6655539Y-13473388D02*
X6655539Y-13416246D01*
X6655539Y-13416246D02*
X6665063Y-13397198D01*
X6665063Y-13397198D02*
X6674587Y-13387674D01*
X6674587Y-13387674D02*
X6693634Y-13378150D01*
X6693634Y-13378150D02*
X6722206Y-13378150D01*
X6722206Y-13378150D02*
X6741253Y-13387674D01*
X6741253Y-13387674D02*
X6750777Y-13397198D01*
X6750777Y-13397198D02*
X6760301Y-13416246D01*
X6760301Y-13416246D02*
X6760301Y-13473388D01*
X6760301Y-13473388D02*
X6750777Y-13492436D01*
X6750777Y-13492436D02*
X6741253Y-13501960D01*
X6741253Y-13501960D02*
X6722206Y-13511484D01*
X6722206Y-13511484D02*
X6693634Y-13511484D01*
X6874587Y-13511484D02*
X6855539Y-13501960D01*
X6855539Y-13501960D02*
X6846015Y-13482912D01*
X6846015Y-13482912D02*
X6846015Y-13311484D01*
X7026968Y-13501960D02*
X7007920Y-13511484D01*
X7007920Y-13511484D02*
X6969825Y-13511484D01*
X6969825Y-13511484D02*
X6950777Y-13501960D01*
X6950777Y-13501960D02*
X6941253Y-13482912D01*
X6941253Y-13482912D02*
X6941253Y-13406722D01*
X6941253Y-13406722D02*
X6950777Y-13387674D01*
X6950777Y-13387674D02*
X6969825Y-13378150D01*
X6969825Y-13378150D02*
X7007920Y-13378150D01*
X7007920Y-13378150D02*
X7026968Y-13387674D01*
X7026968Y-13387674D02*
X7036491Y-13406722D01*
X7036491Y-13406722D02*
X7036491Y-13425769D01*
X7036491Y-13425769D02*
X6941253Y-13444817D01*
X7112682Y-13501960D02*
X7131730Y-13511484D01*
X7131730Y-13511484D02*
X7169825Y-13511484D01*
X7169825Y-13511484D02*
X7188872Y-13501960D01*
X7188872Y-13501960D02*
X7198396Y-13482912D01*
X7198396Y-13482912D02*
X7198396Y-13473388D01*
X7198396Y-13473388D02*
X7188872Y-13454341D01*
X7188872Y-13454341D02*
X7169825Y-13444817D01*
X7169825Y-13444817D02*
X7141253Y-13444817D01*
X7141253Y-13444817D02*
X7122206Y-13435293D01*
X7122206Y-13435293D02*
X7112682Y-13416246D01*
X7112682Y-13416246D02*
X7112682Y-13406722D01*
X7112682Y-13406722D02*
X7122206Y-13387674D01*
X7122206Y-13387674D02*
X7141253Y-13378150D01*
X7141253Y-13378150D02*
X7169825Y-13378150D01*
X7169825Y-13378150D02*
X7188872Y-13387674D01*
X7265063Y-13587674D02*
X7274587Y-13578150D01*
X7274587Y-13578150D02*
X7293634Y-13549579D01*
X7293634Y-13549579D02*
X7303158Y-13530531D01*
X7303158Y-13530531D02*
X7312682Y-13501960D01*
X7312682Y-13501960D02*
X7322206Y-13454341D01*
X7322206Y-13454341D02*
X7322206Y-13416246D01*
X7322206Y-13416246D02*
X7312682Y-13368627D01*
X7312682Y-13368627D02*
X7303158Y-13340055D01*
X7303158Y-13340055D02*
X7293634Y-13321008D01*
X7293634Y-13321008D02*
X7274587Y-13292436D01*
X7274587Y-13292436D02*
X7265063Y-13282912D01*
X7626968Y-13587674D02*
X7617444Y-13578150D01*
X7617444Y-13578150D02*
X7598396Y-13549579D01*
X7598396Y-13549579D02*
X7588872Y-13530531D01*
X7588872Y-13530531D02*
X7579349Y-13501960D01*
X7579349Y-13501960D02*
X7569825Y-13454341D01*
X7569825Y-13454341D02*
X7569825Y-13416246D01*
X7569825Y-13416246D02*
X7579349Y-13368627D01*
X7579349Y-13368627D02*
X7588872Y-13340055D01*
X7588872Y-13340055D02*
X7598396Y-13321008D01*
X7598396Y-13321008D02*
X7617444Y-13292436D01*
X7617444Y-13292436D02*
X7626968Y-13282912D01*
X7703158Y-13378150D02*
X7703158Y-13511484D01*
X7703158Y-13397198D02*
X7712682Y-13387674D01*
X7712682Y-13387674D02*
X7731730Y-13378150D01*
X7731730Y-13378150D02*
X7760301Y-13378150D01*
X7760301Y-13378150D02*
X7779349Y-13387674D01*
X7779349Y-13387674D02*
X7788872Y-13406722D01*
X7788872Y-13406722D02*
X7788872Y-13511484D01*
X7912682Y-13511484D02*
X7893634Y-13501960D01*
X7893634Y-13501960D02*
X7884111Y-13492436D01*
X7884111Y-13492436D02*
X7874587Y-13473388D01*
X7874587Y-13473388D02*
X7874587Y-13416246D01*
X7874587Y-13416246D02*
X7884111Y-13397198D01*
X7884111Y-13397198D02*
X7893634Y-13387674D01*
X7893634Y-13387674D02*
X7912682Y-13378150D01*
X7912682Y-13378150D02*
X7941253Y-13378150D01*
X7941253Y-13378150D02*
X7960301Y-13387674D01*
X7960301Y-13387674D02*
X7969825Y-13397198D01*
X7969825Y-13397198D02*
X7979349Y-13416246D01*
X7979349Y-13416246D02*
X7979349Y-13473388D01*
X7979349Y-13473388D02*
X7969825Y-13492436D01*
X7969825Y-13492436D02*
X7960301Y-13501960D01*
X7960301Y-13501960D02*
X7941253Y-13511484D01*
X7941253Y-13511484D02*
X7912682Y-13511484D01*
X8036492Y-13378150D02*
X8112682Y-13378150D01*
X8065063Y-13311484D02*
X8065063Y-13482912D01*
X8065063Y-13482912D02*
X8074587Y-13501960D01*
X8074587Y-13501960D02*
X8093634Y-13511484D01*
X8093634Y-13511484D02*
X8112682Y-13511484D01*
X8331730Y-13378150D02*
X8331730Y-13578150D01*
X8331730Y-13387674D02*
X8350777Y-13378150D01*
X8350777Y-13378150D02*
X8388873Y-13378150D01*
X8388873Y-13378150D02*
X8407920Y-13387674D01*
X8407920Y-13387674D02*
X8417444Y-13397198D01*
X8417444Y-13397198D02*
X8426968Y-13416246D01*
X8426968Y-13416246D02*
X8426968Y-13473388D01*
X8426968Y-13473388D02*
X8417444Y-13492436D01*
X8417444Y-13492436D02*
X8407920Y-13501960D01*
X8407920Y-13501960D02*
X8388873Y-13511484D01*
X8388873Y-13511484D02*
X8350777Y-13511484D01*
X8350777Y-13511484D02*
X8331730Y-13501960D01*
X8541254Y-13511484D02*
X8522206Y-13501960D01*
X8522206Y-13501960D02*
X8512682Y-13482912D01*
X8512682Y-13482912D02*
X8512682Y-13311484D01*
X8703158Y-13511484D02*
X8703158Y-13406722D01*
X8703158Y-13406722D02*
X8693635Y-13387674D01*
X8693635Y-13387674D02*
X8674587Y-13378150D01*
X8674587Y-13378150D02*
X8636492Y-13378150D01*
X8636492Y-13378150D02*
X8617444Y-13387674D01*
X8703158Y-13501960D02*
X8684111Y-13511484D01*
X8684111Y-13511484D02*
X8636492Y-13511484D01*
X8636492Y-13511484D02*
X8617444Y-13501960D01*
X8617444Y-13501960D02*
X8607920Y-13482912D01*
X8607920Y-13482912D02*
X8607920Y-13463865D01*
X8607920Y-13463865D02*
X8617444Y-13444817D01*
X8617444Y-13444817D02*
X8636492Y-13435293D01*
X8636492Y-13435293D02*
X8684111Y-13435293D01*
X8684111Y-13435293D02*
X8703158Y-13425769D01*
X8769825Y-13378150D02*
X8846015Y-13378150D01*
X8798396Y-13311484D02*
X8798396Y-13482912D01*
X8798396Y-13482912D02*
X8807920Y-13501960D01*
X8807920Y-13501960D02*
X8826968Y-13511484D01*
X8826968Y-13511484D02*
X8846015Y-13511484D01*
X8988873Y-13501960D02*
X8969825Y-13511484D01*
X8969825Y-13511484D02*
X8931730Y-13511484D01*
X8931730Y-13511484D02*
X8912682Y-13501960D01*
X8912682Y-13501960D02*
X8903158Y-13482912D01*
X8903158Y-13482912D02*
X8903158Y-13406722D01*
X8903158Y-13406722D02*
X8912682Y-13387674D01*
X8912682Y-13387674D02*
X8931730Y-13378150D01*
X8931730Y-13378150D02*
X8969825Y-13378150D01*
X8969825Y-13378150D02*
X8988873Y-13387674D01*
X8988873Y-13387674D02*
X8998396Y-13406722D01*
X8998396Y-13406722D02*
X8998396Y-13425769D01*
X8998396Y-13425769D02*
X8903158Y-13444817D01*
X9169825Y-13511484D02*
X9169825Y-13311484D01*
X9169825Y-13501960D02*
X9150777Y-13511484D01*
X9150777Y-13511484D02*
X9112682Y-13511484D01*
X9112682Y-13511484D02*
X9093635Y-13501960D01*
X9093635Y-13501960D02*
X9084111Y-13492436D01*
X9084111Y-13492436D02*
X9074587Y-13473388D01*
X9074587Y-13473388D02*
X9074587Y-13416246D01*
X9074587Y-13416246D02*
X9084111Y-13397198D01*
X9084111Y-13397198D02*
X9093635Y-13387674D01*
X9093635Y-13387674D02*
X9112682Y-13378150D01*
X9112682Y-13378150D02*
X9150777Y-13378150D01*
X9150777Y-13378150D02*
X9169825Y-13387674D01*
X9246016Y-13587674D02*
X9255539Y-13578150D01*
X9255539Y-13578150D02*
X9274587Y-13549579D01*
X9274587Y-13549579D02*
X9284111Y-13530531D01*
X9284111Y-13530531D02*
X9293635Y-13501960D01*
X9293635Y-13501960D02*
X9303158Y-13454341D01*
X9303158Y-13454341D02*
X9303158Y-13416246D01*
X9303158Y-13416246D02*
X9293635Y-13368627D01*
X9293635Y-13368627D02*
X9284111Y-13340055D01*
X9284111Y-13340055D02*
X9274587Y-13321008D01*
X9274587Y-13321008D02*
X9255539Y-13292436D01*
X9255539Y-13292436D02*
X9246016Y-13282912D01*
X2390000Y-13620000D02*
X2390000Y-13820000D01*
X2290000Y-13720000D02*
X2490000Y-13720000D01*
X2731729Y-13611484D02*
X2855539Y-13611484D01*
X2855539Y-13611484D02*
X2788872Y-13687674D01*
X2788872Y-13687674D02*
X2817443Y-13687674D01*
X2817443Y-13687674D02*
X2836491Y-13697198D01*
X2836491Y-13697198D02*
X2846015Y-13706722D01*
X2846015Y-13706722D02*
X2855539Y-13725769D01*
X2855539Y-13725769D02*
X2855539Y-13773388D01*
X2855539Y-13773388D02*
X2846015Y-13792436D01*
X2846015Y-13792436D02*
X2836491Y-13801960D01*
X2836491Y-13801960D02*
X2817443Y-13811484D01*
X2817443Y-13811484D02*
X2760301Y-13811484D01*
X2760301Y-13811484D02*
X2741253Y-13801960D01*
X2741253Y-13801960D02*
X2731729Y-13792436D01*
X2941253Y-13792436D02*
X2950777Y-13801960D01*
X2950777Y-13801960D02*
X2941253Y-13811484D01*
X2941253Y-13811484D02*
X2931729Y-13801960D01*
X2931729Y-13801960D02*
X2941253Y-13792436D01*
X2941253Y-13792436D02*
X2941253Y-13811484D01*
X3017443Y-13611484D02*
X3141253Y-13611484D01*
X3141253Y-13611484D02*
X3074586Y-13687674D01*
X3074586Y-13687674D02*
X3103158Y-13687674D01*
X3103158Y-13687674D02*
X3122205Y-13697198D01*
X3122205Y-13697198D02*
X3131729Y-13706722D01*
X3131729Y-13706722D02*
X3141253Y-13725769D01*
X3141253Y-13725769D02*
X3141253Y-13773388D01*
X3141253Y-13773388D02*
X3131729Y-13792436D01*
X3131729Y-13792436D02*
X3122205Y-13801960D01*
X3122205Y-13801960D02*
X3103158Y-13811484D01*
X3103158Y-13811484D02*
X3046015Y-13811484D01*
X3046015Y-13811484D02*
X3026967Y-13801960D01*
X3026967Y-13801960D02*
X3017443Y-13792436D01*
X3265062Y-13611484D02*
X3284110Y-13611484D01*
X3284110Y-13611484D02*
X3303158Y-13621008D01*
X3303158Y-13621008D02*
X3312682Y-13630531D01*
X3312682Y-13630531D02*
X3322205Y-13649579D01*
X3322205Y-13649579D02*
X3331729Y-13687674D01*
X3331729Y-13687674D02*
X3331729Y-13735293D01*
X3331729Y-13735293D02*
X3322205Y-13773388D01*
X3322205Y-13773388D02*
X3312682Y-13792436D01*
X3312682Y-13792436D02*
X3303158Y-13801960D01*
X3303158Y-13801960D02*
X3284110Y-13811484D01*
X3284110Y-13811484D02*
X3265062Y-13811484D01*
X3265062Y-13811484D02*
X3246015Y-13801960D01*
X3246015Y-13801960D02*
X3236491Y-13792436D01*
X3236491Y-13792436D02*
X3226967Y-13773388D01*
X3226967Y-13773388D02*
X3217443Y-13735293D01*
X3217443Y-13735293D02*
X3217443Y-13687674D01*
X3217443Y-13687674D02*
X3226967Y-13649579D01*
X3226967Y-13649579D02*
X3236491Y-13630531D01*
X3236491Y-13630531D02*
X3246015Y-13621008D01*
X3246015Y-13621008D02*
X3265062Y-13611484D01*
X3455539Y-13611484D02*
X3474586Y-13611484D01*
X3474586Y-13611484D02*
X3493634Y-13621008D01*
X3493634Y-13621008D02*
X3503158Y-13630531D01*
X3503158Y-13630531D02*
X3512682Y-13649579D01*
X3512682Y-13649579D02*
X3522205Y-13687674D01*
X3522205Y-13687674D02*
X3522205Y-13735293D01*
X3522205Y-13735293D02*
X3512682Y-13773388D01*
X3512682Y-13773388D02*
X3503158Y-13792436D01*
X3503158Y-13792436D02*
X3493634Y-13801960D01*
X3493634Y-13801960D02*
X3474586Y-13811484D01*
X3474586Y-13811484D02*
X3455539Y-13811484D01*
X3455539Y-13811484D02*
X3436491Y-13801960D01*
X3436491Y-13801960D02*
X3426967Y-13792436D01*
X3426967Y-13792436D02*
X3417443Y-13773388D01*
X3417443Y-13773388D02*
X3407920Y-13735293D01*
X3407920Y-13735293D02*
X3407920Y-13687674D01*
X3407920Y-13687674D02*
X3417443Y-13649579D01*
X3417443Y-13649579D02*
X3426967Y-13630531D01*
X3426967Y-13630531D02*
X3436491Y-13621008D01*
X3436491Y-13621008D02*
X3455539Y-13611484D01*
X3607920Y-13811484D02*
X3607920Y-13678150D01*
X3607920Y-13697198D02*
X3617443Y-13687674D01*
X3617443Y-13687674D02*
X3636491Y-13678150D01*
X3636491Y-13678150D02*
X3665063Y-13678150D01*
X3665063Y-13678150D02*
X3684110Y-13687674D01*
X3684110Y-13687674D02*
X3693634Y-13706722D01*
X3693634Y-13706722D02*
X3693634Y-13811484D01*
X3693634Y-13706722D02*
X3703158Y-13687674D01*
X3703158Y-13687674D02*
X3722205Y-13678150D01*
X3722205Y-13678150D02*
X3750777Y-13678150D01*
X3750777Y-13678150D02*
X3769824Y-13687674D01*
X3769824Y-13687674D02*
X3779348Y-13706722D01*
X3779348Y-13706722D02*
X3779348Y-13811484D01*
X3874586Y-13811484D02*
X3874586Y-13678150D01*
X3874586Y-13697198D02*
X3884110Y-13687674D01*
X3884110Y-13687674D02*
X3903158Y-13678150D01*
X3903158Y-13678150D02*
X3931729Y-13678150D01*
X3931729Y-13678150D02*
X3950777Y-13687674D01*
X3950777Y-13687674D02*
X3960301Y-13706722D01*
X3960301Y-13706722D02*
X3960301Y-13811484D01*
X3960301Y-13706722D02*
X3969824Y-13687674D01*
X3969824Y-13687674D02*
X3988872Y-13678150D01*
X3988872Y-13678150D02*
X4017443Y-13678150D01*
X4017443Y-13678150D02*
X4036491Y-13687674D01*
X4036491Y-13687674D02*
X4046015Y-13706722D01*
X4046015Y-13706722D02*
X4046015Y-13811484D01*
X4436491Y-13601960D02*
X4265063Y-13859103D01*
X4693634Y-13611484D02*
X4712682Y-13611484D01*
X4712682Y-13611484D02*
X4731729Y-13621008D01*
X4731729Y-13621008D02*
X4741253Y-13630531D01*
X4741253Y-13630531D02*
X4750777Y-13649579D01*
X4750777Y-13649579D02*
X4760301Y-13687674D01*
X4760301Y-13687674D02*
X4760301Y-13735293D01*
X4760301Y-13735293D02*
X4750777Y-13773388D01*
X4750777Y-13773388D02*
X4741253Y-13792436D01*
X4741253Y-13792436D02*
X4731729Y-13801960D01*
X4731729Y-13801960D02*
X4712682Y-13811484D01*
X4712682Y-13811484D02*
X4693634Y-13811484D01*
X4693634Y-13811484D02*
X4674587Y-13801960D01*
X4674587Y-13801960D02*
X4665063Y-13792436D01*
X4665063Y-13792436D02*
X4655539Y-13773388D01*
X4655539Y-13773388D02*
X4646015Y-13735293D01*
X4646015Y-13735293D02*
X4646015Y-13687674D01*
X4646015Y-13687674D02*
X4655539Y-13649579D01*
X4655539Y-13649579D02*
X4665063Y-13630531D01*
X4665063Y-13630531D02*
X4674587Y-13621008D01*
X4674587Y-13621008D02*
X4693634Y-13611484D01*
X4846015Y-13792436D02*
X4855539Y-13801960D01*
X4855539Y-13801960D02*
X4846015Y-13811484D01*
X4846015Y-13811484D02*
X4836491Y-13801960D01*
X4836491Y-13801960D02*
X4846015Y-13792436D01*
X4846015Y-13792436D02*
X4846015Y-13811484D01*
X5046015Y-13811484D02*
X4931729Y-13811484D01*
X4988872Y-13811484D02*
X4988872Y-13611484D01*
X4988872Y-13611484D02*
X4969825Y-13640055D01*
X4969825Y-13640055D02*
X4950777Y-13659103D01*
X4950777Y-13659103D02*
X4931729Y-13668627D01*
X5122206Y-13630531D02*
X5131729Y-13621008D01*
X5131729Y-13621008D02*
X5150777Y-13611484D01*
X5150777Y-13611484D02*
X5198396Y-13611484D01*
X5198396Y-13611484D02*
X5217444Y-13621008D01*
X5217444Y-13621008D02*
X5226968Y-13630531D01*
X5226968Y-13630531D02*
X5236491Y-13649579D01*
X5236491Y-13649579D02*
X5236491Y-13668627D01*
X5236491Y-13668627D02*
X5226968Y-13697198D01*
X5226968Y-13697198D02*
X5112682Y-13811484D01*
X5112682Y-13811484D02*
X5236491Y-13811484D01*
X5331729Y-13811484D02*
X5369825Y-13811484D01*
X5369825Y-13811484D02*
X5388872Y-13801960D01*
X5388872Y-13801960D02*
X5398396Y-13792436D01*
X5398396Y-13792436D02*
X5417444Y-13763865D01*
X5417444Y-13763865D02*
X5426968Y-13725769D01*
X5426968Y-13725769D02*
X5426968Y-13649579D01*
X5426968Y-13649579D02*
X5417444Y-13630531D01*
X5417444Y-13630531D02*
X5407920Y-13621008D01*
X5407920Y-13621008D02*
X5388872Y-13611484D01*
X5388872Y-13611484D02*
X5350777Y-13611484D01*
X5350777Y-13611484D02*
X5331729Y-13621008D01*
X5331729Y-13621008D02*
X5322206Y-13630531D01*
X5322206Y-13630531D02*
X5312682Y-13649579D01*
X5312682Y-13649579D02*
X5312682Y-13697198D01*
X5312682Y-13697198D02*
X5322206Y-13716246D01*
X5322206Y-13716246D02*
X5331729Y-13725769D01*
X5331729Y-13725769D02*
X5350777Y-13735293D01*
X5350777Y-13735293D02*
X5388872Y-13735293D01*
X5388872Y-13735293D02*
X5407920Y-13725769D01*
X5407920Y-13725769D02*
X5417444Y-13716246D01*
X5417444Y-13716246D02*
X5426968Y-13697198D01*
X5522206Y-13811484D02*
X5560301Y-13811484D01*
X5560301Y-13811484D02*
X5579349Y-13801960D01*
X5579349Y-13801960D02*
X5588872Y-13792436D01*
X5588872Y-13792436D02*
X5607920Y-13763865D01*
X5607920Y-13763865D02*
X5617444Y-13725769D01*
X5617444Y-13725769D02*
X5617444Y-13649579D01*
X5617444Y-13649579D02*
X5607920Y-13630531D01*
X5607920Y-13630531D02*
X5598396Y-13621008D01*
X5598396Y-13621008D02*
X5579349Y-13611484D01*
X5579349Y-13611484D02*
X5541253Y-13611484D01*
X5541253Y-13611484D02*
X5522206Y-13621008D01*
X5522206Y-13621008D02*
X5512682Y-13630531D01*
X5512682Y-13630531D02*
X5503158Y-13649579D01*
X5503158Y-13649579D02*
X5503158Y-13697198D01*
X5503158Y-13697198D02*
X5512682Y-13716246D01*
X5512682Y-13716246D02*
X5522206Y-13725769D01*
X5522206Y-13725769D02*
X5541253Y-13735293D01*
X5541253Y-13735293D02*
X5579349Y-13735293D01*
X5579349Y-13735293D02*
X5598396Y-13725769D01*
X5598396Y-13725769D02*
X5607920Y-13716246D01*
X5607920Y-13716246D02*
X5617444Y-13697198D01*
X5693634Y-13611484D02*
X5693634Y-13649579D01*
X5769825Y-13611484D02*
X5769825Y-13649579D01*
X6065063Y-13887674D02*
X6055539Y-13878150D01*
X6055539Y-13878150D02*
X6036491Y-13849579D01*
X6036491Y-13849579D02*
X6026968Y-13830531D01*
X6026968Y-13830531D02*
X6017444Y-13801960D01*
X6017444Y-13801960D02*
X6007920Y-13754341D01*
X6007920Y-13754341D02*
X6007920Y-13716246D01*
X6007920Y-13716246D02*
X6017444Y-13668627D01*
X6017444Y-13668627D02*
X6026968Y-13640055D01*
X6026968Y-13640055D02*
X6036491Y-13621008D01*
X6036491Y-13621008D02*
X6055539Y-13592436D01*
X6055539Y-13592436D02*
X6065063Y-13582912D01*
X6131729Y-13630531D02*
X6141253Y-13621008D01*
X6141253Y-13621008D02*
X6160301Y-13611484D01*
X6160301Y-13611484D02*
X6207920Y-13611484D01*
X6207920Y-13611484D02*
X6226968Y-13621008D01*
X6226968Y-13621008D02*
X6236491Y-13630531D01*
X6236491Y-13630531D02*
X6246015Y-13649579D01*
X6246015Y-13649579D02*
X6246015Y-13668627D01*
X6246015Y-13668627D02*
X6236491Y-13697198D01*
X6236491Y-13697198D02*
X6122206Y-13811484D01*
X6122206Y-13811484D02*
X6246015Y-13811484D01*
X6484110Y-13811484D02*
X6484110Y-13611484D01*
X6569825Y-13811484D02*
X6569825Y-13706722D01*
X6569825Y-13706722D02*
X6560301Y-13687674D01*
X6560301Y-13687674D02*
X6541253Y-13678150D01*
X6541253Y-13678150D02*
X6512682Y-13678150D01*
X6512682Y-13678150D02*
X6493634Y-13687674D01*
X6493634Y-13687674D02*
X6484110Y-13697198D01*
X6693634Y-13811484D02*
X6674587Y-13801960D01*
X6674587Y-13801960D02*
X6665063Y-13792436D01*
X6665063Y-13792436D02*
X6655539Y-13773388D01*
X6655539Y-13773388D02*
X6655539Y-13716246D01*
X6655539Y-13716246D02*
X6665063Y-13697198D01*
X6665063Y-13697198D02*
X6674587Y-13687674D01*
X6674587Y-13687674D02*
X6693634Y-13678150D01*
X6693634Y-13678150D02*
X6722206Y-13678150D01*
X6722206Y-13678150D02*
X6741253Y-13687674D01*
X6741253Y-13687674D02*
X6750777Y-13697198D01*
X6750777Y-13697198D02*
X6760301Y-13716246D01*
X6760301Y-13716246D02*
X6760301Y-13773388D01*
X6760301Y-13773388D02*
X6750777Y-13792436D01*
X6750777Y-13792436D02*
X6741253Y-13801960D01*
X6741253Y-13801960D02*
X6722206Y-13811484D01*
X6722206Y-13811484D02*
X6693634Y-13811484D01*
X6874587Y-13811484D02*
X6855539Y-13801960D01*
X6855539Y-13801960D02*
X6846015Y-13782912D01*
X6846015Y-13782912D02*
X6846015Y-13611484D01*
X7026968Y-13801960D02*
X7007920Y-13811484D01*
X7007920Y-13811484D02*
X6969825Y-13811484D01*
X6969825Y-13811484D02*
X6950777Y-13801960D01*
X6950777Y-13801960D02*
X6941253Y-13782912D01*
X6941253Y-13782912D02*
X6941253Y-13706722D01*
X6941253Y-13706722D02*
X6950777Y-13687674D01*
X6950777Y-13687674D02*
X6969825Y-13678150D01*
X6969825Y-13678150D02*
X7007920Y-13678150D01*
X7007920Y-13678150D02*
X7026968Y-13687674D01*
X7026968Y-13687674D02*
X7036491Y-13706722D01*
X7036491Y-13706722D02*
X7036491Y-13725769D01*
X7036491Y-13725769D02*
X6941253Y-13744817D01*
X7112682Y-13801960D02*
X7131730Y-13811484D01*
X7131730Y-13811484D02*
X7169825Y-13811484D01*
X7169825Y-13811484D02*
X7188872Y-13801960D01*
X7188872Y-13801960D02*
X7198396Y-13782912D01*
X7198396Y-13782912D02*
X7198396Y-13773388D01*
X7198396Y-13773388D02*
X7188872Y-13754341D01*
X7188872Y-13754341D02*
X7169825Y-13744817D01*
X7169825Y-13744817D02*
X7141253Y-13744817D01*
X7141253Y-13744817D02*
X7122206Y-13735293D01*
X7122206Y-13735293D02*
X7112682Y-13716246D01*
X7112682Y-13716246D02*
X7112682Y-13706722D01*
X7112682Y-13706722D02*
X7122206Y-13687674D01*
X7122206Y-13687674D02*
X7141253Y-13678150D01*
X7141253Y-13678150D02*
X7169825Y-13678150D01*
X7169825Y-13678150D02*
X7188872Y-13687674D01*
X7265063Y-13887674D02*
X7274587Y-13878150D01*
X7274587Y-13878150D02*
X7293634Y-13849579D01*
X7293634Y-13849579D02*
X7303158Y-13830531D01*
X7303158Y-13830531D02*
X7312682Y-13801960D01*
X7312682Y-13801960D02*
X7322206Y-13754341D01*
X7322206Y-13754341D02*
X7322206Y-13716246D01*
X7322206Y-13716246D02*
X7312682Y-13668627D01*
X7312682Y-13668627D02*
X7303158Y-13640055D01*
X7303158Y-13640055D02*
X7293634Y-13621008D01*
X7293634Y-13621008D02*
X7274587Y-13592436D01*
X7274587Y-13592436D02*
X7265063Y-13582912D01*
X7626968Y-13887674D02*
X7617444Y-13878150D01*
X7617444Y-13878150D02*
X7598396Y-13849579D01*
X7598396Y-13849579D02*
X7588872Y-13830531D01*
X7588872Y-13830531D02*
X7579349Y-13801960D01*
X7579349Y-13801960D02*
X7569825Y-13754341D01*
X7569825Y-13754341D02*
X7569825Y-13716246D01*
X7569825Y-13716246D02*
X7579349Y-13668627D01*
X7579349Y-13668627D02*
X7588872Y-13640055D01*
X7588872Y-13640055D02*
X7598396Y-13621008D01*
X7598396Y-13621008D02*
X7617444Y-13592436D01*
X7617444Y-13592436D02*
X7626968Y-13582912D01*
X7703158Y-13678150D02*
X7703158Y-13811484D01*
X7703158Y-13697198D02*
X7712682Y-13687674D01*
X7712682Y-13687674D02*
X7731730Y-13678150D01*
X7731730Y-13678150D02*
X7760301Y-13678150D01*
X7760301Y-13678150D02*
X7779349Y-13687674D01*
X7779349Y-13687674D02*
X7788872Y-13706722D01*
X7788872Y-13706722D02*
X7788872Y-13811484D01*
X7912682Y-13811484D02*
X7893634Y-13801960D01*
X7893634Y-13801960D02*
X7884111Y-13792436D01*
X7884111Y-13792436D02*
X7874587Y-13773388D01*
X7874587Y-13773388D02*
X7874587Y-13716246D01*
X7874587Y-13716246D02*
X7884111Y-13697198D01*
X7884111Y-13697198D02*
X7893634Y-13687674D01*
X7893634Y-13687674D02*
X7912682Y-13678150D01*
X7912682Y-13678150D02*
X7941253Y-13678150D01*
X7941253Y-13678150D02*
X7960301Y-13687674D01*
X7960301Y-13687674D02*
X7969825Y-13697198D01*
X7969825Y-13697198D02*
X7979349Y-13716246D01*
X7979349Y-13716246D02*
X7979349Y-13773388D01*
X7979349Y-13773388D02*
X7969825Y-13792436D01*
X7969825Y-13792436D02*
X7960301Y-13801960D01*
X7960301Y-13801960D02*
X7941253Y-13811484D01*
X7941253Y-13811484D02*
X7912682Y-13811484D01*
X8036492Y-13678150D02*
X8112682Y-13678150D01*
X8065063Y-13611484D02*
X8065063Y-13782912D01*
X8065063Y-13782912D02*
X8074587Y-13801960D01*
X8074587Y-13801960D02*
X8093634Y-13811484D01*
X8093634Y-13811484D02*
X8112682Y-13811484D01*
X8331730Y-13678150D02*
X8331730Y-13878150D01*
X8331730Y-13687674D02*
X8350777Y-13678150D01*
X8350777Y-13678150D02*
X8388873Y-13678150D01*
X8388873Y-13678150D02*
X8407920Y-13687674D01*
X8407920Y-13687674D02*
X8417444Y-13697198D01*
X8417444Y-13697198D02*
X8426968Y-13716246D01*
X8426968Y-13716246D02*
X8426968Y-13773388D01*
X8426968Y-13773388D02*
X8417444Y-13792436D01*
X8417444Y-13792436D02*
X8407920Y-13801960D01*
X8407920Y-13801960D02*
X8388873Y-13811484D01*
X8388873Y-13811484D02*
X8350777Y-13811484D01*
X8350777Y-13811484D02*
X8331730Y-13801960D01*
X8541254Y-13811484D02*
X8522206Y-13801960D01*
X8522206Y-13801960D02*
X8512682Y-13782912D01*
X8512682Y-13782912D02*
X8512682Y-13611484D01*
X8703158Y-13811484D02*
X8703158Y-13706722D01*
X8703158Y-13706722D02*
X8693635Y-13687674D01*
X8693635Y-13687674D02*
X8674587Y-13678150D01*
X8674587Y-13678150D02*
X8636492Y-13678150D01*
X8636492Y-13678150D02*
X8617444Y-13687674D01*
X8703158Y-13801960D02*
X8684111Y-13811484D01*
X8684111Y-13811484D02*
X8636492Y-13811484D01*
X8636492Y-13811484D02*
X8617444Y-13801960D01*
X8617444Y-13801960D02*
X8607920Y-13782912D01*
X8607920Y-13782912D02*
X8607920Y-13763865D01*
X8607920Y-13763865D02*
X8617444Y-13744817D01*
X8617444Y-13744817D02*
X8636492Y-13735293D01*
X8636492Y-13735293D02*
X8684111Y-13735293D01*
X8684111Y-13735293D02*
X8703158Y-13725769D01*
X8769825Y-13678150D02*
X8846015Y-13678150D01*
X8798396Y-13611484D02*
X8798396Y-13782912D01*
X8798396Y-13782912D02*
X8807920Y-13801960D01*
X8807920Y-13801960D02*
X8826968Y-13811484D01*
X8826968Y-13811484D02*
X8846015Y-13811484D01*
X8988873Y-13801960D02*
X8969825Y-13811484D01*
X8969825Y-13811484D02*
X8931730Y-13811484D01*
X8931730Y-13811484D02*
X8912682Y-13801960D01*
X8912682Y-13801960D02*
X8903158Y-13782912D01*
X8903158Y-13782912D02*
X8903158Y-13706722D01*
X8903158Y-13706722D02*
X8912682Y-13687674D01*
X8912682Y-13687674D02*
X8931730Y-13678150D01*
X8931730Y-13678150D02*
X8969825Y-13678150D01*
X8969825Y-13678150D02*
X8988873Y-13687674D01*
X8988873Y-13687674D02*
X8998396Y-13706722D01*
X8998396Y-13706722D02*
X8998396Y-13725769D01*
X8998396Y-13725769D02*
X8903158Y-13744817D01*
X9169825Y-13811484D02*
X9169825Y-13611484D01*
X9169825Y-13801960D02*
X9150777Y-13811484D01*
X9150777Y-13811484D02*
X9112682Y-13811484D01*
X9112682Y-13811484D02*
X9093635Y-13801960D01*
X9093635Y-13801960D02*
X9084111Y-13792436D01*
X9084111Y-13792436D02*
X9074587Y-13773388D01*
X9074587Y-13773388D02*
X9074587Y-13716246D01*
X9074587Y-13716246D02*
X9084111Y-13697198D01*
X9084111Y-13697198D02*
X9093635Y-13687674D01*
X9093635Y-13687674D02*
X9112682Y-13678150D01*
X9112682Y-13678150D02*
X9150777Y-13678150D01*
X9150777Y-13678150D02*
X9169825Y-13687674D01*
X9246016Y-13887674D02*
X9255539Y-13878150D01*
X9255539Y-13878150D02*
X9274587Y-13849579D01*
X9274587Y-13849579D02*
X9284111Y-13830531D01*
X9284111Y-13830531D02*
X9293635Y-13801960D01*
X9293635Y-13801960D02*
X9303158Y-13754341D01*
X9303158Y-13754341D02*
X9303158Y-13716246D01*
X9303158Y-13716246D02*
X9293635Y-13668627D01*
X9293635Y-13668627D02*
X9284111Y-13640055D01*
X9284111Y-13640055D02*
X9274587Y-13621008D01*
X9274587Y-13621008D02*
X9255539Y-13592436D01*
X9255539Y-13592436D02*
X9246016Y-13582912D01*
M02*
