  0
SECTION
  2
HEADER
  9
$ANGBASE
  50
0.0
  9
$ANGDIR
  70
1
  9
$MEASUREMENT
  70
0
  0
ENDSEC
  0
SECTION
  2
TABLES
  0
TABLE
  2
LTYPE
  70
4
  0
LTYPE
  5
40F
  2
CONTINUOUS
  70
0
  3
Solid line
  72
65
  73
0
  40
0.0
  0
LTYPE
  5
410
  2
DASHDOT
 70
0
  3
Dash Dot ____ _ ____ _
 72
65
 73
4
 40
2.0
 49
1.25
 49
-0.25
 49
0.25
 49
-0.25
  0
LTYPE
  5
411
  2
DASHED
 70
0
  3
Dashed __ __ __ __ __
 72
65
 73
2
 40
0.75
 49
0.5
 49
-0.25
  0
LTYPE
  5
43B
  2
DOTTED
 70
0
  3
Dotted .  .  .  .
 72
65
 73
2
 40
0.2
 49
0.0
 49
-0.2
  0
ENDTAB
  0
TABLE
  2
STYLE
  70
4
  0
STYLE
  2
KICAD
  70
0
  40
0
  41
1
  42
1
  50
0
  71
0
  3
isocp.shx
  0
STYLE
  2
KICADB
  70
0
  40
0
  41
1
  42
1
  50
0
  71
0
  3
isocp.shx
  0
STYLE
  2
KICADI
  70
0
  40
0
  41
1
  42
1
  50
15
  71
0
  3
isocp.shx
  0
STYLE
  2
KICADBI
  70
0
  40
0
  41
1
  42
1
  50
15
  71
0
  3
isocp.shx
  0
ENDTAB
  0
TABLE
  2
LAYER
  70
35
  0
LAYER
  2
BLACK
  70
0
  62
7
  6
CONTINUOUS
  0
LAYER
  2
GRAY1
  70
0
  62
251
  6
CONTINUOUS
  0
LAYER
  2
GRAY2
  70
0
  62
8
  6
CONTINUOUS
  0
LAYER
  2
GRAY3
  70
0
  62
9
  6
CONTINUOUS
  0
LAYER
  2
WHITE
  70
0
  62
7
  6
CONTINUOUS
  0
LAYER
  2
LYELLOW
  70
0
  62
51
  6
CONTINUOUS
  0
LAYER
  2
LORANGE
  70
0
  62
41
  6
CONTINUOUS
  0
LAYER
  2
BLUE1
  70
0
  62
178
  6
CONTINUOUS
  0
LAYER
  2
GREEN1
  70
0
  62
98
  6
CONTINUOUS
  0
LAYER
  2
CYAN1
  70
0
  62
138
  6
CONTINUOUS
  0
LAYER
  2
RED1
  70
0
  62
18
  6
CONTINUOUS
  0
LAYER
  2
MAGENTA1
  70
0
  62
228
  6
CONTINUOUS
  0
LAYER
  2
BROWN1
  70
0
  62
58
  6
CONTINUOUS
  0
LAYER
  2
ORANGE1
  70
0
  62
34
  6
CONTINUOUS
  0
LAYER
  2
BLUE2
  70
0
  62
5
  6
CONTINUOUS
  0
LAYER
  2
GREEN2
  70
0
  62
3
  6
CONTINUOUS
  0
LAYER
  2
CYAN2
  70
0
  62
4
  6
CONTINUOUS
  0
LAYER
  2
RED2
  70
0
  62
1
  6
CONTINUOUS
  0
LAYER
  2
MAGENTA2
  70
0
  62
6
  6
CONTINUOUS
  0
LAYER
  2
BROWN2
  70
0
  62
54
  6
CONTINUOUS
  0
LAYER
  2
ORANGE2
  70
0
  62
42
  6
CONTINUOUS
  0
LAYER
  2
BLUE3
  70
0
  62
171
  6
CONTINUOUS
  0
LAYER
  2
GREEN3
  70
0
  62
91
  6
CONTINUOUS
  0
LAYER
  2
CYAN3
  70
0
  62
131
  6
CONTINUOUS
  0
LAYER
  2
RED3
  70
0
  62
11
  6
CONTINUOUS
  0
LAYER
  2
MAGENTA3
  70
0
  62
221
  6
CONTINUOUS
  0
LAYER
  2
YELLOW3
  70
0
  62
2
  6
CONTINUOUS
  0
LAYER
  2
ORANGE3
  70
0
  62
32
  6
CONTINUOUS
  0
LAYER
  2
BLUE4
  70
0
  62
5
  6
CONTINUOUS
  0
LAYER
  2
GREEN4
  70
0
  62
3
  6
CONTINUOUS
  0
LAYER
  2
CYAN4
  70
0
  62
4
  6
CONTINUOUS
  0
LAYER
  2
RED4
  70
0
  62
1
  6
CONTINUOUS
  0
LAYER
  2
MAGENTA4
  70
0
  62
6
  6
CONTINUOUS
  0
LAYER
  2
YELLOW4
  70
0
  62
2
  6
CONTINUOUS
  0
LAYER
  2
ORANGE4
  70
0
  62
40
  6
CONTINUOUS
  0
ENDTAB
  0
ENDSEC
  0
SECTION
  2
ENTITIES
0
LINE
8
WHITE
6
CONTINUOUS
10
5.1181102362204722
20
-1.5748031496062991
11
5.3149606299212593
21
-1.5748031496062991
0
LINE
8
WHITE
6
CONTINUOUS
10
5.3149606299212593
20
-1.5748031496062991
11
5.3149606299212593
21
-1.7716535433070866
0
LINE
8
WHITE
6
CONTINUOUS
10
5.3149606299212593
20
-1.7716535433070866
11
5.5118110236220472
21
-1.7716535433070866
0
LINE
8
WHITE
6
CONTINUOUS
10
5.5118110236220472
20
-1.7716535433070866
11
5.5118110236220472
21
-5.3149606299212593
0
LINE
8
WHITE
6
CONTINUOUS
10
5.5118110236220472
20
-5.3149606299212593
11
5.3149606299212593
21
-5.3149606299212593
0
LINE
8
WHITE
6
CONTINUOUS
10
5.3149606299212593
20
-5.3149606299212593
11
5.3149606299212593
21
-5.5118110236220472
0
LINE
8
WHITE
6
CONTINUOUS
10
5.3149606299212593
20
-5.5118110236220472
11
5.1181102362204722
21
-5.5118110236220472
0
LINE
8
WHITE
6
CONTINUOUS
10
5.1181102362204722
20
-5.5118110236220472
11
5.1181102362204722
21
-5.7086614173228343
0
LINE
8
WHITE
6
CONTINUOUS
10
5.1181102362204722
20
-5.7086614173228343
11
2.1653543307086616
21
-5.7086614173228343
0
LINE
8
WHITE
6
CONTINUOUS
10
2.1653543307086616
20
-5.7086614173228343
11
2.1653543307086616
21
-5.5118110236220472
0
LINE
8
WHITE
6
CONTINUOUS
10
2.1653543307086616
20
-5.5118110236220472
11
1.9685039370078741
21
-5.5118110236220472
0
LINE
8
WHITE
6
CONTINUOUS
10
1.9685039370078741
20
-5.5118110236220472
11
1.9685039370078741
21
-5.3149606299212593
0
LINE
8
WHITE
6
CONTINUOUS
10
1.9685039370078741
20
-5.3149606299212593
11
1.7716535433070866
21
-5.3149606299212593
0
LINE
8
WHITE
6
CONTINUOUS
10
1.7716535433070866
20
-5.3149606299212593
11
1.7716535433070866
21
-1.7716535433070866
0
LINE
8
WHITE
6
CONTINUOUS
10
1.7716535433070866
20
-1.7716535433070866
11
1.9685039370078741
21
-1.7716535433070866
0
LINE
8
WHITE
6
CONTINUOUS
10
1.9685039370078741
20
-1.7716535433070866
11
1.9685039370078741
21
-1.5748031496062991
0
LINE
8
WHITE
6
CONTINUOUS
10
1.9685039370078741
20
-1.5748031496062991
11
2.1653543307086616
21
-1.5748031496062991
0
LINE
8
WHITE
6
CONTINUOUS
10
2.1653543307086616
20
-1.5748031496062991
11
2.1653543307086616
21
-1.3779527559055118
0
LINE
8
WHITE
6
CONTINUOUS
10
2.1653543307086616
20
-1.3779527559055118
11
5.1181102362204722
21
-1.3779527559055118
0
LINE
8
WHITE
6
CONTINUOUS
10
5.1181102362204722
20
-1.3779527559055118
11
5.1181102362204722
21
-1.5748031496062991
0
LINE
8
WHITE
6
CONTINUOUS
10
1.1811023622047243
20
-0.7874015748031495
11
6.1023622047244093
21
-0.7874015748031495
0
LINE
8
WHITE
6
CONTINUOUS
10
6.1023622047244093
20
-0.7874015748031495
11
6.1023622047244093
21
-6.2992125984251963
0
LINE
8
WHITE
6
CONTINUOUS
10
6.1023622047244093
20
-6.2992125984251963
11
1.1811023622047243
21
-6.2992125984251963
0
LINE
8
WHITE
6
CONTINUOUS
10
1.1811023622047243
20
-6.2992125984251963
11
1.1811023622047243
21
-0.7874015748031495
0
CIRCLE
8
WHITE
10
4.7942913385826769
20
-1.9685039370078741
40
0.0118110236220472
0
CIRCLE
8
WHITE
10
4.8314795669291337
20
-1.8787236614173228
40
0.0118110236220472
0
CIRCLE
8
WHITE
10
4.8314795669291337
20
-2.0582842125984251
40
0.0118110236220472
0
CIRCLE
8
WHITE
10
4.9212598425196852
20
-1.8415354330708662
40
0.0118110236220472
0
CIRCLE
8
WHITE
10
4.9212598425196852
20
-1.9685039370078741
40
0.0846456692913386
0
CIRCLE
8
WHITE
10
4.9212598425196852
20
-2.0954724409448819
40
0.0118110236220472
0
CIRCLE
8
WHITE
10
5.0110401181102358
20
-1.8787236614173228
40
0.0118110236220472
0
CIRCLE
8
WHITE
10
5.0110401181102358
20
-2.0582842125984251
40
0.0118110236220472
0
CIRCLE
8
WHITE
10
5.0482283464566926
20
-1.9685039370078741
40
0.0118110236220472
0
CIRCLE
8
WHITE
10
2.2352362204724407
20
-5.1181102362204722
40
0.0118110236220472
0
CIRCLE
8
WHITE
10
2.2724244488188976
20
-5.0283299606299208
40
0.0118110236220472
0
CIRCLE
8
WHITE
10
2.2724244488188976
20
-5.2078905118110237
40
0.0118110236220472
0
CIRCLE
8
WHITE
10
2.3622047244094486
20
-4.9911417322834648
40
0.0118110236220472
0
CIRCLE
8
WHITE
10
2.3622047244094486
20
-5.1181102362204722
40
0.0846456692913386
0
CIRCLE
8
WHITE
10
2.3622047244094486
20
-5.2450787401574805
40
0.0118110236220472
0
CIRCLE
8
WHITE
10
2.4519850000000001
20
-5.0283299606299208
40
0.0118110236220472
0
CIRCLE
8
WHITE
10
2.4519850000000001
20
-5.2078905118110237
40
0.0118110236220472
0
CIRCLE
8
WHITE
10
2.4891732283464565
20
-5.1181102362204722
40
0.0118110236220472
0
CIRCLE
8
WHITE
10
2.1183070866141733
20
-4.6259842519685037
40
0.0255905511811024
0
CIRCLE
8
WHITE
10
2.1183070866141733
20
-4.4291338582677167
40
0.0255905511811024
0
CIRCLE
8
WHITE
10
2.1183070866141733
20
-4.2322834645669287
40
0.0255905511811024
0
CIRCLE
8
WHITE
10
2.1183070866141733
20
-4.0354330708661417
40
0.0255905511811024
0
CIRCLE
8
WHITE
10
2.1183070866141733
20
-3.8385826771653542
40
0.0255905511811024
0
CIRCLE
8
WHITE
10
2.1183070866141733
20
-3.6417322834645667
40
0.0255905511811024
0
CIRCLE
8
WHITE
10
2.1183070866141733
20
-3.4448818897637796
40
0.0255905511811024
0
CIRCLE
8
WHITE
10
2.1183070866141733
20
-3.2480314960629921
40
0.0255905511811024
0
CIRCLE
8
WHITE
10
2.1183070866141733
20
-3.0511811023622046
40
0.0255905511811024
0
CIRCLE
8
WHITE
10
2.1183070866141733
20
-2.8543307086614171
40
0.0255905511811024
0
CIRCLE
8
WHITE
10
2.1183070866141733
20
-2.6574803149606296
40
0.0255905511811024
0
CIRCLE
8
WHITE
10
2.1183070866141733
20
-2.4606299212598426
40
0.0255905511811024
0
CIRCLE
8
WHITE
10
4.7942913385826769
20
-5.1181102362204722
40
0.0118110236220472
0
CIRCLE
8
WHITE
10
4.8314795669291337
20
-5.0283299606299208
40
0.0118110236220472
0
CIRCLE
8
WHITE
10
4.8314795669291337
20
-5.2078905118110237
40
0.0118110236220472
0
CIRCLE
8
WHITE
10
4.9212598425196852
20
-4.9911417322834648
40
0.0118110236220472
0
CIRCLE
8
WHITE
10
4.9212598425196852
20
-5.1181102362204722
40
0.0846456692913386
0
CIRCLE
8
WHITE
10
4.9212598425196852
20
-5.2450787401574805
40
0.0118110236220472
0
CIRCLE
8
WHITE
10
5.0110401181102358
20
-5.0283299606299208
40
0.0118110236220472
0
CIRCLE
8
WHITE
10
5.0110401181102358
20
-5.2078905118110237
40
0.0118110236220472
0
CIRCLE
8
WHITE
10
5.0482283464566926
20
-5.1181102362204722
40
0.0118110236220472
0
CIRCLE
8
WHITE
10
5.1204724409448819
20
-4.7931299212598422
40
0.0649605905511811
0
CIRCLE
8
WHITE
10
5.1204724409448819
20
-3.6730511811023621
40
0.0649605905511811
0
CIRCLE
8
WHITE
10
5.0204724409448822
20
-4.4032874015748034
40
0.018503937007874
0
CIRCLE
8
WHITE
10
4.9503937007874015
20
-4.4432874015748034
40
0.018503937007874
0
CIRCLE
8
WHITE
10
5.0204724409448822
20
-4.4832874015748034
40
0.018503937007874
0
CIRCLE
8
WHITE
10
4.9503937007874015
20
-4.5232874015748035
40
0.018503937007874
0
CIRCLE
8
WHITE
10
5.0204724409448822
20
-4.5632874015748026
40
0.018503937007874
0
CIRCLE
8
WHITE
10
4.9503937007874015
20
-4.6032874015748027
40
0.018503937007874
0
CIRCLE
8
WHITE
10
5.0204724409448822
20
-4.6432874015748027
40
0.018503937007874
0
CIRCLE
8
WHITE
10
4.9503937007874015
20
-4.6832874015748027
40
0.018503937007874
0
CIRCLE
8
WHITE
10
5.0204724409448822
20
-3.7832086614173228
40
0.018503937007874
0
CIRCLE
8
WHITE
10
4.9503937007874015
20
-3.8232086614173229
40
0.018503937007874
0
CIRCLE
8
WHITE
10
5.0204724409448822
20
-3.8632086614173229
40
0.018503937007874
0
CIRCLE
8
WHITE
10
4.9503937007874015
20
-3.9032086614173229
40
0.018503937007874
0
CIRCLE
8
WHITE
10
5.0204724409448822
20
-3.943208661417323
40
0.018503937007874
0
CIRCLE
8
WHITE
10
4.9503937007874015
20
-3.9832086614173225
40
0.018503937007874
0
CIRCLE
8
WHITE
10
5.0204724409448822
20
-4.023208661417323
40
0.018503937007874
0
CIRCLE
8
WHITE
10
4.9503937007874015
20
-4.0632086614173231
40
0.018503937007874
0
CIRCLE
8
WHITE
10
3.997047244094488
20
-1.6535433070866141
40
0.0433070472440945
0
CIRCLE
8
WHITE
10
4.0088582677165352
20
-1.7728346456692914
40
0.0364172834645669
0
CIRCLE
8
WHITE
10
4.1998031496062991
20
-1.7728346456692914
40
0.0364172834645669
0
CIRCLE
8
WHITE
10
4.2116141732283463
20
-1.6535433070866141
40
0.0433070472440945
0
CIRCLE
8
WHITE
10
2.2352362204724407
20
-1.9685039370078741
40
0.0118110236220472
0
CIRCLE
8
WHITE
10
2.2724244488188976
20
-1.8787236614173228
40
0.0118110236220472
0
CIRCLE
8
WHITE
10
2.2724244488188976
20
-2.0582842125984251
40
0.0118110236220472
0
CIRCLE
8
WHITE
10
2.3622047244094486
20
-1.8415354330708662
40
0.0118110236220472
0
CIRCLE
8
WHITE
10
2.3622047244094486
20
-1.9685039370078741
40
0.0846456692913386
0
CIRCLE
8
WHITE
10
2.3622047244094486
20
-2.0954724409448819
40
0.0118110236220472
0
CIRCLE
8
WHITE
10
2.4519850000000001
20
-1.8787236614173228
40
0.0118110236220472
0
CIRCLE
8
WHITE
10
2.4519850000000001
20
-2.0582842125984251
40
0.0118110236220472
0
CIRCLE
8
WHITE
10
2.4891732283464565
20
-1.9685039370078741
40
0.0118110236220472
0
CIRCLE
8
WHITE
10
4.7942913385826769
20
-1.9685039370078741
40
0.0118110236220472
0
CIRCLE
8
WHITE
10
4.8314795669291337
20
-1.8787236614173228
40
0.0118110236220472
0
CIRCLE
8
WHITE
10
4.8314795669291337
20
-2.0582842125984251
40
0.0118110236220472
0
CIRCLE
8
WHITE
10
4.9212598425196852
20
-1.8415354330708662
40
0.0118110236220472
0
CIRCLE
8
WHITE
10
4.9212598425196852
20
-1.9685039370078741
40
0.0846456692913386
0
CIRCLE
8
WHITE
10
4.9212598425196852
20
-2.0954724409448819
40
0.0118110236220472
0
CIRCLE
8
WHITE
10
5.0110401181102358
20
-1.8787236614173228
40
0.0118110236220472
0
CIRCLE
8
WHITE
10
5.0110401181102358
20
-2.0582842125984251
40
0.0118110236220472
0
CIRCLE
8
WHITE
10
5.0482283464566926
20
-1.9685039370078741
40
0.0118110236220472
0
CIRCLE
8
WHITE
10
2.2352362204724407
20
-5.1181102362204722
40
0.0118110236220472
0
CIRCLE
8
WHITE
10
2.2724244488188976
20
-5.0283299606299208
40
0.0118110236220472
0
CIRCLE
8
WHITE
10
2.2724244488188976
20
-5.2078905118110237
40
0.0118110236220472
0
CIRCLE
8
WHITE
10
2.3622047244094486
20
-4.9911417322834648
40
0.0118110236220472
0
CIRCLE
8
WHITE
10
2.3622047244094486
20
-5.1181102362204722
40
0.0846456692913386
0
CIRCLE
8
WHITE
10
2.3622047244094486
20
-5.2450787401574805
40
0.0118110236220472
0
CIRCLE
8
WHITE
10
2.4519850000000001
20
-5.0283299606299208
40
0.0118110236220472
0
CIRCLE
8
WHITE
10
2.4519850000000001
20
-5.2078905118110237
40
0.0118110236220472
0
CIRCLE
8
WHITE
10
2.4891732283464565
20
-5.1181102362204722
40
0.0118110236220472
0
CIRCLE
8
WHITE
10
2.1183070866141733
20
-4.6259842519685037
40
0.0255905511811024
0
CIRCLE
8
WHITE
10
2.1183070866141733
20
-4.4291338582677167
40
0.0255905511811024
0
CIRCLE
8
WHITE
10
2.1183070866141733
20
-4.2322834645669287
40
0.0255905511811024
0
CIRCLE
8
WHITE
10
2.1183070866141733
20
-4.0354330708661417
40
0.0255905511811024
0
CIRCLE
8
WHITE
10
2.1183070866141733
20
-3.8385826771653542
40
0.0255905511811024
0
CIRCLE
8
WHITE
10
2.1183070866141733
20
-3.6417322834645667
40
0.0255905511811024
0
CIRCLE
8
WHITE
10
2.1183070866141733
20
-3.4448818897637796
40
0.0255905511811024
0
CIRCLE
8
WHITE
10
2.1183070866141733
20
-3.2480314960629921
40
0.0255905511811024
0
CIRCLE
8
WHITE
10
2.1183070866141733
20
-3.0511811023622046
40
0.0255905511811024
0
CIRCLE
8
WHITE
10
2.1183070866141733
20
-2.8543307086614171
40
0.0255905511811024
0
CIRCLE
8
WHITE
10
2.1183070866141733
20
-2.6574803149606296
40
0.0255905511811024
0
CIRCLE
8
WHITE
10
2.1183070866141733
20
-2.4606299212598426
40
0.0255905511811024
0
CIRCLE
8
WHITE
10
4.7942913385826769
20
-5.1181102362204722
40
0.0118110236220472
0
CIRCLE
8
WHITE
10
4.8314795669291337
20
-5.0283299606299208
40
0.0118110236220472
0
CIRCLE
8
WHITE
10
4.8314795669291337
20
-5.2078905118110237
40
0.0118110236220472
0
CIRCLE
8
WHITE
10
4.9212598425196852
20
-4.9911417322834648
40
0.0118110236220472
0
CIRCLE
8
WHITE
10
4.9212598425196852
20
-5.1181102362204722
40
0.0846456692913386
0
CIRCLE
8
WHITE
10
4.9212598425196852
20
-5.2450787401574805
40
0.0118110236220472
0
CIRCLE
8
WHITE
10
5.0110401181102358
20
-5.0283299606299208
40
0.0118110236220472
0
CIRCLE
8
WHITE
10
5.0110401181102358
20
-5.2078905118110237
40
0.0118110236220472
0
CIRCLE
8
WHITE
10
5.0482283464566926
20
-5.1181102362204722
40
0.0118110236220472
0
CIRCLE
8
WHITE
10
5.1204724409448819
20
-4.7931299212598422
40
0.0649605905511811
0
CIRCLE
8
WHITE
10
5.1204724409448819
20
-3.6730511811023621
40
0.0649605905511811
0
CIRCLE
8
WHITE
10
5.0204724409448822
20
-4.4032874015748034
40
0.018503937007874
0
CIRCLE
8
WHITE
10
4.9503937007874015
20
-4.4432874015748034
40
0.018503937007874
0
CIRCLE
8
WHITE
10
5.0204724409448822
20
-4.4832874015748034
40
0.018503937007874
0
CIRCLE
8
WHITE
10
4.9503937007874015
20
-4.5232874015748035
40
0.018503937007874
0
CIRCLE
8
WHITE
10
5.0204724409448822
20
-4.5632874015748026
40
0.018503937007874
0
CIRCLE
8
WHITE
10
4.9503937007874015
20
-4.6032874015748027
40
0.018503937007874
0
CIRCLE
8
WHITE
10
5.0204724409448822
20
-4.6432874015748027
40
0.018503937007874
0
CIRCLE
8
WHITE
10
4.9503937007874015
20
-4.6832874015748027
40
0.018503937007874
0
CIRCLE
8
WHITE
10
5.0204724409448822
20
-3.7832086614173228
40
0.018503937007874
0
CIRCLE
8
WHITE
10
4.9503937007874015
20
-3.8232086614173229
40
0.018503937007874
0
CIRCLE
8
WHITE
10
5.0204724409448822
20
-3.8632086614173229
40
0.018503937007874
0
CIRCLE
8
WHITE
10
4.9503937007874015
20
-3.9032086614173229
40
0.018503937007874
0
CIRCLE
8
WHITE
10
5.0204724409448822
20
-3.943208661417323
40
0.018503937007874
0
CIRCLE
8
WHITE
10
4.9503937007874015
20
-3.9832086614173225
40
0.018503937007874
0
CIRCLE
8
WHITE
10
5.0204724409448822
20
-4.023208661417323
40
0.018503937007874
0
CIRCLE
8
WHITE
10
4.9503937007874015
20
-4.0632086614173231
40
0.018503937007874
0
CIRCLE
8
WHITE
10
3.997047244094488
20
-1.6535433070866141
40
0.0433070472440945
0
CIRCLE
8
WHITE
10
4.0088582677165352
20
-1.7728346456692914
40
0.0364172834645669
0
CIRCLE
8
WHITE
10
4.1998031496062991
20
-1.7728346456692914
40
0.0364172834645669
0
CIRCLE
8
WHITE
10
4.2116141732283463
20
-1.6535433070866141
40
0.0433070472440945
0
CIRCLE
8
WHITE
10
2.2352362204724407
20
-1.9685039370078741
40
0.0118110236220472
0
CIRCLE
8
WHITE
10
2.2724244488188976
20
-1.8787236614173228
40
0.0118110236220472
0
CIRCLE
8
WHITE
10
2.2724244488188976
20
-2.0582842125984251
40
0.0118110236220472
0
CIRCLE
8
WHITE
10
2.3622047244094486
20
-1.8415354330708662
40
0.0118110236220472
0
CIRCLE
8
WHITE
10
2.3622047244094486
20
-1.9685039370078741
40
0.0846456692913386
0
CIRCLE
8
WHITE
10
2.3622047244094486
20
-2.0954724409448819
40
0.0118110236220472
0
CIRCLE
8
WHITE
10
2.4519850000000001
20
-1.8787236614173228
40
0.0118110236220472
0
CIRCLE
8
WHITE
10
2.4519850000000001
20
-2.0582842125984251
40
0.0118110236220472
0
CIRCLE
8
WHITE
10
2.4891732283464565
20
-1.9685039370078741
40
0.0118110236220472
  0
ENDSEC
  0
EOF
