%TF.GenerationSoftware,KiCad,Pcbnew,9.0.1-9.0.1-0~ubuntu24.04.1*%
%TF.CreationDate,2025-04-07T11:01:57-04:00*%
%TF.ProjectId,Pico_LCC,5069636f-5f4c-4434-932e-6b696361645f,4*%
%TF.SameCoordinates,Original*%
%TF.FileFunction,Copper,L2,Bot*%
%TF.FilePolarity,Positive*%
%FSLAX46Y46*%
G04 Gerber Fmt 4.6, Leading zero omitted, Abs format (unit mm)*
G04 Created by KiCad (PCBNEW 9.0.1-9.0.1-0~ubuntu24.04.1) date 2025-04-07 11:01:57*
%MOMM*%
%LPD*%
G01*
G04 APERTURE LIST*
%TA.AperFunction,Conductor*%
%ADD10C,0.000000*%
%TD*%
%TA.AperFunction,ComponentPad*%
%ADD11C,0.900000*%
%TD*%
%TA.AperFunction,ComponentPad*%
%ADD12C,8.600000*%
%TD*%
%TA.AperFunction,ComponentPad*%
%ADD13R,2.600000X2.600000*%
%TD*%
%TA.AperFunction,ComponentPad*%
%ADD14C,2.600000*%
%TD*%
%TA.AperFunction,ComponentPad*%
%ADD15C,1.448000*%
%TD*%
%TA.AperFunction,ViaPad*%
%ADD16C,0.600000*%
%TD*%
%TA.AperFunction,Conductor*%
%ADD17C,1.000000*%
%TD*%
%TA.AperFunction,Conductor*%
%ADD18C,0.400000*%
%TD*%
%TA.AperFunction,Conductor*%
%ADD19C,1.750000*%
%TD*%
%TA.AperFunction,Conductor*%
%ADD20C,0.200000*%
%TD*%
G04 APERTURE END LIST*
D10*
%TA.AperFunction,Conductor*%
%TO.N,VTRACK*%
G36*
X67250000Y-102500000D02*
G01*
X67250000Y-102500000D01*
G75*
G02*
X68250000Y-103500000I0J-1000000D01*
G01*
X68250000Y-105000000D01*
G75*
G02*
X67250000Y-106000000I-1000000J0D01*
G01*
X63000000Y-106000000D01*
G75*
G02*
X62000000Y-105000000I0J1000000D01*
G01*
X62000000Y-103500000D01*
G75*
G02*
X63000000Y-102500000I1000000J0D01*
G01*
X67250000Y-102500000D01*
G37*
%TD.AperFunction*%
%TA.AperFunction,Conductor*%
G36*
X67250000Y-119500000D02*
G01*
X67250000Y-119500000D01*
G75*
G02*
X68250000Y-120500000I0J-1000000D01*
G01*
X68250000Y-122000000D01*
G75*
G02*
X67250000Y-123000000I-1000000J0D01*
G01*
X63000000Y-123000000D01*
G75*
G02*
X62000000Y-122000000I0J1000000D01*
G01*
X62000000Y-120500000D01*
G75*
G02*
X63000000Y-119500000I1000000J0D01*
G01*
X67250000Y-119500000D01*
G37*
%TD.AperFunction*%
%TA.AperFunction,Conductor*%
G36*
X67250000Y-86000000D02*
G01*
X67250000Y-86000000D01*
G75*
G02*
X68250000Y-87000000I0J-1000000D01*
G01*
X68250000Y-88500000D01*
G75*
G02*
X67250000Y-89500000I-1000000J0D01*
G01*
X63000000Y-89500000D01*
G75*
G02*
X62000000Y-88500000I0J1000000D01*
G01*
X62000000Y-87000000D01*
G75*
G02*
X63000000Y-86000000I1000000J0D01*
G01*
X67250000Y-86000000D01*
G37*
%TD.AperFunction*%
%TA.AperFunction,Conductor*%
G36*
X67250000Y-69250000D02*
G01*
X67250000Y-69250000D01*
G75*
G02*
X68250000Y-70250000I0J-1000000D01*
G01*
X68250000Y-71750000D01*
G75*
G02*
X67250000Y-72750000I-1000000J0D01*
G01*
X63000000Y-72750000D01*
G75*
G02*
X62000000Y-71750000I0J1000000D01*
G01*
X62000000Y-70250000D01*
G75*
G02*
X63000000Y-69250000I1000000J0D01*
G01*
X67250000Y-69250000D01*
G37*
%TD.AperFunction*%
%TD*%
D11*
%TO.P,H4,1,1*%
%TO.N,Net-(JP4-B)*%
X121775000Y-50000000D03*
X122719581Y-47719581D03*
X122719581Y-52280419D03*
X125000000Y-46775000D03*
D12*
X125000000Y-50000000D03*
D11*
X125000000Y-53225000D03*
X127280419Y-47719581D03*
X127280419Y-52280419D03*
X128225000Y-50000000D03*
%TD*%
%TO.P,H2,1,1*%
%TO.N,Net-(JP2-B)*%
X56775000Y-130000000D03*
X57719581Y-127719581D03*
X57719581Y-132280419D03*
X60000000Y-126775000D03*
D12*
X60000000Y-130000000D03*
D11*
X60000000Y-133225000D03*
X62280419Y-127719581D03*
X62280419Y-132280419D03*
X63225000Y-130000000D03*
%TD*%
D13*
%TO.P,J1,1,Pin_1*%
%TO.N,/raw_dcc_n*%
X53805000Y-117500000D03*
D14*
%TO.P,J1,2,Pin_2*%
%TO.N,/raw_dcc_p*%
X53805000Y-112500000D03*
%TO.P,J1,3,Pin_3*%
%TO.N,/out2_D*%
X53805000Y-107500000D03*
%TO.P,J1,4,Pin_4*%
%TO.N,/out1_D*%
X53805000Y-102500000D03*
%TO.P,J1,5,Pin_5*%
%TO.N,/out2_C*%
X53805000Y-97500000D03*
%TO.P,J1,6,Pin_6*%
%TO.N,/out1_C*%
X53805000Y-92500000D03*
%TO.P,J1,7,Pin_7*%
%TO.N,/out2_B*%
X53805000Y-87500000D03*
%TO.P,J1,8,Pin_8*%
%TO.N,/out1_B*%
X53805000Y-82500000D03*
%TO.P,J1,9,Pin_9*%
%TO.N,/out2_A*%
X53805000Y-77500000D03*
%TO.P,J1,10,Pin_10*%
%TO.N,/out1_A*%
X53805000Y-72500000D03*
%TO.P,J1,11,Pin_11*%
%TO.N,GND*%
X53805000Y-67500000D03*
%TO.P,J1,12,Pin_12*%
%TO.N,VTRACK*%
X53805000Y-62500000D03*
%TD*%
D11*
%TO.P,H3,1,1*%
%TO.N,Net-(JP3-B)*%
X121775000Y-130000000D03*
X122719581Y-127719581D03*
X122719581Y-132280419D03*
X125000000Y-126775000D03*
D12*
X125000000Y-130000000D03*
D11*
X125000000Y-133225000D03*
X127280419Y-127719581D03*
X127280419Y-132280419D03*
X128225000Y-130000000D03*
%TD*%
D15*
%TO.P,J2,1_1,1_1*%
%TO.N,/can+*%
X127520000Y-111843500D03*
%TO.P,J2,1_2,1_2*%
%TO.N,/can-*%
X125740000Y-112859500D03*
%TO.P,J2,1_3,1_3*%
%TO.N,GND*%
X127520000Y-113875500D03*
%TO.P,J2,1_4,1_4*%
%TO.N,/raw_dcc_n*%
X125740000Y-114891500D03*
%TO.P,J2,1_5,1_5*%
%TO.N,/raw_dcc_p*%
X127520000Y-115907500D03*
%TO.P,J2,1_6,1_6*%
%TO.N,/can_shield*%
X125740000Y-116923500D03*
%TO.P,J2,1_7,1_7*%
%TO.N,/pwr_n*%
X127520000Y-117939500D03*
%TO.P,J2,1_8,1_8*%
%TO.N,/pwr_p*%
X125740000Y-118955500D03*
%TO.P,J2,2_1,2_1*%
%TO.N,/can+*%
X127520000Y-96093500D03*
%TO.P,J2,2_2,2_2*%
%TO.N,/can-*%
X125740000Y-97109500D03*
%TO.P,J2,2_3,2_3*%
%TO.N,GND*%
X127520000Y-98125500D03*
%TO.P,J2,2_4,2_4*%
%TO.N,/raw_dcc_n*%
X125740000Y-99141500D03*
%TO.P,J2,2_5,2_5*%
%TO.N,/raw_dcc_p*%
X127520000Y-100157500D03*
%TO.P,J2,2_6,2_6*%
%TO.N,/can_shield*%
X125740000Y-101173500D03*
%TO.P,J2,2_7,2_7*%
%TO.N,/pwr_n*%
X127520000Y-102189500D03*
%TO.P,J2,2_8,2_8*%
%TO.N,/pwr_p*%
X125740000Y-103205500D03*
%TD*%
D11*
%TO.P,H1,1,1*%
%TO.N,Net-(JP1-B)*%
X56775000Y-50000000D03*
X57719581Y-47719581D03*
X57719581Y-52280419D03*
X60000000Y-46775000D03*
D12*
X60000000Y-50000000D03*
D11*
X60000000Y-53225000D03*
X62280419Y-47719581D03*
X62280419Y-52280419D03*
X63225000Y-50000000D03*
%TD*%
D16*
%TO.N,+3.3V*%
X115400000Y-121000000D03*
X82000000Y-57325000D03*
X126750000Y-93250000D03*
X66643750Y-59605694D03*
X82500000Y-110250000D03*
X72500000Y-99500000D03*
X71500000Y-92750000D03*
X82500000Y-93500000D03*
X67893750Y-59605694D03*
X67869338Y-93105694D03*
X66619338Y-109855694D03*
X111106000Y-52030000D03*
X66619338Y-93105694D03*
X71500000Y-110000000D03*
X72500000Y-66000000D03*
X110217000Y-52030000D03*
X82350000Y-59950000D03*
X72500000Y-82250000D03*
X66619338Y-76355694D03*
X82250000Y-76750000D03*
X72250000Y-117474332D03*
X71250000Y-76500000D03*
X67869338Y-76355694D03*
X67869338Y-109855694D03*
X71500000Y-59750000D03*
%TO.N,GND*%
X103740000Y-79579500D03*
X66893750Y-63605694D03*
X128695500Y-64657000D03*
X66869338Y-97105694D03*
X116650000Y-53500000D03*
X66869338Y-113855694D03*
X65869338Y-80355694D03*
X67369338Y-113355694D03*
X98050000Y-63675000D03*
X80694322Y-78305678D03*
X66869338Y-112855694D03*
X66393750Y-63105694D03*
X119750000Y-65750000D03*
X74250000Y-61750000D03*
X66369338Y-97605694D03*
X67393750Y-63105694D03*
X74250000Y-75250000D03*
X74750000Y-112500000D03*
X109875000Y-96125000D03*
X86500000Y-106750000D03*
X80775000Y-57125000D03*
X104400000Y-106600000D03*
X67369338Y-96605694D03*
X89250000Y-53500000D03*
X66869338Y-79355694D03*
X67393750Y-64105694D03*
X131250000Y-118750000D03*
X93800000Y-97600000D03*
X65869338Y-113855694D03*
X67893750Y-63605694D03*
X98250000Y-73475000D03*
X66369338Y-79855694D03*
X126500000Y-78000000D03*
X114950000Y-92975000D03*
X90500000Y-73750000D03*
X117138500Y-60529500D03*
X74000000Y-101250000D03*
X103500000Y-118250000D03*
X125203000Y-68276500D03*
X66869338Y-81355694D03*
X90000000Y-69250000D03*
X118750000Y-81250000D03*
X66369338Y-114355694D03*
X116750000Y-67000000D03*
X93000000Y-138750000D03*
X124123500Y-68276500D03*
X90000000Y-61500000D03*
X134000000Y-135750000D03*
X74750000Y-91250000D03*
X92000000Y-88250000D03*
X89900000Y-43350000D03*
X67369338Y-79855694D03*
X67869338Y-80355694D03*
X74250000Y-95500000D03*
X97775000Y-50225000D03*
X85000000Y-100250000D03*
X67369338Y-97605694D03*
X65869338Y-97105694D03*
X125750000Y-86000000D03*
X65893750Y-63605694D03*
X78000000Y-116500000D03*
X67869338Y-97105694D03*
X121000000Y-75250000D03*
X89250000Y-50750000D03*
X66893750Y-62605694D03*
X66393750Y-64105694D03*
X66369338Y-96605694D03*
X66869338Y-98105694D03*
X67869338Y-113855694D03*
X78000000Y-66250000D03*
X125750000Y-110825000D03*
X66893750Y-64605694D03*
X66369338Y-113355694D03*
X66869338Y-114855694D03*
X52250000Y-137500000D03*
X134000000Y-41000000D03*
X133000000Y-76500000D03*
X66869338Y-80355694D03*
X92100000Y-102900000D03*
X89250000Y-56250000D03*
X110471000Y-77166500D03*
X67369338Y-80855694D03*
X78000000Y-99750000D03*
X133000000Y-84000000D03*
X66369338Y-80855694D03*
X67369338Y-114355694D03*
X125203000Y-56783000D03*
X74250000Y-71750000D03*
X97850000Y-44400000D03*
X109400000Y-104825000D03*
X66869338Y-96105694D03*
X84250000Y-93250000D03*
X84000000Y-97750000D03*
X78000000Y-82750000D03*
X131400000Y-98375000D03*
X77000000Y-88750000D03*
X89525000Y-47000000D03*
%TO.N,VTRACK*%
X66143750Y-70355694D03*
X66487232Y-88895181D03*
X66869338Y-121855694D03*
X65393750Y-70355694D03*
X66119338Y-103855694D03*
X66487232Y-122395181D03*
X65619338Y-119855694D03*
X65891115Y-87717772D03*
X66869338Y-105105694D03*
X66119338Y-105105694D03*
X66838088Y-120886944D03*
X65524412Y-72000000D03*
X65891115Y-121217772D03*
X65369338Y-121605694D03*
X65915527Y-70967772D03*
X65500000Y-105500000D03*
X66119338Y-87105694D03*
X65500000Y-122250000D03*
X65500000Y-88750000D03*
X66119338Y-121855694D03*
X65643750Y-69605694D03*
X65619338Y-86355694D03*
X66119338Y-88355694D03*
X66893750Y-71605694D03*
X66511644Y-72145181D03*
X65891115Y-104467772D03*
X66838088Y-87386944D03*
X65619338Y-103105694D03*
X65369338Y-88105694D03*
X66838088Y-104136944D03*
X65369338Y-120605694D03*
X66862500Y-70636944D03*
X66487232Y-105645181D03*
X66119338Y-120605694D03*
X65369338Y-87105694D03*
X65369338Y-103855694D03*
X66143750Y-71605694D03*
X65369338Y-104855694D03*
X66869338Y-88355694D03*
X65393750Y-71355694D03*
%TO.N,/sense_A*%
X120619997Y-69000000D03*
X77435902Y-57166647D03*
%TO.N,/sense_B*%
X121500000Y-69000000D03*
X82750000Y-72000000D03*
%TO.N,/sense_C*%
X83750000Y-89500000D03*
X122157454Y-62250000D03*
%TO.N,/sense_D*%
X123144993Y-62250000D03*
X84500000Y-104500000D03*
%TO.N,+5V*%
X116249500Y-41870000D03*
X111550500Y-41860500D03*
X104000000Y-127500000D03*
X105815000Y-120015000D03*
X77500000Y-131250000D03*
%TO.N,/raw_dcc_p*%
X90750000Y-136500000D03*
X90250000Y-137000000D03*
X90250000Y-136000000D03*
X89750000Y-136500000D03*
%TO.N,/raw_dcc_n*%
X84500000Y-133250000D03*
X84500000Y-134250000D03*
X96000000Y-133250000D03*
X96000000Y-134250000D03*
X84000000Y-133750000D03*
X85000000Y-133750000D03*
X95500000Y-133750000D03*
X96500000Y-133750000D03*
%TO.N,/pwr_p*%
X130810000Y-110520500D03*
%TO.N,/pwr_n*%
X130060000Y-114270500D03*
%TO.N,/can_shield*%
X122060000Y-105770500D03*
X122356040Y-118556040D03*
%TO.N,/can-*%
X127694404Y-108629554D03*
%TO.N,/can+*%
X128295446Y-109230596D03*
%TO.N,/dcc_p*%
X86000000Y-98400000D03*
X78750000Y-64545694D03*
X78750000Y-114795694D03*
X78750000Y-81295694D03*
X72250000Y-130000000D03*
X96600000Y-96800000D03*
X78750000Y-98045694D03*
%TO.N,/dcc_n*%
X79829338Y-116065694D03*
X79853750Y-65815694D03*
X79829338Y-99315694D03*
X100500000Y-129000000D03*
X79829338Y-82565694D03*
%TD*%
D17*
%TO.N,+3.3V*%
X71500000Y-108726000D02*
X71500000Y-110567500D01*
D18*
X71250000Y-93000000D02*
X71500000Y-92750000D01*
D17*
X68999032Y-108726000D02*
X68303766Y-109421266D01*
X72500000Y-60186500D02*
X72500000Y-74245500D01*
D18*
X120000000Y-108600000D02*
X120000000Y-100000000D01*
X66619338Y-76355694D02*
X67869338Y-76355694D01*
D17*
X111106000Y-52030000D02*
X103305000Y-52030000D01*
D18*
X82500000Y-110250000D02*
X82250000Y-110000000D01*
D17*
X71890500Y-59577000D02*
X66672444Y-59577000D01*
X71925750Y-81675750D02*
X72500000Y-82250000D01*
X71500000Y-108726000D02*
X71500000Y-116724332D01*
X71250000Y-76500000D02*
X71250000Y-78246000D01*
X66620032Y-93105000D02*
X66619338Y-93105694D01*
D18*
X66619338Y-93105694D02*
X67869338Y-93105694D01*
D17*
X71794750Y-75955250D02*
X71250000Y-76500000D01*
X73502250Y-59184250D02*
X73153000Y-59533500D01*
X72180500Y-99819500D02*
X72180500Y-108045500D01*
X73153000Y-59533500D02*
X72561500Y-60125000D01*
X103305000Y-52030000D02*
X97075000Y-45800000D01*
X82000000Y-50686500D02*
X82000000Y-57325000D01*
D18*
X82350000Y-59950000D02*
X81750000Y-60550000D01*
D17*
X72500000Y-90882500D02*
X72500000Y-91750000D01*
X70678500Y-93105000D02*
X66620032Y-93105000D01*
X72500000Y-91750000D02*
X71250000Y-93000000D01*
D18*
X115400000Y-121000000D02*
X115400000Y-113200000D01*
D17*
X71250000Y-78246000D02*
X71250000Y-81000000D01*
X72500000Y-60186500D02*
X71890500Y-59577000D01*
X71250000Y-98250000D02*
X71841500Y-98841500D01*
X72500000Y-82250000D02*
X72500000Y-90882500D01*
D18*
X120000000Y-100000000D02*
X126750000Y-93250000D01*
X72500000Y-66000000D02*
X72500000Y-75250000D01*
D17*
X71250000Y-93676500D02*
X71250000Y-98250000D01*
X82000000Y-50500000D02*
X82000000Y-50686500D01*
X97075000Y-45800000D02*
X86700000Y-45800000D01*
X71250000Y-81000000D02*
X71925750Y-81675750D01*
X72107250Y-92142750D02*
X71500000Y-92750000D01*
X68303766Y-109421266D02*
X67869338Y-109855694D01*
X86700000Y-45800000D02*
X82000000Y-50500000D01*
X71091000Y-76341000D02*
X66634032Y-76341000D01*
X66672444Y-59577000D02*
X66643750Y-59605694D01*
D18*
X66643750Y-59605694D02*
X67893750Y-59605694D01*
D17*
X71500000Y-108726000D02*
X68999032Y-108726000D01*
D18*
X115400000Y-113200000D02*
X120000000Y-108600000D01*
D17*
X66634032Y-76341000D02*
X66619338Y-76355694D01*
D18*
X82500000Y-77000000D02*
X82250000Y-76750000D01*
D17*
X71250000Y-93000000D02*
X71250000Y-93676500D01*
D18*
X71500000Y-110567500D02*
X71500000Y-110000000D01*
D17*
X72500000Y-74245500D02*
X72500000Y-75250000D01*
X72500000Y-99500000D02*
X72180500Y-99819500D01*
X73502250Y-59184250D02*
X72500000Y-60186500D01*
X72107250Y-92142750D02*
X71250000Y-93000000D01*
X72500000Y-91750000D02*
X72107250Y-92142750D01*
X72180500Y-108045500D02*
X71500000Y-108726000D01*
X72561500Y-60125000D02*
X71875000Y-60125000D01*
X71250000Y-93676500D02*
X70678500Y-93105000D01*
X71500000Y-116724332D02*
X72250000Y-117474332D01*
X67869338Y-109855694D02*
X66619338Y-109855694D01*
D18*
X81750000Y-76250000D02*
X82250000Y-76750000D01*
D17*
X71841500Y-98841500D02*
X72500000Y-99500000D01*
D18*
X82250000Y-110000000D02*
X82250000Y-93750000D01*
D17*
X72500000Y-75250000D02*
X71794750Y-75955250D01*
D18*
X82250000Y-93750000D02*
X82500000Y-93500000D01*
X81750000Y-60550000D02*
X81750000Y-76250000D01*
D17*
X82000000Y-50686500D02*
X73502250Y-59184250D01*
D18*
X72500000Y-60500000D02*
X72500000Y-66000000D01*
X82500000Y-93500000D02*
X82500000Y-77000000D01*
D17*
X71875000Y-60125000D02*
X71500000Y-59750000D01*
X71250000Y-76500000D02*
X71091000Y-76341000D01*
D19*
%TO.N,VTRACK*%
X62750000Y-65000000D02*
X62750000Y-118875000D01*
X60250000Y-62500000D02*
X62750000Y-65000000D01*
X65125000Y-121250000D02*
X64500000Y-121250000D01*
X53805000Y-62500000D02*
X60250000Y-62500000D01*
X62750000Y-118875000D02*
X65125000Y-121250000D01*
D20*
%TO.N,/sense_A*%
X100500000Y-60500000D02*
X106750000Y-60500000D01*
X112210000Y-65960000D02*
X117579997Y-65960000D01*
X106750000Y-60500000D02*
X112210000Y-65960000D01*
X78689255Y-58420000D02*
X98420000Y-58420000D01*
X98420000Y-58420000D02*
X100500000Y-60500000D01*
X77435902Y-57166647D02*
X78689255Y-58420000D01*
X117579997Y-65960000D02*
X120619997Y-69000000D01*
%TO.N,/sense_B*%
X83630000Y-71120000D02*
X119461663Y-71120000D01*
X82750000Y-72000000D02*
X83630000Y-71120000D01*
X119461663Y-71120000D02*
X121500000Y-69081663D01*
X121500000Y-69081663D02*
X121500000Y-69000000D01*
%TO.N,/sense_C*%
X96600000Y-93400000D02*
X97950000Y-94750000D01*
X122464993Y-62557539D02*
X122157454Y-62250000D01*
X122464993Y-88285007D02*
X122464993Y-62557539D01*
X116000000Y-94750000D02*
X122464993Y-88285007D01*
X97950000Y-94750000D02*
X116000000Y-94750000D01*
X83750000Y-89500000D02*
X84750000Y-89500000D01*
X88650000Y-93400000D02*
X96600000Y-93400000D01*
X84750000Y-89500000D02*
X88650000Y-93400000D01*
%TO.N,/sense_D*%
X87600000Y-101400000D02*
X98600000Y-101400000D01*
X102400000Y-97600000D02*
X114400000Y-97600000D01*
X123250000Y-62750000D02*
X123250000Y-62355007D01*
X84500000Y-104500000D02*
X87600000Y-101400000D01*
X98600000Y-101400000D02*
X102400000Y-97600000D01*
X114400000Y-97600000D02*
X123250000Y-88750000D01*
X123250000Y-62355007D02*
X123144993Y-62250000D01*
X123250000Y-62750000D02*
X123250000Y-62250000D01*
X123250000Y-88750000D02*
X123250000Y-62750000D01*
D17*
%TO.N,+5V*%
X107230000Y-117520000D02*
X107230000Y-118600000D01*
D18*
X134300000Y-45050000D02*
X131120000Y-41870000D01*
D17*
X77500000Y-131250000D02*
X102500000Y-131250000D01*
X133999000Y-44749000D02*
X133999000Y-89071500D01*
X124823500Y-90500000D02*
X115106500Y-100217000D01*
X115106500Y-100217000D02*
X115106500Y-109643500D01*
X115106500Y-109643500D02*
X107230000Y-117520000D01*
X102500000Y-131250000D02*
X104000000Y-129750000D01*
X107230000Y-118600000D02*
X105815000Y-120015000D01*
X132570500Y-90500000D02*
X124823500Y-90500000D01*
X131110500Y-41860500D02*
X133999000Y-44749000D01*
X104000000Y-129750000D02*
X104000000Y-127500000D01*
X111550500Y-41860500D02*
X131110500Y-41860500D01*
X133999000Y-89071500D02*
X132570500Y-90500000D01*
D19*
%TO.N,/raw_dcc_p*%
X105750000Y-138000000D02*
X129250000Y-138000000D01*
X133250000Y-115750000D02*
X133250000Y-112250000D01*
X133092500Y-115907500D02*
X133250000Y-115750000D01*
X133250000Y-105389471D02*
X128018029Y-100157500D01*
X129250000Y-138000000D02*
X133250000Y-134000000D01*
X56250000Y-138000000D02*
X64500000Y-138000000D01*
X51440000Y-114865000D02*
X51440000Y-133190000D01*
X53805000Y-112500000D02*
X51440000Y-114865000D01*
X104250000Y-136500000D02*
X105750000Y-138000000D01*
X64500000Y-138000000D02*
X66000000Y-136500000D01*
X51440000Y-133190000D02*
X56250000Y-138000000D01*
X127520000Y-115907500D02*
X133092500Y-115907500D01*
X66000000Y-136500000D02*
X104250000Y-136500000D01*
X133250000Y-134000000D02*
X133250000Y-105389471D01*
X128018029Y-100157500D02*
X127520000Y-100157500D01*
%TO.N,/raw_dcc_n*%
X84500000Y-133750000D02*
X84000000Y-133750000D01*
X130365000Y-127777744D02*
X130365000Y-132635000D01*
X54250000Y-117945000D02*
X53805000Y-117500000D01*
X123951000Y-100432471D02*
X125241971Y-99141500D01*
X85000000Y-133750000D02*
X96500000Y-133750000D01*
X96500000Y-133750000D02*
X96000000Y-133750000D01*
X127500000Y-135500000D02*
X107872574Y-135500000D01*
X125740000Y-114891500D02*
X125241971Y-114891500D01*
X54250000Y-131837256D02*
X54250000Y-117945000D01*
X107872574Y-135500000D02*
X106122574Y-133750000D01*
X123951000Y-121363744D02*
X130365000Y-127777744D01*
X125241971Y-99141500D02*
X125740000Y-99141500D01*
X85000000Y-133750000D02*
X64750000Y-133750000D01*
X57777744Y-135365000D02*
X54250000Y-131837256D01*
X64750000Y-133750000D02*
X63135000Y-135365000D01*
X63135000Y-135365000D02*
X57777744Y-135365000D01*
X123951000Y-113600529D02*
X123951000Y-100432471D01*
X130365000Y-132635000D02*
X127500000Y-135500000D01*
X125241971Y-114891500D02*
X123951000Y-113600529D01*
X123951000Y-113600529D02*
X123951000Y-121363744D01*
X96000000Y-133750000D02*
X95500000Y-133750000D01*
X85000000Y-133750000D02*
X84500000Y-133750000D01*
X106122574Y-133750000D02*
X96500000Y-133750000D01*
D18*
%TO.N,/pwr_p*%
X125740000Y-103205500D02*
X126960566Y-103205500D01*
X126960566Y-103205500D02*
X130810000Y-107054934D01*
X130810000Y-107054934D02*
X130810000Y-110520500D01*
%TO.N,/pwr_n*%
X130060000Y-114270500D02*
X131500000Y-112830500D01*
X131500000Y-112830500D02*
X131500000Y-106169500D01*
X131500000Y-106169500D02*
X127520000Y-102189500D01*
D17*
%TO.N,/can_shield*%
X122060000Y-118260000D02*
X122060000Y-105770500D01*
X122356040Y-118556040D02*
X122060000Y-118260000D01*
D20*
%TO.N,/can-*%
X126912999Y-111102884D02*
X126550000Y-111465883D01*
X126550000Y-112049500D02*
X125740000Y-112859500D01*
X126550000Y-111465883D02*
X126550000Y-112049500D01*
X127694404Y-108629554D02*
X127694404Y-108912397D01*
X126912999Y-109693802D02*
X126912999Y-111102884D01*
X127694404Y-108912397D02*
X126912999Y-109693802D01*
%TO.N,/can+*%
X128295446Y-109230596D02*
X128012603Y-109230596D01*
X127363001Y-109880198D02*
X127363001Y-111686501D01*
X127363001Y-111686501D02*
X127520000Y-111843500D01*
X128012603Y-109230596D02*
X127363001Y-109880198D01*
%TO.N,/dcc_p*%
X78750000Y-81000000D02*
X78750000Y-81295694D01*
X86000000Y-98400000D02*
X87800000Y-98400000D01*
X78750000Y-97750000D02*
X78750000Y-81000000D01*
X78750000Y-114500000D02*
X78750000Y-114795694D01*
X94300000Y-96500000D02*
X94600000Y-96800000D01*
X87800000Y-98400000D02*
X89700000Y-96500000D01*
X88500000Y-126000000D02*
X78750000Y-116250000D01*
X78750000Y-116250000D02*
X78750000Y-114500000D01*
X73250000Y-129000000D02*
X87750000Y-129000000D01*
X72250000Y-130000000D02*
X73250000Y-129000000D01*
X94600000Y-96800000D02*
X96600000Y-96800000D01*
X78750000Y-81000000D02*
X78750000Y-64545694D01*
X87750000Y-129000000D02*
X88500000Y-128250000D01*
X78750000Y-114500000D02*
X78750000Y-97750000D01*
X88500000Y-128250000D02*
X88500000Y-126000000D01*
X78750000Y-97750000D02*
X78750000Y-98045694D01*
X89700000Y-96500000D02*
X94300000Y-96500000D01*
%TO.N,/dcc_n*%
X79829338Y-99315694D02*
X79829338Y-116065694D01*
X79829338Y-82565694D02*
X79829338Y-99315694D01*
X79853750Y-65815694D02*
X79853750Y-82541282D01*
X100500000Y-129000000D02*
X90500000Y-129000000D01*
X79829338Y-116079338D02*
X79829338Y-116065694D01*
X90500000Y-129000000D02*
X89500000Y-128000000D01*
X89500000Y-125750000D02*
X79829338Y-116079338D01*
X89500000Y-128000000D02*
X89500000Y-125750000D01*
X79853750Y-82541282D02*
X79829338Y-82565694D01*
%TD*%
%TA.AperFunction,Conductor*%
%TO.N,GND*%
G36*
X50705703Y-134401399D02*
G01*
X50712181Y-134407431D01*
X55200828Y-138896078D01*
X55353922Y-139049172D01*
X55529081Y-139176433D01*
X55676088Y-139251337D01*
X55702932Y-139265015D01*
X55753728Y-139312990D01*
X55770523Y-139380811D01*
X55747985Y-139446946D01*
X55693270Y-139490397D01*
X55646637Y-139499500D01*
X50624500Y-139499500D01*
X50557461Y-139479815D01*
X50511706Y-139427011D01*
X50500500Y-139375500D01*
X50500500Y-134495112D01*
X50520185Y-134428073D01*
X50572989Y-134382318D01*
X50642147Y-134372374D01*
X50705703Y-134401399D01*
G37*
%TD.AperFunction*%
%TA.AperFunction,Conductor*%
G36*
X103695926Y-137895185D02*
G01*
X103716568Y-137911819D01*
X104700828Y-138896078D01*
X104853922Y-139049172D01*
X105029081Y-139176433D01*
X105176088Y-139251337D01*
X105202932Y-139265015D01*
X105253728Y-139312990D01*
X105270523Y-139380811D01*
X105247985Y-139446946D01*
X105193270Y-139490397D01*
X105146637Y-139499500D01*
X65103363Y-139499500D01*
X65098074Y-139497947D01*
X65092672Y-139499038D01*
X65064910Y-139488209D01*
X65036324Y-139479815D01*
X65032715Y-139475650D01*
X65027579Y-139473647D01*
X65010076Y-139449523D01*
X64990569Y-139427011D01*
X64989784Y-139421556D01*
X64986547Y-139417094D01*
X64984865Y-139387343D01*
X64980625Y-139357853D01*
X64982915Y-139352838D01*
X64982604Y-139347336D01*
X64997271Y-139321402D01*
X65009650Y-139294297D01*
X65015005Y-139290047D01*
X65017000Y-139286520D01*
X65041797Y-139268784D01*
X65045567Y-139265793D01*
X65046335Y-139265388D01*
X65220919Y-139176433D01*
X65220920Y-139176432D01*
X65396078Y-139049173D01*
X66533431Y-137911818D01*
X66594754Y-137878334D01*
X66621112Y-137875500D01*
X103628887Y-137875500D01*
X103695926Y-137895185D01*
G37*
%TD.AperFunction*%
%TA.AperFunction,Conductor*%
G36*
X134418834Y-134878930D02*
G01*
X134474767Y-134920802D01*
X134499184Y-134986266D01*
X134499500Y-134995112D01*
X134499500Y-139375500D01*
X134479815Y-139442539D01*
X134427011Y-139488294D01*
X134375500Y-139499500D01*
X129853363Y-139499500D01*
X129848074Y-139497947D01*
X129842672Y-139499038D01*
X129814910Y-139488209D01*
X129786324Y-139479815D01*
X129782715Y-139475650D01*
X129777579Y-139473647D01*
X129760076Y-139449523D01*
X129740569Y-139427011D01*
X129739784Y-139421556D01*
X129736547Y-139417094D01*
X129734865Y-139387343D01*
X129730625Y-139357853D01*
X129732915Y-139352838D01*
X129732604Y-139347336D01*
X129747271Y-139321402D01*
X129759650Y-139294297D01*
X129765005Y-139290047D01*
X129767000Y-139286520D01*
X129791797Y-139268784D01*
X129795567Y-139265793D01*
X129796335Y-139265388D01*
X129970919Y-139176433D01*
X129970920Y-139176432D01*
X130146078Y-139049173D01*
X134287819Y-134907430D01*
X134349142Y-134873946D01*
X134418834Y-134878930D01*
G37*
%TD.AperFunction*%
%TA.AperFunction,Conductor*%
G36*
X121785896Y-69779385D02*
G01*
X121841072Y-69822249D01*
X121864315Y-69888140D01*
X121864493Y-69894774D01*
X121864493Y-87984909D01*
X121844808Y-88051948D01*
X121828174Y-88072590D01*
X115787584Y-94113181D01*
X115726261Y-94146666D01*
X115699903Y-94149500D01*
X98250097Y-94149500D01*
X98183058Y-94129815D01*
X98162416Y-94113181D01*
X97087590Y-93038355D01*
X97087588Y-93038352D01*
X96968717Y-92919481D01*
X96968716Y-92919480D01*
X96881904Y-92869360D01*
X96881904Y-92869359D01*
X96881900Y-92869358D01*
X96831785Y-92840423D01*
X96679057Y-92799499D01*
X96520943Y-92799499D01*
X96513347Y-92799499D01*
X96513331Y-92799500D01*
X88950097Y-92799500D01*
X88883058Y-92779815D01*
X88862416Y-92763181D01*
X85237590Y-89138355D01*
X85237588Y-89138352D01*
X85118716Y-89019480D01*
X85118709Y-89019475D01*
X85014395Y-88959250D01*
X85014392Y-88959249D01*
X84981787Y-88940424D01*
X84981786Y-88940423D01*
X84981785Y-88940423D01*
X84829057Y-88899499D01*
X84670943Y-88899499D01*
X84663347Y-88899499D01*
X84663331Y-88899500D01*
X84329766Y-88899500D01*
X84262727Y-88879815D01*
X84260875Y-88878602D01*
X84129185Y-88790609D01*
X84129172Y-88790602D01*
X83983501Y-88730264D01*
X83983489Y-88730261D01*
X83828845Y-88699500D01*
X83828842Y-88699500D01*
X83671158Y-88699500D01*
X83671155Y-88699500D01*
X83516510Y-88730261D01*
X83516507Y-88730262D01*
X83516506Y-88730262D01*
X83516503Y-88730263D01*
X83436372Y-88763454D01*
X83371952Y-88790137D01*
X83302482Y-88797605D01*
X83240003Y-88766329D01*
X83204351Y-88706240D01*
X83200500Y-88675575D01*
X83200500Y-87339895D01*
X97150000Y-87339895D01*
X101802057Y-90952663D01*
X101842931Y-91009327D01*
X101850000Y-91050597D01*
X101850000Y-92000000D01*
X106650000Y-92000000D01*
X106650000Y-91050597D01*
X106669685Y-90983558D01*
X106697941Y-90952664D01*
X111350000Y-87339895D01*
X111350000Y-83000000D01*
X97150000Y-83000000D01*
X97150000Y-87339895D01*
X83200500Y-87339895D01*
X83200500Y-76931006D01*
X83200499Y-76931003D01*
X83198312Y-76920006D01*
X83177408Y-76814915D01*
X83173580Y-76795671D01*
X83147367Y-76732389D01*
X83120775Y-76668189D01*
X83120772Y-76668184D01*
X83120771Y-76668182D01*
X83044114Y-76553458D01*
X83040249Y-76548748D01*
X83041134Y-76548021D01*
X83019193Y-76515190D01*
X82959394Y-76370821D01*
X82959390Y-76370814D01*
X82871789Y-76239711D01*
X82871786Y-76239707D01*
X82760292Y-76128213D01*
X82760288Y-76128210D01*
X82629185Y-76040609D01*
X82629175Y-76040604D01*
X82527047Y-75998301D01*
X82472644Y-75954460D01*
X82450579Y-75888166D01*
X82450500Y-75883740D01*
X82450500Y-72907702D01*
X82470185Y-72840663D01*
X82522989Y-72794908D01*
X82592147Y-72784964D01*
X82598667Y-72786080D01*
X82655435Y-72797372D01*
X82671157Y-72800500D01*
X82671158Y-72800500D01*
X82828844Y-72800500D01*
X82828845Y-72800499D01*
X82983497Y-72769737D01*
X83129179Y-72709394D01*
X83260289Y-72621789D01*
X83371789Y-72510289D01*
X83459394Y-72379179D01*
X83519737Y-72233497D01*
X83550500Y-72078842D01*
X83550638Y-72078150D01*
X83583023Y-72016239D01*
X83584518Y-72014716D01*
X83842416Y-71756819D01*
X83903739Y-71723334D01*
X83930097Y-71720500D01*
X119374994Y-71720500D01*
X119375010Y-71720501D01*
X119382606Y-71720501D01*
X119540717Y-71720501D01*
X119540720Y-71720501D01*
X119693448Y-71679577D01*
X119743567Y-71650639D01*
X119830379Y-71600520D01*
X119942183Y-71488716D01*
X119942183Y-71488714D01*
X119952391Y-71478507D01*
X119952393Y-71478504D01*
X121616603Y-69814293D01*
X121633199Y-69805231D01*
X121646810Y-69792099D01*
X121676303Y-69781694D01*
X121677924Y-69780810D01*
X121679936Y-69780390D01*
X121716306Y-69773156D01*
X121785896Y-69779385D01*
G37*
%TD.AperFunction*%
%TA.AperFunction,Conductor*%
G36*
X98186942Y-59040185D02*
G01*
X98207584Y-59056819D01*
X100015139Y-60864374D01*
X100015149Y-60864385D01*
X100019479Y-60868715D01*
X100019480Y-60868716D01*
X100131284Y-60980520D01*
X100164558Y-60999730D01*
X100218095Y-61030639D01*
X100218097Y-61030641D01*
X100268213Y-61059576D01*
X100268215Y-61059577D01*
X100420942Y-61100500D01*
X100420943Y-61100500D01*
X106449903Y-61100500D01*
X106516942Y-61120185D01*
X106537584Y-61136819D01*
X111725139Y-66324374D01*
X111725149Y-66324385D01*
X111729479Y-66328715D01*
X111729480Y-66328716D01*
X111841284Y-66440520D01*
X111928095Y-66490639D01*
X111928097Y-66490641D01*
X111966151Y-66512611D01*
X111978215Y-66519577D01*
X112130943Y-66560500D01*
X112289057Y-66560500D01*
X117279900Y-66560500D01*
X117346939Y-66580185D01*
X117367581Y-66596819D01*
X119785422Y-69014660D01*
X119818907Y-69075983D01*
X119819358Y-69078149D01*
X119850258Y-69233491D01*
X119850261Y-69233501D01*
X119910599Y-69379172D01*
X119910606Y-69379185D01*
X119998207Y-69510288D01*
X119998210Y-69510292D01*
X120022491Y-69534573D01*
X120055976Y-69595896D01*
X120050992Y-69665588D01*
X120022491Y-69709935D01*
X119249247Y-70483181D01*
X119187924Y-70516666D01*
X119161566Y-70519500D01*
X83716669Y-70519500D01*
X83716653Y-70519499D01*
X83709057Y-70519499D01*
X83550943Y-70519499D01*
X83398215Y-70560423D01*
X83398213Y-70560424D01*
X83376646Y-70572874D01*
X83376647Y-70572875D01*
X83261287Y-70639477D01*
X83261282Y-70639481D01*
X82735339Y-71165425D01*
X82718743Y-71174487D01*
X82705134Y-71187619D01*
X82675634Y-71198026D01*
X82674016Y-71198910D01*
X82671851Y-71199361D01*
X82598693Y-71213914D01*
X82529101Y-71207687D01*
X82473923Y-71164825D01*
X82450678Y-71098936D01*
X82450500Y-71092297D01*
X82450500Y-60891519D01*
X82470185Y-60824480D01*
X82486818Y-60803839D01*
X82544584Y-60746072D01*
X82584812Y-60719192D01*
X82654838Y-60690186D01*
X82729173Y-60659397D01*
X82729176Y-60659395D01*
X82729179Y-60659394D01*
X82860289Y-60571789D01*
X82971789Y-60460289D01*
X83059394Y-60329179D01*
X83119737Y-60183497D01*
X83150500Y-60028842D01*
X83150500Y-59871158D01*
X83150500Y-59871155D01*
X83150499Y-59871153D01*
X83138696Y-59811816D01*
X83119737Y-59716503D01*
X83114655Y-59704234D01*
X83059397Y-59570827D01*
X83059390Y-59570814D01*
X82971789Y-59439711D01*
X82971786Y-59439707D01*
X82860292Y-59328213D01*
X82860288Y-59328210D01*
X82739650Y-59247602D01*
X82694845Y-59193990D01*
X82686138Y-59124665D01*
X82716292Y-59061637D01*
X82775736Y-59024918D01*
X82808541Y-59020500D01*
X98119903Y-59020500D01*
X98186942Y-59040185D01*
G37*
%TD.AperFunction*%
%TA.AperFunction,Conductor*%
G36*
X80918834Y-53285099D02*
G01*
X80974767Y-53326971D01*
X80999184Y-53392435D01*
X80999500Y-53401281D01*
X80999500Y-57423541D01*
X80999500Y-57423543D01*
X80999499Y-57423543D01*
X81037947Y-57616829D01*
X81037948Y-57616831D01*
X81037949Y-57616835D01*
X81050878Y-57648049D01*
X81058347Y-57717516D01*
X81027073Y-57779995D01*
X80966984Y-57815648D01*
X80936317Y-57819500D01*
X78989352Y-57819500D01*
X78922313Y-57799815D01*
X78901671Y-57783181D01*
X78270476Y-57151986D01*
X78236991Y-57090663D01*
X78236540Y-57088496D01*
X78205640Y-56933157D01*
X78205639Y-56933150D01*
X78205637Y-56933145D01*
X78145299Y-56787474D01*
X78145292Y-56787461D01*
X78057691Y-56656358D01*
X78057688Y-56656354D01*
X77946194Y-56544860D01*
X77946190Y-56544857D01*
X77838255Y-56472736D01*
X77793450Y-56419123D01*
X77784743Y-56349798D01*
X77814898Y-56286771D01*
X77819446Y-56281972D01*
X80787821Y-53313598D01*
X80849142Y-53280115D01*
X80918834Y-53285099D01*
G37*
%TD.AperFunction*%
%TA.AperFunction,Conductor*%
G36*
X101053813Y-40520185D02*
G01*
X101099568Y-40572989D01*
X101109512Y-40642147D01*
X101080487Y-40705703D01*
X101025093Y-40742430D01*
X101006588Y-40748443D01*
X101006585Y-40748444D01*
X100817179Y-40844951D01*
X100645213Y-40969890D01*
X100494890Y-41120213D01*
X100369951Y-41292179D01*
X100273444Y-41481585D01*
X100207753Y-41683760D01*
X100195368Y-41761956D01*
X100174500Y-41893713D01*
X100174500Y-42106287D01*
X100207754Y-42316243D01*
X100266903Y-42498285D01*
X100273444Y-42518414D01*
X100369951Y-42707820D01*
X100494890Y-42879786D01*
X100645213Y-43030109D01*
X100817179Y-43155048D01*
X100817181Y-43155049D01*
X100817184Y-43155051D01*
X101006588Y-43251557D01*
X101208757Y-43317246D01*
X101418713Y-43350500D01*
X101418714Y-43350500D01*
X101631286Y-43350500D01*
X101631287Y-43350500D01*
X101841243Y-43317246D01*
X102043412Y-43251557D01*
X102232816Y-43155051D01*
X102254789Y-43139086D01*
X102404786Y-43030109D01*
X102404788Y-43030106D01*
X102404792Y-43030104D01*
X102555104Y-42879792D01*
X102555106Y-42879788D01*
X102555109Y-42879786D01*
X102680048Y-42707820D01*
X102680047Y-42707820D01*
X102680051Y-42707816D01*
X102776557Y-42518412D01*
X102842246Y-42316243D01*
X102875500Y-42106287D01*
X102875500Y-41893713D01*
X102842246Y-41683757D01*
X102776557Y-41481588D01*
X102680051Y-41292184D01*
X102680049Y-41292181D01*
X102680048Y-41292179D01*
X102555109Y-41120213D01*
X102404786Y-40969890D01*
X102232820Y-40844951D01*
X102043414Y-40748444D01*
X102043413Y-40748443D01*
X102043412Y-40748443D01*
X102024907Y-40742430D01*
X101967232Y-40702994D01*
X101940034Y-40638635D01*
X101951949Y-40569789D01*
X101999193Y-40518313D01*
X102063226Y-40500500D01*
X106436774Y-40500500D01*
X106503813Y-40520185D01*
X106549568Y-40572989D01*
X106559512Y-40642147D01*
X106530487Y-40705703D01*
X106475093Y-40742430D01*
X106456588Y-40748443D01*
X106456585Y-40748444D01*
X106267179Y-40844951D01*
X106095213Y-40969890D01*
X105944890Y-41120213D01*
X105819951Y-41292179D01*
X105723444Y-41481585D01*
X105657753Y-41683760D01*
X105645368Y-41761956D01*
X105624500Y-41893713D01*
X105624500Y-42106287D01*
X105657754Y-42316243D01*
X105716903Y-42498285D01*
X105723444Y-42518414D01*
X105819951Y-42707820D01*
X105944890Y-42879786D01*
X106095213Y-43030109D01*
X106267179Y-43155048D01*
X106267181Y-43155049D01*
X106267184Y-43155051D01*
X106456588Y-43251557D01*
X106658757Y-43317246D01*
X106868713Y-43350500D01*
X106868714Y-43350500D01*
X107081286Y-43350500D01*
X107081287Y-43350500D01*
X107291243Y-43317246D01*
X107493412Y-43251557D01*
X107682816Y-43155051D01*
X107704789Y-43139086D01*
X107854786Y-43030109D01*
X107854788Y-43030106D01*
X107854792Y-43030104D01*
X108005104Y-42879792D01*
X108005106Y-42879788D01*
X108005109Y-42879786D01*
X108130048Y-42707820D01*
X108130047Y-42707820D01*
X108130051Y-42707816D01*
X108226557Y-42518412D01*
X108292246Y-42316243D01*
X108325500Y-42106287D01*
X108325500Y-41893713D01*
X108292246Y-41683757D01*
X108226557Y-41481588D01*
X108130051Y-41292184D01*
X108130049Y-41292181D01*
X108130048Y-41292179D01*
X108005109Y-41120213D01*
X107854786Y-40969890D01*
X107682820Y-40844951D01*
X107493414Y-40748444D01*
X107493413Y-40748443D01*
X107493412Y-40748443D01*
X107474907Y-40742430D01*
X107417232Y-40702994D01*
X107390034Y-40638635D01*
X107401949Y-40569789D01*
X107449193Y-40518313D01*
X107513226Y-40500500D01*
X134375500Y-40500500D01*
X134442539Y-40520185D01*
X134488294Y-40572989D01*
X134499500Y-40624500D01*
X134499500Y-43535218D01*
X134479815Y-43602257D01*
X134427011Y-43648012D01*
X134357853Y-43657956D01*
X134294297Y-43628931D01*
X134287819Y-43622899D01*
X131891979Y-41227059D01*
X131891959Y-41227037D01*
X131748285Y-41083363D01*
X131748281Y-41083360D01*
X131584420Y-40973871D01*
X131584411Y-40973866D01*
X131511815Y-40943796D01*
X131455665Y-40920538D01*
X131402336Y-40898449D01*
X131402332Y-40898448D01*
X131402328Y-40898446D01*
X131305688Y-40879224D01*
X131209044Y-40860000D01*
X131209041Y-40860000D01*
X111451959Y-40860000D01*
X111451957Y-40860000D01*
X111258670Y-40898447D01*
X111258660Y-40898450D01*
X111076592Y-40973864D01*
X111076579Y-40973871D01*
X110912718Y-41083360D01*
X110912714Y-41083363D01*
X110773363Y-41222714D01*
X110773360Y-41222718D01*
X110663871Y-41386579D01*
X110663864Y-41386592D01*
X110588450Y-41568660D01*
X110588447Y-41568670D01*
X110550000Y-41761956D01*
X110550000Y-41761959D01*
X110550000Y-41959041D01*
X110550000Y-41959043D01*
X110549999Y-41959043D01*
X110588447Y-42152329D01*
X110588450Y-42152339D01*
X110663864Y-42334407D01*
X110663871Y-42334420D01*
X110773360Y-42498281D01*
X110773363Y-42498285D01*
X110912714Y-42637636D01*
X110912718Y-42637639D01*
X111076579Y-42747128D01*
X111076592Y-42747135D01*
X111258660Y-42822549D01*
X111258665Y-42822551D01*
X111258669Y-42822551D01*
X111258670Y-42822552D01*
X111451956Y-42861000D01*
X111451959Y-42861000D01*
X130644718Y-42861000D01*
X130711757Y-42880685D01*
X130732399Y-42897319D01*
X132962181Y-45127101D01*
X132995666Y-45188424D01*
X132998500Y-45214782D01*
X132998500Y-88605718D01*
X132978815Y-88672757D01*
X132962181Y-88693399D01*
X132192399Y-89463181D01*
X132131076Y-89496666D01*
X132104718Y-89499500D01*
X124724957Y-89499500D01*
X124639675Y-89516464D01*
X124639671Y-89516464D01*
X124637132Y-89516970D01*
X124531664Y-89537949D01*
X124512998Y-89545681D01*
X124504122Y-89549357D01*
X124504120Y-89549358D01*
X124349592Y-89613364D01*
X124349579Y-89613371D01*
X124185719Y-89722859D01*
X124116040Y-89792538D01*
X124046361Y-89862218D01*
X124046358Y-89862221D01*
X114468721Y-99439858D01*
X114468718Y-99439861D01*
X114399038Y-99509540D01*
X114329359Y-99579219D01*
X114219871Y-99743079D01*
X114219864Y-99743092D01*
X114171665Y-99859457D01*
X114171659Y-99859472D01*
X114170439Y-99862419D01*
X114144449Y-99925164D01*
X114141260Y-99941195D01*
X114139505Y-99950014D01*
X114139503Y-99950022D01*
X114106000Y-100118456D01*
X114106000Y-109177717D01*
X114086315Y-109244756D01*
X114069681Y-109265398D01*
X110339412Y-112995667D01*
X106592221Y-116742858D01*
X106592218Y-116742861D01*
X106522538Y-116812540D01*
X106452859Y-116882219D01*
X106343371Y-117046079D01*
X106343368Y-117046086D01*
X106290038Y-117174834D01*
X106286862Y-117182503D01*
X106267950Y-117228159D01*
X106267947Y-117228167D01*
X106256725Y-117284589D01*
X106256725Y-117284590D01*
X106229500Y-117421456D01*
X106229500Y-118134217D01*
X106209815Y-118201256D01*
X106193181Y-118221898D01*
X105037863Y-119377215D01*
X105037860Y-119377219D01*
X104928372Y-119541079D01*
X104928367Y-119541089D01*
X104852949Y-119723163D01*
X104852947Y-119723171D01*
X104814500Y-119916455D01*
X104814500Y-120113544D01*
X104852947Y-120306828D01*
X104852949Y-120306836D01*
X104928367Y-120488910D01*
X104928372Y-120488920D01*
X105037860Y-120652780D01*
X105037863Y-120652784D01*
X105177215Y-120792136D01*
X105177219Y-120792139D01*
X105341079Y-120901627D01*
X105341083Y-120901629D01*
X105341086Y-120901631D01*
X105523164Y-120977051D01*
X105716455Y-121015499D01*
X105716458Y-121015500D01*
X105716460Y-121015500D01*
X105913542Y-121015500D01*
X105913543Y-121015499D01*
X106106836Y-120977051D01*
X106288914Y-120901631D01*
X106452781Y-120792139D01*
X107867778Y-119377141D01*
X107867782Y-119377139D01*
X108007139Y-119237782D01*
X108116632Y-119073914D01*
X108184527Y-118910000D01*
X108192051Y-118891836D01*
X108221103Y-118745784D01*
X108230500Y-118698541D01*
X108230500Y-117985781D01*
X108250185Y-117918742D01*
X108266814Y-117898105D01*
X115744278Y-110420641D01*
X115744282Y-110420639D01*
X115883639Y-110281282D01*
X115993132Y-110117414D01*
X116058643Y-109959255D01*
X116068551Y-109935336D01*
X116097426Y-109790173D01*
X116107000Y-109742041D01*
X116107000Y-100682782D01*
X116126685Y-100615743D01*
X116143319Y-100595101D01*
X125201601Y-91536819D01*
X125262924Y-91503334D01*
X125289282Y-91500500D01*
X128912084Y-91500500D01*
X128979123Y-91520185D01*
X129024878Y-91572989D01*
X129034822Y-91642147D01*
X129005797Y-91705703D01*
X128987570Y-91722876D01*
X128804225Y-91863560D01*
X128804218Y-91863566D01*
X128628066Y-92039718D01*
X128628060Y-92039725D01*
X128476400Y-92237373D01*
X128351837Y-92453123D01*
X128351830Y-92453138D01*
X128256498Y-92683292D01*
X128192017Y-92923938D01*
X128159501Y-93170924D01*
X128159500Y-93170941D01*
X128159500Y-93420058D01*
X128159501Y-93420075D01*
X128192017Y-93667061D01*
X128256498Y-93907707D01*
X128351830Y-94137861D01*
X128351837Y-94137876D01*
X128476400Y-94353626D01*
X128628060Y-94551274D01*
X128628066Y-94551281D01*
X128804218Y-94727433D01*
X128804225Y-94727439D01*
X129001873Y-94879099D01*
X129217623Y-95003662D01*
X129217638Y-95003669D01*
X129316825Y-95044753D01*
X129447793Y-95099002D01*
X129688435Y-95163482D01*
X129935435Y-95196000D01*
X129935442Y-95196000D01*
X130184558Y-95196000D01*
X130184565Y-95196000D01*
X130431565Y-95163482D01*
X130672207Y-95099002D01*
X130902373Y-95003664D01*
X131118127Y-94879099D01*
X131315776Y-94727438D01*
X131491938Y-94551276D01*
X131643599Y-94353627D01*
X131768164Y-94137873D01*
X131863502Y-93907707D01*
X131927982Y-93667065D01*
X131960500Y-93420065D01*
X131960500Y-93170935D01*
X131927982Y-92923935D01*
X131863502Y-92683293D01*
X131779404Y-92480263D01*
X131768169Y-92453138D01*
X131768162Y-92453123D01*
X131643599Y-92237373D01*
X131491939Y-92039725D01*
X131491933Y-92039718D01*
X131315781Y-91863566D01*
X131315774Y-91863560D01*
X131132430Y-91722876D01*
X131091227Y-91666448D01*
X131087072Y-91596702D01*
X131121284Y-91535782D01*
X131183001Y-91503029D01*
X131207916Y-91500500D01*
X132669042Y-91500500D01*
X132688239Y-91496681D01*
X132765688Y-91481275D01*
X132862336Y-91462051D01*
X132930566Y-91433789D01*
X133044414Y-91386632D01*
X133208282Y-91277139D01*
X133347639Y-91137782D01*
X133347640Y-91137780D01*
X133354706Y-91130714D01*
X133354708Y-91130710D01*
X134287820Y-90197599D01*
X134349142Y-90164115D01*
X134418834Y-90169099D01*
X134474767Y-90210971D01*
X134499184Y-90276435D01*
X134499500Y-90285281D01*
X134499500Y-104394359D01*
X134493261Y-104415604D01*
X134491682Y-104437693D01*
X134483609Y-104448476D01*
X134479815Y-104461398D01*
X134463081Y-104475897D01*
X134449810Y-104493626D01*
X134437189Y-104498333D01*
X134427011Y-104507153D01*
X134405093Y-104510304D01*
X134384346Y-104518043D01*
X134371185Y-104515180D01*
X134357853Y-104517097D01*
X134337709Y-104507897D01*
X134316073Y-104503191D01*
X134298347Y-104489922D01*
X134294297Y-104488072D01*
X134287819Y-104482040D01*
X134146078Y-104340299D01*
X128914105Y-99108325D01*
X128914100Y-99108321D01*
X128738949Y-98981067D01*
X128626226Y-98923631D01*
X128575431Y-98875657D01*
X128558636Y-98807836D01*
X128572037Y-98756852D01*
X128654323Y-98595355D01*
X128713861Y-98412118D01*
X128744000Y-98221830D01*
X128744000Y-98029169D01*
X128713861Y-97838881D01*
X128654323Y-97655644D01*
X128566857Y-97483982D01*
X128566851Y-97483973D01*
X128545065Y-97453987D01*
X128545064Y-97453986D01*
X127978467Y-98020583D01*
X127957971Y-97944087D01*
X127896094Y-97836913D01*
X127808587Y-97749406D01*
X127701413Y-97687529D01*
X127624914Y-97667031D01*
X128126241Y-97165704D01*
X128157633Y-97142897D01*
X128161778Y-97140786D01*
X128317708Y-97027496D01*
X128453996Y-96891208D01*
X128567286Y-96735278D01*
X128654788Y-96563545D01*
X128714348Y-96380238D01*
X128744500Y-96189870D01*
X128744500Y-95997130D01*
X128714348Y-95806762D01*
X128714347Y-95806758D01*
X128714347Y-95806757D01*
X128654789Y-95623457D01*
X128567285Y-95451721D01*
X128546410Y-95422989D01*
X128453996Y-95295792D01*
X128317708Y-95159504D01*
X128161778Y-95046214D01*
X127990042Y-94958710D01*
X127806740Y-94899152D01*
X127679826Y-94879050D01*
X127616370Y-94869000D01*
X127423630Y-94869000D01*
X127360174Y-94879050D01*
X127233260Y-94899152D01*
X127233257Y-94899152D01*
X127049957Y-94958710D01*
X126878221Y-95046214D01*
X126805567Y-95099001D01*
X126722292Y-95159504D01*
X126722290Y-95159506D01*
X126722289Y-95159506D01*
X126586006Y-95295789D01*
X126586006Y-95295790D01*
X126586004Y-95295792D01*
X126575989Y-95309577D01*
X126472714Y-95451721D01*
X126385210Y-95623457D01*
X126325652Y-95806757D01*
X126317406Y-95858820D01*
X126287475Y-95921954D01*
X126228163Y-95958884D01*
X126158301Y-95957886D01*
X126156615Y-95957351D01*
X126026740Y-95915152D01*
X125899826Y-95895050D01*
X125836370Y-95885000D01*
X125643630Y-95885000D01*
X125580174Y-95895050D01*
X125453260Y-95915152D01*
X125453253Y-95915153D01*
X125384904Y-95937361D01*
X125315063Y-95939356D01*
X125255230Y-95903275D01*
X125224403Y-95840573D01*
X125232368Y-95771159D01*
X125258903Y-95731752D01*
X126944586Y-94046069D01*
X126984810Y-94019192D01*
X127049686Y-93992321D01*
X127129173Y-93959397D01*
X127129176Y-93959395D01*
X127129179Y-93959394D01*
X127260289Y-93871789D01*
X127371789Y-93760289D01*
X127459394Y-93629179D01*
X127519737Y-93483497D01*
X127550500Y-93328842D01*
X127550500Y-93171158D01*
X127550500Y-93171155D01*
X127550499Y-93171153D01*
X127540487Y-93120821D01*
X127519737Y-93016503D01*
X127515865Y-93007154D01*
X127459397Y-92870827D01*
X127459390Y-92870814D01*
X127371789Y-92739711D01*
X127371786Y-92739707D01*
X127260292Y-92628213D01*
X127260288Y-92628210D01*
X127129185Y-92540609D01*
X127129172Y-92540602D01*
X126983501Y-92480264D01*
X126983489Y-92480261D01*
X126828845Y-92449500D01*
X126828842Y-92449500D01*
X126671158Y-92449500D01*
X126671155Y-92449500D01*
X126516510Y-92480261D01*
X126516498Y-92480264D01*
X126370827Y-92540602D01*
X126370814Y-92540609D01*
X126239711Y-92628210D01*
X126239707Y-92628213D01*
X126128213Y-92739707D01*
X126128210Y-92739711D01*
X126040609Y-92870814D01*
X126040604Y-92870823D01*
X125980809Y-93015184D01*
X125953929Y-93055412D01*
X119455887Y-99553454D01*
X119379222Y-99668192D01*
X119326421Y-99795667D01*
X119326418Y-99795679D01*
X119302447Y-99916190D01*
X119299501Y-99930998D01*
X119299500Y-99931005D01*
X119299500Y-108258480D01*
X119279815Y-108325519D01*
X119263181Y-108346161D01*
X114855890Y-112753451D01*
X114855885Y-112753457D01*
X114840352Y-112776703D01*
X114840353Y-112776704D01*
X114779222Y-112868192D01*
X114726421Y-112995667D01*
X114726418Y-112995677D01*
X114699500Y-113131004D01*
X114699500Y-120574684D01*
X114690061Y-120622136D01*
X114630264Y-120766498D01*
X114630261Y-120766510D01*
X114599500Y-120921153D01*
X114599500Y-121078846D01*
X114630261Y-121233489D01*
X114630264Y-121233501D01*
X114690602Y-121379172D01*
X114690609Y-121379185D01*
X114778210Y-121510288D01*
X114778213Y-121510292D01*
X114889707Y-121621786D01*
X114889711Y-121621789D01*
X115020814Y-121709390D01*
X115020827Y-121709397D01*
X115166498Y-121769735D01*
X115166503Y-121769737D01*
X115321153Y-121800499D01*
X115321156Y-121800500D01*
X115321158Y-121800500D01*
X115478844Y-121800500D01*
X115478845Y-121800499D01*
X115633497Y-121769737D01*
X115779179Y-121709394D01*
X115910289Y-121621789D01*
X116021789Y-121510289D01*
X116109394Y-121379179D01*
X116169737Y-121233497D01*
X116200500Y-121078842D01*
X116200500Y-120921158D01*
X116200500Y-120921155D01*
X116200499Y-120921153D01*
X116174836Y-120792139D01*
X116169737Y-120766503D01*
X116138699Y-120691569D01*
X116109939Y-120622136D01*
X116100500Y-120574684D01*
X116100500Y-113541518D01*
X116120185Y-113474479D01*
X116136819Y-113453837D01*
X118300421Y-111290235D01*
X120544113Y-109046543D01*
X120545664Y-109044223D01*
X120620775Y-108931811D01*
X120665208Y-108824540D01*
X120673580Y-108804329D01*
X120684371Y-108750076D01*
X120700500Y-108668993D01*
X120700500Y-100341518D01*
X120720185Y-100274479D01*
X120736814Y-100253842D01*
X124362252Y-96628404D01*
X124423572Y-96594921D01*
X124493264Y-96599905D01*
X124549197Y-96641777D01*
X124573614Y-96707241D01*
X124567861Y-96754404D01*
X124545653Y-96822753D01*
X124545652Y-96822760D01*
X124515500Y-97013130D01*
X124515500Y-97205869D01*
X124545652Y-97396239D01*
X124545652Y-97396242D01*
X124605210Y-97579542D01*
X124687517Y-97741079D01*
X124688511Y-97746372D01*
X124691865Y-97750584D01*
X124694891Y-97780346D01*
X124700413Y-97809749D01*
X124698388Y-97814737D01*
X124698933Y-97820095D01*
X124685386Y-97846770D01*
X124674136Y-97874489D01*
X124669084Y-97878872D01*
X124667297Y-97882392D01*
X124650616Y-97894897D01*
X124639689Y-97904379D01*
X124636542Y-97906221D01*
X124521052Y-97965067D01*
X124463733Y-98006712D01*
X124458793Y-98010301D01*
X124458788Y-98010304D01*
X124345892Y-98092327D01*
X122901827Y-99536392D01*
X122889429Y-99553457D01*
X122786685Y-99694873D01*
X122774567Y-99711552D01*
X122774566Y-99711554D01*
X122676273Y-99904461D01*
X122676272Y-99904464D01*
X122609370Y-100110372D01*
X122575500Y-100324217D01*
X122575500Y-104715514D01*
X122555815Y-104782553D01*
X122503011Y-104828308D01*
X122433853Y-104838252D01*
X122404049Y-104830076D01*
X122351835Y-104808449D01*
X122351829Y-104808447D01*
X122158543Y-104770000D01*
X122158541Y-104770000D01*
X121961459Y-104770000D01*
X121961457Y-104770000D01*
X121768170Y-104808447D01*
X121768160Y-104808450D01*
X121586092Y-104883864D01*
X121586079Y-104883871D01*
X121422218Y-104993360D01*
X121422214Y-104993363D01*
X121282863Y-105132714D01*
X121282860Y-105132718D01*
X121173371Y-105296579D01*
X121173364Y-105296592D01*
X121097950Y-105478660D01*
X121097947Y-105478670D01*
X121059500Y-105671956D01*
X121059500Y-118358543D01*
X121074151Y-118432199D01*
X121074153Y-118432209D01*
X121074984Y-118436383D01*
X121097949Y-118551836D01*
X121120038Y-118605165D01*
X121123074Y-118612494D01*
X121173366Y-118733911D01*
X121173371Y-118733920D01*
X121282860Y-118897781D01*
X121282863Y-118897785D01*
X121426537Y-119041459D01*
X121426559Y-119041479D01*
X121718255Y-119333176D01*
X121718259Y-119333179D01*
X121882119Y-119442667D01*
X121882123Y-119442669D01*
X121882126Y-119442671D01*
X122064204Y-119518091D01*
X122179808Y-119541086D01*
X122257495Y-119556539D01*
X122257498Y-119556540D01*
X122451500Y-119556540D01*
X122518539Y-119576225D01*
X122564294Y-119629029D01*
X122575500Y-119680540D01*
X122575500Y-121471997D01*
X122607421Y-121673535D01*
X122607421Y-121673536D01*
X122609369Y-121685839D01*
X122609370Y-121685844D01*
X122676272Y-121891750D01*
X122676273Y-121891753D01*
X122774569Y-122084666D01*
X122901821Y-122259815D01*
X122901825Y-122259820D01*
X125661189Y-125019184D01*
X125694674Y-125080507D01*
X125689690Y-125150199D01*
X125647818Y-125206132D01*
X125582354Y-125230549D01*
X125562701Y-125230393D01*
X125209597Y-125199500D01*
X125209594Y-125199500D01*
X124790406Y-125199500D01*
X124790402Y-125199500D01*
X124372809Y-125236035D01*
X124372805Y-125236035D01*
X123960001Y-125308824D01*
X123959984Y-125308828D01*
X123555097Y-125417316D01*
X123358132Y-125489005D01*
X123161178Y-125560691D01*
X123161174Y-125560692D01*
X123161168Y-125560695D01*
X123161160Y-125560698D01*
X122781273Y-125737843D01*
X122781257Y-125737851D01*
X122418244Y-125947438D01*
X122418218Y-125947454D01*
X122074855Y-126187879D01*
X121753737Y-126457331D01*
X121457331Y-126753737D01*
X121187879Y-127074855D01*
X120947454Y-127418218D01*
X120947438Y-127418244D01*
X120737851Y-127781257D01*
X120737843Y-127781273D01*
X120560698Y-128161160D01*
X120560695Y-128161168D01*
X120417316Y-128555097D01*
X120308828Y-128959984D01*
X120308824Y-128960001D01*
X120236035Y-129372805D01*
X120236035Y-129372809D01*
X120199500Y-129790402D01*
X120199500Y-130209597D01*
X120236035Y-130627190D01*
X120236035Y-130627194D01*
X120308824Y-131039998D01*
X120308828Y-131040015D01*
X120417316Y-131444902D01*
X120417319Y-131444912D01*
X120417320Y-131444913D01*
X120560691Y-131838822D01*
X120560694Y-131838829D01*
X120560695Y-131838831D01*
X120560698Y-131838839D01*
X120737843Y-132218726D01*
X120737851Y-132218742D01*
X120885169Y-132473904D01*
X120947443Y-132581764D01*
X120947447Y-132581770D01*
X120947454Y-132581781D01*
X121187879Y-132925144D01*
X121330281Y-133094851D01*
X121457329Y-133246260D01*
X121753740Y-133542671D01*
X121887255Y-133654704D01*
X122074855Y-133812120D01*
X122198826Y-133898925D01*
X122242451Y-133953502D01*
X122249645Y-134023000D01*
X122218122Y-134085355D01*
X122157892Y-134120769D01*
X122127703Y-134124500D01*
X108493687Y-134124500D01*
X108426648Y-134104815D01*
X108406006Y-134088181D01*
X107018650Y-132700825D01*
X107018645Y-132700821D01*
X106843496Y-132573569D01*
X106843495Y-132573568D01*
X106843493Y-132573567D01*
X106751602Y-132526746D01*
X106650583Y-132475273D01*
X106650577Y-132475271D01*
X106444672Y-132408370D01*
X106444615Y-132408360D01*
X106258155Y-132378828D01*
X106230828Y-132374500D01*
X103023039Y-132374500D01*
X102956000Y-132354815D01*
X102910245Y-132302011D01*
X102900301Y-132232853D01*
X102929326Y-132169297D01*
X102969128Y-132140597D01*
X102968543Y-132139502D01*
X102973902Y-132136636D01*
X102973914Y-132136632D01*
X103137782Y-132027139D01*
X103277139Y-131887782D01*
X103277139Y-131887780D01*
X103287347Y-131877573D01*
X103287348Y-131877570D01*
X104777139Y-130387782D01*
X104880229Y-130233497D01*
X104880235Y-130233489D01*
X104881834Y-130231093D01*
X104886632Y-130223914D01*
X104946633Y-130079057D01*
X104962051Y-130041836D01*
X105000500Y-129848541D01*
X105000500Y-129651460D01*
X105000500Y-127401459D01*
X105000500Y-127401456D01*
X104962052Y-127208170D01*
X104962051Y-127208169D01*
X104962051Y-127208165D01*
X104956186Y-127194006D01*
X104886635Y-127026092D01*
X104886628Y-127026079D01*
X104777139Y-126862218D01*
X104777136Y-126862214D01*
X104637785Y-126722863D01*
X104637781Y-126722860D01*
X104473920Y-126613371D01*
X104473907Y-126613364D01*
X104291839Y-126537950D01*
X104291829Y-126537947D01*
X104098543Y-126499500D01*
X104098541Y-126499500D01*
X103901459Y-126499500D01*
X103901457Y-126499500D01*
X103708170Y-126537947D01*
X103708160Y-126537950D01*
X103526092Y-126613364D01*
X103526079Y-126613371D01*
X103362218Y-126722860D01*
X103362214Y-126722863D01*
X103222863Y-126862214D01*
X103222860Y-126862218D01*
X103113371Y-127026079D01*
X103113364Y-127026092D01*
X103037950Y-127208160D01*
X103037947Y-127208170D01*
X102999500Y-127401456D01*
X102999500Y-129284217D01*
X102979815Y-129351256D01*
X102963181Y-129371898D01*
X102121899Y-130213181D01*
X102060576Y-130246666D01*
X102034218Y-130249500D01*
X77401457Y-130249500D01*
X77208170Y-130287947D01*
X77208160Y-130287950D01*
X77026092Y-130363364D01*
X77026079Y-130363371D01*
X76862218Y-130472860D01*
X76862214Y-130472863D01*
X76722863Y-130612214D01*
X76722860Y-130612218D01*
X76613371Y-130776079D01*
X76613364Y-130776092D01*
X76537950Y-130958160D01*
X76537947Y-130958170D01*
X76499500Y-131151456D01*
X76499500Y-131151459D01*
X76499500Y-131348541D01*
X76499500Y-131348543D01*
X76499499Y-131348543D01*
X76537947Y-131541829D01*
X76537950Y-131541839D01*
X76613364Y-131723907D01*
X76613371Y-131723920D01*
X76722860Y-131887781D01*
X76722863Y-131887785D01*
X76862214Y-132027136D01*
X76862218Y-132027139D01*
X77026079Y-132136628D01*
X77031456Y-132139502D01*
X77030665Y-132140980D01*
X77078813Y-132179775D01*
X77100881Y-132246068D01*
X77083605Y-132313769D01*
X77032470Y-132361381D01*
X76976960Y-132374500D01*
X64641741Y-132374500D01*
X64427901Y-132408369D01*
X64427897Y-132408370D01*
X64396330Y-132418626D01*
X64326489Y-132420619D01*
X64266657Y-132384537D01*
X64235831Y-132321835D01*
X64243797Y-132252421D01*
X64250624Y-132238702D01*
X64262152Y-132218736D01*
X64439309Y-131838822D01*
X64582680Y-131444913D01*
X64691174Y-131040008D01*
X64763965Y-130627188D01*
X64800500Y-130209594D01*
X64800500Y-129921153D01*
X71449500Y-129921153D01*
X71449500Y-130078846D01*
X71480261Y-130233489D01*
X71480264Y-130233499D01*
X71540602Y-130379172D01*
X71540609Y-130379185D01*
X71628210Y-130510288D01*
X71628213Y-130510292D01*
X71739707Y-130621786D01*
X71739711Y-130621789D01*
X71870814Y-130709390D01*
X71870827Y-130709397D01*
X72016498Y-130769735D01*
X72016503Y-130769737D01*
X72171153Y-130800499D01*
X72171156Y-130800500D01*
X72171158Y-130800500D01*
X72328844Y-130800500D01*
X72328845Y-130800499D01*
X72483497Y-130769737D01*
X72629179Y-130709394D01*
X72760289Y-130621789D01*
X72871789Y-130510289D01*
X72959394Y-130379179D01*
X73019737Y-130233497D01*
X73050437Y-130079160D01*
X73050638Y-130078150D01*
X73083023Y-130016239D01*
X73084514Y-130014720D01*
X73462417Y-129636819D01*
X73523740Y-129603334D01*
X73550098Y-129600500D01*
X87663331Y-129600500D01*
X87663347Y-129600501D01*
X87670943Y-129600501D01*
X87829054Y-129600501D01*
X87829057Y-129600501D01*
X87981785Y-129559577D01*
X88031904Y-129530639D01*
X88118716Y-129480520D01*
X88230520Y-129368716D01*
X88230520Y-129368714D01*
X88240728Y-129358507D01*
X88240730Y-129358504D01*
X88868713Y-128730521D01*
X88868716Y-128730520D01*
X88980520Y-128618716D01*
X89005487Y-128575470D01*
X89056050Y-128527256D01*
X89124656Y-128514031D01*
X89189522Y-128539997D01*
X89200553Y-128549788D01*
X90131284Y-129480520D01*
X90131286Y-129480521D01*
X90131290Y-129480524D01*
X90268209Y-129559573D01*
X90268216Y-129559577D01*
X90420943Y-129600501D01*
X90420945Y-129600501D01*
X90586654Y-129600501D01*
X90586670Y-129600500D01*
X99920234Y-129600500D01*
X99987273Y-129620185D01*
X99989125Y-129621398D01*
X100120814Y-129709390D01*
X100120827Y-129709397D01*
X100258683Y-129766498D01*
X100266503Y-129769737D01*
X100421153Y-129800499D01*
X100421156Y-129800500D01*
X100421158Y-129800500D01*
X100578844Y-129800500D01*
X100578845Y-129800499D01*
X100733497Y-129769737D01*
X100879179Y-129709394D01*
X101010289Y-129621789D01*
X101121789Y-129510289D01*
X101209394Y-129379179D01*
X101269737Y-129233497D01*
X101300500Y-129078842D01*
X101300500Y-128921158D01*
X101300500Y-128921155D01*
X101300499Y-128921153D01*
X101269738Y-128766510D01*
X101269737Y-128766503D01*
X101269735Y-128766498D01*
X101209397Y-128620827D01*
X101209390Y-128620814D01*
X101121789Y-128489711D01*
X101121786Y-128489707D01*
X101010292Y-128378213D01*
X101010288Y-128378210D01*
X100879185Y-128290609D01*
X100879172Y-128290602D01*
X100733501Y-128230264D01*
X100733489Y-128230261D01*
X100578845Y-128199500D01*
X100578842Y-128199500D01*
X100421158Y-128199500D01*
X100421155Y-128199500D01*
X100266510Y-128230261D01*
X100266498Y-128230264D01*
X100120827Y-128290602D01*
X100120814Y-128290609D01*
X99989125Y-128378602D01*
X99922447Y-128399480D01*
X99920234Y-128399500D01*
X90800098Y-128399500D01*
X90733059Y-128379815D01*
X90712417Y-128363181D01*
X90136819Y-127787583D01*
X90103334Y-127726260D01*
X90100500Y-127699902D01*
X90100500Y-125670945D01*
X90100500Y-125670943D01*
X90059577Y-125518216D01*
X90059573Y-125518209D01*
X89980524Y-125381290D01*
X89980521Y-125381286D01*
X89980520Y-125381284D01*
X89868716Y-125269480D01*
X89868715Y-125269479D01*
X89864385Y-125265149D01*
X89864374Y-125265139D01*
X80665991Y-116066756D01*
X80632506Y-116005433D01*
X80630269Y-115991226D01*
X80629838Y-115986858D01*
X80629838Y-115986852D01*
X80599075Y-115832197D01*
X80567597Y-115756202D01*
X80538735Y-115686521D01*
X80538728Y-115686508D01*
X80450736Y-115554819D01*
X80429858Y-115488141D01*
X80429838Y-115485928D01*
X80429838Y-99895459D01*
X80449523Y-99828420D01*
X80450736Y-99826568D01*
X80471376Y-99795679D01*
X80538732Y-99694873D01*
X80599075Y-99549191D01*
X80629838Y-99394536D01*
X80629838Y-99236852D01*
X80629838Y-99236849D01*
X80629837Y-99236847D01*
X80624132Y-99208165D01*
X80599075Y-99082197D01*
X80576270Y-99027140D01*
X80538735Y-98936521D01*
X80538728Y-98936508D01*
X80450736Y-98804819D01*
X80429858Y-98738141D01*
X80429838Y-98735928D01*
X80429838Y-83145459D01*
X80449523Y-83078420D01*
X80450736Y-83076568D01*
X80538728Y-82944879D01*
X80538728Y-82944878D01*
X80538732Y-82944873D01*
X80599075Y-82799191D01*
X80629838Y-82644536D01*
X80629838Y-82486852D01*
X80629838Y-82486849D01*
X80629837Y-82486847D01*
X80599075Y-82332197D01*
X80538732Y-82186515D01*
X80475147Y-82091353D01*
X80454270Y-82024677D01*
X80454250Y-82022464D01*
X80454250Y-66395459D01*
X80473935Y-66328420D01*
X80475148Y-66326568D01*
X80563140Y-66194879D01*
X80563140Y-66194878D01*
X80563144Y-66194873D01*
X80623487Y-66049191D01*
X80654250Y-65894536D01*
X80654250Y-65736852D01*
X80654250Y-65736849D01*
X80654249Y-65736847D01*
X80625295Y-65591286D01*
X80623487Y-65582197D01*
X80580941Y-65479480D01*
X80563147Y-65436521D01*
X80563140Y-65436508D01*
X80475539Y-65305405D01*
X80475536Y-65305401D01*
X80364042Y-65193907D01*
X80364038Y-65193904D01*
X80232935Y-65106303D01*
X80232922Y-65106296D01*
X80087251Y-65045958D01*
X80087239Y-65045955D01*
X79932595Y-65015194D01*
X79932592Y-65015194D01*
X79774908Y-65015194D01*
X79774903Y-65015194D01*
X79617822Y-65046439D01*
X79548230Y-65040212D01*
X79493053Y-64997348D01*
X79469809Y-64931459D01*
X79479069Y-64877371D01*
X79519737Y-64779191D01*
X79550500Y-64624536D01*
X79550500Y-64466852D01*
X79550500Y-64466849D01*
X79550499Y-64466847D01*
X79519738Y-64312204D01*
X79519737Y-64312197D01*
X79506020Y-64279081D01*
X79459397Y-64166521D01*
X79459390Y-64166508D01*
X79371789Y-64035405D01*
X79371786Y-64035401D01*
X79260292Y-63923907D01*
X79260288Y-63923904D01*
X79129185Y-63836303D01*
X79129172Y-63836296D01*
X78983501Y-63775958D01*
X78983489Y-63775955D01*
X78828845Y-63745194D01*
X78828842Y-63745194D01*
X78671158Y-63745194D01*
X78671155Y-63745194D01*
X78516510Y-63775955D01*
X78516498Y-63775958D01*
X78370827Y-63836296D01*
X78370814Y-63836303D01*
X78239711Y-63923904D01*
X78239707Y-63923907D01*
X78128213Y-64035401D01*
X78128210Y-64035405D01*
X78040609Y-64166508D01*
X78040602Y-64166521D01*
X77980264Y-64312192D01*
X77980261Y-64312204D01*
X77949500Y-64466847D01*
X77949500Y-64624540D01*
X77980261Y-64779183D01*
X77980263Y-64779191D01*
X78040602Y-64924866D01*
X78040609Y-64924879D01*
X78117673Y-65040212D01*
X78121510Y-65045955D01*
X78128602Y-65056568D01*
X78149480Y-65123245D01*
X78149500Y-65125459D01*
X78149500Y-80715928D01*
X78129815Y-80782967D01*
X78128602Y-80784819D01*
X78040609Y-80916508D01*
X78040602Y-80916521D01*
X77980264Y-81062192D01*
X77980261Y-81062204D01*
X77949500Y-81216847D01*
X77949500Y-81374540D01*
X77980261Y-81529183D01*
X77980264Y-81529195D01*
X78040602Y-81674866D01*
X78040609Y-81674879D01*
X78128602Y-81806568D01*
X78149480Y-81873245D01*
X78149500Y-81875459D01*
X78149500Y-97465928D01*
X78129815Y-97532967D01*
X78128602Y-97534819D01*
X78040609Y-97666508D01*
X78040602Y-97666521D01*
X77980264Y-97812192D01*
X77980261Y-97812204D01*
X77949500Y-97966847D01*
X77949500Y-98124540D01*
X77980261Y-98279183D01*
X77980264Y-98279195D01*
X78040602Y-98424866D01*
X78040609Y-98424879D01*
X78128602Y-98556568D01*
X78149480Y-98623245D01*
X78149500Y-98625459D01*
X78149500Y-114215928D01*
X78129815Y-114282967D01*
X78128602Y-114284819D01*
X78040609Y-114416508D01*
X78040602Y-114416521D01*
X77980264Y-114562192D01*
X77980261Y-114562204D01*
X77949500Y-114716847D01*
X77949500Y-114874540D01*
X77980261Y-115029183D01*
X77980264Y-115029195D01*
X78040602Y-115174866D01*
X78040609Y-115174879D01*
X78128602Y-115306568D01*
X78149480Y-115373245D01*
X78149500Y-115375459D01*
X78149500Y-116163330D01*
X78149499Y-116163348D01*
X78149499Y-116329054D01*
X78149498Y-116329054D01*
X78190423Y-116481785D01*
X78210178Y-116516000D01*
X78210179Y-116516004D01*
X78269475Y-116618709D01*
X78269481Y-116618717D01*
X78388349Y-116737585D01*
X78388355Y-116737590D01*
X87863181Y-126212416D01*
X87896666Y-126273739D01*
X87899500Y-126300097D01*
X87899500Y-127949903D01*
X87879815Y-128016942D01*
X87863181Y-128037584D01*
X87537584Y-128363181D01*
X87476261Y-128396666D01*
X87449903Y-128399500D01*
X73336670Y-128399500D01*
X73336654Y-128399499D01*
X73329058Y-128399499D01*
X73170943Y-128399499D01*
X73094579Y-128419961D01*
X73018214Y-128440423D01*
X73018209Y-128440426D01*
X72881290Y-128519475D01*
X72881282Y-128519481D01*
X72235339Y-129165425D01*
X72174016Y-129198910D01*
X72171850Y-129199361D01*
X72016508Y-129230261D01*
X72016498Y-129230264D01*
X71870827Y-129290602D01*
X71870814Y-129290609D01*
X71739711Y-129378210D01*
X71739707Y-129378213D01*
X71628213Y-129489707D01*
X71628210Y-129489711D01*
X71540609Y-129620814D01*
X71540602Y-129620827D01*
X71480264Y-129766498D01*
X71480261Y-129766510D01*
X71449500Y-129921153D01*
X64800500Y-129921153D01*
X64800500Y-129790406D01*
X64763965Y-129372812D01*
X64749470Y-129290609D01*
X64738830Y-129230263D01*
X64691174Y-128959992D01*
X64600295Y-128620827D01*
X64582683Y-128555097D01*
X64582681Y-128555093D01*
X64582680Y-128555087D01*
X64439309Y-128161178D01*
X64262152Y-127781264D01*
X64052557Y-127418236D01*
X64052549Y-127418225D01*
X64052545Y-127418218D01*
X63812120Y-127074855D01*
X63542668Y-126753737D01*
X63246262Y-126457331D01*
X62925144Y-126187879D01*
X62581781Y-125947454D01*
X62581770Y-125947447D01*
X62581764Y-125947443D01*
X62473904Y-125885169D01*
X62218742Y-125737851D01*
X62218726Y-125737843D01*
X61838839Y-125560698D01*
X61838831Y-125560695D01*
X61838829Y-125560694D01*
X61838822Y-125560691D01*
X61444913Y-125417320D01*
X61444912Y-125417319D01*
X61444902Y-125417316D01*
X61040015Y-125308828D01*
X61040018Y-125308828D01*
X61040008Y-125308826D01*
X61040002Y-125308824D01*
X61039998Y-125308824D01*
X60627192Y-125236035D01*
X60209597Y-125199500D01*
X60209594Y-125199500D01*
X59790406Y-125199500D01*
X59790402Y-125199500D01*
X59372809Y-125236035D01*
X59372805Y-125236035D01*
X58960001Y-125308824D01*
X58959984Y-125308828D01*
X58555097Y-125417316D01*
X58358132Y-125489005D01*
X58161178Y-125560691D01*
X58161174Y-125560692D01*
X58161168Y-125560695D01*
X58161160Y-125560698D01*
X57781273Y-125737843D01*
X57781257Y-125737851D01*
X57418244Y-125947438D01*
X57418218Y-125947454D01*
X57074855Y-126187879D01*
X56753737Y-126457331D01*
X56457331Y-126753737D01*
X56187879Y-127074855D01*
X55947454Y-127418218D01*
X55947438Y-127418244D01*
X55856887Y-127575083D01*
X55806320Y-127623299D01*
X55737713Y-127636521D01*
X55672848Y-127610553D01*
X55632320Y-127553639D01*
X55625500Y-127513083D01*
X55625500Y-117836747D01*
X55607026Y-117720109D01*
X55605499Y-117700711D01*
X55605499Y-116152129D01*
X55605498Y-116152123D01*
X55599091Y-116092516D01*
X55548797Y-115957671D01*
X55548793Y-115957664D01*
X55462547Y-115842455D01*
X55462544Y-115842452D01*
X55347335Y-115756206D01*
X55347328Y-115756202D01*
X55212482Y-115705908D01*
X55212483Y-115705908D01*
X55152883Y-115699501D01*
X55152881Y-115699500D01*
X55152873Y-115699500D01*
X55152865Y-115699500D01*
X52939500Y-115699500D01*
X52930814Y-115696949D01*
X52921853Y-115698238D01*
X52897812Y-115687259D01*
X52872461Y-115679815D01*
X52866533Y-115672974D01*
X52858297Y-115669213D01*
X52844007Y-115646978D01*
X52826706Y-115627011D01*
X52824418Y-115616496D01*
X52820523Y-115610435D01*
X52815500Y-115575500D01*
X52815500Y-115486111D01*
X52835185Y-115419072D01*
X52851814Y-115398434D01*
X53924041Y-114326207D01*
X53985362Y-114292724D01*
X53995529Y-114290951D01*
X54157014Y-114269693D01*
X54384993Y-114208606D01*
X54603049Y-114118284D01*
X54807450Y-114000273D01*
X54994699Y-113856592D01*
X55161592Y-113689699D01*
X55305273Y-113502450D01*
X55423284Y-113298049D01*
X55513606Y-113079993D01*
X55574693Y-112852014D01*
X55605500Y-112618011D01*
X55605500Y-112381989D01*
X55574693Y-112147986D01*
X55513606Y-111920007D01*
X55423284Y-111701951D01*
X55423282Y-111701948D01*
X55423280Y-111701943D01*
X55378160Y-111623794D01*
X55305273Y-111497550D01*
X55161592Y-111310301D01*
X55161587Y-111310295D01*
X54994701Y-111143409D01*
X54994697Y-111143406D01*
X54807454Y-110999730D01*
X54807453Y-110999729D01*
X54807450Y-110999727D01*
X54725957Y-110952677D01*
X54603056Y-110881719D01*
X54603045Y-110881714D01*
X54384993Y-110791394D01*
X54245396Y-110753989D01*
X54157014Y-110730307D01*
X54157013Y-110730306D01*
X54157010Y-110730306D01*
X53923020Y-110699501D01*
X53923017Y-110699500D01*
X53923011Y-110699500D01*
X53686989Y-110699500D01*
X53686983Y-110699500D01*
X53686979Y-110699501D01*
X53452989Y-110730306D01*
X53225006Y-110791394D01*
X53006954Y-110881714D01*
X53006943Y-110881719D01*
X52802545Y-110999730D01*
X52615302Y-111143406D01*
X52615299Y-111143409D01*
X52448412Y-111310295D01*
X52448406Y-111310302D01*
X52304730Y-111497545D01*
X52186719Y-111701943D01*
X52186714Y-111701954D01*
X52096394Y-111920006D01*
X52035306Y-112147988D01*
X52014048Y-112309463D01*
X51985781Y-112373359D01*
X51978790Y-112380958D01*
X50712181Y-113647568D01*
X50650858Y-113681053D01*
X50581166Y-113676069D01*
X50525233Y-113634197D01*
X50500816Y-113568733D01*
X50500500Y-113559887D01*
X50500500Y-107381995D01*
X52004500Y-107381995D01*
X52004500Y-107618004D01*
X52004501Y-107618020D01*
X52033642Y-107839371D01*
X52035307Y-107852014D01*
X52077041Y-108007767D01*
X52096394Y-108079993D01*
X52186714Y-108298045D01*
X52186719Y-108298056D01*
X52257677Y-108420957D01*
X52304727Y-108502450D01*
X52304729Y-108502453D01*
X52304730Y-108502454D01*
X52448406Y-108689697D01*
X52448412Y-108689704D01*
X52615295Y-108856587D01*
X52615301Y-108856592D01*
X52802550Y-109000273D01*
X52933918Y-109076118D01*
X53006943Y-109118280D01*
X53006948Y-109118282D01*
X53006951Y-109118284D01*
X53225007Y-109208606D01*
X53452986Y-109269693D01*
X53686989Y-109300500D01*
X53686996Y-109300500D01*
X53923004Y-109300500D01*
X53923011Y-109300500D01*
X54157014Y-109269693D01*
X54384993Y-109208606D01*
X54603049Y-109118284D01*
X54807450Y-109000273D01*
X54994699Y-108856592D01*
X55161592Y-108689699D01*
X55305273Y-108502450D01*
X55423284Y-108298049D01*
X55513606Y-108079993D01*
X55574693Y-107852014D01*
X55605500Y-107618011D01*
X55605500Y-107381989D01*
X55574693Y-107147986D01*
X55513606Y-106920007D01*
X55423284Y-106701951D01*
X55423282Y-106701948D01*
X55423280Y-106701943D01*
X55342749Y-106562461D01*
X55305273Y-106497550D01*
X55161592Y-106310301D01*
X55161587Y-106310295D01*
X54994704Y-106143412D01*
X54994697Y-106143406D01*
X54807454Y-105999730D01*
X54807453Y-105999729D01*
X54807450Y-105999727D01*
X54725957Y-105952677D01*
X54603056Y-105881719D01*
X54603045Y-105881714D01*
X54384993Y-105791394D01*
X54157010Y-105730306D01*
X53923020Y-105699501D01*
X53923017Y-105699500D01*
X53923011Y-105699500D01*
X53686989Y-105699500D01*
X53686983Y-105699500D01*
X53686979Y-105699501D01*
X53452989Y-105730306D01*
X53225006Y-105791394D01*
X53006954Y-105881714D01*
X53006943Y-105881719D01*
X52802545Y-105999730D01*
X52615302Y-106143406D01*
X52615295Y-106143412D01*
X52448412Y-106310295D01*
X52448406Y-106310302D01*
X52304730Y-106497545D01*
X52186719Y-106701943D01*
X52186714Y-106701954D01*
X52096394Y-106920006D01*
X52035306Y-107147989D01*
X52004501Y-107381979D01*
X52004500Y-107381995D01*
X50500500Y-107381995D01*
X50500500Y-102381995D01*
X52004500Y-102381995D01*
X52004500Y-102618004D01*
X52004501Y-102618020D01*
X52035306Y-102852010D01*
X52096394Y-103079993D01*
X52186714Y-103298045D01*
X52186719Y-103298056D01*
X52239438Y-103389366D01*
X52304727Y-103502450D01*
X52304729Y-103502453D01*
X52304730Y-103502454D01*
X52448406Y-103689697D01*
X52448412Y-103689704D01*
X52615295Y-103856587D01*
X52615301Y-103856592D01*
X52802550Y-104000273D01*
X52933918Y-104076118D01*
X53006943Y-104118280D01*
X53006948Y-104118282D01*
X53006951Y-104118284D01*
X53225007Y-104208606D01*
X53452986Y-104269693D01*
X53686989Y-104300500D01*
X53686996Y-104300500D01*
X53923004Y-104300500D01*
X53923011Y-104300500D01*
X54157014Y-104269693D01*
X54384993Y-104208606D01*
X54603049Y-104118284D01*
X54807450Y-104000273D01*
X54994699Y-103856592D01*
X55161592Y-103689699D01*
X55305273Y-103502450D01*
X55423284Y-103298049D01*
X55513606Y-103079993D01*
X55574693Y-102852014D01*
X55605500Y-102618011D01*
X55605500Y-102381989D01*
X55574693Y-102147986D01*
X55513606Y-101920007D01*
X55423284Y-101701951D01*
X55423282Y-101701948D01*
X55423280Y-101701943D01*
X55381118Y-101628918D01*
X55305273Y-101497550D01*
X55161592Y-101310301D01*
X55161587Y-101310295D01*
X54994704Y-101143412D01*
X54994697Y-101143406D01*
X54807454Y-100999730D01*
X54807453Y-100999729D01*
X54807450Y-100999727D01*
X54725957Y-100952677D01*
X54603056Y-100881719D01*
X54603045Y-100881714D01*
X54384993Y-100791394D01*
X54157010Y-100730306D01*
X53923020Y-100699501D01*
X53923017Y-100699500D01*
X53923011Y-100699500D01*
X53686989Y-100699500D01*
X53686983Y-100699500D01*
X53686979Y-100699501D01*
X53452989Y-100730306D01*
X53225006Y-100791394D01*
X53006954Y-100881714D01*
X53006943Y-100881719D01*
X52802545Y-100999730D01*
X52615302Y-101143406D01*
X52615295Y-101143412D01*
X52448412Y-101310295D01*
X52448406Y-101310302D01*
X52304730Y-101497545D01*
X52186719Y-101701943D01*
X52186714Y-101701954D01*
X52096394Y-101920006D01*
X52035306Y-102147989D01*
X52004501Y-102381979D01*
X52004500Y-102381995D01*
X50500500Y-102381995D01*
X50500500Y-97381995D01*
X52004500Y-97381995D01*
X52004500Y-97618004D01*
X52004501Y-97618020D01*
X52035306Y-97852010D01*
X52096394Y-98079993D01*
X52186714Y-98298045D01*
X52186719Y-98298056D01*
X52215869Y-98348544D01*
X52304727Y-98502450D01*
X52304729Y-98502453D01*
X52304730Y-98502454D01*
X52448406Y-98689697D01*
X52448412Y-98689704D01*
X52615295Y-98856587D01*
X52615302Y-98856593D01*
X52685279Y-98910288D01*
X52802550Y-99000273D01*
X52933918Y-99076118D01*
X53006943Y-99118280D01*
X53006948Y-99118282D01*
X53006951Y-99118284D01*
X53225007Y-99208606D01*
X53452986Y-99269693D01*
X53686989Y-99300500D01*
X53686996Y-99300500D01*
X53923004Y-99300500D01*
X53923011Y-99300500D01*
X54157014Y-99269693D01*
X54384993Y-99208606D01*
X54603049Y-99118284D01*
X54807450Y-99000273D01*
X54994699Y-98856592D01*
X55161592Y-98689699D01*
X55305273Y-98502450D01*
X55423284Y-98298049D01*
X55513606Y-98079993D01*
X55574693Y-97852014D01*
X55605500Y-97618011D01*
X55605500Y-97381989D01*
X55574693Y-97147986D01*
X55513606Y-96920007D01*
X55423284Y-96701951D01*
X55423282Y-96701948D01*
X55423280Y-96701943D01*
X55380823Y-96628406D01*
X55305273Y-96497550D01*
X55215257Y-96380239D01*
X55161593Y-96310302D01*
X55161587Y-96310295D01*
X54994704Y-96143412D01*
X54994697Y-96143406D01*
X54807454Y-95999730D01*
X54807453Y-95999729D01*
X54807450Y-95999727D01*
X54704738Y-95940426D01*
X54603056Y-95881719D01*
X54603045Y-95881714D01*
X54384993Y-95791394D01*
X54309475Y-95771159D01*
X54157014Y-95730307D01*
X54157013Y-95730306D01*
X54157010Y-95730306D01*
X53923020Y-95699501D01*
X53923017Y-95699500D01*
X53923011Y-95699500D01*
X53686989Y-95699500D01*
X53686983Y-95699500D01*
X53686979Y-95699501D01*
X53452989Y-95730306D01*
X53225006Y-95791394D01*
X53006954Y-95881714D01*
X53006943Y-95881719D01*
X52802545Y-95999730D01*
X52615302Y-96143406D01*
X52615295Y-96143412D01*
X52448412Y-96310295D01*
X52448406Y-96310302D01*
X52304730Y-96497545D01*
X52186719Y-96701943D01*
X52186714Y-96701954D01*
X52096394Y-96920006D01*
X52035306Y-97147989D01*
X52004501Y-97381979D01*
X52004500Y-97381995D01*
X50500500Y-97381995D01*
X50500500Y-92381995D01*
X52004500Y-92381995D01*
X52004500Y-92618004D01*
X52004501Y-92618020D01*
X52030284Y-92813865D01*
X52035307Y-92852014D01*
X52040346Y-92870821D01*
X52096394Y-93079993D01*
X52186714Y-93298045D01*
X52186719Y-93298056D01*
X52232934Y-93378101D01*
X52304727Y-93502450D01*
X52304729Y-93502453D01*
X52304730Y-93502454D01*
X52448406Y-93689697D01*
X52448412Y-93689704D01*
X52615295Y-93856587D01*
X52615302Y-93856593D01*
X52649495Y-93882830D01*
X52802550Y-94000273D01*
X52919413Y-94067744D01*
X53006943Y-94118280D01*
X53006948Y-94118282D01*
X53006951Y-94118284D01*
X53225007Y-94208606D01*
X53452986Y-94269693D01*
X53686989Y-94300500D01*
X53686996Y-94300500D01*
X53923004Y-94300500D01*
X53923011Y-94300500D01*
X54157014Y-94269693D01*
X54384993Y-94208606D01*
X54603049Y-94118284D01*
X54807450Y-94000273D01*
X54994699Y-93856592D01*
X55161592Y-93689699D01*
X55305273Y-93502450D01*
X55423284Y-93298049D01*
X55513606Y-93079993D01*
X55574693Y-92852014D01*
X55605500Y-92618011D01*
X55605500Y-92381989D01*
X55574693Y-92147986D01*
X55513606Y-91920007D01*
X55423284Y-91701951D01*
X55423282Y-91701948D01*
X55423280Y-91701943D01*
X55357111Y-91587336D01*
X55305273Y-91497550D01*
X55161592Y-91310301D01*
X55161587Y-91310295D01*
X54994704Y-91143412D01*
X54994697Y-91143406D01*
X54807454Y-90999730D01*
X54807453Y-90999729D01*
X54807450Y-90999727D01*
X54725929Y-90952661D01*
X54603056Y-90881719D01*
X54603045Y-90881714D01*
X54384993Y-90791394D01*
X54157010Y-90730306D01*
X53923020Y-90699501D01*
X53923017Y-90699500D01*
X53923011Y-90699500D01*
X53686989Y-90699500D01*
X53686983Y-90699500D01*
X53686979Y-90699501D01*
X53452989Y-90730306D01*
X53225006Y-90791394D01*
X53006954Y-90881714D01*
X53006943Y-90881719D01*
X52802545Y-90999730D01*
X52615302Y-91143406D01*
X52615295Y-91143412D01*
X52448412Y-91310295D01*
X52448406Y-91310302D01*
X52304730Y-91497545D01*
X52186719Y-91701943D01*
X52186714Y-91701954D01*
X52096394Y-91920006D01*
X52035306Y-92147989D01*
X52004501Y-92381979D01*
X52004500Y-92381995D01*
X50500500Y-92381995D01*
X50500500Y-87381995D01*
X52004500Y-87381995D01*
X52004500Y-87618004D01*
X52004501Y-87618020D01*
X52035306Y-87852010D01*
X52096394Y-88079993D01*
X52186714Y-88298045D01*
X52186719Y-88298056D01*
X52257677Y-88420957D01*
X52304727Y-88502450D01*
X52304729Y-88502453D01*
X52304730Y-88502454D01*
X52448406Y-88689697D01*
X52448412Y-88689704D01*
X52615295Y-88856587D01*
X52615302Y-88856593D01*
X52671220Y-88899500D01*
X52802550Y-89000273D01*
X52933918Y-89076118D01*
X53006943Y-89118280D01*
X53006948Y-89118282D01*
X53006951Y-89118284D01*
X53225007Y-89208606D01*
X53452986Y-89269693D01*
X53686989Y-89300500D01*
X53686996Y-89300500D01*
X53923004Y-89300500D01*
X53923011Y-89300500D01*
X54157014Y-89269693D01*
X54384993Y-89208606D01*
X54603049Y-89118284D01*
X54807450Y-89000273D01*
X54994699Y-88856592D01*
X55161592Y-88689699D01*
X55305273Y-88502450D01*
X55423284Y-88298049D01*
X55513606Y-88079993D01*
X55574693Y-87852014D01*
X55605500Y-87618011D01*
X55605500Y-87381989D01*
X55574693Y-87147986D01*
X55513606Y-86920007D01*
X55423284Y-86701951D01*
X55423282Y-86701948D01*
X55423280Y-86701943D01*
X55381118Y-86628918D01*
X55305273Y-86497550D01*
X55179792Y-86334020D01*
X55161593Y-86310302D01*
X55161587Y-86310295D01*
X54994704Y-86143412D01*
X54994697Y-86143406D01*
X54807454Y-85999730D01*
X54807453Y-85999729D01*
X54807450Y-85999727D01*
X54725957Y-85952677D01*
X54603056Y-85881719D01*
X54603045Y-85881714D01*
X54384993Y-85791394D01*
X54157010Y-85730306D01*
X53923020Y-85699501D01*
X53923017Y-85699500D01*
X53923011Y-85699500D01*
X53686989Y-85699500D01*
X53686983Y-85699500D01*
X53686979Y-85699501D01*
X53452989Y-85730306D01*
X53225006Y-85791394D01*
X53006954Y-85881714D01*
X53006943Y-85881719D01*
X52802545Y-85999730D01*
X52615302Y-86143406D01*
X52615295Y-86143412D01*
X52448412Y-86310295D01*
X52448406Y-86310302D01*
X52304730Y-86497545D01*
X52186719Y-86701943D01*
X52186714Y-86701954D01*
X52096394Y-86920006D01*
X52035306Y-87147989D01*
X52004501Y-87381979D01*
X52004500Y-87381995D01*
X50500500Y-87381995D01*
X50500500Y-82381995D01*
X52004500Y-82381995D01*
X52004500Y-82618004D01*
X52004501Y-82618020D01*
X52035306Y-82852010D01*
X52096394Y-83079993D01*
X52186714Y-83298045D01*
X52186719Y-83298056D01*
X52257677Y-83420957D01*
X52304727Y-83502450D01*
X52304729Y-83502453D01*
X52304730Y-83502454D01*
X52448406Y-83689697D01*
X52448412Y-83689704D01*
X52615295Y-83856587D01*
X52615301Y-83856592D01*
X52802550Y-84000273D01*
X52933918Y-84076118D01*
X53006943Y-84118280D01*
X53006948Y-84118282D01*
X53006951Y-84118284D01*
X53225007Y-84208606D01*
X53452986Y-84269693D01*
X53686989Y-84300500D01*
X53686996Y-84300500D01*
X53923004Y-84300500D01*
X53923011Y-84300500D01*
X54157014Y-84269693D01*
X54384993Y-84208606D01*
X54603049Y-84118284D01*
X54807450Y-84000273D01*
X54994699Y-83856592D01*
X55161592Y-83689699D01*
X55305273Y-83502450D01*
X55423284Y-83298049D01*
X55513606Y-83079993D01*
X55574693Y-82852014D01*
X55605500Y-82618011D01*
X55605500Y-82381989D01*
X55574693Y-82147986D01*
X55513606Y-81920007D01*
X55423284Y-81701951D01*
X55423282Y-81701948D01*
X55423280Y-81701943D01*
X55381118Y-81628918D01*
X55305273Y-81497550D01*
X55161592Y-81310301D01*
X55161587Y-81310295D01*
X54994704Y-81143412D01*
X54994697Y-81143406D01*
X54807454Y-80999730D01*
X54807453Y-80999729D01*
X54807450Y-80999727D01*
X54725957Y-80952677D01*
X54603056Y-80881719D01*
X54603045Y-80881714D01*
X54384993Y-80791394D01*
X54157010Y-80730306D01*
X53923020Y-80699501D01*
X53923017Y-80699500D01*
X53923011Y-80699500D01*
X53686989Y-80699500D01*
X53686983Y-80699500D01*
X53686979Y-80699501D01*
X53452989Y-80730306D01*
X53225006Y-80791394D01*
X53006954Y-80881714D01*
X53006943Y-80881719D01*
X52802545Y-80999730D01*
X52615302Y-81143406D01*
X52615295Y-81143412D01*
X52448412Y-81310295D01*
X52448406Y-81310302D01*
X52304730Y-81497545D01*
X52186719Y-81701943D01*
X52186714Y-81701954D01*
X52096394Y-81920006D01*
X52035306Y-82147989D01*
X52004501Y-82381979D01*
X52004500Y-82381995D01*
X50500500Y-82381995D01*
X50500500Y-77381995D01*
X52004500Y-77381995D01*
X52004500Y-77618004D01*
X52004501Y-77618020D01*
X52035306Y-77852010D01*
X52096394Y-78079993D01*
X52186714Y-78298045D01*
X52186719Y-78298056D01*
X52257677Y-78420957D01*
X52304727Y-78502450D01*
X52304729Y-78502453D01*
X52304730Y-78502454D01*
X52448406Y-78689697D01*
X52448412Y-78689704D01*
X52615295Y-78856587D01*
X52615301Y-78856592D01*
X52802550Y-79000273D01*
X52933918Y-79076118D01*
X53006943Y-79118280D01*
X53006948Y-79118282D01*
X53006951Y-79118284D01*
X53225007Y-79208606D01*
X53452986Y-79269693D01*
X53686989Y-79300500D01*
X53686996Y-79300500D01*
X53923004Y-79300500D01*
X53923011Y-79300500D01*
X54157014Y-79269693D01*
X54384993Y-79208606D01*
X54603049Y-79118284D01*
X54807450Y-79000273D01*
X54994699Y-78856592D01*
X55161592Y-78689699D01*
X55305273Y-78502450D01*
X55423284Y-78298049D01*
X55513606Y-78079993D01*
X55574693Y-77852014D01*
X55605500Y-77618011D01*
X55605500Y-77381989D01*
X55574693Y-77147986D01*
X55513606Y-76920007D01*
X55423284Y-76701951D01*
X55423282Y-76701948D01*
X55423280Y-76701943D01*
X55353921Y-76581811D01*
X55305273Y-76497550D01*
X55168264Y-76318996D01*
X55161593Y-76310302D01*
X55161587Y-76310295D01*
X54994704Y-76143412D01*
X54994697Y-76143406D01*
X54807454Y-75999730D01*
X54807453Y-75999729D01*
X54807450Y-75999727D01*
X54725957Y-75952677D01*
X54603056Y-75881719D01*
X54603045Y-75881714D01*
X54384993Y-75791394D01*
X54157010Y-75730306D01*
X53923020Y-75699501D01*
X53923017Y-75699500D01*
X53923011Y-75699500D01*
X53686989Y-75699500D01*
X53686983Y-75699500D01*
X53686979Y-75699501D01*
X53452989Y-75730306D01*
X53225006Y-75791394D01*
X53006954Y-75881714D01*
X53006943Y-75881719D01*
X52802545Y-75999730D01*
X52615302Y-76143406D01*
X52615295Y-76143412D01*
X52448412Y-76310295D01*
X52448406Y-76310302D01*
X52304730Y-76497545D01*
X52186719Y-76701943D01*
X52186714Y-76701954D01*
X52096394Y-76920006D01*
X52035306Y-77147989D01*
X52004501Y-77381979D01*
X52004500Y-77381995D01*
X50500500Y-77381995D01*
X50500500Y-72381995D01*
X52004500Y-72381995D01*
X52004500Y-72618004D01*
X52004501Y-72618020D01*
X52033812Y-72840663D01*
X52035307Y-72852014D01*
X52089523Y-73054352D01*
X52096394Y-73079993D01*
X52186714Y-73298045D01*
X52186719Y-73298056D01*
X52257677Y-73420957D01*
X52304727Y-73502450D01*
X52304729Y-73502453D01*
X52304730Y-73502454D01*
X52448406Y-73689697D01*
X52448412Y-73689704D01*
X52615295Y-73856587D01*
X52615301Y-73856592D01*
X52802550Y-74000273D01*
X52933918Y-74076118D01*
X53006943Y-74118280D01*
X53006948Y-74118282D01*
X53006951Y-74118284D01*
X53225007Y-74208606D01*
X53452986Y-74269693D01*
X53686989Y-74300500D01*
X53686996Y-74300500D01*
X53923004Y-74300500D01*
X53923011Y-74300500D01*
X54157014Y-74269693D01*
X54384993Y-74208606D01*
X54603049Y-74118284D01*
X54807450Y-74000273D01*
X54994699Y-73856592D01*
X55161592Y-73689699D01*
X55305273Y-73502450D01*
X55423284Y-73298049D01*
X55513606Y-73079993D01*
X55574693Y-72852014D01*
X55605500Y-72618011D01*
X55605500Y-72381989D01*
X55574693Y-72147986D01*
X55513606Y-71920007D01*
X55423284Y-71701951D01*
X55423282Y-71701948D01*
X55423280Y-71701943D01*
X55364722Y-71600519D01*
X55305273Y-71497550D01*
X55161592Y-71310301D01*
X55161587Y-71310295D01*
X54994704Y-71143412D01*
X54994697Y-71143406D01*
X54807454Y-70999730D01*
X54807453Y-70999729D01*
X54807450Y-70999727D01*
X54725957Y-70952677D01*
X54603056Y-70881719D01*
X54603045Y-70881714D01*
X54384993Y-70791394D01*
X54157010Y-70730306D01*
X53923020Y-70699501D01*
X53923017Y-70699500D01*
X53923011Y-70699500D01*
X53686989Y-70699500D01*
X53686983Y-70699500D01*
X53686979Y-70699501D01*
X53452989Y-70730306D01*
X53225006Y-70791394D01*
X53006954Y-70881714D01*
X53006943Y-70881719D01*
X52802545Y-70999730D01*
X52615302Y-71143406D01*
X52615295Y-71143412D01*
X52448412Y-71310295D01*
X52448406Y-71310302D01*
X52304730Y-71497545D01*
X52186719Y-71701943D01*
X52186714Y-71701954D01*
X52096394Y-71920006D01*
X52035306Y-72147989D01*
X52004501Y-72381979D01*
X52004500Y-72381995D01*
X50500500Y-72381995D01*
X50500500Y-67382014D01*
X52005000Y-67382014D01*
X52005000Y-67617985D01*
X52035799Y-67851914D01*
X52096870Y-68079837D01*
X52187160Y-68297819D01*
X52187165Y-68297828D01*
X52305144Y-68502171D01*
X52305145Y-68502172D01*
X52367721Y-68583723D01*
X53203958Y-67747487D01*
X53228978Y-67807890D01*
X53300112Y-67914351D01*
X53390649Y-68004888D01*
X53497110Y-68076022D01*
X53557511Y-68101041D01*
X52721275Y-68937277D01*
X52802827Y-68999854D01*
X52802828Y-68999855D01*
X53007171Y-69117834D01*
X53007180Y-69117839D01*
X53225163Y-69208129D01*
X53225161Y-69208129D01*
X53453085Y-69269200D01*
X53687014Y-69299999D01*
X53687029Y-69300000D01*
X53922971Y-69300000D01*
X53922985Y-69299999D01*
X54156914Y-69269200D01*
X54384837Y-69208129D01*
X54602819Y-69117839D01*
X54602828Y-69117834D01*
X54807181Y-68999850D01*
X54888723Y-68937279D01*
X54888723Y-68937276D01*
X54052487Y-68101041D01*
X54112890Y-68076022D01*
X54219351Y-68004888D01*
X54309888Y-67914351D01*
X54381022Y-67807890D01*
X54406041Y-67747488D01*
X55242276Y-68583723D01*
X55242279Y-68583723D01*
X55304850Y-68502181D01*
X55422834Y-68297828D01*
X55422839Y-68297819D01*
X55513129Y-68079837D01*
X55574200Y-67851914D01*
X55604999Y-67617985D01*
X55605000Y-67617971D01*
X55605000Y-67382028D01*
X55604999Y-67382014D01*
X55574200Y-67148085D01*
X55513129Y-66920162D01*
X55422839Y-66702180D01*
X55422834Y-66702171D01*
X55304855Y-66497828D01*
X55304854Y-66497827D01*
X55242277Y-66416275D01*
X54406041Y-67252511D01*
X54381022Y-67192110D01*
X54309888Y-67085649D01*
X54219351Y-66995112D01*
X54112890Y-66923978D01*
X54052488Y-66898958D01*
X54888723Y-66062721D01*
X54807172Y-66000145D01*
X54807171Y-66000144D01*
X54602828Y-65882165D01*
X54602819Y-65882160D01*
X54384836Y-65791870D01*
X54384838Y-65791870D01*
X54156914Y-65730799D01*
X53922985Y-65700000D01*
X53687014Y-65700000D01*
X53453085Y-65730799D01*
X53225162Y-65791870D01*
X53007180Y-65882160D01*
X53007171Y-65882165D01*
X52802828Y-66000144D01*
X52802818Y-66000150D01*
X52721275Y-66062720D01*
X52721275Y-66062721D01*
X53557512Y-66898958D01*
X53497110Y-66923978D01*
X53390649Y-66995112D01*
X53300112Y-67085649D01*
X53228978Y-67192110D01*
X53203958Y-67252511D01*
X52367721Y-66416275D01*
X52367720Y-66416275D01*
X52305150Y-66497818D01*
X52305144Y-66497828D01*
X52187165Y-66702171D01*
X52187160Y-66702180D01*
X52096870Y-66920162D01*
X52035799Y-67148085D01*
X52005000Y-67382014D01*
X50500500Y-67382014D01*
X50500500Y-62381995D01*
X52004500Y-62381995D01*
X52004500Y-62618004D01*
X52004501Y-62618020D01*
X52023231Y-62760292D01*
X52035307Y-62852014D01*
X52065152Y-62963397D01*
X52096394Y-63079993D01*
X52186714Y-63298045D01*
X52186719Y-63298056D01*
X52257677Y-63420957D01*
X52304727Y-63502450D01*
X52304729Y-63502453D01*
X52304730Y-63502454D01*
X52448406Y-63689697D01*
X52448412Y-63689704D01*
X52615295Y-63856587D01*
X52615301Y-63856592D01*
X52802550Y-64000273D01*
X52933918Y-64076118D01*
X53006943Y-64118280D01*
X53006948Y-64118282D01*
X53006951Y-64118284D01*
X53225007Y-64208606D01*
X53452986Y-64269693D01*
X53686989Y-64300500D01*
X53686996Y-64300500D01*
X53923004Y-64300500D01*
X53923011Y-64300500D01*
X54157014Y-64269693D01*
X54384993Y-64208606D01*
X54603049Y-64118284D01*
X54807450Y-64000273D01*
X54936664Y-63901123D01*
X55001833Y-63875930D01*
X55012150Y-63875500D01*
X59628887Y-63875500D01*
X59695926Y-63895185D01*
X59716568Y-63911819D01*
X61338181Y-65533432D01*
X61371666Y-65594755D01*
X61374500Y-65621113D01*
X61374500Y-118983254D01*
X61391668Y-119091648D01*
X61400377Y-119146632D01*
X61408370Y-119197098D01*
X61475272Y-119403006D01*
X61475273Y-119403009D01*
X61567103Y-119583232D01*
X61573567Y-119595919D01*
X61644651Y-119693759D01*
X61668131Y-119759564D01*
X61653693Y-119825093D01*
X61648925Y-119834012D01*
X61648921Y-119834022D01*
X61573724Y-120015559D01*
X61544954Y-120110404D01*
X61544951Y-120110415D01*
X61506623Y-120303106D01*
X61506619Y-120303134D01*
X61506209Y-120306836D01*
X61497059Y-120389366D01*
X61497059Y-120389371D01*
X61497058Y-120389379D01*
X61494652Y-120487603D01*
X61494500Y-120500032D01*
X61494500Y-121999967D01*
X61494652Y-122012396D01*
X61497058Y-122110620D01*
X61497058Y-122110626D01*
X61497059Y-122110634D01*
X61504211Y-122175146D01*
X61506619Y-122196865D01*
X61506623Y-122196893D01*
X61544951Y-122389584D01*
X61544954Y-122389595D01*
X61573724Y-122484440D01*
X61648921Y-122665979D01*
X61648923Y-122665984D01*
X61648924Y-122665985D01*
X61695637Y-122753377D01*
X61695642Y-122753385D01*
X61695647Y-122753393D01*
X61804798Y-122916750D01*
X61804815Y-122916773D01*
X61867681Y-122993375D01*
X62006624Y-123132318D01*
X62006629Y-123132322D01*
X62006630Y-123132323D01*
X62083232Y-123195189D01*
X62083239Y-123195194D01*
X62083249Y-123195201D01*
X62246606Y-123304352D01*
X62246609Y-123304354D01*
X62246623Y-123304363D01*
X62334015Y-123351076D01*
X62334020Y-123351078D01*
X62515559Y-123426275D01*
X62515563Y-123426276D01*
X62515565Y-123426277D01*
X62610395Y-123455043D01*
X62610401Y-123455044D01*
X62610404Y-123455045D01*
X62610415Y-123455048D01*
X62803106Y-123493376D01*
X62803112Y-123493376D01*
X62803128Y-123493380D01*
X62889366Y-123502941D01*
X62987620Y-123505348D01*
X63000000Y-123505500D01*
X63000032Y-123505500D01*
X67249968Y-123505500D01*
X67250000Y-123505500D01*
X67262380Y-123505348D01*
X67360634Y-123502941D01*
X67446872Y-123493380D01*
X67446889Y-123493376D01*
X67446893Y-123493376D01*
X67639584Y-123455048D01*
X67639595Y-123455045D01*
X67639595Y-123455044D01*
X67639605Y-123455043D01*
X67734435Y-123426277D01*
X67915985Y-123351076D01*
X68003377Y-123304363D01*
X68166768Y-123195189D01*
X68243370Y-123132323D01*
X68382323Y-122993370D01*
X68445189Y-122916768D01*
X68554363Y-122753377D01*
X68601076Y-122665985D01*
X68676277Y-122484435D01*
X68705043Y-122389605D01*
X68705045Y-122389595D01*
X68705048Y-122389584D01*
X68743376Y-122196893D01*
X68743376Y-122196889D01*
X68743380Y-122196872D01*
X68752941Y-122110634D01*
X68755348Y-122012380D01*
X68755500Y-122000000D01*
X68755500Y-120500000D01*
X68755348Y-120487620D01*
X68752941Y-120389366D01*
X68743380Y-120303128D01*
X68743376Y-120303106D01*
X68705048Y-120110415D01*
X68705045Y-120110404D01*
X68705044Y-120110401D01*
X68705043Y-120110395D01*
X68676277Y-120015565D01*
X68670983Y-120002785D01*
X68601078Y-119834020D01*
X68601076Y-119834015D01*
X68596307Y-119825093D01*
X68554363Y-119746623D01*
X68538693Y-119723171D01*
X68445201Y-119583249D01*
X68445194Y-119583239D01*
X68445189Y-119583232D01*
X68382323Y-119506630D01*
X68382322Y-119506629D01*
X68382318Y-119506624D01*
X68243375Y-119367681D01*
X68166773Y-119304815D01*
X68166750Y-119304798D01*
X68003393Y-119195647D01*
X68003385Y-119195642D01*
X68003377Y-119195637D01*
X67944190Y-119164000D01*
X67915984Y-119148923D01*
X67915979Y-119148921D01*
X67734440Y-119073724D01*
X67639595Y-119044954D01*
X67639584Y-119044951D01*
X67446893Y-119006623D01*
X67446865Y-119006619D01*
X67425146Y-119004211D01*
X67360634Y-118997059D01*
X67360626Y-118997058D01*
X67360620Y-118997058D01*
X67262396Y-118994652D01*
X67258253Y-118994601D01*
X67250000Y-118994500D01*
X67249968Y-118994500D01*
X64866113Y-118994500D01*
X64799074Y-118974815D01*
X64778432Y-118958181D01*
X64161819Y-118341568D01*
X64128334Y-118280245D01*
X64125500Y-118253887D01*
X64125500Y-109954237D01*
X65618837Y-109954237D01*
X65657285Y-110147523D01*
X65657288Y-110147533D01*
X65732702Y-110329601D01*
X65732709Y-110329614D01*
X65842198Y-110493475D01*
X65842201Y-110493479D01*
X65981552Y-110632830D01*
X65981556Y-110632833D01*
X66145417Y-110742322D01*
X66145430Y-110742329D01*
X66275522Y-110796214D01*
X66327503Y-110817745D01*
X66327507Y-110817745D01*
X66327508Y-110817746D01*
X66520794Y-110856194D01*
X66520797Y-110856194D01*
X67967880Y-110856194D01*
X67981525Y-110853479D01*
X68064526Y-110836969D01*
X68161174Y-110817745D01*
X68224790Y-110791394D01*
X68343252Y-110742326D01*
X68507120Y-110632833D01*
X68646477Y-110493476D01*
X68646479Y-110493472D01*
X69080905Y-110059047D01*
X69080904Y-110059047D01*
X69377135Y-109762818D01*
X69438459Y-109729334D01*
X69464816Y-109726500D01*
X70375500Y-109726500D01*
X70442539Y-109746185D01*
X70488294Y-109798989D01*
X70499500Y-109850500D01*
X70499500Y-116822873D01*
X70505402Y-116852543D01*
X70537949Y-117016168D01*
X70550342Y-117046086D01*
X70554082Y-117055117D01*
X70554084Y-117055122D01*
X70613364Y-117198238D01*
X70613371Y-117198251D01*
X70722860Y-117362114D01*
X70866537Y-117505791D01*
X70866559Y-117505811D01*
X71612215Y-118251468D01*
X71612219Y-118251471D01*
X71776079Y-118360959D01*
X71776083Y-118360961D01*
X71776086Y-118360963D01*
X71958164Y-118436383D01*
X72151455Y-118474831D01*
X72151458Y-118474832D01*
X72151460Y-118474832D01*
X72348542Y-118474832D01*
X72348543Y-118474831D01*
X72541836Y-118436383D01*
X72723914Y-118360963D01*
X72887781Y-118251471D01*
X73027139Y-118112113D01*
X73136631Y-117948246D01*
X73212051Y-117766168D01*
X73250500Y-117572872D01*
X73250500Y-117375792D01*
X73250500Y-117375789D01*
X73250499Y-117375787D01*
X73232359Y-117284590D01*
X73212051Y-117182496D01*
X73136631Y-117000418D01*
X73136629Y-117000415D01*
X73136627Y-117000411D01*
X73027139Y-116836551D01*
X73027136Y-116836547D01*
X72536819Y-116346230D01*
X72503334Y-116284907D01*
X72500500Y-116258549D01*
X72500500Y-109191782D01*
X72520185Y-109124743D01*
X72536819Y-109104101D01*
X72957634Y-108683287D01*
X72957634Y-108683286D01*
X72957639Y-108683282D01*
X72979543Y-108650500D01*
X73046223Y-108550707D01*
X73067127Y-108519422D01*
X73067128Y-108519419D01*
X73067132Y-108519414D01*
X73074159Y-108502450D01*
X73142550Y-108337338D01*
X73142551Y-108337334D01*
X73145717Y-108321424D01*
X73180999Y-108144045D01*
X73181000Y-108144042D01*
X73181000Y-100285284D01*
X73200685Y-100218245D01*
X73217314Y-100197607D01*
X73277140Y-100137782D01*
X73386632Y-99973915D01*
X73462052Y-99791836D01*
X73500500Y-99598541D01*
X73500500Y-99401460D01*
X73462052Y-99208165D01*
X73389997Y-99034209D01*
X73386633Y-99026088D01*
X73386628Y-99026079D01*
X73277140Y-98862219D01*
X73277137Y-98862215D01*
X72625709Y-98210789D01*
X72625707Y-98210786D01*
X72286819Y-97871898D01*
X72253334Y-97810575D01*
X72250500Y-97784217D01*
X72250500Y-93465782D01*
X72270185Y-93398743D01*
X72286819Y-93378101D01*
X72557410Y-93107510D01*
X72884390Y-92780531D01*
X72884391Y-92780529D01*
X72891455Y-92773465D01*
X72891461Y-92773458D01*
X73005769Y-92659152D01*
X73277136Y-92387785D01*
X73277136Y-92387784D01*
X73277139Y-92387782D01*
X73309432Y-92339450D01*
X73372727Y-92244725D01*
X73379702Y-92234284D01*
X73386632Y-92223914D01*
X73458876Y-92049501D01*
X73462051Y-92041836D01*
X73500500Y-91848541D01*
X73500500Y-91651460D01*
X73500500Y-90783959D01*
X73500500Y-82151459D01*
X73500500Y-82151456D01*
X73482323Y-82060078D01*
X73468230Y-81989229D01*
X73462051Y-81958164D01*
X73419431Y-81855271D01*
X73386632Y-81776086D01*
X73337097Y-81701951D01*
X73277139Y-81612217D01*
X73134686Y-81469764D01*
X73134655Y-81469735D01*
X72286819Y-80621899D01*
X72253334Y-80560576D01*
X72250500Y-80534218D01*
X72250500Y-76965782D01*
X72270185Y-76898743D01*
X72286819Y-76878101D01*
X72571889Y-76593031D01*
X72710686Y-76454234D01*
X73137778Y-76027141D01*
X73137782Y-76027139D01*
X73277139Y-75887782D01*
X73386632Y-75723914D01*
X73395205Y-75703218D01*
X73403721Y-75682655D01*
X73462051Y-75541835D01*
X73479449Y-75454371D01*
X73500500Y-75348543D01*
X73500500Y-60652282D01*
X73509144Y-60622841D01*
X73515668Y-60592855D01*
X73519422Y-60587839D01*
X73520185Y-60585243D01*
X73536819Y-60564601D01*
X73718590Y-60382830D01*
X73930139Y-60171282D01*
X73930139Y-60171281D01*
X74279390Y-59822031D01*
X74279390Y-59822029D01*
X74289594Y-59811826D01*
X74289598Y-59811821D01*
X76551210Y-57550208D01*
X76612531Y-57516725D01*
X76682223Y-57521709D01*
X76738156Y-57563581D01*
X76741991Y-57569000D01*
X76814112Y-57676935D01*
X76814115Y-57676939D01*
X76925609Y-57788433D01*
X76925613Y-57788436D01*
X77056716Y-57876037D01*
X77056729Y-57876044D01*
X77202400Y-57936382D01*
X77202405Y-57936384D01*
X77267049Y-57949242D01*
X77357751Y-57967285D01*
X77419662Y-57999670D01*
X77421241Y-58001221D01*
X78204394Y-58784374D01*
X78204404Y-58784385D01*
X78208734Y-58788715D01*
X78208735Y-58788716D01*
X78320539Y-58900520D01*
X78405376Y-58949500D01*
X78457470Y-58979577D01*
X78610198Y-59020501D01*
X78610201Y-59020501D01*
X78775909Y-59020501D01*
X78775925Y-59020500D01*
X81891459Y-59020500D01*
X81958498Y-59040185D01*
X82004253Y-59092989D01*
X82014197Y-59162147D01*
X81985172Y-59225703D01*
X81960350Y-59247602D01*
X81839711Y-59328210D01*
X81839707Y-59328213D01*
X81728213Y-59439707D01*
X81728210Y-59439711D01*
X81640609Y-59570814D01*
X81640604Y-59570823D01*
X81580809Y-59715184D01*
X81553929Y-59755412D01*
X81205887Y-60103454D01*
X81129223Y-60218192D01*
X81076421Y-60345668D01*
X81076418Y-60345679D01*
X81061448Y-60420942D01*
X81061448Y-60420944D01*
X81053621Y-60460292D01*
X81049500Y-60481007D01*
X81049500Y-76181006D01*
X81049500Y-76318994D01*
X81049500Y-76318996D01*
X81049499Y-76318996D01*
X81076418Y-76454322D01*
X81076421Y-76454332D01*
X81129222Y-76581807D01*
X81205887Y-76696545D01*
X81205888Y-76696546D01*
X81453928Y-76944585D01*
X81480808Y-76984814D01*
X81540602Y-77129172D01*
X81540609Y-77129185D01*
X81628210Y-77260288D01*
X81628213Y-77260292D01*
X81739706Y-77371785D01*
X81739709Y-77371787D01*
X81739711Y-77371789D01*
X81744386Y-77374913D01*
X81789193Y-77428521D01*
X81799500Y-77478017D01*
X81799500Y-93074684D01*
X81797873Y-93082860D01*
X81798790Y-93087939D01*
X81790061Y-93122137D01*
X81730809Y-93265184D01*
X81708870Y-93298024D01*
X81709751Y-93298747D01*
X81705887Y-93303454D01*
X81629223Y-93418192D01*
X81576421Y-93545668D01*
X81576418Y-93545680D01*
X81569807Y-93578916D01*
X81569807Y-93578917D01*
X81549500Y-93681004D01*
X81549500Y-93681007D01*
X81549500Y-109931006D01*
X81549500Y-110068994D01*
X81549500Y-110068996D01*
X81549499Y-110068996D01*
X81576418Y-110204322D01*
X81576421Y-110204332D01*
X81629222Y-110331807D01*
X81705886Y-110446543D01*
X81709747Y-110451247D01*
X81708861Y-110451973D01*
X81730807Y-110484812D01*
X81734398Y-110493479D01*
X81790602Y-110629173D01*
X81790609Y-110629185D01*
X81878210Y-110760288D01*
X81878213Y-110760292D01*
X81989707Y-110871786D01*
X81989711Y-110871789D01*
X82120814Y-110959390D01*
X82120827Y-110959397D01*
X82218194Y-110999727D01*
X82266503Y-111019737D01*
X82421153Y-111050499D01*
X82421156Y-111050500D01*
X82421158Y-111050500D01*
X82578844Y-111050500D01*
X82578845Y-111050499D01*
X82733497Y-111019737D01*
X82879179Y-110959394D01*
X83010289Y-110871789D01*
X83121789Y-110760289D01*
X83209394Y-110629179D01*
X83269737Y-110483497D01*
X83300500Y-110328842D01*
X83300500Y-110171158D01*
X83300500Y-110171155D01*
X83300499Y-110171153D01*
X83291917Y-110128010D01*
X83269737Y-110016503D01*
X83265111Y-110005335D01*
X83209397Y-109870827D01*
X83209390Y-109870814D01*
X83121789Y-109739711D01*
X83121786Y-109739707D01*
X83010292Y-109628213D01*
X83010284Y-109628207D01*
X83005605Y-109625080D01*
X82960802Y-109571466D01*
X82950500Y-109521981D01*
X82950500Y-98321153D01*
X85199500Y-98321153D01*
X85199500Y-98478846D01*
X85230261Y-98633489D01*
X85230264Y-98633501D01*
X85290602Y-98779172D01*
X85290609Y-98779185D01*
X85378210Y-98910288D01*
X85378213Y-98910292D01*
X85489707Y-99021786D01*
X85489711Y-99021789D01*
X85620814Y-99109390D01*
X85620827Y-99109397D01*
X85766498Y-99169735D01*
X85766503Y-99169737D01*
X85921153Y-99200499D01*
X85921156Y-99200500D01*
X85921158Y-99200500D01*
X86078844Y-99200500D01*
X86078845Y-99200499D01*
X86233497Y-99169737D01*
X86357714Y-99118285D01*
X86379172Y-99109397D01*
X86379172Y-99109396D01*
X86379179Y-99109394D01*
X86419890Y-99082192D01*
X86510875Y-99021398D01*
X86577553Y-99000520D01*
X86579766Y-99000500D01*
X87713331Y-99000500D01*
X87713347Y-99000501D01*
X87720943Y-99000501D01*
X87879054Y-99000501D01*
X87879057Y-99000501D01*
X88031785Y-98959577D01*
X88094211Y-98923535D01*
X88168716Y-98880520D01*
X88280520Y-98768716D01*
X88280520Y-98768714D01*
X88290724Y-98758511D01*
X88290727Y-98758506D01*
X89912417Y-97136819D01*
X89973740Y-97103334D01*
X90000098Y-97100500D01*
X93999903Y-97100500D01*
X94029343Y-97109144D01*
X94059330Y-97115668D01*
X94064345Y-97119422D01*
X94066942Y-97120185D01*
X94087584Y-97136819D01*
X94115139Y-97164374D01*
X94115149Y-97164385D01*
X94119479Y-97168715D01*
X94119480Y-97168716D01*
X94231284Y-97280520D01*
X94296202Y-97318000D01*
X94368215Y-97359577D01*
X94520943Y-97400500D01*
X96020234Y-97400500D01*
X96087273Y-97420185D01*
X96089125Y-97421398D01*
X96220814Y-97509390D01*
X96220827Y-97509397D01*
X96366498Y-97569735D01*
X96366503Y-97569737D01*
X96516131Y-97599500D01*
X96521153Y-97600499D01*
X96521156Y-97600500D01*
X96521158Y-97600500D01*
X96678844Y-97600500D01*
X96678845Y-97600499D01*
X96833497Y-97569737D01*
X96979179Y-97509394D01*
X97110289Y-97421789D01*
X97221789Y-97310289D01*
X97309394Y-97179179D01*
X97314976Y-97165704D01*
X97333830Y-97120185D01*
X97369737Y-97033497D01*
X97400500Y-96878842D01*
X97400500Y-96721158D01*
X97400500Y-96721155D01*
X97400499Y-96721153D01*
X97376381Y-96599905D01*
X97369737Y-96566503D01*
X97328821Y-96467722D01*
X97309397Y-96420827D01*
X97309390Y-96420814D01*
X97221789Y-96289711D01*
X97221786Y-96289707D01*
X97110292Y-96178213D01*
X97110288Y-96178210D01*
X96979185Y-96090609D01*
X96979172Y-96090602D01*
X96833501Y-96030264D01*
X96833489Y-96030261D01*
X96678845Y-95999500D01*
X96678842Y-95999500D01*
X96521158Y-95999500D01*
X96521155Y-95999500D01*
X96366510Y-96030261D01*
X96366498Y-96030264D01*
X96220827Y-96090602D01*
X96220814Y-96090609D01*
X96089125Y-96178602D01*
X96022447Y-96199480D01*
X96020234Y-96199500D01*
X94900097Y-96199500D01*
X94870656Y-96190855D01*
X94840670Y-96184332D01*
X94835654Y-96180577D01*
X94833058Y-96179815D01*
X94812416Y-96163181D01*
X94787590Y-96138355D01*
X94787588Y-96138352D01*
X94668717Y-96019481D01*
X94668716Y-96019480D01*
X94581904Y-95969360D01*
X94581904Y-95969359D01*
X94581900Y-95969358D01*
X94531785Y-95940423D01*
X94379057Y-95899499D01*
X94220943Y-95899499D01*
X94213347Y-95899499D01*
X94213331Y-95899500D01*
X89786670Y-95899500D01*
X89786654Y-95899499D01*
X89779058Y-95899499D01*
X89620943Y-95899499D01*
X89562527Y-95915152D01*
X89468214Y-95940423D01*
X89468209Y-95940426D01*
X89331290Y-96019475D01*
X89331282Y-96019481D01*
X87587584Y-97763181D01*
X87526261Y-97796666D01*
X87499903Y-97799500D01*
X86579766Y-97799500D01*
X86512727Y-97779815D01*
X86510875Y-97778602D01*
X86379185Y-97690609D01*
X86379172Y-97690602D01*
X86233501Y-97630264D01*
X86233489Y-97630261D01*
X86078845Y-97599500D01*
X86078842Y-97599500D01*
X85921158Y-97599500D01*
X85921155Y-97599500D01*
X85766510Y-97630261D01*
X85766498Y-97630264D01*
X85620827Y-97690602D01*
X85620814Y-97690609D01*
X85489711Y-97778210D01*
X85489707Y-97778213D01*
X85378213Y-97889707D01*
X85378210Y-97889711D01*
X85290609Y-98020814D01*
X85290602Y-98020827D01*
X85230264Y-98166498D01*
X85230261Y-98166510D01*
X85199500Y-98321153D01*
X82950500Y-98321153D01*
X82950500Y-94228017D01*
X82970185Y-94160978D01*
X83005612Y-94124913D01*
X83010289Y-94121789D01*
X83121789Y-94010289D01*
X83209394Y-93879179D01*
X83269737Y-93733497D01*
X83300500Y-93578842D01*
X83300500Y-93421158D01*
X83300500Y-93421155D01*
X83300499Y-93421153D01*
X83282137Y-93328842D01*
X83269737Y-93266503D01*
X83209939Y-93122136D01*
X83200500Y-93074684D01*
X83200500Y-90324424D01*
X83220185Y-90257385D01*
X83272989Y-90211630D01*
X83342147Y-90201686D01*
X83371952Y-90209863D01*
X83486682Y-90257385D01*
X83516503Y-90269737D01*
X83671153Y-90300499D01*
X83671156Y-90300500D01*
X83671158Y-90300500D01*
X83828844Y-90300500D01*
X83828845Y-90300499D01*
X83983497Y-90269737D01*
X84129179Y-90209394D01*
X84196944Y-90164115D01*
X84260875Y-90121398D01*
X84278921Y-90115747D01*
X84294831Y-90105523D01*
X84325792Y-90101071D01*
X84327553Y-90100520D01*
X84329766Y-90100500D01*
X84449903Y-90100500D01*
X84516942Y-90120185D01*
X84537584Y-90136819D01*
X88165139Y-93764374D01*
X88165149Y-93764385D01*
X88169479Y-93768715D01*
X88169480Y-93768716D01*
X88281284Y-93880520D01*
X88328375Y-93907707D01*
X88368095Y-93930639D01*
X88368097Y-93930641D01*
X88406151Y-93952611D01*
X88418215Y-93959577D01*
X88570943Y-94000501D01*
X88570946Y-94000501D01*
X88736653Y-94000501D01*
X88736669Y-94000500D01*
X96299903Y-94000500D01*
X96366942Y-94020185D01*
X96387584Y-94036819D01*
X97465139Y-95114374D01*
X97465149Y-95114385D01*
X97469479Y-95118715D01*
X97469480Y-95118716D01*
X97581284Y-95230520D01*
X97668095Y-95280639D01*
X97668097Y-95280641D01*
X97718213Y-95309576D01*
X97718215Y-95309577D01*
X97870942Y-95350500D01*
X97870943Y-95350500D01*
X115500903Y-95350500D01*
X115567942Y-95370185D01*
X115613697Y-95422989D01*
X115623641Y-95492147D01*
X115594616Y-95555703D01*
X115588584Y-95562181D01*
X114187584Y-96963181D01*
X114126261Y-96996666D01*
X114099903Y-96999500D01*
X102486670Y-96999500D01*
X102486654Y-96999499D01*
X102479058Y-96999499D01*
X102320943Y-96999499D01*
X102270073Y-97013130D01*
X102168214Y-97040423D01*
X102168209Y-97040426D01*
X102031290Y-97119475D01*
X102031282Y-97119481D01*
X98387584Y-100763181D01*
X98326261Y-100796666D01*
X98299903Y-100799500D01*
X87686669Y-100799500D01*
X87686653Y-100799499D01*
X87679057Y-100799499D01*
X87520943Y-100799499D01*
X87413587Y-100828265D01*
X87368210Y-100840424D01*
X87368209Y-100840425D01*
X87318096Y-100869359D01*
X87318095Y-100869360D01*
X87274689Y-100894420D01*
X87231285Y-100919479D01*
X87231282Y-100919481D01*
X84485339Y-103665425D01*
X84424016Y-103698910D01*
X84421850Y-103699361D01*
X84266508Y-103730261D01*
X84266498Y-103730264D01*
X84120827Y-103790602D01*
X84120814Y-103790609D01*
X83989711Y-103878210D01*
X83989707Y-103878213D01*
X83878213Y-103989707D01*
X83878210Y-103989711D01*
X83790609Y-104120814D01*
X83790602Y-104120827D01*
X83730264Y-104266498D01*
X83730261Y-104266510D01*
X83699500Y-104421153D01*
X83699500Y-104578846D01*
X83730261Y-104733489D01*
X83730264Y-104733501D01*
X83790602Y-104879172D01*
X83790609Y-104879185D01*
X83878210Y-105010288D01*
X83878213Y-105010292D01*
X83989707Y-105121786D01*
X83989711Y-105121789D01*
X84120814Y-105209390D01*
X84120827Y-105209397D01*
X84266498Y-105269735D01*
X84266503Y-105269737D01*
X84421153Y-105300499D01*
X84421156Y-105300500D01*
X84421158Y-105300500D01*
X84578844Y-105300500D01*
X84578845Y-105300499D01*
X84733497Y-105269737D01*
X84879179Y-105209394D01*
X85010289Y-105121789D01*
X85121789Y-105010289D01*
X85209394Y-104879179D01*
X85269737Y-104733497D01*
X85289113Y-104636085D01*
X85300638Y-104578150D01*
X85333023Y-104516239D01*
X85334518Y-104514716D01*
X87812416Y-102036819D01*
X87873739Y-102003334D01*
X87900097Y-102000500D01*
X98513331Y-102000500D01*
X98513347Y-102000501D01*
X98520943Y-102000501D01*
X98679054Y-102000501D01*
X98679057Y-102000501D01*
X98831785Y-101959577D01*
X98923862Y-101906416D01*
X98968716Y-101880520D01*
X99080520Y-101768716D01*
X99080520Y-101768714D01*
X99090724Y-101758511D01*
X99090727Y-101758506D01*
X102612417Y-98236819D01*
X102673740Y-98203334D01*
X102700098Y-98200500D01*
X114313331Y-98200500D01*
X114313347Y-98200501D01*
X114320943Y-98200501D01*
X114479054Y-98200501D01*
X114479057Y-98200501D01*
X114631785Y-98159577D01*
X114702558Y-98118716D01*
X114768716Y-98080520D01*
X114880520Y-97968716D01*
X114880520Y-97968714D01*
X114890724Y-97958511D01*
X114890728Y-97958506D01*
X123608506Y-89240728D01*
X123608511Y-89240724D01*
X123618714Y-89230520D01*
X123618716Y-89230520D01*
X123730520Y-89118716D01*
X123734359Y-89112065D01*
X123787813Y-89019482D01*
X123787814Y-89019480D01*
X123809574Y-88981790D01*
X123809575Y-88981789D01*
X123809575Y-88981787D01*
X123809577Y-88981785D01*
X123850501Y-88829057D01*
X123850501Y-88670943D01*
X123850501Y-88663348D01*
X123850500Y-88663330D01*
X123850500Y-62663228D01*
X123859939Y-62615776D01*
X123914728Y-62483501D01*
X123914730Y-62483497D01*
X123945493Y-62328842D01*
X123945493Y-62171158D01*
X123945493Y-62171155D01*
X123945492Y-62171153D01*
X123914731Y-62016510D01*
X123914730Y-62016503D01*
X123914728Y-62016498D01*
X123854390Y-61870827D01*
X123854383Y-61870814D01*
X123766782Y-61739711D01*
X123766779Y-61739707D01*
X123655285Y-61628213D01*
X123655281Y-61628210D01*
X123524178Y-61540609D01*
X123524165Y-61540602D01*
X123378494Y-61480264D01*
X123378482Y-61480261D01*
X123223838Y-61449500D01*
X123223835Y-61449500D01*
X123066151Y-61449500D01*
X123066148Y-61449500D01*
X122911503Y-61480261D01*
X122911491Y-61480264D01*
X122765821Y-61540602D01*
X122765810Y-61540608D01*
X122720113Y-61571142D01*
X122653435Y-61592019D01*
X122586055Y-61573534D01*
X122582333Y-61571142D01*
X122536633Y-61540606D01*
X122536626Y-61540602D01*
X122390955Y-61480264D01*
X122390943Y-61480261D01*
X122236299Y-61449500D01*
X122236296Y-61449500D01*
X122078612Y-61449500D01*
X122078609Y-61449500D01*
X121923964Y-61480261D01*
X121923952Y-61480264D01*
X121778281Y-61540602D01*
X121778268Y-61540609D01*
X121647165Y-61628210D01*
X121647161Y-61628213D01*
X121535667Y-61739707D01*
X121535664Y-61739711D01*
X121448063Y-61870814D01*
X121448056Y-61870827D01*
X121387718Y-62016498D01*
X121387715Y-62016510D01*
X121356954Y-62171153D01*
X121356954Y-62328846D01*
X121387715Y-62483489D01*
X121387718Y-62483501D01*
X121448056Y-62629172D01*
X121448063Y-62629185D01*
X121535664Y-62760288D01*
X121535667Y-62760292D01*
X121647164Y-62871789D01*
X121778269Y-62959390D01*
X121778275Y-62959394D01*
X121787944Y-62963399D01*
X121842347Y-63007236D01*
X121864414Y-63073530D01*
X121864493Y-63077960D01*
X121864493Y-68105225D01*
X121844808Y-68172264D01*
X121792004Y-68218019D01*
X121722846Y-68227963D01*
X121716302Y-68226842D01*
X121578845Y-68199500D01*
X121578842Y-68199500D01*
X121421158Y-68199500D01*
X121421155Y-68199500D01*
X121266510Y-68230261D01*
X121266498Y-68230264D01*
X121120815Y-68290608D01*
X121118439Y-68291878D01*
X121117053Y-68292166D01*
X121115193Y-68292937D01*
X121115046Y-68292583D01*
X121050035Y-68306112D01*
X121004844Y-68292842D01*
X121004805Y-68292937D01*
X121003926Y-68292573D01*
X121001559Y-68291878D01*
X120999182Y-68290608D01*
X120853498Y-68230264D01*
X120853488Y-68230261D01*
X120698146Y-68199361D01*
X120636235Y-68166976D01*
X120634657Y-68165425D01*
X118067587Y-65598355D01*
X118067585Y-65598352D01*
X117948714Y-65479481D01*
X117948709Y-65479477D01*
X117851813Y-65423535D01*
X117851812Y-65423534D01*
X117811787Y-65400425D01*
X117811786Y-65400424D01*
X117799260Y-65397067D01*
X117659054Y-65359499D01*
X117500940Y-65359499D01*
X117493344Y-65359499D01*
X117493328Y-65359500D01*
X112510097Y-65359500D01*
X112443058Y-65339815D01*
X112422416Y-65323181D01*
X107237590Y-60138355D01*
X107237588Y-60138352D01*
X107118717Y-60019481D01*
X107118716Y-60019480D01*
X107008568Y-59955886D01*
X107008566Y-59955885D01*
X106981785Y-59940423D01*
X106981784Y-59940422D01*
X106981783Y-59940422D01*
X106925881Y-59925443D01*
X106829057Y-59899499D01*
X106670943Y-59899499D01*
X106663347Y-59899499D01*
X106663331Y-59899500D01*
X100800097Y-59899500D01*
X100733058Y-59879815D01*
X100712416Y-59863181D01*
X98907590Y-58058355D01*
X98907588Y-58058352D01*
X98788717Y-57939481D01*
X98788716Y-57939480D01*
X98701904Y-57889360D01*
X98701904Y-57889359D01*
X98701900Y-57889358D01*
X98651785Y-57860423D01*
X98499057Y-57819499D01*
X98340943Y-57819499D01*
X98333347Y-57819499D01*
X98333331Y-57819500D01*
X83063683Y-57819500D01*
X82996644Y-57799815D01*
X82950889Y-57747011D01*
X82940945Y-57677853D01*
X82949119Y-57648053D01*
X82962051Y-57616835D01*
X83000500Y-57423541D01*
X83000500Y-50965782D01*
X83020185Y-50898743D01*
X83036819Y-50878101D01*
X87078102Y-46836819D01*
X87139425Y-46803334D01*
X87165783Y-46800500D01*
X96609218Y-46800500D01*
X96676257Y-46820185D01*
X96696898Y-46836818D01*
X102527860Y-52667781D01*
X102527861Y-52667782D01*
X102667218Y-52807139D01*
X102831086Y-52916632D01*
X102906210Y-52947749D01*
X103013164Y-52992051D01*
X103206454Y-53030499D01*
X103206457Y-53030500D01*
X103206459Y-53030500D01*
X111204543Y-53030500D01*
X111334582Y-53004632D01*
X111397835Y-52992051D01*
X111559364Y-52925144D01*
X111579907Y-52916635D01*
X111579907Y-52916634D01*
X111579914Y-52916632D01*
X111743782Y-52807139D01*
X111883139Y-52667782D01*
X111992632Y-52503914D01*
X112068051Y-52321835D01*
X112106500Y-52128541D01*
X112106500Y-51931459D01*
X112106500Y-51931456D01*
X112068052Y-51738170D01*
X112068051Y-51738169D01*
X112068051Y-51738165D01*
X112068049Y-51738160D01*
X111992635Y-51556092D01*
X111992628Y-51556079D01*
X111883139Y-51392218D01*
X111883136Y-51392214D01*
X111743785Y-51252863D01*
X111743781Y-51252860D01*
X111579920Y-51143371D01*
X111579907Y-51143364D01*
X111397839Y-51067950D01*
X111397829Y-51067947D01*
X111204543Y-51029500D01*
X111204541Y-51029500D01*
X103770783Y-51029500D01*
X103703744Y-51009815D01*
X103683102Y-50993181D01*
X102565302Y-49875381D01*
X102480323Y-49790402D01*
X120199500Y-49790402D01*
X120199500Y-50209597D01*
X120236035Y-50627190D01*
X120236035Y-50627194D01*
X120308824Y-51039998D01*
X120308828Y-51040015D01*
X120417316Y-51444902D01*
X120417319Y-51444912D01*
X120417320Y-51444913D01*
X120560691Y-51838822D01*
X120560694Y-51838829D01*
X120560695Y-51838831D01*
X120560698Y-51838839D01*
X120737843Y-52218726D01*
X120737851Y-52218742D01*
X120885169Y-52473904D01*
X120947443Y-52581764D01*
X120947447Y-52581770D01*
X120947454Y-52581781D01*
X121187879Y-52925144D01*
X121244022Y-52992052D01*
X121457329Y-53246260D01*
X121753740Y-53542671D01*
X121887255Y-53654704D01*
X122074855Y-53812120D01*
X122418218Y-54052545D01*
X122418225Y-54052549D01*
X122418236Y-54052557D01*
X122781264Y-54262152D01*
X122781273Y-54262156D01*
X123161160Y-54439301D01*
X123161164Y-54439302D01*
X123161178Y-54439309D01*
X123555087Y-54582680D01*
X123555093Y-54582681D01*
X123555097Y-54582683D01*
X123665359Y-54612227D01*
X123959992Y-54691174D01*
X124372812Y-54763965D01*
X124790404Y-54800499D01*
X124790405Y-54800500D01*
X124790406Y-54800500D01*
X125209595Y-54800500D01*
X125209595Y-54800499D01*
X125627188Y-54763965D01*
X126040008Y-54691174D01*
X126444913Y-54582680D01*
X126838822Y-54439309D01*
X127218736Y-54262152D01*
X127581764Y-54052557D01*
X127925143Y-53812121D01*
X128246260Y-53542671D01*
X128542671Y-53246260D01*
X128812121Y-52925143D01*
X129052557Y-52581764D01*
X129262152Y-52218736D01*
X129439309Y-51838822D01*
X129582680Y-51444913D01*
X129691174Y-51040008D01*
X129763965Y-50627188D01*
X129800500Y-50209594D01*
X129800500Y-49790406D01*
X129763965Y-49372812D01*
X129691174Y-48959992D01*
X129582680Y-48555087D01*
X129439309Y-48161178D01*
X129262152Y-47781264D01*
X129052557Y-47418236D01*
X129052549Y-47418225D01*
X129052545Y-47418218D01*
X128812120Y-47074855D01*
X128542668Y-46753737D01*
X128246262Y-46457331D01*
X127925144Y-46187879D01*
X127581781Y-45947454D01*
X127581770Y-45947447D01*
X127581764Y-45947443D01*
X127473904Y-45885169D01*
X127218742Y-45737851D01*
X127218726Y-45737843D01*
X126838839Y-45560698D01*
X126838831Y-45560695D01*
X126838829Y-45560694D01*
X126838822Y-45560691D01*
X126444913Y-45417320D01*
X126444912Y-45417319D01*
X126444902Y-45417316D01*
X126040015Y-45308828D01*
X126040018Y-45308828D01*
X126040008Y-45308826D01*
X126040002Y-45308824D01*
X126039998Y-45308824D01*
X125627192Y-45236035D01*
X125209597Y-45199500D01*
X125209594Y-45199500D01*
X124790406Y-45199500D01*
X124790402Y-45199500D01*
X124372809Y-45236035D01*
X124372805Y-45236035D01*
X123960001Y-45308824D01*
X123959984Y-45308828D01*
X123555097Y-45417316D01*
X123379490Y-45481232D01*
X123161178Y-45560691D01*
X123161174Y-45560692D01*
X123161168Y-45560695D01*
X123161160Y-45560698D01*
X122781273Y-45737843D01*
X122781257Y-45737851D01*
X122418244Y-45947438D01*
X122418218Y-45947454D01*
X122074855Y-46187879D01*
X121753737Y-46457331D01*
X121457331Y-46753737D01*
X121187879Y-47074855D01*
X120947454Y-47418218D01*
X120947438Y-47418244D01*
X120737851Y-47781257D01*
X120737843Y-47781273D01*
X120560698Y-48161160D01*
X120560695Y-48161168D01*
X120417316Y-48555097D01*
X120308828Y-48959984D01*
X120308824Y-48960001D01*
X120236035Y-49372805D01*
X120236035Y-49372809D01*
X120199500Y-49790402D01*
X102480323Y-49790402D01*
X97859209Y-45169289D01*
X97852140Y-45162220D01*
X97852139Y-45162218D01*
X97712782Y-45022861D01*
X97712781Y-45022860D01*
X97712780Y-45022859D01*
X97585011Y-44937486D01*
X100649500Y-44937486D01*
X100649500Y-45122514D01*
X100663972Y-45213889D01*
X100678445Y-45305265D01*
X100735619Y-45481232D01*
X100735620Y-45481235D01*
X100776109Y-45560698D01*
X100819622Y-45646096D01*
X100928379Y-45795787D01*
X101059213Y-45926621D01*
X101208904Y-46035378D01*
X101289763Y-46076577D01*
X101373764Y-46119379D01*
X101373767Y-46119380D01*
X101461750Y-46147967D01*
X101549736Y-46176555D01*
X101732486Y-46205500D01*
X101732487Y-46205500D01*
X101917513Y-46205500D01*
X101917514Y-46205500D01*
X102100264Y-46176555D01*
X102276235Y-46119379D01*
X102441096Y-46035378D01*
X102590787Y-45926621D01*
X102721621Y-45795787D01*
X102830378Y-45646096D01*
X102914379Y-45481235D01*
X102971555Y-45305264D01*
X103000500Y-45122514D01*
X103000500Y-44937486D01*
X105499500Y-44937486D01*
X105499500Y-45122514D01*
X105513972Y-45213889D01*
X105528445Y-45305265D01*
X105585619Y-45481232D01*
X105585620Y-45481235D01*
X105626109Y-45560698D01*
X105669622Y-45646096D01*
X105778379Y-45795787D01*
X105909213Y-45926621D01*
X106058904Y-46035378D01*
X106139763Y-46076577D01*
X106223764Y-46119379D01*
X106223767Y-46119380D01*
X106311750Y-46147967D01*
X106399736Y-46176555D01*
X106582486Y-46205500D01*
X106582487Y-46205500D01*
X106767513Y-46205500D01*
X106767514Y-46205500D01*
X106950264Y-46176555D01*
X107126235Y-46119379D01*
X107291096Y-46035378D01*
X107440787Y-45926621D01*
X107571621Y-45795787D01*
X107680378Y-45646096D01*
X107764379Y-45481235D01*
X107821555Y-45305264D01*
X107850500Y-45122514D01*
X107850500Y-44937486D01*
X107821555Y-44754736D01*
X107764379Y-44578765D01*
X107764379Y-44578764D01*
X107680377Y-44413903D01*
X107571621Y-44264213D01*
X107440787Y-44133379D01*
X107291096Y-44024622D01*
X107126235Y-43940620D01*
X107126232Y-43940619D01*
X106950265Y-43883445D01*
X106858889Y-43868972D01*
X106767514Y-43854500D01*
X106582486Y-43854500D01*
X106521569Y-43864148D01*
X106399734Y-43883445D01*
X106223767Y-43940619D01*
X106223764Y-43940620D01*
X106058903Y-44024622D01*
X105973499Y-44086672D01*
X105909213Y-44133379D01*
X105909211Y-44133381D01*
X105909210Y-44133381D01*
X105778381Y-44264210D01*
X105778381Y-44264211D01*
X105778379Y-44264213D01*
X105731672Y-44328499D01*
X105669622Y-44413903D01*
X105585620Y-44578764D01*
X105585619Y-44578767D01*
X105528445Y-44754734D01*
X105503321Y-44913364D01*
X105499500Y-44937486D01*
X103000500Y-44937486D01*
X102971555Y-44754736D01*
X102914379Y-44578765D01*
X102914379Y-44578764D01*
X102830377Y-44413903D01*
X102721621Y-44264213D01*
X102590787Y-44133379D01*
X102441096Y-44024622D01*
X102276235Y-43940620D01*
X102276232Y-43940619D01*
X102100265Y-43883445D01*
X102008889Y-43868972D01*
X101917514Y-43854500D01*
X101732486Y-43854500D01*
X101671569Y-43864148D01*
X101549734Y-43883445D01*
X101373767Y-43940619D01*
X101373764Y-43940620D01*
X101208903Y-44024622D01*
X101123499Y-44086672D01*
X101059213Y-44133379D01*
X101059211Y-44133381D01*
X101059210Y-44133381D01*
X100928381Y-44264210D01*
X100928381Y-44264211D01*
X100928379Y-44264213D01*
X100881672Y-44328499D01*
X100819622Y-44413903D01*
X100735620Y-44578764D01*
X100735619Y-44578767D01*
X100678445Y-44754734D01*
X100653321Y-44913364D01*
X100649500Y-44937486D01*
X97585011Y-44937486D01*
X97548920Y-44913371D01*
X97548907Y-44913364D01*
X97398431Y-44851035D01*
X97398422Y-44851032D01*
X97389990Y-44847540D01*
X97366836Y-44837949D01*
X97270188Y-44818724D01*
X97267183Y-44818126D01*
X97267174Y-44818124D01*
X97173544Y-44799500D01*
X97173541Y-44799500D01*
X86601459Y-44799500D01*
X86601455Y-44799500D01*
X86507825Y-44818124D01*
X86507811Y-44818127D01*
X86504812Y-44818724D01*
X86408164Y-44837949D01*
X86385010Y-44847540D01*
X86376575Y-44851033D01*
X86376570Y-44851035D01*
X86226090Y-44913366D01*
X86226075Y-44913374D01*
X86103045Y-44995579D01*
X86103046Y-44995580D01*
X86062218Y-45022859D01*
X86062215Y-45022862D01*
X82529992Y-48555087D01*
X81362220Y-49722859D01*
X81362218Y-49722861D01*
X81294677Y-49790402D01*
X81222859Y-49862219D01*
X81113371Y-50026079D01*
X81113366Y-50026088D01*
X81062518Y-50148849D01*
X81037950Y-50208159D01*
X81036180Y-50213996D01*
X81033663Y-50213232D01*
X81006507Y-50265045D01*
X81005027Y-50266550D01*
X74864386Y-56407193D01*
X72864471Y-58407108D01*
X72864469Y-58407110D01*
X72634540Y-58637038D01*
X72566331Y-58705247D01*
X72505008Y-58738731D01*
X72435316Y-58733747D01*
X72409762Y-58720669D01*
X72380344Y-58701012D01*
X72364413Y-58690367D01*
X72300039Y-58663703D01*
X72235665Y-58637038D01*
X72182336Y-58614949D01*
X72182332Y-58614948D01*
X72182328Y-58614946D01*
X72085688Y-58595724D01*
X71989044Y-58576500D01*
X71989041Y-58576500D01*
X66770984Y-58576500D01*
X66573903Y-58576500D01*
X66573900Y-58576500D01*
X66380615Y-58614946D01*
X66380611Y-58614948D01*
X66380609Y-58614948D01*
X66380608Y-58614949D01*
X66305189Y-58646188D01*
X66305187Y-58646189D01*
X66198533Y-58690366D01*
X66198523Y-58690371D01*
X66034663Y-58799859D01*
X65964984Y-58869538D01*
X65895305Y-58939218D01*
X65895303Y-58939219D01*
X65895303Y-58939220D01*
X65866611Y-58967913D01*
X65866610Y-58967914D01*
X65757122Y-59131773D01*
X65757117Y-59131783D01*
X65681699Y-59313857D01*
X65681697Y-59313865D01*
X65643250Y-59507149D01*
X65643250Y-59704238D01*
X65681697Y-59897522D01*
X65681699Y-59897530D01*
X65757117Y-60079604D01*
X65757122Y-60079614D01*
X65866610Y-60243474D01*
X65866613Y-60243478D01*
X66005965Y-60382830D01*
X66005969Y-60382833D01*
X66169829Y-60492321D01*
X66169833Y-60492323D01*
X66169836Y-60492325D01*
X66351914Y-60567745D01*
X66496083Y-60596422D01*
X66545205Y-60606193D01*
X66545208Y-60606194D01*
X66545210Y-60606194D01*
X66742292Y-60606194D01*
X66833835Y-60587984D01*
X66874564Y-60579882D01*
X66898755Y-60577500D01*
X70861218Y-60577500D01*
X70890658Y-60586144D01*
X70920645Y-60592668D01*
X70925660Y-60596422D01*
X70928257Y-60597185D01*
X70948899Y-60613819D01*
X71094735Y-60759655D01*
X71094764Y-60759686D01*
X71237217Y-60902139D01*
X71383267Y-60999726D01*
X71401086Y-61011632D01*
X71422952Y-61020689D01*
X71477355Y-61064529D01*
X71499421Y-61130823D01*
X71499500Y-61135250D01*
X71499500Y-74784218D01*
X71479815Y-74851257D01*
X71463181Y-74871899D01*
X71030899Y-75304181D01*
X70969576Y-75337666D01*
X70943218Y-75340500D01*
X66535488Y-75340500D01*
X66342203Y-75378946D01*
X66342199Y-75378948D01*
X66342197Y-75378948D01*
X66342196Y-75378949D01*
X66266777Y-75410188D01*
X66266775Y-75410189D01*
X66160121Y-75454366D01*
X66160111Y-75454371D01*
X65996251Y-75563859D01*
X65926572Y-75633538D01*
X65856893Y-75703218D01*
X65856891Y-75703220D01*
X65856886Y-75703224D01*
X65842197Y-75717915D01*
X65842195Y-75717917D01*
X65732710Y-75881773D01*
X65732705Y-75881783D01*
X65657287Y-76063857D01*
X65657285Y-76063865D01*
X65618838Y-76257149D01*
X65618838Y-76454238D01*
X65657285Y-76647522D01*
X65657287Y-76647530D01*
X65732705Y-76829604D01*
X65732710Y-76829614D01*
X65842198Y-76993474D01*
X65842201Y-76993478D01*
X65981553Y-77132830D01*
X65981557Y-77132833D01*
X66145417Y-77242321D01*
X66145421Y-77242323D01*
X66145424Y-77242325D01*
X66327502Y-77317745D01*
X66520793Y-77356193D01*
X66520796Y-77356194D01*
X66520798Y-77356194D01*
X66717879Y-77356194D01*
X66717879Y-77356193D01*
X66779770Y-77343882D01*
X66803961Y-77341500D01*
X70125500Y-77341500D01*
X70192539Y-77361185D01*
X70238294Y-77413989D01*
X70249500Y-77465500D01*
X70249500Y-78147459D01*
X70249500Y-81098541D01*
X70249500Y-81098543D01*
X70249499Y-81098543D01*
X70287947Y-81291829D01*
X70287950Y-81291839D01*
X70363364Y-81473907D01*
X70363371Y-81473920D01*
X70472860Y-81637781D01*
X70472863Y-81637785D01*
X70616535Y-81781457D01*
X70616559Y-81781479D01*
X71463181Y-82628101D01*
X71496666Y-82689424D01*
X71499500Y-82715782D01*
X71499500Y-91284217D01*
X71479815Y-91351256D01*
X71463180Y-91371898D01*
X71112204Y-91722876D01*
X70766899Y-92068181D01*
X70705576Y-92101666D01*
X70679218Y-92104500D01*
X66521488Y-92104500D01*
X66328203Y-92142947D01*
X66328195Y-92142949D01*
X66254355Y-92173535D01*
X66254354Y-92173535D01*
X66146124Y-92218364D01*
X66146111Y-92218371D01*
X65982250Y-92327860D01*
X65982246Y-92327863D01*
X65847197Y-92462913D01*
X65847065Y-92463033D01*
X65842199Y-92467913D01*
X65842194Y-92467919D01*
X65732710Y-92631773D01*
X65732705Y-92631783D01*
X65657287Y-92813857D01*
X65657285Y-92813865D01*
X65618838Y-93007149D01*
X65618838Y-93204238D01*
X65657285Y-93397522D01*
X65657287Y-93397530D01*
X65732705Y-93579604D01*
X65732710Y-93579614D01*
X65842198Y-93743474D01*
X65842201Y-93743478D01*
X65981553Y-93882830D01*
X65981557Y-93882833D01*
X66145417Y-93992321D01*
X66145421Y-93992323D01*
X66145424Y-93992325D01*
X66327502Y-94067745D01*
X66517309Y-94105500D01*
X66520793Y-94106193D01*
X66520796Y-94106194D01*
X66520798Y-94106194D01*
X66717879Y-94106194D01*
X66718864Y-94106097D01*
X66731017Y-94105500D01*
X70125500Y-94105500D01*
X70192539Y-94125185D01*
X70238294Y-94177989D01*
X70249500Y-94229500D01*
X70249500Y-98348544D01*
X70287947Y-98541828D01*
X70287950Y-98541840D01*
X70293809Y-98555984D01*
X70363366Y-98723911D01*
X70363371Y-98723920D01*
X70472859Y-98887780D01*
X70472860Y-98887781D01*
X70472861Y-98887782D01*
X70612218Y-99027139D01*
X70612219Y-99027139D01*
X70619286Y-99034206D01*
X70619285Y-99034206D01*
X70619289Y-99034209D01*
X71154044Y-99568965D01*
X71187529Y-99630288D01*
X71187980Y-99680835D01*
X71181872Y-99711552D01*
X71180000Y-99720961D01*
X71180000Y-107579716D01*
X71171356Y-107609150D01*
X71164834Y-107639140D01*
X71161077Y-107644158D01*
X71160315Y-107646755D01*
X71143683Y-107667395D01*
X71121900Y-107689179D01*
X71060578Y-107722666D01*
X71034217Y-107725500D01*
X69103707Y-107725500D01*
X69103687Y-107725499D01*
X69097573Y-107725499D01*
X68900492Y-107725499D01*
X68900489Y-107725499D01*
X68707204Y-107763946D01*
X68707196Y-107763948D01*
X68525120Y-107839366D01*
X68525111Y-107839371D01*
X68361251Y-107948859D01*
X68361247Y-107948862D01*
X67665985Y-108644127D01*
X67491237Y-108818875D01*
X67429914Y-108852360D01*
X67403556Y-108855194D01*
X66520795Y-108855194D01*
X66327508Y-108893641D01*
X66327498Y-108893644D01*
X66145430Y-108969058D01*
X66145417Y-108969065D01*
X65981556Y-109078554D01*
X65981552Y-109078557D01*
X65842201Y-109217908D01*
X65842198Y-109217912D01*
X65732709Y-109381773D01*
X65732702Y-109381786D01*
X65657288Y-109563854D01*
X65657285Y-109563864D01*
X65618838Y-109757150D01*
X65618838Y-109757153D01*
X65618838Y-109954235D01*
X65618838Y-109954237D01*
X65618837Y-109954237D01*
X64125500Y-109954237D01*
X64125500Y-106629500D01*
X64145185Y-106562461D01*
X64197989Y-106516706D01*
X64249500Y-106505500D01*
X67249968Y-106505500D01*
X67250000Y-106505500D01*
X67262380Y-106505348D01*
X67360634Y-106502941D01*
X67446872Y-106493380D01*
X67446889Y-106493376D01*
X67446893Y-106493376D01*
X67639584Y-106455048D01*
X67639595Y-106455045D01*
X67639595Y-106455044D01*
X67639605Y-106455043D01*
X67734435Y-106426277D01*
X67915985Y-106351076D01*
X68003377Y-106304363D01*
X68166768Y-106195189D01*
X68243370Y-106132323D01*
X68382323Y-105993370D01*
X68445189Y-105916768D01*
X68554363Y-105753377D01*
X68601076Y-105665985D01*
X68676277Y-105484435D01*
X68705043Y-105389605D01*
X68705045Y-105389595D01*
X68705048Y-105389584D01*
X68743376Y-105196893D01*
X68743376Y-105196889D01*
X68743380Y-105196872D01*
X68752941Y-105110634D01*
X68755348Y-105012380D01*
X68755500Y-105000000D01*
X68755500Y-103500000D01*
X68755348Y-103487620D01*
X68752941Y-103389366D01*
X68743380Y-103303128D01*
X68743376Y-103303106D01*
X68705048Y-103110415D01*
X68705045Y-103110404D01*
X68705044Y-103110401D01*
X68705043Y-103110395D01*
X68676277Y-103015565D01*
X68601076Y-102834015D01*
X68554363Y-102746623D01*
X68468423Y-102618004D01*
X68445201Y-102583249D01*
X68445194Y-102583239D01*
X68445189Y-102583232D01*
X68382323Y-102506630D01*
X68382322Y-102506629D01*
X68382318Y-102506624D01*
X68243375Y-102367681D01*
X68166773Y-102304815D01*
X68166750Y-102304798D01*
X68003393Y-102195647D01*
X68003385Y-102195642D01*
X68003377Y-102195637D01*
X67951725Y-102168028D01*
X67915984Y-102148923D01*
X67915979Y-102148921D01*
X67734440Y-102073724D01*
X67639595Y-102044954D01*
X67639584Y-102044951D01*
X67446893Y-102006623D01*
X67446865Y-102006619D01*
X67425146Y-102004211D01*
X67360634Y-101997059D01*
X67360626Y-101997058D01*
X67360620Y-101997058D01*
X67262396Y-101994652D01*
X67258253Y-101994601D01*
X67250000Y-101994500D01*
X67249968Y-101994500D01*
X64249500Y-101994500D01*
X64182461Y-101974815D01*
X64136706Y-101922011D01*
X64125500Y-101870500D01*
X64125500Y-90129500D01*
X64145185Y-90062461D01*
X64197989Y-90016706D01*
X64249500Y-90005500D01*
X67249968Y-90005500D01*
X67250000Y-90005500D01*
X67262380Y-90005348D01*
X67360634Y-90002941D01*
X67446872Y-89993380D01*
X67446889Y-89993376D01*
X67446893Y-89993376D01*
X67639584Y-89955048D01*
X67639595Y-89955045D01*
X67639595Y-89955044D01*
X67639605Y-89955043D01*
X67734435Y-89926277D01*
X67915985Y-89851076D01*
X68003377Y-89804363D01*
X68166768Y-89695189D01*
X68243370Y-89632323D01*
X68382323Y-89493370D01*
X68445189Y-89416768D01*
X68554363Y-89253377D01*
X68601076Y-89165985D01*
X68676277Y-88984435D01*
X68705043Y-88889605D01*
X68705045Y-88889595D01*
X68705048Y-88889584D01*
X68743376Y-88696893D01*
X68743376Y-88696889D01*
X68743380Y-88696872D01*
X68752941Y-88610634D01*
X68755348Y-88512380D01*
X68755500Y-88500000D01*
X68755500Y-87000000D01*
X68755348Y-86987620D01*
X68752941Y-86889366D01*
X68743380Y-86803128D01*
X68743376Y-86803106D01*
X68705048Y-86610415D01*
X68705045Y-86610404D01*
X68705044Y-86610401D01*
X68705043Y-86610395D01*
X68676277Y-86515565D01*
X68601076Y-86334015D01*
X68554363Y-86246623D01*
X68485400Y-86143412D01*
X68445201Y-86083249D01*
X68445194Y-86083239D01*
X68445189Y-86083232D01*
X68382323Y-86006630D01*
X68382322Y-86006629D01*
X68382318Y-86006624D01*
X68243375Y-85867681D01*
X68166773Y-85804815D01*
X68166750Y-85804798D01*
X68003393Y-85695647D01*
X68003385Y-85695642D01*
X68003377Y-85695637D01*
X67951725Y-85668028D01*
X67915984Y-85648923D01*
X67915979Y-85648921D01*
X67734440Y-85573724D01*
X67639595Y-85544954D01*
X67639584Y-85544951D01*
X67446893Y-85506623D01*
X67446865Y-85506619D01*
X67425146Y-85504211D01*
X67360634Y-85497059D01*
X67360626Y-85497058D01*
X67360620Y-85497058D01*
X67262396Y-85494652D01*
X67258253Y-85494601D01*
X67250000Y-85494500D01*
X67249968Y-85494500D01*
X64249500Y-85494500D01*
X64182461Y-85474815D01*
X64136706Y-85422011D01*
X64125500Y-85370500D01*
X64125500Y-73379500D01*
X64145185Y-73312461D01*
X64197989Y-73266706D01*
X64249500Y-73255500D01*
X67249968Y-73255500D01*
X67250000Y-73255500D01*
X67262380Y-73255348D01*
X67360634Y-73252941D01*
X67446872Y-73243380D01*
X67446889Y-73243376D01*
X67446893Y-73243376D01*
X67639584Y-73205048D01*
X67639595Y-73205045D01*
X67639595Y-73205044D01*
X67639605Y-73205043D01*
X67734435Y-73176277D01*
X67915985Y-73101076D01*
X68003377Y-73054363D01*
X68166768Y-72945189D01*
X68243370Y-72882323D01*
X68382323Y-72743370D01*
X68445189Y-72666768D01*
X68554363Y-72503377D01*
X68601076Y-72415985D01*
X68676277Y-72234435D01*
X68705043Y-72139605D01*
X68705045Y-72139595D01*
X68705048Y-72139584D01*
X68743376Y-71946893D01*
X68743376Y-71946889D01*
X68743380Y-71946872D01*
X68752941Y-71860634D01*
X68755348Y-71762380D01*
X68755500Y-71750000D01*
X68755500Y-70250000D01*
X68755348Y-70237620D01*
X68752941Y-70139366D01*
X68743380Y-70053128D01*
X68743376Y-70053106D01*
X68705048Y-69860415D01*
X68705045Y-69860404D01*
X68705044Y-69860401D01*
X68705043Y-69860395D01*
X68676277Y-69765565D01*
X68601076Y-69584015D01*
X68554363Y-69496623D01*
X68475890Y-69379179D01*
X68445201Y-69333249D01*
X68445194Y-69333239D01*
X68445189Y-69333232D01*
X68382323Y-69256630D01*
X68382322Y-69256629D01*
X68382318Y-69256624D01*
X68243375Y-69117681D01*
X68166773Y-69054815D01*
X68166750Y-69054798D01*
X68003393Y-68945647D01*
X68003385Y-68945642D01*
X68003377Y-68945637D01*
X67951725Y-68918028D01*
X67915984Y-68898923D01*
X67915979Y-68898921D01*
X67734440Y-68823724D01*
X67639595Y-68794954D01*
X67639584Y-68794951D01*
X67446893Y-68756623D01*
X67446865Y-68756619D01*
X67425146Y-68754211D01*
X67360634Y-68747059D01*
X67360626Y-68747058D01*
X67360620Y-68747058D01*
X67262396Y-68744652D01*
X67258253Y-68744601D01*
X67250000Y-68744500D01*
X67249968Y-68744500D01*
X64249500Y-68744500D01*
X64182461Y-68724815D01*
X64136706Y-68672011D01*
X64125500Y-68620500D01*
X64125500Y-64891746D01*
X64107673Y-64779191D01*
X64107673Y-64779190D01*
X64091631Y-64677906D01*
X64091631Y-64677903D01*
X64024726Y-64471991D01*
X64024724Y-64471988D01*
X64024724Y-64471986D01*
X63989064Y-64402000D01*
X63926433Y-64279081D01*
X63875230Y-64208606D01*
X63799178Y-64103928D01*
X63799174Y-64103923D01*
X61146076Y-61450825D01*
X61146071Y-61450821D01*
X60970922Y-61323569D01*
X60970921Y-61323568D01*
X60970919Y-61323567D01*
X60909115Y-61292076D01*
X60778009Y-61225273D01*
X60778006Y-61225272D01*
X60572098Y-61158370D01*
X60465175Y-61141435D01*
X60358254Y-61124500D01*
X60358253Y-61124500D01*
X55012150Y-61124500D01*
X54945111Y-61104815D01*
X54936664Y-61098876D01*
X54807449Y-60999726D01*
X54603056Y-60881719D01*
X54603045Y-60881714D01*
X54384993Y-60791394D01*
X54278197Y-60762778D01*
X54157014Y-60730307D01*
X54157013Y-60730306D01*
X54157010Y-60730306D01*
X53923020Y-60699501D01*
X53923017Y-60699500D01*
X53923011Y-60699500D01*
X53686989Y-60699500D01*
X53686983Y-60699500D01*
X53686979Y-60699501D01*
X53452989Y-60730306D01*
X53225006Y-60791394D01*
X53006954Y-60881714D01*
X53006943Y-60881719D01*
X52802545Y-60999730D01*
X52615302Y-61143406D01*
X52615295Y-61143412D01*
X52448412Y-61310295D01*
X52448406Y-61310302D01*
X52304730Y-61497545D01*
X52186719Y-61701943D01*
X52186714Y-61701954D01*
X52096394Y-61920006D01*
X52035306Y-62147989D01*
X52004501Y-62381979D01*
X52004500Y-62381995D01*
X50500500Y-62381995D01*
X50500500Y-49790402D01*
X55199500Y-49790402D01*
X55199500Y-50209597D01*
X55236035Y-50627190D01*
X55236035Y-50627194D01*
X55308824Y-51039998D01*
X55308828Y-51040015D01*
X55417316Y-51444902D01*
X55417319Y-51444912D01*
X55417320Y-51444913D01*
X55560691Y-51838822D01*
X55560694Y-51838829D01*
X55560695Y-51838831D01*
X55560698Y-51838839D01*
X55737843Y-52218726D01*
X55737851Y-52218742D01*
X55885169Y-52473904D01*
X55947443Y-52581764D01*
X55947447Y-52581770D01*
X55947454Y-52581781D01*
X56187879Y-52925144D01*
X56244022Y-52992052D01*
X56457329Y-53246260D01*
X56753740Y-53542671D01*
X56887255Y-53654704D01*
X57074855Y-53812120D01*
X57418218Y-54052545D01*
X57418225Y-54052549D01*
X57418236Y-54052557D01*
X57781264Y-54262152D01*
X57781273Y-54262156D01*
X58161160Y-54439301D01*
X58161164Y-54439302D01*
X58161178Y-54439309D01*
X58555087Y-54582680D01*
X58555093Y-54582681D01*
X58555097Y-54582683D01*
X58665359Y-54612227D01*
X58959992Y-54691174D01*
X59372812Y-54763965D01*
X59790404Y-54800499D01*
X59790405Y-54800500D01*
X59790406Y-54800500D01*
X60209595Y-54800500D01*
X60209595Y-54800499D01*
X60627188Y-54763965D01*
X61040008Y-54691174D01*
X61444913Y-54582680D01*
X61838822Y-54439309D01*
X62218736Y-54262152D01*
X62581764Y-54052557D01*
X62925143Y-53812121D01*
X63246260Y-53542671D01*
X63542671Y-53246260D01*
X63812121Y-52925143D01*
X64052557Y-52581764D01*
X64262152Y-52218736D01*
X64439309Y-51838822D01*
X64582680Y-51444913D01*
X64691174Y-51040008D01*
X64763965Y-50627188D01*
X64800500Y-50209594D01*
X64800500Y-49790406D01*
X64763965Y-49372812D01*
X64691174Y-48959992D01*
X64582680Y-48555087D01*
X64439309Y-48161178D01*
X64262152Y-47781264D01*
X64052557Y-47418236D01*
X64052549Y-47418225D01*
X64052545Y-47418218D01*
X63812120Y-47074855D01*
X63542668Y-46753737D01*
X63246262Y-46457331D01*
X62925144Y-46187879D01*
X62581781Y-45947454D01*
X62581770Y-45947447D01*
X62581764Y-45947443D01*
X62473904Y-45885169D01*
X62218742Y-45737851D01*
X62218726Y-45737843D01*
X61838839Y-45560698D01*
X61838831Y-45560695D01*
X61838829Y-45560694D01*
X61838822Y-45560691D01*
X61444913Y-45417320D01*
X61444912Y-45417319D01*
X61444902Y-45417316D01*
X61040015Y-45308828D01*
X61040018Y-45308828D01*
X61040008Y-45308826D01*
X61040002Y-45308824D01*
X61039998Y-45308824D01*
X60627192Y-45236035D01*
X60209597Y-45199500D01*
X60209594Y-45199500D01*
X59790406Y-45199500D01*
X59790402Y-45199500D01*
X59372809Y-45236035D01*
X59372805Y-45236035D01*
X58960001Y-45308824D01*
X58959984Y-45308828D01*
X58555097Y-45417316D01*
X58379490Y-45481232D01*
X58161178Y-45560691D01*
X58161174Y-45560692D01*
X58161168Y-45560695D01*
X58161160Y-45560698D01*
X57781273Y-45737843D01*
X57781257Y-45737851D01*
X57418244Y-45947438D01*
X57418218Y-45947454D01*
X57074855Y-46187879D01*
X56753737Y-46457331D01*
X56457331Y-46753737D01*
X56187879Y-47074855D01*
X55947454Y-47418218D01*
X55947438Y-47418244D01*
X55737851Y-47781257D01*
X55737843Y-47781273D01*
X55560698Y-48161160D01*
X55560695Y-48161168D01*
X55417316Y-48555097D01*
X55308828Y-48959984D01*
X55308824Y-48960001D01*
X55236035Y-49372805D01*
X55236035Y-49372809D01*
X55199500Y-49790402D01*
X50500500Y-49790402D01*
X50500500Y-40624500D01*
X50520185Y-40557461D01*
X50572989Y-40511706D01*
X50624500Y-40500500D01*
X100986774Y-40500500D01*
X101053813Y-40520185D01*
G37*
%TD.AperFunction*%
%TA.AperFunction,Conductor*%
G36*
X131817539Y-117302685D02*
G01*
X131863294Y-117355489D01*
X131874500Y-117407000D01*
X131874500Y-120624530D01*
X131854815Y-120691569D01*
X131802011Y-120737324D01*
X131732853Y-120747268D01*
X131669297Y-120718243D01*
X131646331Y-120690432D01*
X131645856Y-120690750D01*
X131643601Y-120687375D01*
X131491939Y-120489725D01*
X131491933Y-120489718D01*
X131315781Y-120313566D01*
X131315774Y-120313560D01*
X131118126Y-120161900D01*
X130902376Y-120037337D01*
X130902361Y-120037330D01*
X130672207Y-119941998D01*
X130431561Y-119877517D01*
X130184575Y-119845001D01*
X130184570Y-119845000D01*
X130184565Y-119845000D01*
X129935435Y-119845000D01*
X129935429Y-119845000D01*
X129935424Y-119845001D01*
X129688438Y-119877517D01*
X129447792Y-119941998D01*
X129217638Y-120037330D01*
X129217623Y-120037337D01*
X129001873Y-120161900D01*
X128804225Y-120313560D01*
X128804218Y-120313566D01*
X128628066Y-120489718D01*
X128628060Y-120489725D01*
X128476400Y-120687373D01*
X128351837Y-120903123D01*
X128351830Y-120903138D01*
X128256498Y-121133292D01*
X128192017Y-121373938D01*
X128159501Y-121620924D01*
X128159500Y-121620941D01*
X128159500Y-121870058D01*
X128159501Y-121870075D01*
X128192017Y-122117061D01*
X128256498Y-122357707D01*
X128351830Y-122587861D01*
X128351837Y-122587876D01*
X128476400Y-122803626D01*
X128628060Y-123001274D01*
X128628066Y-123001281D01*
X128804218Y-123177433D01*
X128804225Y-123177439D01*
X129001873Y-123329099D01*
X129217623Y-123453662D01*
X129217638Y-123453669D01*
X129313500Y-123493376D01*
X129447793Y-123549002D01*
X129688435Y-123613482D01*
X129935435Y-123646000D01*
X129935442Y-123646000D01*
X130184558Y-123646000D01*
X130184565Y-123646000D01*
X130431565Y-123613482D01*
X130672207Y-123549002D01*
X130902373Y-123453664D01*
X131118127Y-123329099D01*
X131315776Y-123177438D01*
X131491938Y-123001276D01*
X131643599Y-122803627D01*
X131643601Y-122803624D01*
X131645856Y-122800250D01*
X131646846Y-122800911D01*
X131693672Y-122756258D01*
X131762278Y-122743030D01*
X131827145Y-122768993D01*
X131867677Y-122825904D01*
X131874500Y-122866469D01*
X131874500Y-127194006D01*
X131854815Y-127261045D01*
X131802011Y-127306800D01*
X131732853Y-127316744D01*
X131669297Y-127287719D01*
X131640015Y-127250301D01*
X131601861Y-127175422D01*
X131541433Y-127056825D01*
X131519095Y-127026079D01*
X131414178Y-126881672D01*
X131414174Y-126881667D01*
X125362819Y-120830312D01*
X125329334Y-120768989D01*
X125326500Y-120742631D01*
X125326500Y-120274956D01*
X125346185Y-120207917D01*
X125398989Y-120162162D01*
X125468147Y-120152218D01*
X125469898Y-120152483D01*
X125643630Y-120180000D01*
X125643631Y-120180000D01*
X125836369Y-120180000D01*
X125836370Y-120180000D01*
X126026738Y-120149848D01*
X126026741Y-120149847D01*
X126026742Y-120149847D01*
X126210042Y-120090289D01*
X126210042Y-120090288D01*
X126210045Y-120090288D01*
X126381778Y-120002786D01*
X126537708Y-119889496D01*
X126673996Y-119753208D01*
X126787286Y-119597278D01*
X126874788Y-119425545D01*
X126888218Y-119384212D01*
X126934347Y-119242242D01*
X126934347Y-119242241D01*
X126934348Y-119242238D01*
X126942593Y-119190180D01*
X126972522Y-119127047D01*
X127031833Y-119090115D01*
X127101696Y-119091113D01*
X127103330Y-119091630D01*
X127178337Y-119116001D01*
X127233261Y-119133848D01*
X127313975Y-119146632D01*
X127423630Y-119164000D01*
X127423631Y-119164000D01*
X127616369Y-119164000D01*
X127616370Y-119164000D01*
X127806738Y-119133848D01*
X127806741Y-119133847D01*
X127806742Y-119133847D01*
X127990042Y-119074289D01*
X127990042Y-119074288D01*
X127990045Y-119074288D01*
X128161778Y-118986786D01*
X128317708Y-118873496D01*
X128453996Y-118737208D01*
X128567286Y-118581278D01*
X128654788Y-118409545D01*
X128696800Y-118280245D01*
X128714347Y-118226242D01*
X128714347Y-118226241D01*
X128714348Y-118226238D01*
X128744500Y-118035870D01*
X128744500Y-117843130D01*
X128714348Y-117652762D01*
X128714347Y-117652758D01*
X128714347Y-117652757D01*
X128654790Y-117469459D01*
X128651651Y-117463299D01*
X128638753Y-117394630D01*
X128665027Y-117329889D01*
X128722132Y-117289630D01*
X128762134Y-117283000D01*
X131750500Y-117283000D01*
X131817539Y-117302685D01*
G37*
%TD.AperFunction*%
%TA.AperFunction,Conductor*%
G36*
X126764139Y-104015577D02*
G01*
X126808487Y-104044078D01*
X130073181Y-107308772D01*
X130106666Y-107370095D01*
X130109500Y-107396453D01*
X130109500Y-110095184D01*
X130100061Y-110142636D01*
X130040264Y-110286998D01*
X130040261Y-110287010D01*
X130009500Y-110441653D01*
X130009500Y-110599346D01*
X130040261Y-110753989D01*
X130040264Y-110754001D01*
X130100602Y-110899672D01*
X130100609Y-110899685D01*
X130188210Y-111030788D01*
X130188213Y-111030792D01*
X130299707Y-111142286D01*
X130299711Y-111142289D01*
X130430814Y-111229890D01*
X130430827Y-111229897D01*
X130576498Y-111290235D01*
X130576503Y-111290237D01*
X130655730Y-111305996D01*
X130699691Y-111314741D01*
X130761602Y-111347126D01*
X130796176Y-111407841D01*
X130799500Y-111436358D01*
X130799500Y-112488980D01*
X130779815Y-112556019D01*
X130763181Y-112576661D01*
X129865412Y-113474429D01*
X129825184Y-113501309D01*
X129680823Y-113561104D01*
X129680814Y-113561109D01*
X129549711Y-113648710D01*
X129549707Y-113648713D01*
X129438213Y-113760207D01*
X129438210Y-113760211D01*
X129350609Y-113891314D01*
X129350602Y-113891327D01*
X129290264Y-114036998D01*
X129290261Y-114037010D01*
X129259500Y-114191653D01*
X129259500Y-114349346D01*
X129266355Y-114383809D01*
X129260128Y-114453401D01*
X129217264Y-114508578D01*
X129151374Y-114531822D01*
X129144738Y-114532000D01*
X128761574Y-114532000D01*
X128694535Y-114512315D01*
X128648780Y-114459511D01*
X128638836Y-114390353D01*
X128651088Y-114351708D01*
X128654322Y-114345359D01*
X128713861Y-114162118D01*
X128744000Y-113971830D01*
X128744000Y-113779169D01*
X128713861Y-113588881D01*
X128654323Y-113405644D01*
X128566857Y-113233982D01*
X128566851Y-113233973D01*
X128545065Y-113203987D01*
X128545064Y-113203986D01*
X127978467Y-113770583D01*
X127957971Y-113694087D01*
X127896094Y-113586913D01*
X127808587Y-113499406D01*
X127701413Y-113437529D01*
X127624914Y-113417031D01*
X128126241Y-112915704D01*
X128157633Y-112892897D01*
X128161778Y-112890786D01*
X128317708Y-112777496D01*
X128453996Y-112641208D01*
X128567286Y-112485278D01*
X128654788Y-112313545D01*
X128656114Y-112309463D01*
X128714347Y-112130242D01*
X128714347Y-112130241D01*
X128714348Y-112130238D01*
X128744500Y-111939870D01*
X128744500Y-111747130D01*
X128714348Y-111556762D01*
X128714347Y-111556758D01*
X128714347Y-111556757D01*
X128654789Y-111373457D01*
X128622610Y-111310302D01*
X128567286Y-111201722D01*
X128453996Y-111045792D01*
X128317708Y-110909504D01*
X128161778Y-110796214D01*
X128091271Y-110760289D01*
X128031206Y-110729684D01*
X127980410Y-110681709D01*
X127963501Y-110619199D01*
X127963501Y-110180295D01*
X127972145Y-110150854D01*
X127978669Y-110120868D01*
X127982423Y-110115852D01*
X127983186Y-110113256D01*
X127999820Y-110092614D01*
X128040232Y-110052202D01*
X128101555Y-110018717D01*
X128152104Y-110018266D01*
X128186263Y-110025060D01*
X128216603Y-110031096D01*
X128216604Y-110031096D01*
X128374290Y-110031096D01*
X128374291Y-110031095D01*
X128528943Y-110000333D01*
X128674625Y-109939990D01*
X128805735Y-109852385D01*
X128917235Y-109740885D01*
X129004840Y-109609775D01*
X129065183Y-109464093D01*
X129095946Y-109309438D01*
X129095946Y-109151754D01*
X129095946Y-109151751D01*
X129095945Y-109151749D01*
X129065183Y-108997099D01*
X129022331Y-108893644D01*
X129004843Y-108851423D01*
X129004836Y-108851410D01*
X128917235Y-108720307D01*
X128917232Y-108720303D01*
X128805738Y-108608809D01*
X128805734Y-108608806D01*
X128674631Y-108521205D01*
X128674618Y-108521198D01*
X128530574Y-108461534D01*
X128476170Y-108417693D01*
X128463465Y-108394425D01*
X128403801Y-108250381D01*
X128403794Y-108250368D01*
X128316193Y-108119265D01*
X128316190Y-108119261D01*
X128204696Y-108007767D01*
X128204692Y-108007764D01*
X128073589Y-107920163D01*
X128073576Y-107920156D01*
X127927905Y-107859818D01*
X127927893Y-107859815D01*
X127773249Y-107829054D01*
X127773246Y-107829054D01*
X127615562Y-107829054D01*
X127615559Y-107829054D01*
X127460914Y-107859815D01*
X127460902Y-107859818D01*
X127315231Y-107920156D01*
X127315218Y-107920163D01*
X127184115Y-108007764D01*
X127184111Y-108007767D01*
X127072617Y-108119261D01*
X127072614Y-108119265D01*
X126985013Y-108250368D01*
X126985006Y-108250381D01*
X126924668Y-108396052D01*
X126924665Y-108396064D01*
X126893904Y-108550707D01*
X126893904Y-108708400D01*
X126906733Y-108772895D01*
X126900506Y-108842487D01*
X126872797Y-108884767D01*
X126547681Y-109209883D01*
X126547675Y-109209889D01*
X126544285Y-109213280D01*
X126544283Y-109213282D01*
X126432479Y-109325086D01*
X126403951Y-109374499D01*
X126398215Y-109384433D01*
X126398213Y-109384436D01*
X126353423Y-109462015D01*
X126353422Y-109462017D01*
X126312498Y-109614745D01*
X126312498Y-109614747D01*
X126312498Y-109782848D01*
X126312499Y-109782861D01*
X126312499Y-110802786D01*
X126292814Y-110869825D01*
X126276180Y-110890467D01*
X126069481Y-111097165D01*
X126069479Y-111097167D01*
X126050714Y-111129669D01*
X126042783Y-111143408D01*
X125990423Y-111234098D01*
X125949499Y-111386826D01*
X125949499Y-111386828D01*
X125949499Y-111511000D01*
X125929814Y-111578039D01*
X125877010Y-111623794D01*
X125825499Y-111635000D01*
X125643630Y-111635000D01*
X125469897Y-111662516D01*
X125400604Y-111653561D01*
X125347152Y-111608565D01*
X125326513Y-111541813D01*
X125326500Y-111540043D01*
X125326500Y-104524956D01*
X125346185Y-104457917D01*
X125398989Y-104412162D01*
X125468147Y-104402218D01*
X125469898Y-104402483D01*
X125643630Y-104430000D01*
X125643631Y-104430000D01*
X125836369Y-104430000D01*
X125836370Y-104430000D01*
X126026738Y-104399848D01*
X126026741Y-104399847D01*
X126026742Y-104399847D01*
X126210042Y-104340289D01*
X126210042Y-104340288D01*
X126210045Y-104340288D01*
X126381778Y-104252786D01*
X126537708Y-104139496D01*
X126633128Y-104044075D01*
X126694447Y-104010593D01*
X126764139Y-104015577D01*
G37*
%TD.AperFunction*%
%TD*%
M02*
