%TF.GenerationSoftware,KiCad,Pcbnew,9.0.1-9.0.1-0~ubuntu24.04.1*%
%TF.CreationDate,2025-04-05T03:16:36-04:00*%
%TF.ProjectId,Pico_LCC,5069636f-5f4c-4434-932e-6b696361645f,4*%
%TF.SameCoordinates,Original*%
%TF.FileFunction,Copper,L2,Bot*%
%TF.FilePolarity,Positive*%
%FSLAX46Y46*%
G04 Gerber Fmt 4.6, Leading zero omitted, Abs format (unit mm)*
G04 Created by KiCad (PCBNEW 9.0.1-9.0.1-0~ubuntu24.04.1) date 2025-04-05 03:16:36*
%MOMM*%
%LPD*%
G01*
G04 APERTURE LIST*
%TA.AperFunction,Conductor*%
%ADD10C,0.000000*%
%TD*%
%TA.AperFunction,ComponentPad*%
%ADD11C,1.448000*%
%TD*%
%TA.AperFunction,ComponentPad*%
%ADD12C,0.900000*%
%TD*%
%TA.AperFunction,ComponentPad*%
%ADD13C,8.600000*%
%TD*%
%TA.AperFunction,ComponentPad*%
%ADD14R,2.600000X2.600000*%
%TD*%
%TA.AperFunction,ComponentPad*%
%ADD15C,2.600000*%
%TD*%
%TA.AperFunction,ViaPad*%
%ADD16C,0.600000*%
%TD*%
%TA.AperFunction,Conductor*%
%ADD17C,1.000000*%
%TD*%
%TA.AperFunction,Conductor*%
%ADD18C,0.400000*%
%TD*%
%TA.AperFunction,Conductor*%
%ADD19C,1.750000*%
%TD*%
%TA.AperFunction,Conductor*%
%ADD20C,0.200000*%
%TD*%
G04 APERTURE END LIST*
D10*
%TA.AperFunction,Conductor*%
%TO.N,VTRACK*%
G36*
X42250000Y-54250000D02*
G01*
X42250000Y-54250000D01*
G75*
G02*
X43250000Y-55250000I0J-1000000D01*
G01*
X43250000Y-56750000D01*
G75*
G02*
X42250000Y-57750000I-1000000J0D01*
G01*
X38000000Y-57750000D01*
G75*
G02*
X37000000Y-56750000I0J1000000D01*
G01*
X37000000Y-55250000D01*
G75*
G02*
X38000000Y-54250000I1000000J0D01*
G01*
X42250000Y-54250000D01*
G37*
%TD.AperFunction*%
%TA.AperFunction,Conductor*%
G36*
X42250000Y-71000000D02*
G01*
X42250000Y-71000000D01*
G75*
G02*
X43250000Y-72000000I0J-1000000D01*
G01*
X43250000Y-73500000D01*
G75*
G02*
X42250000Y-74500000I-1000000J0D01*
G01*
X38000000Y-74500000D01*
G75*
G02*
X37000000Y-73500000I0J1000000D01*
G01*
X37000000Y-72000000D01*
G75*
G02*
X38000000Y-71000000I1000000J0D01*
G01*
X42250000Y-71000000D01*
G37*
%TD.AperFunction*%
%TA.AperFunction,Conductor*%
G36*
X42250000Y-87500000D02*
G01*
X42250000Y-87500000D01*
G75*
G02*
X43250000Y-88500000I0J-1000000D01*
G01*
X43250000Y-90000000D01*
G75*
G02*
X42250000Y-91000000I-1000000J0D01*
G01*
X38000000Y-91000000D01*
G75*
G02*
X37000000Y-90000000I0J1000000D01*
G01*
X37000000Y-88500000D01*
G75*
G02*
X38000000Y-87500000I1000000J0D01*
G01*
X42250000Y-87500000D01*
G37*
%TD.AperFunction*%
%TA.AperFunction,Conductor*%
G36*
X42250000Y-104500000D02*
G01*
X42250000Y-104500000D01*
G75*
G02*
X43250000Y-105500000I0J-1000000D01*
G01*
X43250000Y-107000000D01*
G75*
G02*
X42250000Y-108000000I-1000000J0D01*
G01*
X38000000Y-108000000D01*
G75*
G02*
X37000000Y-107000000I0J1000000D01*
G01*
X37000000Y-105500000D01*
G75*
G02*
X38000000Y-104500000I1000000J0D01*
G01*
X42250000Y-104500000D01*
G37*
%TD.AperFunction*%
%TD*%
D11*
%TO.P,J2,1_1,1_1*%
%TO.N,/can+*%
X102520000Y-96843500D03*
%TO.P,J2,1_2,1_2*%
%TO.N,/can-*%
X100740000Y-97859500D03*
%TO.P,J2,1_3,1_3*%
%TO.N,GND*%
X102520000Y-98875500D03*
%TO.P,J2,1_4,1_4*%
%TO.N,/raw_dcc_n*%
X100740000Y-99891500D03*
%TO.P,J2,1_5,1_5*%
%TO.N,/raw_dcc_p*%
X102520000Y-100907500D03*
%TO.P,J2,1_6,1_6*%
%TO.N,/can_shield*%
X100740000Y-101923500D03*
%TO.P,J2,1_7,1_7*%
%TO.N,/pwr_n*%
X102520000Y-102939500D03*
%TO.P,J2,1_8,1_8*%
%TO.N,/pwr_p*%
X100740000Y-103955500D03*
%TO.P,J2,2_1,2_1*%
%TO.N,/can+*%
X102520000Y-81093500D03*
%TO.P,J2,2_2,2_2*%
%TO.N,/can-*%
X100740000Y-82109500D03*
%TO.P,J2,2_3,2_3*%
%TO.N,GND*%
X102520000Y-83125500D03*
%TO.P,J2,2_4,2_4*%
%TO.N,/raw_dcc_n*%
X100740000Y-84141500D03*
%TO.P,J2,2_5,2_5*%
%TO.N,/raw_dcc_p*%
X102520000Y-85157500D03*
%TO.P,J2,2_6,2_6*%
%TO.N,/can_shield*%
X100740000Y-86173500D03*
%TO.P,J2,2_7,2_7*%
%TO.N,/pwr_n*%
X102520000Y-87189500D03*
%TO.P,J2,2_8,2_8*%
%TO.N,/pwr_p*%
X100740000Y-88205500D03*
%TD*%
D12*
%TO.P,H4,1,1*%
%TO.N,Net-(JP4-B)*%
X96775000Y-35000000D03*
X97719581Y-32719581D03*
X97719581Y-37280419D03*
X100000000Y-31775000D03*
D13*
X100000000Y-35000000D03*
D12*
X100000000Y-38225000D03*
X102280419Y-32719581D03*
X102280419Y-37280419D03*
X103225000Y-35000000D03*
%TD*%
%TO.P,H2,1,1*%
%TO.N,Net-(JP2-B)*%
X31775000Y-115000000D03*
X32719581Y-112719581D03*
X32719581Y-117280419D03*
X35000000Y-111775000D03*
D13*
X35000000Y-115000000D03*
D12*
X35000000Y-118225000D03*
X37280419Y-112719581D03*
X37280419Y-117280419D03*
X38225000Y-115000000D03*
%TD*%
D14*
%TO.P,J1,1,Pin_1*%
%TO.N,/raw_dcc_n*%
X28805000Y-102500000D03*
D15*
%TO.P,J1,2,Pin_2*%
%TO.N,/raw_dcc_p*%
X28805000Y-97500000D03*
%TO.P,J1,3,Pin_3*%
%TO.N,/out2_D*%
X28805000Y-92500000D03*
%TO.P,J1,4,Pin_4*%
%TO.N,/out1_D*%
X28805000Y-87500000D03*
%TO.P,J1,5,Pin_5*%
%TO.N,/out2_C*%
X28805000Y-82500000D03*
%TO.P,J1,6,Pin_6*%
%TO.N,/out1_C*%
X28805000Y-77500000D03*
%TO.P,J1,7,Pin_7*%
%TO.N,/out2_B*%
X28805000Y-72500000D03*
%TO.P,J1,8,Pin_8*%
%TO.N,/out1_B*%
X28805000Y-67500000D03*
%TO.P,J1,9,Pin_9*%
%TO.N,/out2_A*%
X28805000Y-62500000D03*
%TO.P,J1,10,Pin_10*%
%TO.N,/out1_A*%
X28805000Y-57500000D03*
%TO.P,J1,11,Pin_11*%
%TO.N,GND*%
X28805000Y-52500000D03*
%TO.P,J1,12,Pin_12*%
%TO.N,VTRACK*%
X28805000Y-47500000D03*
%TD*%
D12*
%TO.P,H3,1,1*%
%TO.N,Net-(JP3-B)*%
X96775000Y-115000000D03*
X97719581Y-112719581D03*
X97719581Y-117280419D03*
X100000000Y-111775000D03*
D13*
X100000000Y-115000000D03*
D12*
X100000000Y-118225000D03*
X102280419Y-112719581D03*
X102280419Y-117280419D03*
X103225000Y-115000000D03*
%TD*%
%TO.P,H1,1,1*%
%TO.N,Net-(JP1-B)*%
X31775000Y-35000000D03*
X32719581Y-32719581D03*
X32719581Y-37280419D03*
X35000000Y-31775000D03*
D13*
X35000000Y-35000000D03*
D12*
X35000000Y-38225000D03*
X37280419Y-32719581D03*
X37280419Y-37280419D03*
X38225000Y-35000000D03*
%TD*%
D16*
%TO.N,GND*%
X100203000Y-53276500D03*
X99123500Y-53276500D03*
X103695500Y-49657000D03*
X100203000Y-41783000D03*
X92138500Y-45529500D03*
%TO.N,+3.3V*%
X86106000Y-37030000D03*
X85217000Y-37030000D03*
%TO.N,+5V*%
X86550500Y-26860500D03*
X91249500Y-26870000D03*
%TO.N,GND*%
X78740000Y-64579500D03*
X85471000Y-62166500D03*
%TO.N,/sense_A*%
X52435902Y-42166647D03*
%TO.N,GND*%
X53000000Y-67750000D03*
%TO.N,+3.3V*%
X90400000Y-106000000D03*
X57000000Y-42325000D03*
X101750000Y-78250000D03*
X41643750Y-44605694D03*
X42893750Y-44605694D03*
X47500000Y-51000000D03*
X57350000Y-44950000D03*
X46500000Y-44750000D03*
%TO.N,GND*%
X41893750Y-48605694D03*
X91650000Y-38500000D03*
X73050000Y-48675000D03*
X41393750Y-48105694D03*
X94750000Y-50750000D03*
X49250000Y-46750000D03*
X42393750Y-48105694D03*
X84875000Y-81125000D03*
X61500000Y-91750000D03*
X55775000Y-42125000D03*
X79400000Y-91600000D03*
X64250000Y-38500000D03*
X42393750Y-49105694D03*
X106250000Y-103750000D03*
X68800000Y-82600000D03*
X42893750Y-48605694D03*
X73250000Y-58475000D03*
X101500000Y-63000000D03*
X89950000Y-77975000D03*
X65500000Y-58750000D03*
X78500000Y-103250000D03*
X65000000Y-54250000D03*
X93750000Y-66250000D03*
X91750000Y-52000000D03*
X68000000Y-123750000D03*
X65000000Y-46500000D03*
X109000000Y-120750000D03*
X67000000Y-73250000D03*
X64900000Y-28350000D03*
X72775000Y-35225000D03*
X60000000Y-85250000D03*
X100750000Y-71000000D03*
X40893750Y-48605694D03*
X96000000Y-60250000D03*
X64250000Y-35750000D03*
X41893750Y-47605694D03*
X41393750Y-49105694D03*
X53000000Y-51250000D03*
X100750000Y-95825000D03*
X41893750Y-49605694D03*
X27250000Y-122500000D03*
X109000000Y-26000000D03*
X108000000Y-61500000D03*
X67100000Y-87900000D03*
X64250000Y-41250000D03*
X108000000Y-69000000D03*
X49250000Y-56750000D03*
X72850000Y-29400000D03*
X84400000Y-89825000D03*
X59250000Y-78250000D03*
X59000000Y-82750000D03*
X106400000Y-83375000D03*
X64525000Y-32000000D03*
%TO.N,VTRACK*%
X41143750Y-55355694D03*
X40393750Y-55355694D03*
X40524412Y-57000000D03*
X40915527Y-55967772D03*
X40500000Y-90500000D03*
X40500000Y-107250000D03*
X40500000Y-73750000D03*
X40643750Y-54605694D03*
X41893750Y-56605694D03*
X41511644Y-57145181D03*
X41862500Y-55636944D03*
X41143750Y-56605694D03*
X40393750Y-56355694D03*
%TO.N,/sense_A*%
X95619997Y-54000000D03*
%TO.N,/sense_B*%
X96500000Y-54000000D03*
X57750000Y-57000000D03*
%TO.N,/sense_C*%
X58750000Y-74500000D03*
X97157454Y-47250000D03*
%TO.N,/sense_D*%
X98144993Y-47250000D03*
X59500000Y-89500000D03*
%TO.N,+5V*%
X79000000Y-112500000D03*
X80815000Y-105015000D03*
X52500000Y-116250000D03*
%TO.N,/raw_dcc_p*%
X65750000Y-121500000D03*
X65250000Y-122000000D03*
X65250000Y-121000000D03*
X64750000Y-121500000D03*
%TO.N,/raw_dcc_n*%
X59500000Y-118250000D03*
X59500000Y-119250000D03*
X71000000Y-118250000D03*
X71000000Y-119250000D03*
X59000000Y-118750000D03*
X60000000Y-118750000D03*
X70500000Y-118750000D03*
X71500000Y-118750000D03*
%TO.N,/pwr_p*%
X105810000Y-95520500D03*
%TO.N,/pwr_n*%
X105060000Y-99270500D03*
%TO.N,/can_shield*%
X97060000Y-90770500D03*
X97356040Y-103556040D03*
%TO.N,/can-*%
X102694404Y-93629554D03*
%TO.N,/can+*%
X103295446Y-94230596D03*
%TO.N,/dcc_p*%
X61000000Y-83400000D03*
X53750000Y-49545694D03*
X47250000Y-115000000D03*
X71600000Y-81800000D03*
%TO.N,/dcc_n*%
X54853750Y-50815694D03*
X75500000Y-114000000D03*
%TO.N,VTRACK*%
X40369338Y-73105694D03*
%TO.N,GND*%
X55694322Y-63305678D03*
%TO.N,VTRACK*%
X40619338Y-71355694D03*
%TO.N,+3.3V*%
X46250000Y-61500000D03*
%TO.N,GND*%
X41369338Y-65855694D03*
%TO.N,/dcc_n*%
X54829338Y-67565694D03*
%TO.N,VTRACK*%
X41838088Y-72386944D03*
%TO.N,GND*%
X41869338Y-66355694D03*
X42369338Y-64855694D03*
X42369338Y-65855694D03*
X41869338Y-64355694D03*
%TO.N,VTRACK*%
X41119338Y-73355694D03*
X41869338Y-73355694D03*
X40369338Y-72105694D03*
%TO.N,/dcc_p*%
X53750000Y-66295694D03*
%TO.N,+3.3V*%
X42869338Y-61355694D03*
%TO.N,GND*%
X52000000Y-73750000D03*
%TO.N,VTRACK*%
X40891115Y-72717772D03*
%TO.N,+3.3V*%
X47500000Y-67250000D03*
%TO.N,GND*%
X40869338Y-65355694D03*
X41869338Y-65355694D03*
X41369338Y-64855694D03*
%TO.N,+3.3V*%
X57250000Y-61750000D03*
%TO.N,GND*%
X42869338Y-65355694D03*
%TO.N,VTRACK*%
X41119338Y-72105694D03*
%TO.N,GND*%
X49250000Y-60250000D03*
%TO.N,VTRACK*%
X41487232Y-73895181D03*
%TO.N,+3.3V*%
X41619338Y-61355694D03*
%TO.N,GND*%
X49000000Y-86250000D03*
%TO.N,VTRACK*%
X41119338Y-88855694D03*
%TO.N,+3.3V*%
X42869338Y-78105694D03*
X41619338Y-78105694D03*
%TO.N,GND*%
X49250000Y-80500000D03*
X41369338Y-81605694D03*
X40869338Y-82105694D03*
%TO.N,+3.3V*%
X57500000Y-78500000D03*
%TO.N,VTRACK*%
X41869338Y-90105694D03*
X40619338Y-88105694D03*
%TO.N,+3.3V*%
X46500000Y-77750000D03*
%TO.N,GND*%
X41869338Y-82105694D03*
%TO.N,/dcc_n*%
X54829338Y-84315694D03*
%TO.N,VTRACK*%
X41487232Y-90645181D03*
X40369338Y-89855694D03*
X41838088Y-89136944D03*
X40369338Y-88855694D03*
%TO.N,GND*%
X42869338Y-82105694D03*
X41869338Y-83105694D03*
X41869338Y-81105694D03*
%TO.N,VTRACK*%
X41119338Y-90105694D03*
%TO.N,GND*%
X42369338Y-81605694D03*
X53000000Y-84750000D03*
X42369338Y-82605694D03*
X41369338Y-82605694D03*
%TO.N,/dcc_p*%
X53750000Y-83045694D03*
%TO.N,VTRACK*%
X40891115Y-89467772D03*
%TO.N,GND*%
X49750000Y-76250000D03*
%TO.N,+3.3V*%
X47500000Y-84500000D03*
%TO.N,VTRACK*%
X41119338Y-105605694D03*
%TO.N,+3.3V*%
X41619338Y-94855694D03*
%TO.N,VTRACK*%
X40619338Y-104855694D03*
%TO.N,/dcc_n*%
X54829338Y-101065694D03*
%TO.N,+3.3V*%
X57500000Y-95250000D03*
X42869338Y-94855694D03*
%TO.N,VTRACK*%
X40369338Y-106605694D03*
%TO.N,GND*%
X53000000Y-101500000D03*
X40869338Y-98855694D03*
X42869338Y-98855694D03*
X41869338Y-98855694D03*
X41369338Y-98355694D03*
X42369338Y-98355694D03*
X49750000Y-97500000D03*
X41869338Y-97855694D03*
X42369338Y-99355694D03*
%TO.N,VTRACK*%
X40891115Y-106217772D03*
X41869338Y-106855694D03*
X41119338Y-106855694D03*
X41487232Y-107395181D03*
%TO.N,+3.3V*%
X47250000Y-102474332D03*
X46500000Y-95000000D03*
%TO.N,GND*%
X41369338Y-99355694D03*
%TO.N,VTRACK*%
X40369338Y-105605694D03*
%TO.N,GND*%
X41869338Y-99855694D03*
%TO.N,/dcc_p*%
X53750000Y-99795694D03*
%TO.N,VTRACK*%
X41838088Y-105886944D03*
%TD*%
D17*
%TO.N,+3.3V*%
X47500000Y-84500000D02*
X47180500Y-84819500D01*
X47180500Y-84819500D02*
X47180500Y-93045500D01*
X47180500Y-93045500D02*
X46500000Y-93726000D01*
X47500000Y-45186500D02*
X46890500Y-44577000D01*
X46890500Y-44577000D02*
X41672444Y-44577000D01*
X41672444Y-44577000D02*
X41643750Y-44605694D01*
X46250000Y-61500000D02*
X46091000Y-61341000D01*
X46091000Y-61341000D02*
X41634032Y-61341000D01*
X41634032Y-61341000D02*
X41619338Y-61355694D01*
X46250000Y-63246000D02*
X46250000Y-66000000D01*
X46250000Y-78676500D02*
X45678500Y-78105000D01*
X45678500Y-78105000D02*
X41620032Y-78105000D01*
X41620032Y-78105000D02*
X41619338Y-78105694D01*
X46250000Y-78676500D02*
X46250000Y-83250000D01*
X47500000Y-76750000D02*
X46250000Y-78000000D01*
X42869338Y-94855694D02*
X41619338Y-94855694D01*
X43303766Y-94421266D02*
X42869338Y-94855694D01*
X46500000Y-93726000D02*
X43999032Y-93726000D01*
X43999032Y-93726000D02*
X43303766Y-94421266D01*
X46500000Y-93726000D02*
X46500000Y-95567500D01*
X46500000Y-101724332D02*
X47250000Y-102474332D01*
X46500000Y-93726000D02*
X46500000Y-101724332D01*
X46841500Y-83841500D02*
X47500000Y-84500000D01*
X46250000Y-78000000D02*
X46250000Y-78676500D01*
X46250000Y-83250000D02*
X46841500Y-83841500D01*
X47107250Y-77142750D02*
X46500000Y-77750000D01*
X47107250Y-77142750D02*
X46250000Y-78000000D01*
X47500000Y-75882500D02*
X47500000Y-76750000D01*
X47500000Y-76750000D02*
X47107250Y-77142750D01*
X46925750Y-66675750D02*
X47500000Y-67250000D01*
X47500000Y-67250000D02*
X47500000Y-75882500D01*
X46794750Y-60955250D02*
X46250000Y-61500000D01*
X46250000Y-61500000D02*
X46250000Y-63246000D01*
X46250000Y-66000000D02*
X46925750Y-66675750D01*
X47500000Y-59245500D02*
X47500000Y-60250000D01*
X47500000Y-60250000D02*
X46794750Y-60955250D01*
X48502250Y-44184250D02*
X48153000Y-44533500D01*
X48502250Y-44184250D02*
X47500000Y-45186500D01*
X47500000Y-45186500D02*
X47500000Y-59245500D01*
X48153000Y-44533500D02*
X47561500Y-45125000D01*
X47561500Y-45125000D02*
X46875000Y-45125000D01*
X46875000Y-45125000D02*
X46500000Y-44750000D01*
X57000000Y-35686500D02*
X57000000Y-42325000D01*
X57000000Y-35686500D02*
X48502250Y-44184250D01*
X57000000Y-35500000D02*
X57000000Y-35686500D01*
X61700000Y-30800000D02*
X57000000Y-35500000D01*
X72075000Y-30800000D02*
X61700000Y-30800000D01*
X86106000Y-37030000D02*
X78305000Y-37030000D01*
X78305000Y-37030000D02*
X72075000Y-30800000D01*
%TO.N,+5V*%
X86550500Y-26860500D02*
X106110500Y-26860500D01*
X90106500Y-94643500D02*
X82230000Y-102520000D01*
X106110500Y-26860500D02*
X108999000Y-29749000D01*
X99823500Y-75500000D02*
X90106500Y-85217000D01*
X82230000Y-103600000D02*
X80815000Y-105015000D01*
X108999000Y-29749000D02*
X108999000Y-74071500D01*
X108999000Y-74071500D02*
X107570500Y-75500000D01*
X107570500Y-75500000D02*
X99823500Y-75500000D01*
X90106500Y-85217000D02*
X90106500Y-94643500D01*
X82230000Y-102520000D02*
X82230000Y-103600000D01*
D18*
%TO.N,+3.3V*%
X95000000Y-93600000D02*
X95000000Y-85000000D01*
X57350000Y-44950000D02*
X56750000Y-45550000D01*
X90400000Y-106000000D02*
X90400000Y-98200000D01*
X95000000Y-85000000D02*
X101750000Y-78250000D01*
X41643750Y-44605694D02*
X42893750Y-44605694D01*
X90400000Y-98200000D02*
X95000000Y-93600000D01*
X47500000Y-45500000D02*
X47500000Y-51000000D01*
D19*
%TO.N,VTRACK*%
X35250000Y-47500000D02*
X37750000Y-50000000D01*
X28805000Y-47500000D02*
X35250000Y-47500000D01*
D20*
%TO.N,/sense_B*%
X58630000Y-56120000D02*
X94461663Y-56120000D01*
X57750000Y-57000000D02*
X58630000Y-56120000D01*
X94461663Y-56120000D02*
X96500000Y-54081663D01*
X96500000Y-54081663D02*
X96500000Y-54000000D01*
%TO.N,/sense_C*%
X71600000Y-78400000D02*
X72950000Y-79750000D01*
X97464993Y-47557539D02*
X97157454Y-47250000D01*
X97464993Y-73285007D02*
X97464993Y-47557539D01*
X91000000Y-79750000D02*
X97464993Y-73285007D01*
X72950000Y-79750000D02*
X91000000Y-79750000D01*
X58750000Y-74500000D02*
X59750000Y-74500000D01*
X63650000Y-78400000D02*
X71600000Y-78400000D01*
X59750000Y-74500000D02*
X63650000Y-78400000D01*
%TO.N,/sense_D*%
X62600000Y-86400000D02*
X73600000Y-86400000D01*
X77400000Y-82600000D02*
X89400000Y-82600000D01*
X98250000Y-47750000D02*
X98250000Y-47355007D01*
X59500000Y-89500000D02*
X62600000Y-86400000D01*
X73600000Y-86400000D02*
X77400000Y-82600000D01*
X89400000Y-82600000D02*
X98250000Y-73750000D01*
X98250000Y-47355007D02*
X98144993Y-47250000D01*
X98250000Y-47750000D02*
X98250000Y-47250000D01*
X98250000Y-73750000D02*
X98250000Y-47750000D01*
D18*
%TO.N,+5V*%
X109300000Y-30050000D02*
X106120000Y-26870000D01*
D17*
X52500000Y-116250000D02*
X77500000Y-116250000D01*
X77500000Y-116250000D02*
X79000000Y-114750000D01*
X79000000Y-114750000D02*
X79000000Y-112500000D01*
D19*
%TO.N,/raw_dcc_p*%
X80750000Y-123000000D02*
X104250000Y-123000000D01*
X108250000Y-100750000D02*
X108250000Y-97250000D01*
X108092500Y-100907500D02*
X108250000Y-100750000D01*
X108250000Y-90389471D02*
X103018029Y-85157500D01*
X104250000Y-123000000D02*
X108250000Y-119000000D01*
X31250000Y-123000000D02*
X39500000Y-123000000D01*
X26440000Y-99865000D02*
X26440000Y-118190000D01*
X28805000Y-97500000D02*
X26440000Y-99865000D01*
X79250000Y-121500000D02*
X80750000Y-123000000D01*
X39500000Y-123000000D02*
X41000000Y-121500000D01*
X26440000Y-118190000D02*
X31250000Y-123000000D01*
X102520000Y-100907500D02*
X108092500Y-100907500D01*
X41000000Y-121500000D02*
X79250000Y-121500000D01*
X108250000Y-119000000D02*
X108250000Y-90389471D01*
X103018029Y-85157500D02*
X102520000Y-85157500D01*
%TO.N,/raw_dcc_n*%
X59500000Y-118750000D02*
X59000000Y-118750000D01*
X105365000Y-112777744D02*
X105365000Y-117635000D01*
X29250000Y-102945000D02*
X28805000Y-102500000D01*
X98951000Y-85432471D02*
X100241971Y-84141500D01*
X60000000Y-118750000D02*
X71500000Y-118750000D01*
X71500000Y-118750000D02*
X71000000Y-118750000D01*
X102500000Y-120500000D02*
X82872574Y-120500000D01*
X100740000Y-99891500D02*
X100241971Y-99891500D01*
X29250000Y-116837256D02*
X29250000Y-102945000D01*
X82872574Y-120500000D02*
X81122574Y-118750000D01*
X98951000Y-106363744D02*
X105365000Y-112777744D01*
X100241971Y-84141500D02*
X100740000Y-84141500D01*
X60000000Y-118750000D02*
X39750000Y-118750000D01*
X32777744Y-120365000D02*
X29250000Y-116837256D01*
X39750000Y-118750000D02*
X38135000Y-120365000D01*
X38135000Y-120365000D02*
X32777744Y-120365000D01*
X98951000Y-98600529D02*
X98951000Y-85432471D01*
X105365000Y-117635000D02*
X102500000Y-120500000D01*
X100241971Y-99891500D02*
X98951000Y-98600529D01*
X98951000Y-98600529D02*
X98951000Y-106363744D01*
X71000000Y-118750000D02*
X70500000Y-118750000D01*
X60000000Y-118750000D02*
X59500000Y-118750000D01*
X81122574Y-118750000D02*
X71500000Y-118750000D01*
D18*
%TO.N,/pwr_p*%
X100740000Y-88205500D02*
X101960566Y-88205500D01*
X101960566Y-88205500D02*
X105810000Y-92054934D01*
X105810000Y-92054934D02*
X105810000Y-95520500D01*
%TO.N,/pwr_n*%
X105060000Y-99270500D02*
X106500000Y-97830500D01*
X106500000Y-97830500D02*
X106500000Y-91169500D01*
X106500000Y-91169500D02*
X102520000Y-87189500D01*
D17*
%TO.N,/can_shield*%
X97060000Y-103260000D02*
X97060000Y-90770500D01*
X97356040Y-103556040D02*
X97060000Y-103260000D01*
D20*
%TO.N,/can-*%
X101912999Y-96102884D02*
X101550000Y-96465883D01*
X101550000Y-97049500D02*
X100740000Y-97859500D01*
X101550000Y-96465883D02*
X101550000Y-97049500D01*
X102694404Y-93629554D02*
X102694404Y-93912397D01*
X101912999Y-94693802D02*
X101912999Y-96102884D01*
X102694404Y-93912397D02*
X101912999Y-94693802D01*
%TO.N,/can+*%
X103295446Y-94230596D02*
X103012603Y-94230596D01*
X102363001Y-94880198D02*
X102363001Y-96686501D01*
X102363001Y-96686501D02*
X102520000Y-96843500D01*
X103012603Y-94230596D02*
X102363001Y-94880198D01*
%TO.N,/dcc_p*%
X61000000Y-83400000D02*
X62800000Y-83400000D01*
X69300000Y-81500000D02*
X69600000Y-81800000D01*
X62800000Y-83400000D02*
X64700000Y-81500000D01*
X48250000Y-114000000D02*
X62750000Y-114000000D01*
X47250000Y-115000000D02*
X48250000Y-114000000D01*
X69600000Y-81800000D02*
X71600000Y-81800000D01*
X62750000Y-114000000D02*
X63500000Y-113250000D01*
X63500000Y-113250000D02*
X63500000Y-111000000D01*
X64700000Y-81500000D02*
X69300000Y-81500000D01*
%TO.N,/dcc_n*%
X75500000Y-114000000D02*
X65500000Y-114000000D01*
X65500000Y-114000000D02*
X64500000Y-113000000D01*
X64500000Y-113000000D02*
X64500000Y-110750000D01*
D18*
%TO.N,+3.3V*%
X41619338Y-61355694D02*
X42869338Y-61355694D01*
X56750000Y-61250000D02*
X57250000Y-61750000D01*
D20*
%TO.N,/dcc_p*%
X53750000Y-66000000D02*
X53750000Y-49545694D01*
%TO.N,/dcc_n*%
X54853750Y-67541282D02*
X54829338Y-67565694D01*
D18*
%TO.N,+3.3V*%
X56750000Y-45550000D02*
X56750000Y-61250000D01*
X47500000Y-51000000D02*
X47500000Y-60250000D01*
X57500000Y-62000000D02*
X57250000Y-61750000D01*
D20*
%TO.N,/dcc_p*%
X53750000Y-66000000D02*
X53750000Y-66295694D01*
%TO.N,/dcc_n*%
X54853750Y-50815694D02*
X54853750Y-67541282D01*
X54829338Y-67565694D02*
X54829338Y-84315694D01*
%TO.N,/dcc_p*%
X53750000Y-82750000D02*
X53750000Y-83045694D01*
X53750000Y-82750000D02*
X53750000Y-66000000D01*
D18*
%TO.N,+3.3V*%
X41619338Y-78105694D02*
X42869338Y-78105694D01*
X57500000Y-78500000D02*
X57500000Y-62000000D01*
X57250000Y-78750000D02*
X57500000Y-78500000D01*
X46250000Y-78000000D02*
X46500000Y-77750000D01*
X57500000Y-95250000D02*
X57250000Y-95000000D01*
D19*
%TO.N,VTRACK*%
X37750000Y-103875000D02*
X40125000Y-106250000D01*
D18*
%TO.N,+3.3V*%
X46500000Y-95567500D02*
X46500000Y-95000000D01*
D20*
%TO.N,/dcc_n*%
X54829338Y-84315694D02*
X54829338Y-101065694D01*
D18*
%TO.N,+3.3V*%
X57250000Y-95000000D02*
X57250000Y-78750000D01*
D19*
%TO.N,VTRACK*%
X37750000Y-50000000D02*
X37750000Y-103875000D01*
D20*
%TO.N,/dcc_p*%
X53750000Y-99500000D02*
X53750000Y-82750000D01*
X53750000Y-99500000D02*
X53750000Y-99795694D01*
%TO.N,/dcc_n*%
X54829338Y-101079338D02*
X54829338Y-101065694D01*
%TO.N,/dcc_p*%
X53750000Y-101250000D02*
X53750000Y-99500000D01*
X63500000Y-111000000D02*
X53750000Y-101250000D01*
%TO.N,/dcc_n*%
X64500000Y-110750000D02*
X54829338Y-101079338D01*
D19*
%TO.N,VTRACK*%
X40125000Y-106250000D02*
X39500000Y-106250000D01*
D20*
%TO.N,/sense_A*%
X81750000Y-45500000D02*
X87210000Y-50960000D01*
X52435902Y-42166647D02*
X53689255Y-43420000D01*
X53689255Y-43420000D02*
X73420000Y-43420000D01*
X75500000Y-45500000D02*
X81750000Y-45500000D01*
X73420000Y-43420000D02*
X75500000Y-45500000D01*
X87210000Y-50960000D02*
X92579997Y-50960000D01*
X92579997Y-50960000D02*
X95619997Y-54000000D01*
%TD*%
%TA.AperFunction,Conductor*%
%TO.N,GND*%
G36*
X25705703Y-119401399D02*
G01*
X25712181Y-119407431D01*
X30200828Y-123896078D01*
X30353922Y-124049172D01*
X30529081Y-124176433D01*
X30676088Y-124251337D01*
X30702932Y-124265015D01*
X30753728Y-124312990D01*
X30770523Y-124380811D01*
X30747985Y-124446946D01*
X30693270Y-124490397D01*
X30646637Y-124499500D01*
X25624500Y-124499500D01*
X25557461Y-124479815D01*
X25511706Y-124427011D01*
X25500500Y-124375500D01*
X25500500Y-119495112D01*
X25520185Y-119428073D01*
X25572989Y-119382318D01*
X25642147Y-119372374D01*
X25705703Y-119401399D01*
G37*
%TD.AperFunction*%
%TA.AperFunction,Conductor*%
G36*
X78695926Y-122895185D02*
G01*
X78716568Y-122911819D01*
X79700828Y-123896078D01*
X79853922Y-124049172D01*
X80029081Y-124176433D01*
X80176088Y-124251337D01*
X80202932Y-124265015D01*
X80253728Y-124312990D01*
X80270523Y-124380811D01*
X80247985Y-124446946D01*
X80193270Y-124490397D01*
X80146637Y-124499500D01*
X40103363Y-124499500D01*
X40098074Y-124497947D01*
X40092672Y-124499038D01*
X40064910Y-124488209D01*
X40036324Y-124479815D01*
X40032715Y-124475650D01*
X40027579Y-124473647D01*
X40010076Y-124449523D01*
X39990569Y-124427011D01*
X39989784Y-124421556D01*
X39986547Y-124417094D01*
X39984865Y-124387343D01*
X39980625Y-124357853D01*
X39982915Y-124352838D01*
X39982604Y-124347336D01*
X39997271Y-124321402D01*
X40009650Y-124294297D01*
X40015005Y-124290047D01*
X40017000Y-124286520D01*
X40041797Y-124268784D01*
X40045567Y-124265793D01*
X40046335Y-124265388D01*
X40220919Y-124176433D01*
X40220920Y-124176432D01*
X40396078Y-124049173D01*
X41533431Y-122911818D01*
X41594754Y-122878334D01*
X41621112Y-122875500D01*
X78628887Y-122875500D01*
X78695926Y-122895185D01*
G37*
%TD.AperFunction*%
%TA.AperFunction,Conductor*%
G36*
X109418834Y-119878930D02*
G01*
X109474767Y-119920802D01*
X109499184Y-119986266D01*
X109499500Y-119995112D01*
X109499500Y-124375500D01*
X109479815Y-124442539D01*
X109427011Y-124488294D01*
X109375500Y-124499500D01*
X104853363Y-124499500D01*
X104848074Y-124497947D01*
X104842672Y-124499038D01*
X104814910Y-124488209D01*
X104786324Y-124479815D01*
X104782715Y-124475650D01*
X104777579Y-124473647D01*
X104760076Y-124449523D01*
X104740569Y-124427011D01*
X104739784Y-124421556D01*
X104736547Y-124417094D01*
X104734865Y-124387343D01*
X104730625Y-124357853D01*
X104732915Y-124352838D01*
X104732604Y-124347336D01*
X104747271Y-124321402D01*
X104759650Y-124294297D01*
X104765005Y-124290047D01*
X104767000Y-124286520D01*
X104791797Y-124268784D01*
X104795567Y-124265793D01*
X104796335Y-124265388D01*
X104970919Y-124176433D01*
X104970920Y-124176432D01*
X105146078Y-124049173D01*
X109287819Y-119907430D01*
X109349142Y-119873946D01*
X109418834Y-119878930D01*
G37*
%TD.AperFunction*%
%TA.AperFunction,Conductor*%
G36*
X96785896Y-54779385D02*
G01*
X96841072Y-54822249D01*
X96864315Y-54888140D01*
X96864493Y-54894774D01*
X96864493Y-72984909D01*
X96844808Y-73051948D01*
X96828174Y-73072590D01*
X90787584Y-79113181D01*
X90726261Y-79146666D01*
X90699903Y-79149500D01*
X73250097Y-79149500D01*
X73183058Y-79129815D01*
X73162416Y-79113181D01*
X72087590Y-78038355D01*
X72087588Y-78038352D01*
X71968717Y-77919481D01*
X71968716Y-77919480D01*
X71881904Y-77869360D01*
X71881904Y-77869359D01*
X71881900Y-77869358D01*
X71831785Y-77840423D01*
X71679057Y-77799499D01*
X71520943Y-77799499D01*
X71513347Y-77799499D01*
X71513331Y-77799500D01*
X63950097Y-77799500D01*
X63883058Y-77779815D01*
X63862416Y-77763181D01*
X60237590Y-74138355D01*
X60237588Y-74138352D01*
X60118716Y-74019480D01*
X60118709Y-74019475D01*
X60014395Y-73959250D01*
X60014392Y-73959249D01*
X59981787Y-73940424D01*
X59981786Y-73940423D01*
X59981785Y-73940423D01*
X59829057Y-73899499D01*
X59670943Y-73899499D01*
X59663347Y-73899499D01*
X59663331Y-73899500D01*
X59329766Y-73899500D01*
X59262727Y-73879815D01*
X59260875Y-73878602D01*
X59129185Y-73790609D01*
X59129172Y-73790602D01*
X58983501Y-73730264D01*
X58983489Y-73730261D01*
X58828845Y-73699500D01*
X58828842Y-73699500D01*
X58671158Y-73699500D01*
X58671155Y-73699500D01*
X58516510Y-73730261D01*
X58516507Y-73730262D01*
X58516506Y-73730262D01*
X58516503Y-73730263D01*
X58436372Y-73763454D01*
X58371952Y-73790137D01*
X58302482Y-73797605D01*
X58240003Y-73766329D01*
X58204351Y-73706240D01*
X58200500Y-73675575D01*
X58200500Y-72339895D01*
X72150000Y-72339895D01*
X76802057Y-75952663D01*
X76842931Y-76009327D01*
X76850000Y-76050597D01*
X76850000Y-77000000D01*
X81650000Y-77000000D01*
X81650000Y-76050597D01*
X81669685Y-75983558D01*
X81697941Y-75952664D01*
X86350000Y-72339895D01*
X86350000Y-68000000D01*
X72150000Y-68000000D01*
X72150000Y-72339895D01*
X58200500Y-72339895D01*
X58200500Y-61931006D01*
X58200499Y-61931003D01*
X58198312Y-61920006D01*
X58177408Y-61814915D01*
X58173580Y-61795671D01*
X58147367Y-61732389D01*
X58120775Y-61668189D01*
X58120772Y-61668184D01*
X58120771Y-61668182D01*
X58044114Y-61553458D01*
X58040249Y-61548748D01*
X58041134Y-61548021D01*
X58019193Y-61515190D01*
X57959394Y-61370821D01*
X57959390Y-61370814D01*
X57871789Y-61239711D01*
X57871786Y-61239707D01*
X57760292Y-61128213D01*
X57760288Y-61128210D01*
X57629185Y-61040609D01*
X57629175Y-61040604D01*
X57527047Y-60998301D01*
X57472644Y-60954460D01*
X57450579Y-60888166D01*
X57450500Y-60883740D01*
X57450500Y-57907702D01*
X57470185Y-57840663D01*
X57522989Y-57794908D01*
X57592147Y-57784964D01*
X57598667Y-57786080D01*
X57655435Y-57797372D01*
X57671157Y-57800500D01*
X57671158Y-57800500D01*
X57828844Y-57800500D01*
X57828845Y-57800499D01*
X57983497Y-57769737D01*
X58129179Y-57709394D01*
X58260289Y-57621789D01*
X58371789Y-57510289D01*
X58459394Y-57379179D01*
X58519737Y-57233497D01*
X58550500Y-57078842D01*
X58550638Y-57078150D01*
X58583023Y-57016239D01*
X58584518Y-57014716D01*
X58842416Y-56756819D01*
X58903739Y-56723334D01*
X58930097Y-56720500D01*
X94374994Y-56720500D01*
X94375010Y-56720501D01*
X94382606Y-56720501D01*
X94540717Y-56720501D01*
X94540720Y-56720501D01*
X94693448Y-56679577D01*
X94743567Y-56650639D01*
X94830379Y-56600520D01*
X94942183Y-56488716D01*
X94942183Y-56488714D01*
X94952391Y-56478507D01*
X94952393Y-56478504D01*
X96616603Y-54814293D01*
X96633199Y-54805231D01*
X96646810Y-54792099D01*
X96676303Y-54781694D01*
X96677924Y-54780810D01*
X96679936Y-54780390D01*
X96716306Y-54773156D01*
X96785896Y-54779385D01*
G37*
%TD.AperFunction*%
%TA.AperFunction,Conductor*%
G36*
X73186942Y-44040185D02*
G01*
X73207584Y-44056819D01*
X75015139Y-45864374D01*
X75015149Y-45864385D01*
X75019479Y-45868715D01*
X75019480Y-45868716D01*
X75131284Y-45980520D01*
X75164558Y-45999730D01*
X75218095Y-46030639D01*
X75218097Y-46030641D01*
X75268213Y-46059576D01*
X75268215Y-46059577D01*
X75420942Y-46100500D01*
X75420943Y-46100500D01*
X81449903Y-46100500D01*
X81516942Y-46120185D01*
X81537584Y-46136819D01*
X86725139Y-51324374D01*
X86725149Y-51324385D01*
X86729479Y-51328715D01*
X86729480Y-51328716D01*
X86841284Y-51440520D01*
X86928095Y-51490639D01*
X86928097Y-51490641D01*
X86966151Y-51512611D01*
X86978215Y-51519577D01*
X87130943Y-51560500D01*
X92279900Y-51560500D01*
X92346939Y-51580185D01*
X92367581Y-51596819D01*
X94785422Y-54014660D01*
X94818907Y-54075983D01*
X94819358Y-54078149D01*
X94850258Y-54233491D01*
X94850261Y-54233501D01*
X94910599Y-54379172D01*
X94910606Y-54379185D01*
X94998207Y-54510288D01*
X94998210Y-54510292D01*
X95022491Y-54534573D01*
X95055976Y-54595896D01*
X95050992Y-54665588D01*
X95022491Y-54709935D01*
X94249247Y-55483181D01*
X94187924Y-55516666D01*
X94161566Y-55519500D01*
X58716669Y-55519500D01*
X58716653Y-55519499D01*
X58709057Y-55519499D01*
X58550943Y-55519499D01*
X58398215Y-55560423D01*
X58398213Y-55560424D01*
X58376646Y-55572874D01*
X58376647Y-55572875D01*
X58261287Y-55639477D01*
X58261282Y-55639481D01*
X57735339Y-56165425D01*
X57718743Y-56174487D01*
X57705134Y-56187619D01*
X57675634Y-56198026D01*
X57674016Y-56198910D01*
X57671851Y-56199361D01*
X57598693Y-56213914D01*
X57529101Y-56207687D01*
X57473923Y-56164825D01*
X57450678Y-56098936D01*
X57450500Y-56092297D01*
X57450500Y-45891519D01*
X57470185Y-45824480D01*
X57486818Y-45803839D01*
X57544584Y-45746072D01*
X57584812Y-45719192D01*
X57654838Y-45690186D01*
X57729173Y-45659397D01*
X57729176Y-45659395D01*
X57729179Y-45659394D01*
X57860289Y-45571789D01*
X57971789Y-45460289D01*
X58059394Y-45329179D01*
X58119737Y-45183497D01*
X58150500Y-45028842D01*
X58150500Y-44871158D01*
X58150500Y-44871155D01*
X58150499Y-44871153D01*
X58138696Y-44811816D01*
X58119737Y-44716503D01*
X58114655Y-44704234D01*
X58059397Y-44570827D01*
X58059390Y-44570814D01*
X57971789Y-44439711D01*
X57971786Y-44439707D01*
X57860292Y-44328213D01*
X57860288Y-44328210D01*
X57739650Y-44247602D01*
X57694845Y-44193990D01*
X57686138Y-44124665D01*
X57716292Y-44061637D01*
X57775736Y-44024918D01*
X57808541Y-44020500D01*
X73119903Y-44020500D01*
X73186942Y-44040185D01*
G37*
%TD.AperFunction*%
%TA.AperFunction,Conductor*%
G36*
X55918834Y-38285099D02*
G01*
X55974767Y-38326971D01*
X55999184Y-38392435D01*
X55999500Y-38401281D01*
X55999500Y-42423541D01*
X55999500Y-42423543D01*
X55999499Y-42423543D01*
X56037947Y-42616829D01*
X56037948Y-42616831D01*
X56037949Y-42616835D01*
X56050878Y-42648049D01*
X56058347Y-42717516D01*
X56027073Y-42779995D01*
X55966984Y-42815648D01*
X55936317Y-42819500D01*
X53989352Y-42819500D01*
X53922313Y-42799815D01*
X53901671Y-42783181D01*
X53270476Y-42151986D01*
X53236991Y-42090663D01*
X53236540Y-42088496D01*
X53205640Y-41933157D01*
X53205639Y-41933150D01*
X53205637Y-41933145D01*
X53145299Y-41787474D01*
X53145292Y-41787461D01*
X53057691Y-41656358D01*
X53057688Y-41656354D01*
X52946194Y-41544860D01*
X52946190Y-41544857D01*
X52838255Y-41472736D01*
X52793450Y-41419123D01*
X52784743Y-41349798D01*
X52814898Y-41286771D01*
X52819446Y-41281972D01*
X55787821Y-38313598D01*
X55849142Y-38280115D01*
X55918834Y-38285099D01*
G37*
%TD.AperFunction*%
%TA.AperFunction,Conductor*%
G36*
X76053813Y-25520185D02*
G01*
X76099568Y-25572989D01*
X76109512Y-25642147D01*
X76080487Y-25705703D01*
X76025093Y-25742430D01*
X76006588Y-25748443D01*
X76006585Y-25748444D01*
X75817179Y-25844951D01*
X75645213Y-25969890D01*
X75494890Y-26120213D01*
X75369951Y-26292179D01*
X75273444Y-26481585D01*
X75207753Y-26683760D01*
X75195368Y-26761956D01*
X75174500Y-26893713D01*
X75174500Y-27106287D01*
X75207754Y-27316243D01*
X75266903Y-27498285D01*
X75273444Y-27518414D01*
X75369951Y-27707820D01*
X75494890Y-27879786D01*
X75645213Y-28030109D01*
X75817179Y-28155048D01*
X75817181Y-28155049D01*
X75817184Y-28155051D01*
X76006588Y-28251557D01*
X76208757Y-28317246D01*
X76418713Y-28350500D01*
X76418714Y-28350500D01*
X76631286Y-28350500D01*
X76631287Y-28350500D01*
X76841243Y-28317246D01*
X77043412Y-28251557D01*
X77232816Y-28155051D01*
X77254789Y-28139086D01*
X77404786Y-28030109D01*
X77404788Y-28030106D01*
X77404792Y-28030104D01*
X77555104Y-27879792D01*
X77555106Y-27879788D01*
X77555109Y-27879786D01*
X77680048Y-27707820D01*
X77680047Y-27707820D01*
X77680051Y-27707816D01*
X77776557Y-27518412D01*
X77842246Y-27316243D01*
X77875500Y-27106287D01*
X77875500Y-26893713D01*
X77842246Y-26683757D01*
X77776557Y-26481588D01*
X77680051Y-26292184D01*
X77680049Y-26292181D01*
X77680048Y-26292179D01*
X77555109Y-26120213D01*
X77404786Y-25969890D01*
X77232820Y-25844951D01*
X77043414Y-25748444D01*
X77043413Y-25748443D01*
X77043412Y-25748443D01*
X77024907Y-25742430D01*
X76967232Y-25702994D01*
X76940034Y-25638635D01*
X76951949Y-25569789D01*
X76999193Y-25518313D01*
X77063226Y-25500500D01*
X81436774Y-25500500D01*
X81503813Y-25520185D01*
X81549568Y-25572989D01*
X81559512Y-25642147D01*
X81530487Y-25705703D01*
X81475093Y-25742430D01*
X81456588Y-25748443D01*
X81456585Y-25748444D01*
X81267179Y-25844951D01*
X81095213Y-25969890D01*
X80944890Y-26120213D01*
X80819951Y-26292179D01*
X80723444Y-26481585D01*
X80657753Y-26683760D01*
X80645368Y-26761956D01*
X80624500Y-26893713D01*
X80624500Y-27106287D01*
X80657754Y-27316243D01*
X80716903Y-27498285D01*
X80723444Y-27518414D01*
X80819951Y-27707820D01*
X80944890Y-27879786D01*
X81095213Y-28030109D01*
X81267179Y-28155048D01*
X81267181Y-28155049D01*
X81267184Y-28155051D01*
X81456588Y-28251557D01*
X81658757Y-28317246D01*
X81868713Y-28350500D01*
X81868714Y-28350500D01*
X82081286Y-28350500D01*
X82081287Y-28350500D01*
X82291243Y-28317246D01*
X82493412Y-28251557D01*
X82682816Y-28155051D01*
X82704789Y-28139086D01*
X82854786Y-28030109D01*
X82854788Y-28030106D01*
X82854792Y-28030104D01*
X83005104Y-27879792D01*
X83005106Y-27879788D01*
X83005109Y-27879786D01*
X83130048Y-27707820D01*
X83130047Y-27707820D01*
X83130051Y-27707816D01*
X83226557Y-27518412D01*
X83292246Y-27316243D01*
X83325500Y-27106287D01*
X83325500Y-26893713D01*
X83292246Y-26683757D01*
X83226557Y-26481588D01*
X83130051Y-26292184D01*
X83130049Y-26292181D01*
X83130048Y-26292179D01*
X83005109Y-26120213D01*
X82854786Y-25969890D01*
X82682820Y-25844951D01*
X82493414Y-25748444D01*
X82493413Y-25748443D01*
X82493412Y-25748443D01*
X82474907Y-25742430D01*
X82417232Y-25702994D01*
X82390034Y-25638635D01*
X82401949Y-25569789D01*
X82449193Y-25518313D01*
X82513226Y-25500500D01*
X109375500Y-25500500D01*
X109442539Y-25520185D01*
X109488294Y-25572989D01*
X109499500Y-25624500D01*
X109499500Y-28535218D01*
X109479815Y-28602257D01*
X109427011Y-28648012D01*
X109357853Y-28657956D01*
X109294297Y-28628931D01*
X109287819Y-28622899D01*
X106891979Y-26227059D01*
X106891959Y-26227037D01*
X106748285Y-26083363D01*
X106748281Y-26083360D01*
X106584420Y-25973871D01*
X106584411Y-25973866D01*
X106511815Y-25943796D01*
X106455665Y-25920538D01*
X106402336Y-25898449D01*
X106402332Y-25898448D01*
X106402328Y-25898446D01*
X106305688Y-25879224D01*
X106209044Y-25860000D01*
X106209041Y-25860000D01*
X86451959Y-25860000D01*
X86451957Y-25860000D01*
X86258670Y-25898447D01*
X86258660Y-25898450D01*
X86076592Y-25973864D01*
X86076579Y-25973871D01*
X85912718Y-26083360D01*
X85912714Y-26083363D01*
X85773363Y-26222714D01*
X85773360Y-26222718D01*
X85663871Y-26386579D01*
X85663864Y-26386592D01*
X85588450Y-26568660D01*
X85588447Y-26568670D01*
X85550000Y-26761956D01*
X85550000Y-26761959D01*
X85550000Y-26959041D01*
X85550000Y-26959043D01*
X85549999Y-26959043D01*
X85588447Y-27152329D01*
X85588450Y-27152339D01*
X85663864Y-27334407D01*
X85663871Y-27334420D01*
X85773360Y-27498281D01*
X85773363Y-27498285D01*
X85912714Y-27637636D01*
X85912718Y-27637639D01*
X86076579Y-27747128D01*
X86076592Y-27747135D01*
X86258660Y-27822549D01*
X86258665Y-27822551D01*
X86258669Y-27822551D01*
X86258670Y-27822552D01*
X86451956Y-27861000D01*
X86451959Y-27861000D01*
X105644718Y-27861000D01*
X105711757Y-27880685D01*
X105732399Y-27897319D01*
X107962181Y-30127101D01*
X107995666Y-30188424D01*
X107998500Y-30214782D01*
X107998500Y-73605718D01*
X107978815Y-73672757D01*
X107962181Y-73693399D01*
X107192399Y-74463181D01*
X107131076Y-74496666D01*
X107104718Y-74499500D01*
X99724957Y-74499500D01*
X99639675Y-74516464D01*
X99639671Y-74516464D01*
X99637132Y-74516970D01*
X99531664Y-74537949D01*
X99512998Y-74545681D01*
X99504122Y-74549357D01*
X99504120Y-74549358D01*
X99349592Y-74613364D01*
X99349579Y-74613371D01*
X99185719Y-74722859D01*
X99116040Y-74792538D01*
X99046361Y-74862218D01*
X99046358Y-74862221D01*
X89468721Y-84439858D01*
X89468718Y-84439861D01*
X89399038Y-84509540D01*
X89329359Y-84579219D01*
X89219871Y-84743079D01*
X89219864Y-84743092D01*
X89171665Y-84859457D01*
X89171659Y-84859472D01*
X89170439Y-84862419D01*
X89144449Y-84925164D01*
X89141260Y-84941195D01*
X89139505Y-84950014D01*
X89139503Y-84950022D01*
X89106000Y-85118456D01*
X89106000Y-94177717D01*
X89086315Y-94244756D01*
X89069681Y-94265398D01*
X85339412Y-97995667D01*
X81592221Y-101742858D01*
X81592218Y-101742861D01*
X81522538Y-101812540D01*
X81452859Y-101882219D01*
X81343371Y-102046079D01*
X81343368Y-102046086D01*
X81290038Y-102174834D01*
X81286862Y-102182503D01*
X81267950Y-102228159D01*
X81267947Y-102228167D01*
X81256725Y-102284589D01*
X81256725Y-102284590D01*
X81229500Y-102421456D01*
X81229500Y-103134217D01*
X81209815Y-103201256D01*
X81193181Y-103221898D01*
X80037863Y-104377215D01*
X80037860Y-104377219D01*
X79928372Y-104541079D01*
X79928367Y-104541089D01*
X79852949Y-104723163D01*
X79852947Y-104723171D01*
X79814500Y-104916455D01*
X79814500Y-105113544D01*
X79852947Y-105306828D01*
X79852949Y-105306836D01*
X79928367Y-105488910D01*
X79928372Y-105488920D01*
X80037860Y-105652780D01*
X80037863Y-105652784D01*
X80177215Y-105792136D01*
X80177219Y-105792139D01*
X80341079Y-105901627D01*
X80341083Y-105901629D01*
X80341086Y-105901631D01*
X80523164Y-105977051D01*
X80716455Y-106015499D01*
X80716458Y-106015500D01*
X80716460Y-106015500D01*
X80913542Y-106015500D01*
X80913543Y-106015499D01*
X81106836Y-105977051D01*
X81288914Y-105901631D01*
X81452781Y-105792139D01*
X82867778Y-104377141D01*
X82867782Y-104377139D01*
X83007139Y-104237782D01*
X83116632Y-104073914D01*
X83184527Y-103910000D01*
X83192051Y-103891836D01*
X83221103Y-103745784D01*
X83230500Y-103698541D01*
X83230500Y-102985781D01*
X83250185Y-102918742D01*
X83266814Y-102898105D01*
X90744278Y-95420641D01*
X90744282Y-95420639D01*
X90883639Y-95281282D01*
X90993132Y-95117414D01*
X91058643Y-94959255D01*
X91068551Y-94935336D01*
X91097426Y-94790173D01*
X91107000Y-94742041D01*
X91107000Y-85682782D01*
X91126685Y-85615743D01*
X91143319Y-85595101D01*
X100201601Y-76536819D01*
X100262924Y-76503334D01*
X100289282Y-76500500D01*
X103912084Y-76500500D01*
X103979123Y-76520185D01*
X104024878Y-76572989D01*
X104034822Y-76642147D01*
X104005797Y-76705703D01*
X103987570Y-76722876D01*
X103804225Y-76863560D01*
X103804218Y-76863566D01*
X103628066Y-77039718D01*
X103628060Y-77039725D01*
X103476400Y-77237373D01*
X103351837Y-77453123D01*
X103351830Y-77453138D01*
X103256498Y-77683292D01*
X103192017Y-77923938D01*
X103159501Y-78170924D01*
X103159500Y-78170941D01*
X103159500Y-78420058D01*
X103159501Y-78420075D01*
X103192017Y-78667061D01*
X103256498Y-78907707D01*
X103351830Y-79137861D01*
X103351837Y-79137876D01*
X103476400Y-79353626D01*
X103628060Y-79551274D01*
X103628066Y-79551281D01*
X103804218Y-79727433D01*
X103804225Y-79727439D01*
X104001873Y-79879099D01*
X104217623Y-80003662D01*
X104217638Y-80003669D01*
X104316825Y-80044753D01*
X104447793Y-80099002D01*
X104688435Y-80163482D01*
X104935435Y-80196000D01*
X104935442Y-80196000D01*
X105184558Y-80196000D01*
X105184565Y-80196000D01*
X105431565Y-80163482D01*
X105672207Y-80099002D01*
X105902373Y-80003664D01*
X106118127Y-79879099D01*
X106315776Y-79727438D01*
X106491938Y-79551276D01*
X106643599Y-79353627D01*
X106768164Y-79137873D01*
X106863502Y-78907707D01*
X106927982Y-78667065D01*
X106960500Y-78420065D01*
X106960500Y-78170935D01*
X106927982Y-77923935D01*
X106863502Y-77683293D01*
X106779404Y-77480263D01*
X106768169Y-77453138D01*
X106768162Y-77453123D01*
X106643599Y-77237373D01*
X106491939Y-77039725D01*
X106491933Y-77039718D01*
X106315781Y-76863566D01*
X106315774Y-76863560D01*
X106132430Y-76722876D01*
X106091227Y-76666448D01*
X106087072Y-76596702D01*
X106121284Y-76535782D01*
X106183001Y-76503029D01*
X106207916Y-76500500D01*
X107669042Y-76500500D01*
X107688239Y-76496681D01*
X107765688Y-76481275D01*
X107862336Y-76462051D01*
X107930566Y-76433789D01*
X108044414Y-76386632D01*
X108208282Y-76277139D01*
X108347639Y-76137782D01*
X108347640Y-76137780D01*
X108354706Y-76130714D01*
X108354708Y-76130710D01*
X109287820Y-75197599D01*
X109349142Y-75164115D01*
X109418834Y-75169099D01*
X109474767Y-75210971D01*
X109499184Y-75276435D01*
X109499500Y-75285281D01*
X109499500Y-89394359D01*
X109493261Y-89415604D01*
X109491682Y-89437693D01*
X109483609Y-89448476D01*
X109479815Y-89461398D01*
X109463081Y-89475897D01*
X109449810Y-89493626D01*
X109437189Y-89498333D01*
X109427011Y-89507153D01*
X109405093Y-89510304D01*
X109384346Y-89518043D01*
X109371185Y-89515180D01*
X109357853Y-89517097D01*
X109337709Y-89507897D01*
X109316073Y-89503191D01*
X109298347Y-89489922D01*
X109294297Y-89488072D01*
X109287819Y-89482040D01*
X109146078Y-89340299D01*
X103914105Y-84108325D01*
X103914100Y-84108321D01*
X103738949Y-83981067D01*
X103626226Y-83923631D01*
X103575431Y-83875657D01*
X103558636Y-83807836D01*
X103572037Y-83756852D01*
X103654323Y-83595355D01*
X103713861Y-83412118D01*
X103744000Y-83221830D01*
X103744000Y-83029169D01*
X103713861Y-82838881D01*
X103654323Y-82655644D01*
X103566857Y-82483982D01*
X103566851Y-82483973D01*
X103545065Y-82453987D01*
X103545064Y-82453986D01*
X102978467Y-83020583D01*
X102957971Y-82944087D01*
X102896094Y-82836913D01*
X102808587Y-82749406D01*
X102701413Y-82687529D01*
X102624914Y-82667031D01*
X103126241Y-82165704D01*
X103157633Y-82142897D01*
X103161778Y-82140786D01*
X103317708Y-82027496D01*
X103453996Y-81891208D01*
X103567286Y-81735278D01*
X103654788Y-81563545D01*
X103714348Y-81380238D01*
X103744500Y-81189870D01*
X103744500Y-80997130D01*
X103714348Y-80806762D01*
X103714347Y-80806758D01*
X103714347Y-80806757D01*
X103654789Y-80623457D01*
X103567285Y-80451721D01*
X103546410Y-80422989D01*
X103453996Y-80295792D01*
X103317708Y-80159504D01*
X103161778Y-80046214D01*
X102990042Y-79958710D01*
X102806740Y-79899152D01*
X102679826Y-79879050D01*
X102616370Y-79869000D01*
X102423630Y-79869000D01*
X102360174Y-79879050D01*
X102233260Y-79899152D01*
X102233257Y-79899152D01*
X102049957Y-79958710D01*
X101878221Y-80046214D01*
X101805567Y-80099001D01*
X101722292Y-80159504D01*
X101722290Y-80159506D01*
X101722289Y-80159506D01*
X101586006Y-80295789D01*
X101586006Y-80295790D01*
X101586004Y-80295792D01*
X101575989Y-80309577D01*
X101472714Y-80451721D01*
X101385210Y-80623457D01*
X101325652Y-80806757D01*
X101317406Y-80858820D01*
X101287475Y-80921954D01*
X101228163Y-80958884D01*
X101158301Y-80957886D01*
X101156615Y-80957351D01*
X101026740Y-80915152D01*
X100899826Y-80895050D01*
X100836370Y-80885000D01*
X100643630Y-80885000D01*
X100580174Y-80895050D01*
X100453260Y-80915152D01*
X100453253Y-80915153D01*
X100384904Y-80937361D01*
X100315063Y-80939356D01*
X100255230Y-80903275D01*
X100224403Y-80840573D01*
X100232368Y-80771159D01*
X100258903Y-80731752D01*
X101944586Y-79046069D01*
X101984810Y-79019192D01*
X102049686Y-78992321D01*
X102129173Y-78959397D01*
X102129176Y-78959395D01*
X102129179Y-78959394D01*
X102260289Y-78871789D01*
X102371789Y-78760289D01*
X102459394Y-78629179D01*
X102519737Y-78483497D01*
X102550500Y-78328842D01*
X102550500Y-78171158D01*
X102550500Y-78171155D01*
X102550499Y-78171153D01*
X102540487Y-78120821D01*
X102519737Y-78016503D01*
X102515865Y-78007154D01*
X102459397Y-77870827D01*
X102459390Y-77870814D01*
X102371789Y-77739711D01*
X102371786Y-77739707D01*
X102260292Y-77628213D01*
X102260288Y-77628210D01*
X102129185Y-77540609D01*
X102129172Y-77540602D01*
X101983501Y-77480264D01*
X101983489Y-77480261D01*
X101828845Y-77449500D01*
X101828842Y-77449500D01*
X101671158Y-77449500D01*
X101671155Y-77449500D01*
X101516510Y-77480261D01*
X101516498Y-77480264D01*
X101370827Y-77540602D01*
X101370814Y-77540609D01*
X101239711Y-77628210D01*
X101239707Y-77628213D01*
X101128213Y-77739707D01*
X101128210Y-77739711D01*
X101040609Y-77870814D01*
X101040604Y-77870823D01*
X100980809Y-78015184D01*
X100953929Y-78055412D01*
X94455887Y-84553454D01*
X94379222Y-84668192D01*
X94326421Y-84795667D01*
X94326418Y-84795679D01*
X94302447Y-84916190D01*
X94299501Y-84930998D01*
X94299500Y-84931005D01*
X94299500Y-93258480D01*
X94279815Y-93325519D01*
X94263181Y-93346161D01*
X89855890Y-97753451D01*
X89855885Y-97753457D01*
X89840352Y-97776703D01*
X89840353Y-97776704D01*
X89779222Y-97868192D01*
X89726421Y-97995667D01*
X89726418Y-97995677D01*
X89699500Y-98131004D01*
X89699500Y-105574684D01*
X89690061Y-105622136D01*
X89630264Y-105766498D01*
X89630261Y-105766510D01*
X89599500Y-105921153D01*
X89599500Y-106078846D01*
X89630261Y-106233489D01*
X89630264Y-106233501D01*
X89690602Y-106379172D01*
X89690609Y-106379185D01*
X89778210Y-106510288D01*
X89778213Y-106510292D01*
X89889707Y-106621786D01*
X89889711Y-106621789D01*
X90020814Y-106709390D01*
X90020827Y-106709397D01*
X90166498Y-106769735D01*
X90166503Y-106769737D01*
X90321153Y-106800499D01*
X90321156Y-106800500D01*
X90321158Y-106800500D01*
X90478844Y-106800500D01*
X90478845Y-106800499D01*
X90633497Y-106769737D01*
X90779179Y-106709394D01*
X90910289Y-106621789D01*
X91021789Y-106510289D01*
X91109394Y-106379179D01*
X91169737Y-106233497D01*
X91200500Y-106078842D01*
X91200500Y-105921158D01*
X91200500Y-105921155D01*
X91200499Y-105921153D01*
X91174836Y-105792139D01*
X91169737Y-105766503D01*
X91138699Y-105691569D01*
X91109939Y-105622136D01*
X91100500Y-105574684D01*
X91100500Y-98541518D01*
X91120185Y-98474479D01*
X91136819Y-98453837D01*
X93300421Y-96290235D01*
X95544113Y-94046543D01*
X95545664Y-94044223D01*
X95620775Y-93931811D01*
X95665208Y-93824540D01*
X95673580Y-93804329D01*
X95684371Y-93750076D01*
X95700500Y-93668993D01*
X95700500Y-85341518D01*
X95720185Y-85274479D01*
X95736814Y-85253842D01*
X99362252Y-81628404D01*
X99423572Y-81594921D01*
X99493264Y-81599905D01*
X99549197Y-81641777D01*
X99573614Y-81707241D01*
X99567861Y-81754404D01*
X99545653Y-81822753D01*
X99545652Y-81822760D01*
X99515500Y-82013130D01*
X99515500Y-82205869D01*
X99545652Y-82396239D01*
X99545652Y-82396242D01*
X99605210Y-82579542D01*
X99687517Y-82741079D01*
X99688511Y-82746372D01*
X99691865Y-82750584D01*
X99694891Y-82780346D01*
X99700413Y-82809749D01*
X99698388Y-82814737D01*
X99698933Y-82820095D01*
X99685386Y-82846770D01*
X99674136Y-82874489D01*
X99669084Y-82878872D01*
X99667297Y-82882392D01*
X99650616Y-82894897D01*
X99639689Y-82904379D01*
X99636542Y-82906221D01*
X99521052Y-82965067D01*
X99463733Y-83006712D01*
X99458793Y-83010301D01*
X99458788Y-83010304D01*
X99345892Y-83092327D01*
X97901827Y-84536392D01*
X97889429Y-84553457D01*
X97786685Y-84694873D01*
X97774567Y-84711552D01*
X97774566Y-84711554D01*
X97676273Y-84904461D01*
X97676272Y-84904464D01*
X97609370Y-85110372D01*
X97575500Y-85324217D01*
X97575500Y-89715514D01*
X97555815Y-89782553D01*
X97503011Y-89828308D01*
X97433853Y-89838252D01*
X97404049Y-89830076D01*
X97351835Y-89808449D01*
X97351829Y-89808447D01*
X97158543Y-89770000D01*
X97158541Y-89770000D01*
X96961459Y-89770000D01*
X96961457Y-89770000D01*
X96768170Y-89808447D01*
X96768160Y-89808450D01*
X96586092Y-89883864D01*
X96586079Y-89883871D01*
X96422218Y-89993360D01*
X96422214Y-89993363D01*
X96282863Y-90132714D01*
X96282860Y-90132718D01*
X96173371Y-90296579D01*
X96173364Y-90296592D01*
X96097950Y-90478660D01*
X96097947Y-90478670D01*
X96059500Y-90671956D01*
X96059500Y-103358543D01*
X96074151Y-103432199D01*
X96074153Y-103432209D01*
X96074984Y-103436383D01*
X96097949Y-103551836D01*
X96120038Y-103605165D01*
X96123074Y-103612494D01*
X96173366Y-103733911D01*
X96173371Y-103733920D01*
X96282860Y-103897781D01*
X96282863Y-103897785D01*
X96426537Y-104041459D01*
X96426559Y-104041479D01*
X96718255Y-104333176D01*
X96718259Y-104333179D01*
X96882119Y-104442667D01*
X96882123Y-104442669D01*
X96882126Y-104442671D01*
X97064204Y-104518091D01*
X97179808Y-104541086D01*
X97257495Y-104556539D01*
X97257498Y-104556540D01*
X97451500Y-104556540D01*
X97518539Y-104576225D01*
X97564294Y-104629029D01*
X97575500Y-104680540D01*
X97575500Y-106471997D01*
X97607421Y-106673535D01*
X97607421Y-106673536D01*
X97609369Y-106685839D01*
X97609370Y-106685844D01*
X97676272Y-106891750D01*
X97676273Y-106891753D01*
X97774569Y-107084666D01*
X97901821Y-107259815D01*
X97901825Y-107259820D01*
X100661189Y-110019184D01*
X100694674Y-110080507D01*
X100689690Y-110150199D01*
X100647818Y-110206132D01*
X100582354Y-110230549D01*
X100562701Y-110230393D01*
X100209597Y-110199500D01*
X100209594Y-110199500D01*
X99790406Y-110199500D01*
X99790402Y-110199500D01*
X99372809Y-110236035D01*
X99372805Y-110236035D01*
X98960001Y-110308824D01*
X98959984Y-110308828D01*
X98555097Y-110417316D01*
X98358132Y-110489005D01*
X98161178Y-110560691D01*
X98161174Y-110560692D01*
X98161168Y-110560695D01*
X98161160Y-110560698D01*
X97781273Y-110737843D01*
X97781257Y-110737851D01*
X97418244Y-110947438D01*
X97418218Y-110947454D01*
X97074855Y-111187879D01*
X96753737Y-111457331D01*
X96457331Y-111753737D01*
X96187879Y-112074855D01*
X95947454Y-112418218D01*
X95947438Y-112418244D01*
X95737851Y-112781257D01*
X95737843Y-112781273D01*
X95560698Y-113161160D01*
X95560695Y-113161168D01*
X95417316Y-113555097D01*
X95308828Y-113959984D01*
X95308824Y-113960001D01*
X95236035Y-114372805D01*
X95236035Y-114372809D01*
X95199500Y-114790402D01*
X95199500Y-115209597D01*
X95236035Y-115627190D01*
X95236035Y-115627194D01*
X95308824Y-116039998D01*
X95308828Y-116040015D01*
X95417316Y-116444902D01*
X95417319Y-116444912D01*
X95417320Y-116444913D01*
X95560691Y-116838822D01*
X95560694Y-116838829D01*
X95560695Y-116838831D01*
X95560698Y-116838839D01*
X95737843Y-117218726D01*
X95737851Y-117218742D01*
X95885169Y-117473904D01*
X95947443Y-117581764D01*
X95947447Y-117581770D01*
X95947454Y-117581781D01*
X96187879Y-117925144D01*
X96330281Y-118094851D01*
X96457329Y-118246260D01*
X96753740Y-118542671D01*
X96887255Y-118654704D01*
X97074855Y-118812120D01*
X97198826Y-118898925D01*
X97242451Y-118953502D01*
X97249645Y-119023000D01*
X97218122Y-119085355D01*
X97157892Y-119120769D01*
X97127703Y-119124500D01*
X83493687Y-119124500D01*
X83426648Y-119104815D01*
X83406006Y-119088181D01*
X82018650Y-117700825D01*
X82018645Y-117700821D01*
X81843496Y-117573569D01*
X81843495Y-117573568D01*
X81843493Y-117573567D01*
X81751602Y-117526746D01*
X81650583Y-117475273D01*
X81650577Y-117475271D01*
X81444672Y-117408370D01*
X81444615Y-117408360D01*
X81258155Y-117378828D01*
X81230828Y-117374500D01*
X78023039Y-117374500D01*
X77956000Y-117354815D01*
X77910245Y-117302011D01*
X77900301Y-117232853D01*
X77929326Y-117169297D01*
X77969128Y-117140597D01*
X77968543Y-117139502D01*
X77973902Y-117136636D01*
X77973914Y-117136632D01*
X78137782Y-117027139D01*
X78277139Y-116887782D01*
X78277139Y-116887780D01*
X78287347Y-116877573D01*
X78287348Y-116877570D01*
X79777139Y-115387782D01*
X79880229Y-115233497D01*
X79880235Y-115233489D01*
X79881834Y-115231093D01*
X79886632Y-115223914D01*
X79946633Y-115079057D01*
X79962051Y-115041836D01*
X80000500Y-114848541D01*
X80000500Y-114651460D01*
X80000500Y-112401459D01*
X80000500Y-112401456D01*
X79962052Y-112208170D01*
X79962051Y-112208169D01*
X79962051Y-112208165D01*
X79956186Y-112194006D01*
X79886635Y-112026092D01*
X79886628Y-112026079D01*
X79777139Y-111862218D01*
X79777136Y-111862214D01*
X79637785Y-111722863D01*
X79637781Y-111722860D01*
X79473920Y-111613371D01*
X79473907Y-111613364D01*
X79291839Y-111537950D01*
X79291829Y-111537947D01*
X79098543Y-111499500D01*
X79098541Y-111499500D01*
X78901459Y-111499500D01*
X78901457Y-111499500D01*
X78708170Y-111537947D01*
X78708160Y-111537950D01*
X78526092Y-111613364D01*
X78526079Y-111613371D01*
X78362218Y-111722860D01*
X78362214Y-111722863D01*
X78222863Y-111862214D01*
X78222860Y-111862218D01*
X78113371Y-112026079D01*
X78113364Y-112026092D01*
X78037950Y-112208160D01*
X78037947Y-112208170D01*
X77999500Y-112401456D01*
X77999500Y-114284217D01*
X77979815Y-114351256D01*
X77963181Y-114371898D01*
X77121899Y-115213181D01*
X77060576Y-115246666D01*
X77034218Y-115249500D01*
X52401457Y-115249500D01*
X52208170Y-115287947D01*
X52208160Y-115287950D01*
X52026092Y-115363364D01*
X52026079Y-115363371D01*
X51862218Y-115472860D01*
X51862214Y-115472863D01*
X51722863Y-115612214D01*
X51722860Y-115612218D01*
X51613371Y-115776079D01*
X51613364Y-115776092D01*
X51537950Y-115958160D01*
X51537947Y-115958170D01*
X51499500Y-116151456D01*
X51499500Y-116151459D01*
X51499500Y-116348541D01*
X51499500Y-116348543D01*
X51499499Y-116348543D01*
X51537947Y-116541829D01*
X51537950Y-116541839D01*
X51613364Y-116723907D01*
X51613371Y-116723920D01*
X51722860Y-116887781D01*
X51722863Y-116887785D01*
X51862214Y-117027136D01*
X51862218Y-117027139D01*
X52026079Y-117136628D01*
X52031456Y-117139502D01*
X52030665Y-117140980D01*
X52078813Y-117179775D01*
X52100881Y-117246068D01*
X52083605Y-117313769D01*
X52032470Y-117361381D01*
X51976960Y-117374500D01*
X39641741Y-117374500D01*
X39427901Y-117408369D01*
X39427897Y-117408370D01*
X39396330Y-117418626D01*
X39326489Y-117420619D01*
X39266657Y-117384537D01*
X39235831Y-117321835D01*
X39243797Y-117252421D01*
X39250624Y-117238702D01*
X39262152Y-117218736D01*
X39439309Y-116838822D01*
X39582680Y-116444913D01*
X39691174Y-116040008D01*
X39763965Y-115627188D01*
X39800500Y-115209594D01*
X39800500Y-114921153D01*
X46449500Y-114921153D01*
X46449500Y-115078846D01*
X46480261Y-115233489D01*
X46480264Y-115233499D01*
X46540602Y-115379172D01*
X46540609Y-115379185D01*
X46628210Y-115510288D01*
X46628213Y-115510292D01*
X46739707Y-115621786D01*
X46739711Y-115621789D01*
X46870814Y-115709390D01*
X46870827Y-115709397D01*
X47016498Y-115769735D01*
X47016503Y-115769737D01*
X47171153Y-115800499D01*
X47171156Y-115800500D01*
X47171158Y-115800500D01*
X47328844Y-115800500D01*
X47328845Y-115800499D01*
X47483497Y-115769737D01*
X47629179Y-115709394D01*
X47760289Y-115621789D01*
X47871789Y-115510289D01*
X47959394Y-115379179D01*
X48019737Y-115233497D01*
X48050437Y-115079160D01*
X48050638Y-115078150D01*
X48083023Y-115016239D01*
X48084514Y-115014720D01*
X48462417Y-114636819D01*
X48523740Y-114603334D01*
X48550098Y-114600500D01*
X62663331Y-114600500D01*
X62663347Y-114600501D01*
X62670943Y-114600501D01*
X62829054Y-114600501D01*
X62829057Y-114600501D01*
X62981785Y-114559577D01*
X63031904Y-114530639D01*
X63118716Y-114480520D01*
X63230520Y-114368716D01*
X63230520Y-114368714D01*
X63240728Y-114358507D01*
X63240730Y-114358504D01*
X63868713Y-113730521D01*
X63868716Y-113730520D01*
X63980520Y-113618716D01*
X64005487Y-113575470D01*
X64056050Y-113527256D01*
X64124656Y-113514031D01*
X64189522Y-113539997D01*
X64200553Y-113549788D01*
X65131284Y-114480520D01*
X65131286Y-114480521D01*
X65131290Y-114480524D01*
X65268209Y-114559573D01*
X65268216Y-114559577D01*
X65420943Y-114600501D01*
X65420945Y-114600501D01*
X65586654Y-114600501D01*
X65586670Y-114600500D01*
X74920234Y-114600500D01*
X74987273Y-114620185D01*
X74989125Y-114621398D01*
X75120814Y-114709390D01*
X75120827Y-114709397D01*
X75258683Y-114766498D01*
X75266503Y-114769737D01*
X75421153Y-114800499D01*
X75421156Y-114800500D01*
X75421158Y-114800500D01*
X75578844Y-114800500D01*
X75578845Y-114800499D01*
X75733497Y-114769737D01*
X75879179Y-114709394D01*
X76010289Y-114621789D01*
X76121789Y-114510289D01*
X76209394Y-114379179D01*
X76269737Y-114233497D01*
X76300500Y-114078842D01*
X76300500Y-113921158D01*
X76300500Y-113921155D01*
X76300499Y-113921153D01*
X76269738Y-113766510D01*
X76269737Y-113766503D01*
X76269735Y-113766498D01*
X76209397Y-113620827D01*
X76209390Y-113620814D01*
X76121789Y-113489711D01*
X76121786Y-113489707D01*
X76010292Y-113378213D01*
X76010288Y-113378210D01*
X75879185Y-113290609D01*
X75879172Y-113290602D01*
X75733501Y-113230264D01*
X75733489Y-113230261D01*
X75578845Y-113199500D01*
X75578842Y-113199500D01*
X75421158Y-113199500D01*
X75421155Y-113199500D01*
X75266510Y-113230261D01*
X75266498Y-113230264D01*
X75120827Y-113290602D01*
X75120814Y-113290609D01*
X74989125Y-113378602D01*
X74922447Y-113399480D01*
X74920234Y-113399500D01*
X65800098Y-113399500D01*
X65733059Y-113379815D01*
X65712417Y-113363181D01*
X65136819Y-112787583D01*
X65103334Y-112726260D01*
X65100500Y-112699902D01*
X65100500Y-110670945D01*
X65100500Y-110670943D01*
X65059577Y-110518216D01*
X65059573Y-110518209D01*
X64980524Y-110381290D01*
X64980521Y-110381286D01*
X64980520Y-110381284D01*
X64868716Y-110269480D01*
X64868715Y-110269479D01*
X64864385Y-110265149D01*
X64864374Y-110265139D01*
X55665991Y-101066756D01*
X55632506Y-101005433D01*
X55630269Y-100991226D01*
X55629838Y-100986858D01*
X55629838Y-100986852D01*
X55599075Y-100832197D01*
X55567597Y-100756202D01*
X55538735Y-100686521D01*
X55538728Y-100686508D01*
X55450736Y-100554819D01*
X55429858Y-100488141D01*
X55429838Y-100485928D01*
X55429838Y-84895459D01*
X55449523Y-84828420D01*
X55450736Y-84826568D01*
X55471376Y-84795679D01*
X55538732Y-84694873D01*
X55599075Y-84549191D01*
X55629838Y-84394536D01*
X55629838Y-84236852D01*
X55629838Y-84236849D01*
X55629837Y-84236847D01*
X55624132Y-84208165D01*
X55599075Y-84082197D01*
X55576270Y-84027140D01*
X55538735Y-83936521D01*
X55538728Y-83936508D01*
X55450736Y-83804819D01*
X55429858Y-83738141D01*
X55429838Y-83735928D01*
X55429838Y-68145459D01*
X55449523Y-68078420D01*
X55450736Y-68076568D01*
X55538728Y-67944879D01*
X55538728Y-67944878D01*
X55538732Y-67944873D01*
X55599075Y-67799191D01*
X55629838Y-67644536D01*
X55629838Y-67486852D01*
X55629838Y-67486849D01*
X55629837Y-67486847D01*
X55599075Y-67332197D01*
X55538732Y-67186515D01*
X55475147Y-67091353D01*
X55454270Y-67024677D01*
X55454250Y-67022464D01*
X55454250Y-51395459D01*
X55473935Y-51328420D01*
X55475148Y-51326568D01*
X55563140Y-51194879D01*
X55563140Y-51194878D01*
X55563144Y-51194873D01*
X55623487Y-51049191D01*
X55654250Y-50894536D01*
X55654250Y-50736852D01*
X55654250Y-50736849D01*
X55654249Y-50736847D01*
X55625295Y-50591286D01*
X55623487Y-50582197D01*
X55580941Y-50479480D01*
X55563147Y-50436521D01*
X55563140Y-50436508D01*
X55475539Y-50305405D01*
X55475536Y-50305401D01*
X55364042Y-50193907D01*
X55364038Y-50193904D01*
X55232935Y-50106303D01*
X55232922Y-50106296D01*
X55087251Y-50045958D01*
X55087239Y-50045955D01*
X54932595Y-50015194D01*
X54932592Y-50015194D01*
X54774908Y-50015194D01*
X54774903Y-50015194D01*
X54617822Y-50046439D01*
X54548230Y-50040212D01*
X54493053Y-49997348D01*
X54469809Y-49931459D01*
X54479069Y-49877371D01*
X54519737Y-49779191D01*
X54550500Y-49624536D01*
X54550500Y-49466852D01*
X54550500Y-49466849D01*
X54550499Y-49466847D01*
X54519738Y-49312204D01*
X54519737Y-49312197D01*
X54506020Y-49279081D01*
X54459397Y-49166521D01*
X54459390Y-49166508D01*
X54371789Y-49035405D01*
X54371786Y-49035401D01*
X54260292Y-48923907D01*
X54260288Y-48923904D01*
X54129185Y-48836303D01*
X54129172Y-48836296D01*
X53983501Y-48775958D01*
X53983489Y-48775955D01*
X53828845Y-48745194D01*
X53828842Y-48745194D01*
X53671158Y-48745194D01*
X53671155Y-48745194D01*
X53516510Y-48775955D01*
X53516498Y-48775958D01*
X53370827Y-48836296D01*
X53370814Y-48836303D01*
X53239711Y-48923904D01*
X53239707Y-48923907D01*
X53128213Y-49035401D01*
X53128210Y-49035405D01*
X53040609Y-49166508D01*
X53040602Y-49166521D01*
X52980264Y-49312192D01*
X52980261Y-49312204D01*
X52949500Y-49466847D01*
X52949500Y-49624540D01*
X52980261Y-49779183D01*
X52980263Y-49779191D01*
X53040602Y-49924866D01*
X53040609Y-49924879D01*
X53117673Y-50040212D01*
X53121510Y-50045955D01*
X53128602Y-50056568D01*
X53149480Y-50123245D01*
X53149500Y-50125459D01*
X53149500Y-65715928D01*
X53129815Y-65782967D01*
X53128602Y-65784819D01*
X53040609Y-65916508D01*
X53040602Y-65916521D01*
X52980264Y-66062192D01*
X52980261Y-66062204D01*
X52949500Y-66216847D01*
X52949500Y-66374540D01*
X52980261Y-66529183D01*
X52980264Y-66529195D01*
X53040602Y-66674866D01*
X53040609Y-66674879D01*
X53128602Y-66806568D01*
X53149480Y-66873245D01*
X53149500Y-66875459D01*
X53149500Y-82465928D01*
X53129815Y-82532967D01*
X53128602Y-82534819D01*
X53040609Y-82666508D01*
X53040602Y-82666521D01*
X52980264Y-82812192D01*
X52980261Y-82812204D01*
X52949500Y-82966847D01*
X52949500Y-83124540D01*
X52980261Y-83279183D01*
X52980264Y-83279195D01*
X53040602Y-83424866D01*
X53040609Y-83424879D01*
X53128602Y-83556568D01*
X53149480Y-83623245D01*
X53149500Y-83625459D01*
X53149500Y-99215928D01*
X53129815Y-99282967D01*
X53128602Y-99284819D01*
X53040609Y-99416508D01*
X53040602Y-99416521D01*
X52980264Y-99562192D01*
X52980261Y-99562204D01*
X52949500Y-99716847D01*
X52949500Y-99874540D01*
X52980261Y-100029183D01*
X52980264Y-100029195D01*
X53040602Y-100174866D01*
X53040609Y-100174879D01*
X53128602Y-100306568D01*
X53149480Y-100373245D01*
X53149500Y-100375459D01*
X53149500Y-101163330D01*
X53149499Y-101163348D01*
X53149499Y-101329054D01*
X53149498Y-101329054D01*
X53190423Y-101481785D01*
X53210178Y-101516000D01*
X53210179Y-101516004D01*
X53269475Y-101618709D01*
X53269481Y-101618717D01*
X53388349Y-101737585D01*
X53388355Y-101737590D01*
X62863181Y-111212416D01*
X62896666Y-111273739D01*
X62899500Y-111300097D01*
X62899500Y-112949903D01*
X62879815Y-113016942D01*
X62863181Y-113037584D01*
X62537584Y-113363181D01*
X62476261Y-113396666D01*
X62449903Y-113399500D01*
X48336670Y-113399500D01*
X48336654Y-113399499D01*
X48329058Y-113399499D01*
X48170943Y-113399499D01*
X48094579Y-113419961D01*
X48018214Y-113440423D01*
X48018209Y-113440426D01*
X47881290Y-113519475D01*
X47881282Y-113519481D01*
X47235339Y-114165425D01*
X47174016Y-114198910D01*
X47171850Y-114199361D01*
X47016508Y-114230261D01*
X47016498Y-114230264D01*
X46870827Y-114290602D01*
X46870814Y-114290609D01*
X46739711Y-114378210D01*
X46739707Y-114378213D01*
X46628213Y-114489707D01*
X46628210Y-114489711D01*
X46540609Y-114620814D01*
X46540602Y-114620827D01*
X46480264Y-114766498D01*
X46480261Y-114766510D01*
X46449500Y-114921153D01*
X39800500Y-114921153D01*
X39800500Y-114790406D01*
X39763965Y-114372812D01*
X39749470Y-114290609D01*
X39738830Y-114230263D01*
X39691174Y-113959992D01*
X39600295Y-113620827D01*
X39582683Y-113555097D01*
X39582681Y-113555093D01*
X39582680Y-113555087D01*
X39439309Y-113161178D01*
X39262152Y-112781264D01*
X39052557Y-112418236D01*
X39052549Y-112418225D01*
X39052545Y-112418218D01*
X38812120Y-112074855D01*
X38542668Y-111753737D01*
X38246262Y-111457331D01*
X37925144Y-111187879D01*
X37581781Y-110947454D01*
X37581770Y-110947447D01*
X37581764Y-110947443D01*
X37473904Y-110885169D01*
X37218742Y-110737851D01*
X37218726Y-110737843D01*
X36838839Y-110560698D01*
X36838831Y-110560695D01*
X36838829Y-110560694D01*
X36838822Y-110560691D01*
X36444913Y-110417320D01*
X36444912Y-110417319D01*
X36444902Y-110417316D01*
X36040015Y-110308828D01*
X36040018Y-110308828D01*
X36040008Y-110308826D01*
X36040002Y-110308824D01*
X36039998Y-110308824D01*
X35627192Y-110236035D01*
X35209597Y-110199500D01*
X35209594Y-110199500D01*
X34790406Y-110199500D01*
X34790402Y-110199500D01*
X34372809Y-110236035D01*
X34372805Y-110236035D01*
X33960001Y-110308824D01*
X33959984Y-110308828D01*
X33555097Y-110417316D01*
X33358132Y-110489005D01*
X33161178Y-110560691D01*
X33161174Y-110560692D01*
X33161168Y-110560695D01*
X33161160Y-110560698D01*
X32781273Y-110737843D01*
X32781257Y-110737851D01*
X32418244Y-110947438D01*
X32418218Y-110947454D01*
X32074855Y-111187879D01*
X31753737Y-111457331D01*
X31457331Y-111753737D01*
X31187879Y-112074855D01*
X30947454Y-112418218D01*
X30947438Y-112418244D01*
X30856887Y-112575083D01*
X30806320Y-112623299D01*
X30737713Y-112636521D01*
X30672848Y-112610553D01*
X30632320Y-112553639D01*
X30625500Y-112513083D01*
X30625500Y-102836747D01*
X30607026Y-102720109D01*
X30605499Y-102700711D01*
X30605499Y-101152129D01*
X30605498Y-101152123D01*
X30599091Y-101092516D01*
X30548797Y-100957671D01*
X30548793Y-100957664D01*
X30462547Y-100842455D01*
X30462544Y-100842452D01*
X30347335Y-100756206D01*
X30347328Y-100756202D01*
X30212482Y-100705908D01*
X30212483Y-100705908D01*
X30152883Y-100699501D01*
X30152881Y-100699500D01*
X30152873Y-100699500D01*
X30152865Y-100699500D01*
X27939500Y-100699500D01*
X27930814Y-100696949D01*
X27921853Y-100698238D01*
X27897812Y-100687259D01*
X27872461Y-100679815D01*
X27866533Y-100672974D01*
X27858297Y-100669213D01*
X27844007Y-100646978D01*
X27826706Y-100627011D01*
X27824418Y-100616496D01*
X27820523Y-100610435D01*
X27815500Y-100575500D01*
X27815500Y-100486111D01*
X27835185Y-100419072D01*
X27851814Y-100398434D01*
X28924041Y-99326207D01*
X28985362Y-99292724D01*
X28995529Y-99290951D01*
X29157014Y-99269693D01*
X29384993Y-99208606D01*
X29603049Y-99118284D01*
X29807450Y-99000273D01*
X29994699Y-98856592D01*
X30161592Y-98689699D01*
X30305273Y-98502450D01*
X30423284Y-98298049D01*
X30513606Y-98079993D01*
X30574693Y-97852014D01*
X30605500Y-97618011D01*
X30605500Y-97381989D01*
X30574693Y-97147986D01*
X30513606Y-96920007D01*
X30423284Y-96701951D01*
X30423282Y-96701948D01*
X30423280Y-96701943D01*
X30378160Y-96623794D01*
X30305273Y-96497550D01*
X30161592Y-96310301D01*
X30161587Y-96310295D01*
X29994701Y-96143409D01*
X29994697Y-96143406D01*
X29807454Y-95999730D01*
X29807453Y-95999729D01*
X29807450Y-95999727D01*
X29725957Y-95952677D01*
X29603056Y-95881719D01*
X29603045Y-95881714D01*
X29384993Y-95791394D01*
X29245396Y-95753989D01*
X29157014Y-95730307D01*
X29157013Y-95730306D01*
X29157010Y-95730306D01*
X28923020Y-95699501D01*
X28923017Y-95699500D01*
X28923011Y-95699500D01*
X28686989Y-95699500D01*
X28686983Y-95699500D01*
X28686979Y-95699501D01*
X28452989Y-95730306D01*
X28225006Y-95791394D01*
X28006954Y-95881714D01*
X28006943Y-95881719D01*
X27802545Y-95999730D01*
X27615302Y-96143406D01*
X27615299Y-96143409D01*
X27448412Y-96310295D01*
X27448406Y-96310302D01*
X27304730Y-96497545D01*
X27186719Y-96701943D01*
X27186714Y-96701954D01*
X27096394Y-96920006D01*
X27035306Y-97147988D01*
X27014048Y-97309463D01*
X26985781Y-97373359D01*
X26978790Y-97380958D01*
X25712181Y-98647568D01*
X25650858Y-98681053D01*
X25581166Y-98676069D01*
X25525233Y-98634197D01*
X25500816Y-98568733D01*
X25500500Y-98559887D01*
X25500500Y-92381995D01*
X27004500Y-92381995D01*
X27004500Y-92618004D01*
X27004501Y-92618020D01*
X27033642Y-92839371D01*
X27035307Y-92852014D01*
X27077041Y-93007767D01*
X27096394Y-93079993D01*
X27186714Y-93298045D01*
X27186719Y-93298056D01*
X27257677Y-93420957D01*
X27304727Y-93502450D01*
X27304729Y-93502453D01*
X27304730Y-93502454D01*
X27448406Y-93689697D01*
X27448412Y-93689704D01*
X27615295Y-93856587D01*
X27615301Y-93856592D01*
X27802550Y-94000273D01*
X27933918Y-94076118D01*
X28006943Y-94118280D01*
X28006948Y-94118282D01*
X28006951Y-94118284D01*
X28225007Y-94208606D01*
X28452986Y-94269693D01*
X28686989Y-94300500D01*
X28686996Y-94300500D01*
X28923004Y-94300500D01*
X28923011Y-94300500D01*
X29157014Y-94269693D01*
X29384993Y-94208606D01*
X29603049Y-94118284D01*
X29807450Y-94000273D01*
X29994699Y-93856592D01*
X30161592Y-93689699D01*
X30305273Y-93502450D01*
X30423284Y-93298049D01*
X30513606Y-93079993D01*
X30574693Y-92852014D01*
X30605500Y-92618011D01*
X30605500Y-92381989D01*
X30574693Y-92147986D01*
X30513606Y-91920007D01*
X30423284Y-91701951D01*
X30423282Y-91701948D01*
X30423280Y-91701943D01*
X30342749Y-91562461D01*
X30305273Y-91497550D01*
X30161592Y-91310301D01*
X30161587Y-91310295D01*
X29994704Y-91143412D01*
X29994697Y-91143406D01*
X29807454Y-90999730D01*
X29807453Y-90999729D01*
X29807450Y-90999727D01*
X29725957Y-90952677D01*
X29603056Y-90881719D01*
X29603045Y-90881714D01*
X29384993Y-90791394D01*
X29157010Y-90730306D01*
X28923020Y-90699501D01*
X28923017Y-90699500D01*
X28923011Y-90699500D01*
X28686989Y-90699500D01*
X28686983Y-90699500D01*
X28686979Y-90699501D01*
X28452989Y-90730306D01*
X28225006Y-90791394D01*
X28006954Y-90881714D01*
X28006943Y-90881719D01*
X27802545Y-90999730D01*
X27615302Y-91143406D01*
X27615295Y-91143412D01*
X27448412Y-91310295D01*
X27448406Y-91310302D01*
X27304730Y-91497545D01*
X27186719Y-91701943D01*
X27186714Y-91701954D01*
X27096394Y-91920006D01*
X27035306Y-92147989D01*
X27004501Y-92381979D01*
X27004500Y-92381995D01*
X25500500Y-92381995D01*
X25500500Y-87381995D01*
X27004500Y-87381995D01*
X27004500Y-87618004D01*
X27004501Y-87618020D01*
X27035306Y-87852010D01*
X27096394Y-88079993D01*
X27186714Y-88298045D01*
X27186719Y-88298056D01*
X27239438Y-88389366D01*
X27304727Y-88502450D01*
X27304729Y-88502453D01*
X27304730Y-88502454D01*
X27448406Y-88689697D01*
X27448412Y-88689704D01*
X27615295Y-88856587D01*
X27615301Y-88856592D01*
X27802550Y-89000273D01*
X27933918Y-89076118D01*
X28006943Y-89118280D01*
X28006948Y-89118282D01*
X28006951Y-89118284D01*
X28225007Y-89208606D01*
X28452986Y-89269693D01*
X28686989Y-89300500D01*
X28686996Y-89300500D01*
X28923004Y-89300500D01*
X28923011Y-89300500D01*
X29157014Y-89269693D01*
X29384993Y-89208606D01*
X29603049Y-89118284D01*
X29807450Y-89000273D01*
X29994699Y-88856592D01*
X30161592Y-88689699D01*
X30305273Y-88502450D01*
X30423284Y-88298049D01*
X30513606Y-88079993D01*
X30574693Y-87852014D01*
X30605500Y-87618011D01*
X30605500Y-87381989D01*
X30574693Y-87147986D01*
X30513606Y-86920007D01*
X30423284Y-86701951D01*
X30423282Y-86701948D01*
X30423280Y-86701943D01*
X30381118Y-86628918D01*
X30305273Y-86497550D01*
X30161592Y-86310301D01*
X30161587Y-86310295D01*
X29994704Y-86143412D01*
X29994697Y-86143406D01*
X29807454Y-85999730D01*
X29807453Y-85999729D01*
X29807450Y-85999727D01*
X29725957Y-85952677D01*
X29603056Y-85881719D01*
X29603045Y-85881714D01*
X29384993Y-85791394D01*
X29157010Y-85730306D01*
X28923020Y-85699501D01*
X28923017Y-85699500D01*
X28923011Y-85699500D01*
X28686989Y-85699500D01*
X28686983Y-85699500D01*
X28686979Y-85699501D01*
X28452989Y-85730306D01*
X28225006Y-85791394D01*
X28006954Y-85881714D01*
X28006943Y-85881719D01*
X27802545Y-85999730D01*
X27615302Y-86143406D01*
X27615295Y-86143412D01*
X27448412Y-86310295D01*
X27448406Y-86310302D01*
X27304730Y-86497545D01*
X27186719Y-86701943D01*
X27186714Y-86701954D01*
X27096394Y-86920006D01*
X27035306Y-87147989D01*
X27004501Y-87381979D01*
X27004500Y-87381995D01*
X25500500Y-87381995D01*
X25500500Y-82381995D01*
X27004500Y-82381995D01*
X27004500Y-82618004D01*
X27004501Y-82618020D01*
X27035306Y-82852010D01*
X27096394Y-83079993D01*
X27186714Y-83298045D01*
X27186719Y-83298056D01*
X27215869Y-83348544D01*
X27304727Y-83502450D01*
X27304729Y-83502453D01*
X27304730Y-83502454D01*
X27448406Y-83689697D01*
X27448412Y-83689704D01*
X27615295Y-83856587D01*
X27615302Y-83856593D01*
X27685279Y-83910288D01*
X27802550Y-84000273D01*
X27933918Y-84076118D01*
X28006943Y-84118280D01*
X28006948Y-84118282D01*
X28006951Y-84118284D01*
X28225007Y-84208606D01*
X28452986Y-84269693D01*
X28686989Y-84300500D01*
X28686996Y-84300500D01*
X28923004Y-84300500D01*
X28923011Y-84300500D01*
X29157014Y-84269693D01*
X29384993Y-84208606D01*
X29603049Y-84118284D01*
X29807450Y-84000273D01*
X29994699Y-83856592D01*
X30161592Y-83689699D01*
X30305273Y-83502450D01*
X30423284Y-83298049D01*
X30513606Y-83079993D01*
X30574693Y-82852014D01*
X30605500Y-82618011D01*
X30605500Y-82381989D01*
X30574693Y-82147986D01*
X30513606Y-81920007D01*
X30423284Y-81701951D01*
X30423282Y-81701948D01*
X30423280Y-81701943D01*
X30380823Y-81628406D01*
X30305273Y-81497550D01*
X30215257Y-81380239D01*
X30161593Y-81310302D01*
X30161587Y-81310295D01*
X29994704Y-81143412D01*
X29994697Y-81143406D01*
X29807454Y-80999730D01*
X29807453Y-80999729D01*
X29807450Y-80999727D01*
X29704738Y-80940426D01*
X29603056Y-80881719D01*
X29603045Y-80881714D01*
X29384993Y-80791394D01*
X29309475Y-80771159D01*
X29157014Y-80730307D01*
X29157013Y-80730306D01*
X29157010Y-80730306D01*
X28923020Y-80699501D01*
X28923017Y-80699500D01*
X28923011Y-80699500D01*
X28686989Y-80699500D01*
X28686983Y-80699500D01*
X28686979Y-80699501D01*
X28452989Y-80730306D01*
X28225006Y-80791394D01*
X28006954Y-80881714D01*
X28006943Y-80881719D01*
X27802545Y-80999730D01*
X27615302Y-81143406D01*
X27615295Y-81143412D01*
X27448412Y-81310295D01*
X27448406Y-81310302D01*
X27304730Y-81497545D01*
X27186719Y-81701943D01*
X27186714Y-81701954D01*
X27096394Y-81920006D01*
X27035306Y-82147989D01*
X27004501Y-82381979D01*
X27004500Y-82381995D01*
X25500500Y-82381995D01*
X25500500Y-77381995D01*
X27004500Y-77381995D01*
X27004500Y-77618004D01*
X27004501Y-77618020D01*
X27030284Y-77813865D01*
X27035307Y-77852014D01*
X27040346Y-77870821D01*
X27096394Y-78079993D01*
X27186714Y-78298045D01*
X27186719Y-78298056D01*
X27232934Y-78378101D01*
X27304727Y-78502450D01*
X27304729Y-78502453D01*
X27304730Y-78502454D01*
X27448406Y-78689697D01*
X27448412Y-78689704D01*
X27615295Y-78856587D01*
X27615302Y-78856593D01*
X27649495Y-78882830D01*
X27802550Y-79000273D01*
X27919413Y-79067744D01*
X28006943Y-79118280D01*
X28006948Y-79118282D01*
X28006951Y-79118284D01*
X28225007Y-79208606D01*
X28452986Y-79269693D01*
X28686989Y-79300500D01*
X28686996Y-79300500D01*
X28923004Y-79300500D01*
X28923011Y-79300500D01*
X29157014Y-79269693D01*
X29384993Y-79208606D01*
X29603049Y-79118284D01*
X29807450Y-79000273D01*
X29994699Y-78856592D01*
X30161592Y-78689699D01*
X30305273Y-78502450D01*
X30423284Y-78298049D01*
X30513606Y-78079993D01*
X30574693Y-77852014D01*
X30605500Y-77618011D01*
X30605500Y-77381989D01*
X30574693Y-77147986D01*
X30513606Y-76920007D01*
X30423284Y-76701951D01*
X30423282Y-76701948D01*
X30423280Y-76701943D01*
X30357111Y-76587336D01*
X30305273Y-76497550D01*
X30161592Y-76310301D01*
X30161587Y-76310295D01*
X29994704Y-76143412D01*
X29994697Y-76143406D01*
X29807454Y-75999730D01*
X29807453Y-75999729D01*
X29807450Y-75999727D01*
X29725929Y-75952661D01*
X29603056Y-75881719D01*
X29603045Y-75881714D01*
X29384993Y-75791394D01*
X29157010Y-75730306D01*
X28923020Y-75699501D01*
X28923017Y-75699500D01*
X28923011Y-75699500D01*
X28686989Y-75699500D01*
X28686983Y-75699500D01*
X28686979Y-75699501D01*
X28452989Y-75730306D01*
X28225006Y-75791394D01*
X28006954Y-75881714D01*
X28006943Y-75881719D01*
X27802545Y-75999730D01*
X27615302Y-76143406D01*
X27615295Y-76143412D01*
X27448412Y-76310295D01*
X27448406Y-76310302D01*
X27304730Y-76497545D01*
X27186719Y-76701943D01*
X27186714Y-76701954D01*
X27096394Y-76920006D01*
X27035306Y-77147989D01*
X27004501Y-77381979D01*
X27004500Y-77381995D01*
X25500500Y-77381995D01*
X25500500Y-72381995D01*
X27004500Y-72381995D01*
X27004500Y-72618004D01*
X27004501Y-72618020D01*
X27035306Y-72852010D01*
X27096394Y-73079993D01*
X27186714Y-73298045D01*
X27186719Y-73298056D01*
X27257677Y-73420957D01*
X27304727Y-73502450D01*
X27304729Y-73502453D01*
X27304730Y-73502454D01*
X27448406Y-73689697D01*
X27448412Y-73689704D01*
X27615295Y-73856587D01*
X27615302Y-73856593D01*
X27671220Y-73899500D01*
X27802550Y-74000273D01*
X27933918Y-74076118D01*
X28006943Y-74118280D01*
X28006948Y-74118282D01*
X28006951Y-74118284D01*
X28225007Y-74208606D01*
X28452986Y-74269693D01*
X28686989Y-74300500D01*
X28686996Y-74300500D01*
X28923004Y-74300500D01*
X28923011Y-74300500D01*
X29157014Y-74269693D01*
X29384993Y-74208606D01*
X29603049Y-74118284D01*
X29807450Y-74000273D01*
X29994699Y-73856592D01*
X30161592Y-73689699D01*
X30305273Y-73502450D01*
X30423284Y-73298049D01*
X30513606Y-73079993D01*
X30574693Y-72852014D01*
X30605500Y-72618011D01*
X30605500Y-72381989D01*
X30574693Y-72147986D01*
X30513606Y-71920007D01*
X30423284Y-71701951D01*
X30423282Y-71701948D01*
X30423280Y-71701943D01*
X30381118Y-71628918D01*
X30305273Y-71497550D01*
X30179792Y-71334020D01*
X30161593Y-71310302D01*
X30161587Y-71310295D01*
X29994704Y-71143412D01*
X29994697Y-71143406D01*
X29807454Y-70999730D01*
X29807453Y-70999729D01*
X29807450Y-70999727D01*
X29725957Y-70952677D01*
X29603056Y-70881719D01*
X29603045Y-70881714D01*
X29384993Y-70791394D01*
X29157010Y-70730306D01*
X28923020Y-70699501D01*
X28923017Y-70699500D01*
X28923011Y-70699500D01*
X28686989Y-70699500D01*
X28686983Y-70699500D01*
X28686979Y-70699501D01*
X28452989Y-70730306D01*
X28225006Y-70791394D01*
X28006954Y-70881714D01*
X28006943Y-70881719D01*
X27802545Y-70999730D01*
X27615302Y-71143406D01*
X27615295Y-71143412D01*
X27448412Y-71310295D01*
X27448406Y-71310302D01*
X27304730Y-71497545D01*
X27186719Y-71701943D01*
X27186714Y-71701954D01*
X27096394Y-71920006D01*
X27035306Y-72147989D01*
X27004501Y-72381979D01*
X27004500Y-72381995D01*
X25500500Y-72381995D01*
X25500500Y-67381995D01*
X27004500Y-67381995D01*
X27004500Y-67618004D01*
X27004501Y-67618020D01*
X27035306Y-67852010D01*
X27096394Y-68079993D01*
X27186714Y-68298045D01*
X27186719Y-68298056D01*
X27257677Y-68420957D01*
X27304727Y-68502450D01*
X27304729Y-68502453D01*
X27304730Y-68502454D01*
X27448406Y-68689697D01*
X27448412Y-68689704D01*
X27615295Y-68856587D01*
X27615301Y-68856592D01*
X27802550Y-69000273D01*
X27933918Y-69076118D01*
X28006943Y-69118280D01*
X28006948Y-69118282D01*
X28006951Y-69118284D01*
X28225007Y-69208606D01*
X28452986Y-69269693D01*
X28686989Y-69300500D01*
X28686996Y-69300500D01*
X28923004Y-69300500D01*
X28923011Y-69300500D01*
X29157014Y-69269693D01*
X29384993Y-69208606D01*
X29603049Y-69118284D01*
X29807450Y-69000273D01*
X29994699Y-68856592D01*
X30161592Y-68689699D01*
X30305273Y-68502450D01*
X30423284Y-68298049D01*
X30513606Y-68079993D01*
X30574693Y-67852014D01*
X30605500Y-67618011D01*
X30605500Y-67381989D01*
X30574693Y-67147986D01*
X30513606Y-66920007D01*
X30423284Y-66701951D01*
X30423282Y-66701948D01*
X30423280Y-66701943D01*
X30381118Y-66628918D01*
X30305273Y-66497550D01*
X30161592Y-66310301D01*
X30161587Y-66310295D01*
X29994704Y-66143412D01*
X29994697Y-66143406D01*
X29807454Y-65999730D01*
X29807453Y-65999729D01*
X29807450Y-65999727D01*
X29725957Y-65952677D01*
X29603056Y-65881719D01*
X29603045Y-65881714D01*
X29384993Y-65791394D01*
X29157010Y-65730306D01*
X28923020Y-65699501D01*
X28923017Y-65699500D01*
X28923011Y-65699500D01*
X28686989Y-65699500D01*
X28686983Y-65699500D01*
X28686979Y-65699501D01*
X28452989Y-65730306D01*
X28225006Y-65791394D01*
X28006954Y-65881714D01*
X28006943Y-65881719D01*
X27802545Y-65999730D01*
X27615302Y-66143406D01*
X27615295Y-66143412D01*
X27448412Y-66310295D01*
X27448406Y-66310302D01*
X27304730Y-66497545D01*
X27186719Y-66701943D01*
X27186714Y-66701954D01*
X27096394Y-66920006D01*
X27035306Y-67147989D01*
X27004501Y-67381979D01*
X27004500Y-67381995D01*
X25500500Y-67381995D01*
X25500500Y-62381995D01*
X27004500Y-62381995D01*
X27004500Y-62618004D01*
X27004501Y-62618020D01*
X27035306Y-62852010D01*
X27096394Y-63079993D01*
X27186714Y-63298045D01*
X27186719Y-63298056D01*
X27257677Y-63420957D01*
X27304727Y-63502450D01*
X27304729Y-63502453D01*
X27304730Y-63502454D01*
X27448406Y-63689697D01*
X27448412Y-63689704D01*
X27615295Y-63856587D01*
X27615301Y-63856592D01*
X27802550Y-64000273D01*
X27933918Y-64076118D01*
X28006943Y-64118280D01*
X28006948Y-64118282D01*
X28006951Y-64118284D01*
X28225007Y-64208606D01*
X28452986Y-64269693D01*
X28686989Y-64300500D01*
X28686996Y-64300500D01*
X28923004Y-64300500D01*
X28923011Y-64300500D01*
X29157014Y-64269693D01*
X29384993Y-64208606D01*
X29603049Y-64118284D01*
X29807450Y-64000273D01*
X29994699Y-63856592D01*
X30161592Y-63689699D01*
X30305273Y-63502450D01*
X30423284Y-63298049D01*
X30513606Y-63079993D01*
X30574693Y-62852014D01*
X30605500Y-62618011D01*
X30605500Y-62381989D01*
X30574693Y-62147986D01*
X30513606Y-61920007D01*
X30423284Y-61701951D01*
X30423282Y-61701948D01*
X30423280Y-61701943D01*
X30353921Y-61581811D01*
X30305273Y-61497550D01*
X30168264Y-61318996D01*
X30161593Y-61310302D01*
X30161587Y-61310295D01*
X29994704Y-61143412D01*
X29994697Y-61143406D01*
X29807454Y-60999730D01*
X29807453Y-60999729D01*
X29807450Y-60999727D01*
X29725957Y-60952677D01*
X29603056Y-60881719D01*
X29603045Y-60881714D01*
X29384993Y-60791394D01*
X29157010Y-60730306D01*
X28923020Y-60699501D01*
X28923017Y-60699500D01*
X28923011Y-60699500D01*
X28686989Y-60699500D01*
X28686983Y-60699500D01*
X28686979Y-60699501D01*
X28452989Y-60730306D01*
X28225006Y-60791394D01*
X28006954Y-60881714D01*
X28006943Y-60881719D01*
X27802545Y-60999730D01*
X27615302Y-61143406D01*
X27615295Y-61143412D01*
X27448412Y-61310295D01*
X27448406Y-61310302D01*
X27304730Y-61497545D01*
X27186719Y-61701943D01*
X27186714Y-61701954D01*
X27096394Y-61920006D01*
X27035306Y-62147989D01*
X27004501Y-62381979D01*
X27004500Y-62381995D01*
X25500500Y-62381995D01*
X25500500Y-57381995D01*
X27004500Y-57381995D01*
X27004500Y-57618004D01*
X27004501Y-57618020D01*
X27033812Y-57840663D01*
X27035307Y-57852014D01*
X27089523Y-58054352D01*
X27096394Y-58079993D01*
X27186714Y-58298045D01*
X27186719Y-58298056D01*
X27257677Y-58420957D01*
X27304727Y-58502450D01*
X27304729Y-58502453D01*
X27304730Y-58502454D01*
X27448406Y-58689697D01*
X27448412Y-58689704D01*
X27615295Y-58856587D01*
X27615301Y-58856592D01*
X27802550Y-59000273D01*
X27933918Y-59076118D01*
X28006943Y-59118280D01*
X28006948Y-59118282D01*
X28006951Y-59118284D01*
X28225007Y-59208606D01*
X28452986Y-59269693D01*
X28686989Y-59300500D01*
X28686996Y-59300500D01*
X28923004Y-59300500D01*
X28923011Y-59300500D01*
X29157014Y-59269693D01*
X29384993Y-59208606D01*
X29603049Y-59118284D01*
X29807450Y-59000273D01*
X29994699Y-58856592D01*
X30161592Y-58689699D01*
X30305273Y-58502450D01*
X30423284Y-58298049D01*
X30513606Y-58079993D01*
X30574693Y-57852014D01*
X30605500Y-57618011D01*
X30605500Y-57381989D01*
X30574693Y-57147986D01*
X30513606Y-56920007D01*
X30423284Y-56701951D01*
X30423282Y-56701948D01*
X30423280Y-56701943D01*
X30364722Y-56600519D01*
X30305273Y-56497550D01*
X30161592Y-56310301D01*
X30161587Y-56310295D01*
X29994704Y-56143412D01*
X29994697Y-56143406D01*
X29807454Y-55999730D01*
X29807453Y-55999729D01*
X29807450Y-55999727D01*
X29725957Y-55952677D01*
X29603056Y-55881719D01*
X29603045Y-55881714D01*
X29384993Y-55791394D01*
X29157010Y-55730306D01*
X28923020Y-55699501D01*
X28923017Y-55699500D01*
X28923011Y-55699500D01*
X28686989Y-55699500D01*
X28686983Y-55699500D01*
X28686979Y-55699501D01*
X28452989Y-55730306D01*
X28225006Y-55791394D01*
X28006954Y-55881714D01*
X28006943Y-55881719D01*
X27802545Y-55999730D01*
X27615302Y-56143406D01*
X27615295Y-56143412D01*
X27448412Y-56310295D01*
X27448406Y-56310302D01*
X27304730Y-56497545D01*
X27186719Y-56701943D01*
X27186714Y-56701954D01*
X27096394Y-56920006D01*
X27035306Y-57147989D01*
X27004501Y-57381979D01*
X27004500Y-57381995D01*
X25500500Y-57381995D01*
X25500500Y-52382014D01*
X27005000Y-52382014D01*
X27005000Y-52617985D01*
X27035799Y-52851914D01*
X27096870Y-53079837D01*
X27187160Y-53297819D01*
X27187165Y-53297828D01*
X27305144Y-53502171D01*
X27305145Y-53502172D01*
X27367721Y-53583723D01*
X28203958Y-52747487D01*
X28228978Y-52807890D01*
X28300112Y-52914351D01*
X28390649Y-53004888D01*
X28497110Y-53076022D01*
X28557511Y-53101041D01*
X27721275Y-53937277D01*
X27802827Y-53999854D01*
X27802828Y-53999855D01*
X28007171Y-54117834D01*
X28007180Y-54117839D01*
X28225163Y-54208129D01*
X28225161Y-54208129D01*
X28453085Y-54269200D01*
X28687014Y-54299999D01*
X28687029Y-54300000D01*
X28922971Y-54300000D01*
X28922985Y-54299999D01*
X29156914Y-54269200D01*
X29384837Y-54208129D01*
X29602819Y-54117839D01*
X29602828Y-54117834D01*
X29807181Y-53999850D01*
X29888723Y-53937279D01*
X29888723Y-53937276D01*
X29052487Y-53101041D01*
X29112890Y-53076022D01*
X29219351Y-53004888D01*
X29309888Y-52914351D01*
X29381022Y-52807890D01*
X29406041Y-52747488D01*
X30242276Y-53583723D01*
X30242279Y-53583723D01*
X30304850Y-53502181D01*
X30422834Y-53297828D01*
X30422839Y-53297819D01*
X30513129Y-53079837D01*
X30574200Y-52851914D01*
X30604999Y-52617985D01*
X30605000Y-52617971D01*
X30605000Y-52382028D01*
X30604999Y-52382014D01*
X30574200Y-52148085D01*
X30513129Y-51920162D01*
X30422839Y-51702180D01*
X30422834Y-51702171D01*
X30304855Y-51497828D01*
X30304854Y-51497827D01*
X30242277Y-51416275D01*
X29406041Y-52252511D01*
X29381022Y-52192110D01*
X29309888Y-52085649D01*
X29219351Y-51995112D01*
X29112890Y-51923978D01*
X29052488Y-51898958D01*
X29888723Y-51062721D01*
X29807172Y-51000145D01*
X29807171Y-51000144D01*
X29602828Y-50882165D01*
X29602819Y-50882160D01*
X29384836Y-50791870D01*
X29384838Y-50791870D01*
X29156914Y-50730799D01*
X28922985Y-50700000D01*
X28687014Y-50700000D01*
X28453085Y-50730799D01*
X28225162Y-50791870D01*
X28007180Y-50882160D01*
X28007171Y-50882165D01*
X27802828Y-51000144D01*
X27802818Y-51000150D01*
X27721275Y-51062720D01*
X27721275Y-51062721D01*
X28557512Y-51898958D01*
X28497110Y-51923978D01*
X28390649Y-51995112D01*
X28300112Y-52085649D01*
X28228978Y-52192110D01*
X28203958Y-52252512D01*
X27367721Y-51416275D01*
X27367720Y-51416275D01*
X27305150Y-51497818D01*
X27305144Y-51497828D01*
X27187165Y-51702171D01*
X27187160Y-51702180D01*
X27096870Y-51920162D01*
X27035799Y-52148085D01*
X27005000Y-52382014D01*
X25500500Y-52382014D01*
X25500500Y-47381995D01*
X27004500Y-47381995D01*
X27004500Y-47618004D01*
X27004501Y-47618020D01*
X27023231Y-47760292D01*
X27035307Y-47852014D01*
X27065152Y-47963397D01*
X27096394Y-48079993D01*
X27186714Y-48298045D01*
X27186719Y-48298056D01*
X27257677Y-48420957D01*
X27304727Y-48502450D01*
X27304729Y-48502453D01*
X27304730Y-48502454D01*
X27448406Y-48689697D01*
X27448412Y-48689704D01*
X27615295Y-48856587D01*
X27615301Y-48856592D01*
X27802550Y-49000273D01*
X27933918Y-49076118D01*
X28006943Y-49118280D01*
X28006948Y-49118282D01*
X28006951Y-49118284D01*
X28225007Y-49208606D01*
X28452986Y-49269693D01*
X28686989Y-49300500D01*
X28686996Y-49300500D01*
X28923004Y-49300500D01*
X28923011Y-49300500D01*
X29157014Y-49269693D01*
X29384993Y-49208606D01*
X29603049Y-49118284D01*
X29807450Y-49000273D01*
X29936664Y-48901123D01*
X30001833Y-48875930D01*
X30012150Y-48875500D01*
X34628887Y-48875500D01*
X34695926Y-48895185D01*
X34716568Y-48911819D01*
X36338181Y-50533432D01*
X36371666Y-50594755D01*
X36374500Y-50621113D01*
X36374500Y-103983254D01*
X36391668Y-104091648D01*
X36400377Y-104146632D01*
X36408370Y-104197098D01*
X36475272Y-104403006D01*
X36475273Y-104403009D01*
X36567103Y-104583232D01*
X36573567Y-104595919D01*
X36644651Y-104693759D01*
X36668131Y-104759564D01*
X36653693Y-104825093D01*
X36648925Y-104834012D01*
X36648921Y-104834022D01*
X36573724Y-105015559D01*
X36544954Y-105110404D01*
X36544951Y-105110415D01*
X36506623Y-105303106D01*
X36506619Y-105303134D01*
X36506209Y-105306836D01*
X36497059Y-105389366D01*
X36497059Y-105389371D01*
X36497058Y-105389379D01*
X36494652Y-105487603D01*
X36494500Y-105500032D01*
X36494500Y-106999967D01*
X36494652Y-107012396D01*
X36497058Y-107110620D01*
X36497058Y-107110626D01*
X36497059Y-107110634D01*
X36504211Y-107175146D01*
X36506619Y-107196865D01*
X36506623Y-107196893D01*
X36544951Y-107389584D01*
X36544954Y-107389595D01*
X36573724Y-107484440D01*
X36648921Y-107665979D01*
X36648923Y-107665984D01*
X36648924Y-107665985D01*
X36695637Y-107753377D01*
X36695642Y-107753385D01*
X36695647Y-107753393D01*
X36804798Y-107916750D01*
X36804815Y-107916773D01*
X36867681Y-107993375D01*
X37006624Y-108132318D01*
X37006629Y-108132322D01*
X37006630Y-108132323D01*
X37083232Y-108195189D01*
X37083239Y-108195194D01*
X37083249Y-108195201D01*
X37246606Y-108304352D01*
X37246609Y-108304354D01*
X37246623Y-108304363D01*
X37334015Y-108351076D01*
X37334020Y-108351078D01*
X37515559Y-108426275D01*
X37515563Y-108426276D01*
X37515565Y-108426277D01*
X37610395Y-108455043D01*
X37610401Y-108455044D01*
X37610404Y-108455045D01*
X37610415Y-108455048D01*
X37803106Y-108493376D01*
X37803112Y-108493376D01*
X37803128Y-108493380D01*
X37889366Y-108502941D01*
X37987620Y-108505348D01*
X38000000Y-108505500D01*
X38000032Y-108505500D01*
X42249968Y-108505500D01*
X42250000Y-108505500D01*
X42262380Y-108505348D01*
X42360634Y-108502941D01*
X42446872Y-108493380D01*
X42446889Y-108493376D01*
X42446893Y-108493376D01*
X42639584Y-108455048D01*
X42639595Y-108455045D01*
X42639595Y-108455044D01*
X42639605Y-108455043D01*
X42734435Y-108426277D01*
X42915985Y-108351076D01*
X43003377Y-108304363D01*
X43166768Y-108195189D01*
X43243370Y-108132323D01*
X43382323Y-107993370D01*
X43445189Y-107916768D01*
X43554363Y-107753377D01*
X43601076Y-107665985D01*
X43676277Y-107484435D01*
X43705043Y-107389605D01*
X43705045Y-107389595D01*
X43705048Y-107389584D01*
X43743376Y-107196893D01*
X43743376Y-107196889D01*
X43743380Y-107196872D01*
X43752941Y-107110634D01*
X43755348Y-107012380D01*
X43755500Y-107000000D01*
X43755500Y-105500000D01*
X43755348Y-105487620D01*
X43752941Y-105389366D01*
X43743380Y-105303128D01*
X43743376Y-105303106D01*
X43705048Y-105110415D01*
X43705045Y-105110404D01*
X43705044Y-105110401D01*
X43705043Y-105110395D01*
X43676277Y-105015565D01*
X43670983Y-105002785D01*
X43601078Y-104834020D01*
X43601076Y-104834015D01*
X43596307Y-104825093D01*
X43554363Y-104746623D01*
X43538693Y-104723171D01*
X43445201Y-104583249D01*
X43445194Y-104583239D01*
X43445189Y-104583232D01*
X43382323Y-104506630D01*
X43382322Y-104506629D01*
X43382318Y-104506624D01*
X43243375Y-104367681D01*
X43166773Y-104304815D01*
X43166750Y-104304798D01*
X43003393Y-104195647D01*
X43003385Y-104195642D01*
X43003377Y-104195637D01*
X42944190Y-104164000D01*
X42915984Y-104148923D01*
X42915979Y-104148921D01*
X42734440Y-104073724D01*
X42639595Y-104044954D01*
X42639584Y-104044951D01*
X42446893Y-104006623D01*
X42446865Y-104006619D01*
X42425146Y-104004211D01*
X42360634Y-103997059D01*
X42360626Y-103997058D01*
X42360620Y-103997058D01*
X42262396Y-103994652D01*
X42258253Y-103994601D01*
X42250000Y-103994500D01*
X42249968Y-103994500D01*
X39866113Y-103994500D01*
X39799074Y-103974815D01*
X39778432Y-103958181D01*
X39161819Y-103341568D01*
X39128334Y-103280245D01*
X39125500Y-103253887D01*
X39125500Y-94954237D01*
X40618837Y-94954237D01*
X40657285Y-95147523D01*
X40657288Y-95147533D01*
X40732702Y-95329601D01*
X40732709Y-95329614D01*
X40842198Y-95493475D01*
X40842201Y-95493479D01*
X40981552Y-95632830D01*
X40981556Y-95632833D01*
X41145417Y-95742322D01*
X41145430Y-95742329D01*
X41275522Y-95796214D01*
X41327503Y-95817745D01*
X41327507Y-95817745D01*
X41327508Y-95817746D01*
X41520794Y-95856194D01*
X41520797Y-95856194D01*
X42967880Y-95856194D01*
X42981525Y-95853479D01*
X43064526Y-95836969D01*
X43161174Y-95817745D01*
X43224790Y-95791394D01*
X43343252Y-95742326D01*
X43507120Y-95632833D01*
X43646477Y-95493476D01*
X43646479Y-95493472D01*
X44080905Y-95059047D01*
X44080904Y-95059047D01*
X44377135Y-94762818D01*
X44438459Y-94729334D01*
X44464816Y-94726500D01*
X45375500Y-94726500D01*
X45442539Y-94746185D01*
X45488294Y-94798989D01*
X45499500Y-94850500D01*
X45499500Y-101822873D01*
X45505402Y-101852543D01*
X45537949Y-102016168D01*
X45550342Y-102046086D01*
X45554082Y-102055117D01*
X45554084Y-102055122D01*
X45613364Y-102198238D01*
X45613371Y-102198251D01*
X45722860Y-102362114D01*
X45866537Y-102505791D01*
X45866559Y-102505811D01*
X46612215Y-103251468D01*
X46612219Y-103251471D01*
X46776079Y-103360959D01*
X46776083Y-103360961D01*
X46776086Y-103360963D01*
X46958164Y-103436383D01*
X47151455Y-103474831D01*
X47151458Y-103474832D01*
X47151460Y-103474832D01*
X47348542Y-103474832D01*
X47348543Y-103474831D01*
X47541836Y-103436383D01*
X47723914Y-103360963D01*
X47887781Y-103251471D01*
X48027139Y-103112113D01*
X48136631Y-102948246D01*
X48212051Y-102766168D01*
X48250500Y-102572872D01*
X48250500Y-102375792D01*
X48250500Y-102375789D01*
X48250499Y-102375787D01*
X48232359Y-102284590D01*
X48212051Y-102182496D01*
X48136631Y-102000418D01*
X48136629Y-102000415D01*
X48136627Y-102000411D01*
X48027139Y-101836551D01*
X48027136Y-101836547D01*
X47536819Y-101346230D01*
X47503334Y-101284907D01*
X47500500Y-101258549D01*
X47500500Y-94191782D01*
X47520185Y-94124743D01*
X47536819Y-94104101D01*
X47957634Y-93683287D01*
X47957634Y-93683286D01*
X47957639Y-93683282D01*
X47979543Y-93650500D01*
X48046223Y-93550707D01*
X48067127Y-93519422D01*
X48067128Y-93519419D01*
X48067132Y-93519414D01*
X48074159Y-93502450D01*
X48142550Y-93337338D01*
X48142551Y-93337334D01*
X48145717Y-93321424D01*
X48180999Y-93144045D01*
X48181000Y-93144042D01*
X48181000Y-85285284D01*
X48200685Y-85218245D01*
X48217314Y-85197607D01*
X48277140Y-85137782D01*
X48386632Y-84973915D01*
X48462052Y-84791836D01*
X48500500Y-84598541D01*
X48500500Y-84401460D01*
X48462052Y-84208165D01*
X48389997Y-84034209D01*
X48386633Y-84026088D01*
X48386628Y-84026079D01*
X48277140Y-83862219D01*
X48277137Y-83862215D01*
X47625709Y-83210789D01*
X47625707Y-83210786D01*
X47286819Y-82871898D01*
X47253334Y-82810575D01*
X47250500Y-82784217D01*
X47250500Y-78465782D01*
X47270185Y-78398743D01*
X47286819Y-78378101D01*
X47557410Y-78107510D01*
X47884390Y-77780531D01*
X47884391Y-77780529D01*
X47891455Y-77773465D01*
X47891461Y-77773458D01*
X48005769Y-77659152D01*
X48277136Y-77387785D01*
X48277136Y-77387784D01*
X48277139Y-77387782D01*
X48309432Y-77339450D01*
X48372727Y-77244725D01*
X48379702Y-77234284D01*
X48386632Y-77223914D01*
X48458876Y-77049501D01*
X48462051Y-77041836D01*
X48500500Y-76848541D01*
X48500500Y-76651460D01*
X48500500Y-75783959D01*
X48500500Y-67151459D01*
X48500500Y-67151456D01*
X48482323Y-67060078D01*
X48468230Y-66989229D01*
X48462051Y-66958164D01*
X48419431Y-66855271D01*
X48386632Y-66776086D01*
X48337097Y-66701951D01*
X48277139Y-66612217D01*
X48134686Y-66469764D01*
X48134655Y-66469735D01*
X47286819Y-65621899D01*
X47253334Y-65560576D01*
X47250500Y-65534218D01*
X47250500Y-61965782D01*
X47270185Y-61898743D01*
X47286819Y-61878101D01*
X47571889Y-61593031D01*
X47710686Y-61454234D01*
X48137778Y-61027141D01*
X48137782Y-61027139D01*
X48277139Y-60887782D01*
X48386632Y-60723914D01*
X48395205Y-60703218D01*
X48403721Y-60682655D01*
X48462051Y-60541835D01*
X48479449Y-60454371D01*
X48500500Y-60348543D01*
X48500500Y-45652282D01*
X48509144Y-45622841D01*
X48515668Y-45592855D01*
X48519422Y-45587839D01*
X48520185Y-45585243D01*
X48536819Y-45564601D01*
X48718590Y-45382830D01*
X48930139Y-45171282D01*
X48930139Y-45171281D01*
X49279390Y-44822031D01*
X49279390Y-44822029D01*
X49289594Y-44811826D01*
X49289598Y-44811821D01*
X51551210Y-42550208D01*
X51612531Y-42516725D01*
X51682223Y-42521709D01*
X51738156Y-42563581D01*
X51741991Y-42569000D01*
X51814112Y-42676935D01*
X51814115Y-42676939D01*
X51925609Y-42788433D01*
X51925613Y-42788436D01*
X52056716Y-42876037D01*
X52056729Y-42876044D01*
X52202400Y-42936382D01*
X52202405Y-42936384D01*
X52267049Y-42949242D01*
X52357751Y-42967285D01*
X52419662Y-42999670D01*
X52421241Y-43001221D01*
X53204394Y-43784374D01*
X53204404Y-43784385D01*
X53208734Y-43788715D01*
X53208735Y-43788716D01*
X53320539Y-43900520D01*
X53405376Y-43949500D01*
X53457470Y-43979577D01*
X53610198Y-44020501D01*
X53610201Y-44020501D01*
X53775909Y-44020501D01*
X53775925Y-44020500D01*
X56891459Y-44020500D01*
X56958498Y-44040185D01*
X57004253Y-44092989D01*
X57014197Y-44162147D01*
X56985172Y-44225703D01*
X56960350Y-44247602D01*
X56839711Y-44328210D01*
X56839707Y-44328213D01*
X56728213Y-44439707D01*
X56728210Y-44439711D01*
X56640609Y-44570814D01*
X56640604Y-44570823D01*
X56580809Y-44715184D01*
X56553929Y-44755412D01*
X56205887Y-45103454D01*
X56129223Y-45218192D01*
X56076421Y-45345668D01*
X56076418Y-45345679D01*
X56061448Y-45420942D01*
X56061448Y-45420944D01*
X56053621Y-45460292D01*
X56049500Y-45481007D01*
X56049500Y-61181006D01*
X56049500Y-61318994D01*
X56049500Y-61318996D01*
X56049499Y-61318996D01*
X56076418Y-61454322D01*
X56076421Y-61454332D01*
X56129222Y-61581807D01*
X56205887Y-61696545D01*
X56205888Y-61696546D01*
X56453928Y-61944585D01*
X56480808Y-61984814D01*
X56540602Y-62129172D01*
X56540609Y-62129185D01*
X56628210Y-62260288D01*
X56628213Y-62260292D01*
X56739706Y-62371785D01*
X56739709Y-62371787D01*
X56739711Y-62371789D01*
X56744386Y-62374913D01*
X56789193Y-62428521D01*
X56799500Y-62478017D01*
X56799500Y-78074684D01*
X56797873Y-78082860D01*
X56798790Y-78087939D01*
X56790061Y-78122137D01*
X56730809Y-78265184D01*
X56708870Y-78298024D01*
X56709751Y-78298747D01*
X56705887Y-78303454D01*
X56629223Y-78418192D01*
X56576421Y-78545668D01*
X56576418Y-78545680D01*
X56569807Y-78578916D01*
X56569807Y-78578917D01*
X56549500Y-78681004D01*
X56549500Y-78681007D01*
X56549500Y-94931006D01*
X56549500Y-95068994D01*
X56549500Y-95068996D01*
X56549499Y-95068996D01*
X56576418Y-95204322D01*
X56576421Y-95204332D01*
X56629222Y-95331807D01*
X56705886Y-95446543D01*
X56709747Y-95451247D01*
X56708861Y-95451973D01*
X56730807Y-95484812D01*
X56734398Y-95493479D01*
X56790602Y-95629173D01*
X56790609Y-95629185D01*
X56878210Y-95760288D01*
X56878213Y-95760292D01*
X56989707Y-95871786D01*
X56989711Y-95871789D01*
X57120814Y-95959390D01*
X57120827Y-95959397D01*
X57218194Y-95999727D01*
X57266503Y-96019737D01*
X57421153Y-96050499D01*
X57421156Y-96050500D01*
X57421158Y-96050500D01*
X57578844Y-96050500D01*
X57578845Y-96050499D01*
X57733497Y-96019737D01*
X57879179Y-95959394D01*
X58010289Y-95871789D01*
X58121789Y-95760289D01*
X58209394Y-95629179D01*
X58269737Y-95483497D01*
X58300500Y-95328842D01*
X58300500Y-95171158D01*
X58300500Y-95171155D01*
X58300499Y-95171153D01*
X58291917Y-95128010D01*
X58269737Y-95016503D01*
X58265111Y-95005335D01*
X58209397Y-94870827D01*
X58209390Y-94870814D01*
X58121789Y-94739711D01*
X58121786Y-94739707D01*
X58010292Y-94628213D01*
X58010284Y-94628207D01*
X58005605Y-94625080D01*
X57960802Y-94571466D01*
X57950500Y-94521981D01*
X57950500Y-83321153D01*
X60199500Y-83321153D01*
X60199500Y-83478846D01*
X60230261Y-83633489D01*
X60230264Y-83633501D01*
X60290602Y-83779172D01*
X60290609Y-83779185D01*
X60378210Y-83910288D01*
X60378213Y-83910292D01*
X60489707Y-84021786D01*
X60489711Y-84021789D01*
X60620814Y-84109390D01*
X60620827Y-84109397D01*
X60766498Y-84169735D01*
X60766503Y-84169737D01*
X60921153Y-84200499D01*
X60921156Y-84200500D01*
X60921158Y-84200500D01*
X61078844Y-84200500D01*
X61078845Y-84200499D01*
X61233497Y-84169737D01*
X61357714Y-84118285D01*
X61379172Y-84109397D01*
X61379172Y-84109396D01*
X61379179Y-84109394D01*
X61419890Y-84082192D01*
X61510875Y-84021398D01*
X61577553Y-84000520D01*
X61579766Y-84000500D01*
X62713331Y-84000500D01*
X62713347Y-84000501D01*
X62720943Y-84000501D01*
X62879054Y-84000501D01*
X62879057Y-84000501D01*
X63031785Y-83959577D01*
X63094211Y-83923535D01*
X63168716Y-83880520D01*
X63280520Y-83768716D01*
X63280520Y-83768714D01*
X63290724Y-83758511D01*
X63290727Y-83758506D01*
X64912417Y-82136819D01*
X64973740Y-82103334D01*
X65000098Y-82100500D01*
X68999903Y-82100500D01*
X69029343Y-82109144D01*
X69059330Y-82115668D01*
X69064345Y-82119422D01*
X69066942Y-82120185D01*
X69087584Y-82136819D01*
X69115139Y-82164374D01*
X69115149Y-82164385D01*
X69119479Y-82168715D01*
X69119480Y-82168716D01*
X69231284Y-82280520D01*
X69296202Y-82318000D01*
X69368215Y-82359577D01*
X69520943Y-82400500D01*
X71020234Y-82400500D01*
X71087273Y-82420185D01*
X71089125Y-82421398D01*
X71220814Y-82509390D01*
X71220827Y-82509397D01*
X71366498Y-82569735D01*
X71366503Y-82569737D01*
X71516131Y-82599500D01*
X71521153Y-82600499D01*
X71521156Y-82600500D01*
X71521158Y-82600500D01*
X71678844Y-82600500D01*
X71678845Y-82600499D01*
X71833497Y-82569737D01*
X71979179Y-82509394D01*
X72110289Y-82421789D01*
X72221789Y-82310289D01*
X72309394Y-82179179D01*
X72314976Y-82165704D01*
X72333830Y-82120185D01*
X72369737Y-82033497D01*
X72400500Y-81878842D01*
X72400500Y-81721158D01*
X72400500Y-81721155D01*
X72400499Y-81721153D01*
X72376381Y-81599905D01*
X72369737Y-81566503D01*
X72328821Y-81467722D01*
X72309397Y-81420827D01*
X72309390Y-81420814D01*
X72221789Y-81289711D01*
X72221786Y-81289707D01*
X72110292Y-81178213D01*
X72110288Y-81178210D01*
X71979185Y-81090609D01*
X71979172Y-81090602D01*
X71833501Y-81030264D01*
X71833489Y-81030261D01*
X71678845Y-80999500D01*
X71678842Y-80999500D01*
X71521158Y-80999500D01*
X71521155Y-80999500D01*
X71366510Y-81030261D01*
X71366498Y-81030264D01*
X71220827Y-81090602D01*
X71220814Y-81090609D01*
X71089125Y-81178602D01*
X71022447Y-81199480D01*
X71020234Y-81199500D01*
X69900097Y-81199500D01*
X69870656Y-81190855D01*
X69840670Y-81184332D01*
X69835654Y-81180577D01*
X69833058Y-81179815D01*
X69812416Y-81163181D01*
X69787590Y-81138355D01*
X69787588Y-81138352D01*
X69668717Y-81019481D01*
X69668716Y-81019480D01*
X69581904Y-80969360D01*
X69581904Y-80969359D01*
X69581900Y-80969358D01*
X69531785Y-80940423D01*
X69379057Y-80899499D01*
X69220943Y-80899499D01*
X69213347Y-80899499D01*
X69213331Y-80899500D01*
X64786670Y-80899500D01*
X64786654Y-80899499D01*
X64779058Y-80899499D01*
X64620943Y-80899499D01*
X64562527Y-80915152D01*
X64468214Y-80940423D01*
X64468209Y-80940426D01*
X64331290Y-81019475D01*
X64331282Y-81019481D01*
X62587584Y-82763181D01*
X62526261Y-82796666D01*
X62499903Y-82799500D01*
X61579766Y-82799500D01*
X61512727Y-82779815D01*
X61510875Y-82778602D01*
X61379185Y-82690609D01*
X61379172Y-82690602D01*
X61233501Y-82630264D01*
X61233489Y-82630261D01*
X61078845Y-82599500D01*
X61078842Y-82599500D01*
X60921158Y-82599500D01*
X60921155Y-82599500D01*
X60766510Y-82630261D01*
X60766498Y-82630264D01*
X60620827Y-82690602D01*
X60620814Y-82690609D01*
X60489711Y-82778210D01*
X60489707Y-82778213D01*
X60378213Y-82889707D01*
X60378210Y-82889711D01*
X60290609Y-83020814D01*
X60290602Y-83020827D01*
X60230264Y-83166498D01*
X60230261Y-83166510D01*
X60199500Y-83321153D01*
X57950500Y-83321153D01*
X57950500Y-79228017D01*
X57970185Y-79160978D01*
X58005612Y-79124913D01*
X58010289Y-79121789D01*
X58121789Y-79010289D01*
X58209394Y-78879179D01*
X58269737Y-78733497D01*
X58300500Y-78578842D01*
X58300500Y-78421158D01*
X58300500Y-78421155D01*
X58300499Y-78421153D01*
X58282137Y-78328842D01*
X58269737Y-78266503D01*
X58209939Y-78122136D01*
X58200500Y-78074684D01*
X58200500Y-75324424D01*
X58220185Y-75257385D01*
X58272989Y-75211630D01*
X58342147Y-75201686D01*
X58371952Y-75209863D01*
X58486682Y-75257385D01*
X58516503Y-75269737D01*
X58671153Y-75300499D01*
X58671156Y-75300500D01*
X58671158Y-75300500D01*
X58828844Y-75300500D01*
X58828845Y-75300499D01*
X58983497Y-75269737D01*
X59129179Y-75209394D01*
X59196944Y-75164115D01*
X59260875Y-75121398D01*
X59278921Y-75115747D01*
X59294831Y-75105523D01*
X59325792Y-75101071D01*
X59327553Y-75100520D01*
X59329766Y-75100500D01*
X59449903Y-75100500D01*
X59516942Y-75120185D01*
X59537584Y-75136819D01*
X63165139Y-78764374D01*
X63165149Y-78764385D01*
X63169479Y-78768715D01*
X63169480Y-78768716D01*
X63281284Y-78880520D01*
X63328375Y-78907707D01*
X63368095Y-78930639D01*
X63368097Y-78930641D01*
X63406151Y-78952611D01*
X63418215Y-78959577D01*
X63570943Y-79000501D01*
X63570946Y-79000501D01*
X63736653Y-79000501D01*
X63736669Y-79000500D01*
X71299903Y-79000500D01*
X71366942Y-79020185D01*
X71387584Y-79036819D01*
X72465139Y-80114374D01*
X72465149Y-80114385D01*
X72469479Y-80118715D01*
X72469480Y-80118716D01*
X72581284Y-80230520D01*
X72668095Y-80280639D01*
X72668097Y-80280641D01*
X72718213Y-80309576D01*
X72718215Y-80309577D01*
X72870942Y-80350500D01*
X72870943Y-80350500D01*
X90500903Y-80350500D01*
X90567942Y-80370185D01*
X90613697Y-80422989D01*
X90623641Y-80492147D01*
X90594616Y-80555703D01*
X90588584Y-80562181D01*
X89187584Y-81963181D01*
X89126261Y-81996666D01*
X89099903Y-81999500D01*
X77486670Y-81999500D01*
X77486654Y-81999499D01*
X77479058Y-81999499D01*
X77320943Y-81999499D01*
X77270073Y-82013130D01*
X77168214Y-82040423D01*
X77168209Y-82040426D01*
X77031290Y-82119475D01*
X77031282Y-82119481D01*
X73387584Y-85763181D01*
X73326261Y-85796666D01*
X73299903Y-85799500D01*
X62686669Y-85799500D01*
X62686653Y-85799499D01*
X62679057Y-85799499D01*
X62520943Y-85799499D01*
X62413587Y-85828265D01*
X62368210Y-85840424D01*
X62368209Y-85840425D01*
X62318096Y-85869359D01*
X62318095Y-85869360D01*
X62274689Y-85894420D01*
X62231285Y-85919479D01*
X62231282Y-85919481D01*
X59485339Y-88665425D01*
X59424016Y-88698910D01*
X59421850Y-88699361D01*
X59266508Y-88730261D01*
X59266498Y-88730264D01*
X59120827Y-88790602D01*
X59120814Y-88790609D01*
X58989711Y-88878210D01*
X58989707Y-88878213D01*
X58878213Y-88989707D01*
X58878210Y-88989711D01*
X58790609Y-89120814D01*
X58790602Y-89120827D01*
X58730264Y-89266498D01*
X58730261Y-89266510D01*
X58699500Y-89421153D01*
X58699500Y-89578846D01*
X58730261Y-89733489D01*
X58730264Y-89733501D01*
X58790602Y-89879172D01*
X58790609Y-89879185D01*
X58878210Y-90010288D01*
X58878213Y-90010292D01*
X58989707Y-90121786D01*
X58989711Y-90121789D01*
X59120814Y-90209390D01*
X59120827Y-90209397D01*
X59266498Y-90269735D01*
X59266503Y-90269737D01*
X59421153Y-90300499D01*
X59421156Y-90300500D01*
X59421158Y-90300500D01*
X59578844Y-90300500D01*
X59578845Y-90300499D01*
X59733497Y-90269737D01*
X59879179Y-90209394D01*
X60010289Y-90121789D01*
X60121789Y-90010289D01*
X60209394Y-89879179D01*
X60269737Y-89733497D01*
X60289113Y-89636085D01*
X60300638Y-89578150D01*
X60333023Y-89516239D01*
X60334518Y-89514716D01*
X62812416Y-87036819D01*
X62873739Y-87003334D01*
X62900097Y-87000500D01*
X73513331Y-87000500D01*
X73513347Y-87000501D01*
X73520943Y-87000501D01*
X73679054Y-87000501D01*
X73679057Y-87000501D01*
X73831785Y-86959577D01*
X73923862Y-86906416D01*
X73968716Y-86880520D01*
X74080520Y-86768716D01*
X74080520Y-86768714D01*
X74090724Y-86758511D01*
X74090727Y-86758506D01*
X77612417Y-83236819D01*
X77673740Y-83203334D01*
X77700098Y-83200500D01*
X89313331Y-83200500D01*
X89313347Y-83200501D01*
X89320943Y-83200501D01*
X89479054Y-83200501D01*
X89479057Y-83200501D01*
X89631785Y-83159577D01*
X89702558Y-83118716D01*
X89768716Y-83080520D01*
X89880520Y-82968716D01*
X89880520Y-82968714D01*
X89890724Y-82958511D01*
X89890728Y-82958506D01*
X98608506Y-74240728D01*
X98608511Y-74240724D01*
X98618714Y-74230520D01*
X98618716Y-74230520D01*
X98730520Y-74118716D01*
X98734359Y-74112065D01*
X98787813Y-74019482D01*
X98787814Y-74019480D01*
X98809574Y-73981790D01*
X98809575Y-73981789D01*
X98809575Y-73981787D01*
X98809577Y-73981785D01*
X98850501Y-73829057D01*
X98850501Y-73670943D01*
X98850501Y-73663348D01*
X98850500Y-73663330D01*
X98850500Y-47663228D01*
X98859939Y-47615776D01*
X98914728Y-47483501D01*
X98914730Y-47483497D01*
X98945493Y-47328842D01*
X98945493Y-47171158D01*
X98945493Y-47171155D01*
X98945492Y-47171153D01*
X98914731Y-47016510D01*
X98914730Y-47016503D01*
X98914728Y-47016498D01*
X98854390Y-46870827D01*
X98854383Y-46870814D01*
X98766782Y-46739711D01*
X98766779Y-46739707D01*
X98655285Y-46628213D01*
X98655281Y-46628210D01*
X98524178Y-46540609D01*
X98524165Y-46540602D01*
X98378494Y-46480264D01*
X98378482Y-46480261D01*
X98223838Y-46449500D01*
X98223835Y-46449500D01*
X98066151Y-46449500D01*
X98066148Y-46449500D01*
X97911503Y-46480261D01*
X97911491Y-46480264D01*
X97765821Y-46540602D01*
X97765810Y-46540608D01*
X97720113Y-46571142D01*
X97653435Y-46592019D01*
X97586055Y-46573534D01*
X97582333Y-46571142D01*
X97536633Y-46540606D01*
X97536626Y-46540602D01*
X97390955Y-46480264D01*
X97390943Y-46480261D01*
X97236299Y-46449500D01*
X97236296Y-46449500D01*
X97078612Y-46449500D01*
X97078609Y-46449500D01*
X96923964Y-46480261D01*
X96923952Y-46480264D01*
X96778281Y-46540602D01*
X96778268Y-46540609D01*
X96647165Y-46628210D01*
X96647161Y-46628213D01*
X96535667Y-46739707D01*
X96535664Y-46739711D01*
X96448063Y-46870814D01*
X96448056Y-46870827D01*
X96387718Y-47016498D01*
X96387715Y-47016510D01*
X96356954Y-47171153D01*
X96356954Y-47328846D01*
X96387715Y-47483489D01*
X96387718Y-47483501D01*
X96448056Y-47629172D01*
X96448063Y-47629185D01*
X96535664Y-47760288D01*
X96535667Y-47760292D01*
X96647164Y-47871789D01*
X96778269Y-47959390D01*
X96778275Y-47959394D01*
X96787944Y-47963399D01*
X96842347Y-48007236D01*
X96864414Y-48073530D01*
X96864493Y-48077960D01*
X96864493Y-53105225D01*
X96844808Y-53172264D01*
X96792004Y-53218019D01*
X96722846Y-53227963D01*
X96716302Y-53226842D01*
X96578845Y-53199500D01*
X96578842Y-53199500D01*
X96421158Y-53199500D01*
X96421155Y-53199500D01*
X96266510Y-53230261D01*
X96266498Y-53230264D01*
X96120815Y-53290608D01*
X96118439Y-53291878D01*
X96117053Y-53292166D01*
X96115193Y-53292937D01*
X96115046Y-53292583D01*
X96050035Y-53306112D01*
X96004844Y-53292842D01*
X96004805Y-53292937D01*
X96003926Y-53292573D01*
X96001559Y-53291878D01*
X95999182Y-53290608D01*
X95853498Y-53230264D01*
X95853488Y-53230261D01*
X95698146Y-53199361D01*
X95636235Y-53166976D01*
X95634657Y-53165425D01*
X93067587Y-50598355D01*
X93067585Y-50598352D01*
X92948714Y-50479481D01*
X92948709Y-50479477D01*
X92851813Y-50423535D01*
X92851812Y-50423534D01*
X92811787Y-50400425D01*
X92811786Y-50400424D01*
X92799260Y-50397067D01*
X92659054Y-50359499D01*
X92500940Y-50359499D01*
X92493344Y-50359499D01*
X92493328Y-50359500D01*
X87510097Y-50359500D01*
X87443058Y-50339815D01*
X87422416Y-50323181D01*
X82237590Y-45138355D01*
X82237588Y-45138352D01*
X82118717Y-45019481D01*
X82118716Y-45019480D01*
X82008568Y-44955886D01*
X82008566Y-44955885D01*
X81981785Y-44940423D01*
X81981784Y-44940422D01*
X81981783Y-44940422D01*
X81925881Y-44925443D01*
X81829057Y-44899499D01*
X81670943Y-44899499D01*
X81663347Y-44899499D01*
X81663331Y-44899500D01*
X75800097Y-44899500D01*
X75733058Y-44879815D01*
X75712416Y-44863181D01*
X73907590Y-43058355D01*
X73907588Y-43058352D01*
X73788717Y-42939481D01*
X73788716Y-42939480D01*
X73701904Y-42889360D01*
X73701904Y-42889359D01*
X73701900Y-42889358D01*
X73651785Y-42860423D01*
X73499057Y-42819499D01*
X73340943Y-42819499D01*
X73333347Y-42819499D01*
X73333331Y-42819500D01*
X58063683Y-42819500D01*
X57996644Y-42799815D01*
X57950889Y-42747011D01*
X57940945Y-42677853D01*
X57949119Y-42648053D01*
X57962051Y-42616835D01*
X58000500Y-42423541D01*
X58000500Y-35965782D01*
X58020185Y-35898743D01*
X58036819Y-35878101D01*
X62078102Y-31836819D01*
X62139425Y-31803334D01*
X62165783Y-31800500D01*
X71609218Y-31800500D01*
X71676257Y-31820185D01*
X71696898Y-31836818D01*
X77527860Y-37667781D01*
X77527861Y-37667782D01*
X77667218Y-37807139D01*
X77831086Y-37916632D01*
X77906210Y-37947749D01*
X78013164Y-37992051D01*
X78206454Y-38030499D01*
X78206457Y-38030500D01*
X78206459Y-38030500D01*
X86204543Y-38030500D01*
X86334582Y-38004632D01*
X86397835Y-37992051D01*
X86559364Y-37925144D01*
X86579907Y-37916635D01*
X86579907Y-37916634D01*
X86579914Y-37916632D01*
X86743782Y-37807139D01*
X86883139Y-37667782D01*
X86992632Y-37503914D01*
X87068051Y-37321835D01*
X87106500Y-37128541D01*
X87106500Y-36931459D01*
X87106500Y-36931456D01*
X87068052Y-36738170D01*
X87068051Y-36738169D01*
X87068051Y-36738165D01*
X87068049Y-36738160D01*
X86992635Y-36556092D01*
X86992628Y-36556079D01*
X86883139Y-36392218D01*
X86883136Y-36392214D01*
X86743785Y-36252863D01*
X86743781Y-36252860D01*
X86579920Y-36143371D01*
X86579907Y-36143364D01*
X86397839Y-36067950D01*
X86397829Y-36067947D01*
X86204543Y-36029500D01*
X86204541Y-36029500D01*
X78770783Y-36029500D01*
X78703744Y-36009815D01*
X78683102Y-35993181D01*
X77565302Y-34875381D01*
X77480323Y-34790402D01*
X95199500Y-34790402D01*
X95199500Y-35209597D01*
X95236035Y-35627190D01*
X95236035Y-35627194D01*
X95308824Y-36039998D01*
X95308828Y-36040015D01*
X95417316Y-36444902D01*
X95417319Y-36444912D01*
X95417320Y-36444913D01*
X95560691Y-36838822D01*
X95560694Y-36838829D01*
X95560695Y-36838831D01*
X95560698Y-36838839D01*
X95737843Y-37218726D01*
X95737851Y-37218742D01*
X95885169Y-37473904D01*
X95947443Y-37581764D01*
X95947447Y-37581770D01*
X95947454Y-37581781D01*
X96187879Y-37925144D01*
X96244022Y-37992052D01*
X96457329Y-38246260D01*
X96753740Y-38542671D01*
X96887255Y-38654704D01*
X97074855Y-38812120D01*
X97418218Y-39052545D01*
X97418225Y-39052549D01*
X97418236Y-39052557D01*
X97781264Y-39262152D01*
X97781273Y-39262156D01*
X98161160Y-39439301D01*
X98161164Y-39439302D01*
X98161178Y-39439309D01*
X98555087Y-39582680D01*
X98555093Y-39582681D01*
X98555097Y-39582683D01*
X98665359Y-39612227D01*
X98959992Y-39691174D01*
X99372812Y-39763965D01*
X99790404Y-39800499D01*
X99790405Y-39800500D01*
X99790406Y-39800500D01*
X100209595Y-39800500D01*
X100209595Y-39800499D01*
X100627188Y-39763965D01*
X101040008Y-39691174D01*
X101444913Y-39582680D01*
X101838822Y-39439309D01*
X102218736Y-39262152D01*
X102581764Y-39052557D01*
X102925143Y-38812121D01*
X103246260Y-38542671D01*
X103542671Y-38246260D01*
X103812121Y-37925143D01*
X104052557Y-37581764D01*
X104262152Y-37218736D01*
X104439309Y-36838822D01*
X104582680Y-36444913D01*
X104691174Y-36040008D01*
X104763965Y-35627188D01*
X104800500Y-35209594D01*
X104800500Y-34790406D01*
X104763965Y-34372812D01*
X104691174Y-33959992D01*
X104582680Y-33555087D01*
X104439309Y-33161178D01*
X104262152Y-32781264D01*
X104052557Y-32418236D01*
X104052549Y-32418225D01*
X104052545Y-32418218D01*
X103812120Y-32074855D01*
X103542668Y-31753737D01*
X103246262Y-31457331D01*
X102925144Y-31187879D01*
X102581781Y-30947454D01*
X102581770Y-30947447D01*
X102581764Y-30947443D01*
X102473904Y-30885169D01*
X102218742Y-30737851D01*
X102218726Y-30737843D01*
X101838839Y-30560698D01*
X101838831Y-30560695D01*
X101838829Y-30560694D01*
X101838822Y-30560691D01*
X101444913Y-30417320D01*
X101444912Y-30417319D01*
X101444902Y-30417316D01*
X101040015Y-30308828D01*
X101040018Y-30308828D01*
X101040008Y-30308826D01*
X101040002Y-30308824D01*
X101039998Y-30308824D01*
X100627192Y-30236035D01*
X100209597Y-30199500D01*
X100209594Y-30199500D01*
X99790406Y-30199500D01*
X99790402Y-30199500D01*
X99372809Y-30236035D01*
X99372805Y-30236035D01*
X98960001Y-30308824D01*
X98959984Y-30308828D01*
X98555097Y-30417316D01*
X98379490Y-30481232D01*
X98161178Y-30560691D01*
X98161174Y-30560692D01*
X98161168Y-30560695D01*
X98161160Y-30560698D01*
X97781273Y-30737843D01*
X97781257Y-30737851D01*
X97418244Y-30947438D01*
X97418218Y-30947454D01*
X97074855Y-31187879D01*
X96753737Y-31457331D01*
X96457331Y-31753737D01*
X96187879Y-32074855D01*
X95947454Y-32418218D01*
X95947438Y-32418244D01*
X95737851Y-32781257D01*
X95737843Y-32781273D01*
X95560698Y-33161160D01*
X95560695Y-33161168D01*
X95417316Y-33555097D01*
X95308828Y-33959984D01*
X95308824Y-33960001D01*
X95236035Y-34372805D01*
X95236035Y-34372809D01*
X95199500Y-34790402D01*
X77480323Y-34790402D01*
X72859209Y-30169289D01*
X72852140Y-30162220D01*
X72852139Y-30162218D01*
X72712782Y-30022861D01*
X72712781Y-30022860D01*
X72712780Y-30022859D01*
X72585011Y-29937486D01*
X75649500Y-29937486D01*
X75649500Y-30122514D01*
X75663972Y-30213889D01*
X75678445Y-30305265D01*
X75735619Y-30481232D01*
X75735620Y-30481235D01*
X75776109Y-30560698D01*
X75819622Y-30646096D01*
X75928379Y-30795787D01*
X76059213Y-30926621D01*
X76208904Y-31035378D01*
X76289763Y-31076577D01*
X76373764Y-31119379D01*
X76373767Y-31119380D01*
X76461750Y-31147967D01*
X76549736Y-31176555D01*
X76732486Y-31205500D01*
X76732487Y-31205500D01*
X76917513Y-31205500D01*
X76917514Y-31205500D01*
X77100264Y-31176555D01*
X77276235Y-31119379D01*
X77441096Y-31035378D01*
X77590787Y-30926621D01*
X77721621Y-30795787D01*
X77830378Y-30646096D01*
X77914379Y-30481235D01*
X77971555Y-30305264D01*
X78000500Y-30122514D01*
X78000500Y-29937486D01*
X80499500Y-29937486D01*
X80499500Y-30122514D01*
X80513972Y-30213889D01*
X80528445Y-30305265D01*
X80585619Y-30481232D01*
X80585620Y-30481235D01*
X80626109Y-30560698D01*
X80669622Y-30646096D01*
X80778379Y-30795787D01*
X80909213Y-30926621D01*
X81058904Y-31035378D01*
X81139763Y-31076577D01*
X81223764Y-31119379D01*
X81223767Y-31119380D01*
X81311750Y-31147967D01*
X81399736Y-31176555D01*
X81582486Y-31205500D01*
X81582487Y-31205500D01*
X81767513Y-31205500D01*
X81767514Y-31205500D01*
X81950264Y-31176555D01*
X82126235Y-31119379D01*
X82291096Y-31035378D01*
X82440787Y-30926621D01*
X82571621Y-30795787D01*
X82680378Y-30646096D01*
X82764379Y-30481235D01*
X82821555Y-30305264D01*
X82850500Y-30122514D01*
X82850500Y-29937486D01*
X82821555Y-29754736D01*
X82764379Y-29578765D01*
X82764379Y-29578764D01*
X82680377Y-29413903D01*
X82571621Y-29264213D01*
X82440787Y-29133379D01*
X82291096Y-29024622D01*
X82126235Y-28940620D01*
X82126232Y-28940619D01*
X81950265Y-28883445D01*
X81858889Y-28868972D01*
X81767514Y-28854500D01*
X81582486Y-28854500D01*
X81521569Y-28864148D01*
X81399734Y-28883445D01*
X81223767Y-28940619D01*
X81223764Y-28940620D01*
X81058903Y-29024622D01*
X80973499Y-29086672D01*
X80909213Y-29133379D01*
X80909211Y-29133381D01*
X80909210Y-29133381D01*
X80778381Y-29264210D01*
X80778381Y-29264211D01*
X80778379Y-29264213D01*
X80731672Y-29328499D01*
X80669622Y-29413903D01*
X80585620Y-29578764D01*
X80585619Y-29578767D01*
X80528445Y-29754734D01*
X80503321Y-29913364D01*
X80499500Y-29937486D01*
X78000500Y-29937486D01*
X77971555Y-29754736D01*
X77914379Y-29578765D01*
X77914379Y-29578764D01*
X77830377Y-29413903D01*
X77721621Y-29264213D01*
X77590787Y-29133379D01*
X77441096Y-29024622D01*
X77276235Y-28940620D01*
X77276232Y-28940619D01*
X77100265Y-28883445D01*
X77008889Y-28868972D01*
X76917514Y-28854500D01*
X76732486Y-28854500D01*
X76671569Y-28864148D01*
X76549734Y-28883445D01*
X76373767Y-28940619D01*
X76373764Y-28940620D01*
X76208903Y-29024622D01*
X76123499Y-29086672D01*
X76059213Y-29133379D01*
X76059211Y-29133381D01*
X76059210Y-29133381D01*
X75928381Y-29264210D01*
X75928381Y-29264211D01*
X75928379Y-29264213D01*
X75881672Y-29328499D01*
X75819622Y-29413903D01*
X75735620Y-29578764D01*
X75735619Y-29578767D01*
X75678445Y-29754734D01*
X75653321Y-29913364D01*
X75649500Y-29937486D01*
X72585011Y-29937486D01*
X72548920Y-29913371D01*
X72548907Y-29913364D01*
X72398431Y-29851035D01*
X72398422Y-29851032D01*
X72389990Y-29847540D01*
X72366836Y-29837949D01*
X72270188Y-29818724D01*
X72267183Y-29818126D01*
X72267174Y-29818124D01*
X72173544Y-29799500D01*
X72173541Y-29799500D01*
X61601459Y-29799500D01*
X61601455Y-29799500D01*
X61507825Y-29818124D01*
X61507811Y-29818127D01*
X61504812Y-29818724D01*
X61408164Y-29837949D01*
X61385010Y-29847540D01*
X61376575Y-29851033D01*
X61376570Y-29851035D01*
X61226090Y-29913366D01*
X61226075Y-29913374D01*
X61103045Y-29995579D01*
X61103046Y-29995580D01*
X61062218Y-30022859D01*
X61062215Y-30022862D01*
X57529992Y-33555087D01*
X56362220Y-34722859D01*
X56362218Y-34722861D01*
X56294677Y-34790402D01*
X56222859Y-34862219D01*
X56113371Y-35026079D01*
X56113366Y-35026088D01*
X56062518Y-35148849D01*
X56037950Y-35208159D01*
X56036180Y-35213996D01*
X56033663Y-35213232D01*
X56006507Y-35265045D01*
X56005027Y-35266550D01*
X49864386Y-41407193D01*
X47864471Y-43407108D01*
X47864469Y-43407110D01*
X47634540Y-43637038D01*
X47566331Y-43705247D01*
X47505008Y-43738731D01*
X47435316Y-43733747D01*
X47409762Y-43720669D01*
X47380344Y-43701012D01*
X47364413Y-43690367D01*
X47300039Y-43663703D01*
X47235665Y-43637038D01*
X47182336Y-43614949D01*
X47182332Y-43614948D01*
X47182328Y-43614946D01*
X47085688Y-43595724D01*
X46989044Y-43576500D01*
X46989041Y-43576500D01*
X41770984Y-43576500D01*
X41573903Y-43576500D01*
X41573900Y-43576500D01*
X41380615Y-43614946D01*
X41380611Y-43614948D01*
X41380609Y-43614948D01*
X41380608Y-43614949D01*
X41305189Y-43646188D01*
X41305187Y-43646189D01*
X41198533Y-43690366D01*
X41198523Y-43690371D01*
X41034663Y-43799859D01*
X40964984Y-43869538D01*
X40895305Y-43939218D01*
X40895303Y-43939219D01*
X40895303Y-43939220D01*
X40866611Y-43967913D01*
X40866610Y-43967914D01*
X40757122Y-44131773D01*
X40757117Y-44131783D01*
X40681699Y-44313857D01*
X40681697Y-44313865D01*
X40643250Y-44507149D01*
X40643250Y-44704238D01*
X40681697Y-44897522D01*
X40681699Y-44897530D01*
X40757117Y-45079604D01*
X40757122Y-45079614D01*
X40866610Y-45243474D01*
X40866613Y-45243478D01*
X41005965Y-45382830D01*
X41005969Y-45382833D01*
X41169829Y-45492321D01*
X41169833Y-45492323D01*
X41169836Y-45492325D01*
X41351914Y-45567745D01*
X41496083Y-45596422D01*
X41545205Y-45606193D01*
X41545208Y-45606194D01*
X41545210Y-45606194D01*
X41742292Y-45606194D01*
X41833835Y-45587984D01*
X41874564Y-45579882D01*
X41898755Y-45577500D01*
X45861218Y-45577500D01*
X45890658Y-45586144D01*
X45920645Y-45592668D01*
X45925660Y-45596422D01*
X45928257Y-45597185D01*
X45948899Y-45613819D01*
X46094735Y-45759655D01*
X46094764Y-45759686D01*
X46237217Y-45902139D01*
X46383267Y-45999726D01*
X46401086Y-46011632D01*
X46422952Y-46020689D01*
X46477355Y-46064529D01*
X46499421Y-46130823D01*
X46499500Y-46135250D01*
X46499500Y-59784218D01*
X46479815Y-59851257D01*
X46463181Y-59871899D01*
X46030899Y-60304181D01*
X45969576Y-60337666D01*
X45943218Y-60340500D01*
X41535488Y-60340500D01*
X41342203Y-60378946D01*
X41342199Y-60378948D01*
X41342197Y-60378948D01*
X41342196Y-60378949D01*
X41266777Y-60410188D01*
X41266775Y-60410189D01*
X41160121Y-60454366D01*
X41160111Y-60454371D01*
X40996251Y-60563859D01*
X40926572Y-60633538D01*
X40856893Y-60703218D01*
X40856891Y-60703220D01*
X40856886Y-60703224D01*
X40842197Y-60717915D01*
X40842195Y-60717917D01*
X40732710Y-60881773D01*
X40732705Y-60881783D01*
X40657287Y-61063857D01*
X40657285Y-61063865D01*
X40618838Y-61257149D01*
X40618838Y-61454238D01*
X40657285Y-61647522D01*
X40657287Y-61647530D01*
X40732705Y-61829604D01*
X40732710Y-61829614D01*
X40842198Y-61993474D01*
X40842201Y-61993478D01*
X40981553Y-62132830D01*
X40981557Y-62132833D01*
X41145417Y-62242321D01*
X41145421Y-62242323D01*
X41145424Y-62242325D01*
X41327502Y-62317745D01*
X41520793Y-62356193D01*
X41520796Y-62356194D01*
X41520798Y-62356194D01*
X41717879Y-62356194D01*
X41717879Y-62356193D01*
X41779770Y-62343882D01*
X41803961Y-62341500D01*
X45125500Y-62341500D01*
X45192539Y-62361185D01*
X45238294Y-62413989D01*
X45249500Y-62465500D01*
X45249500Y-63147459D01*
X45249500Y-66098541D01*
X45249500Y-66098543D01*
X45249499Y-66098543D01*
X45287947Y-66291829D01*
X45287950Y-66291839D01*
X45363364Y-66473907D01*
X45363371Y-66473920D01*
X45472860Y-66637781D01*
X45472863Y-66637785D01*
X45616535Y-66781457D01*
X45616559Y-66781479D01*
X46463181Y-67628101D01*
X46496666Y-67689424D01*
X46499500Y-67715782D01*
X46499500Y-76284217D01*
X46479815Y-76351256D01*
X46463180Y-76371898D01*
X46112204Y-76722876D01*
X45766899Y-77068181D01*
X45705576Y-77101666D01*
X45679218Y-77104500D01*
X41521488Y-77104500D01*
X41328203Y-77142947D01*
X41328195Y-77142949D01*
X41254355Y-77173535D01*
X41254354Y-77173535D01*
X41146124Y-77218364D01*
X41146111Y-77218371D01*
X40982250Y-77327860D01*
X40982246Y-77327863D01*
X40847197Y-77462913D01*
X40847065Y-77463033D01*
X40842199Y-77467913D01*
X40842194Y-77467919D01*
X40732710Y-77631773D01*
X40732705Y-77631783D01*
X40657287Y-77813857D01*
X40657285Y-77813865D01*
X40618838Y-78007149D01*
X40618838Y-78204238D01*
X40657285Y-78397522D01*
X40657287Y-78397530D01*
X40732705Y-78579604D01*
X40732710Y-78579614D01*
X40842198Y-78743474D01*
X40842201Y-78743478D01*
X40981553Y-78882830D01*
X40981557Y-78882833D01*
X41145417Y-78992321D01*
X41145421Y-78992323D01*
X41145424Y-78992325D01*
X41327502Y-79067745D01*
X41517309Y-79105500D01*
X41520793Y-79106193D01*
X41520796Y-79106194D01*
X41520798Y-79106194D01*
X41717879Y-79106194D01*
X41718864Y-79106097D01*
X41731017Y-79105500D01*
X45125500Y-79105500D01*
X45192539Y-79125185D01*
X45238294Y-79177989D01*
X45249500Y-79229500D01*
X45249500Y-83348544D01*
X45287947Y-83541828D01*
X45287950Y-83541840D01*
X45293809Y-83555984D01*
X45363366Y-83723911D01*
X45363371Y-83723920D01*
X45472859Y-83887780D01*
X45472860Y-83887781D01*
X45472861Y-83887782D01*
X45612218Y-84027139D01*
X45612219Y-84027139D01*
X45619286Y-84034206D01*
X45619285Y-84034206D01*
X45619289Y-84034209D01*
X46154044Y-84568965D01*
X46187529Y-84630288D01*
X46187980Y-84680835D01*
X46181872Y-84711552D01*
X46180000Y-84720961D01*
X46180000Y-92579716D01*
X46171356Y-92609150D01*
X46164834Y-92639140D01*
X46161077Y-92644158D01*
X46160315Y-92646755D01*
X46143683Y-92667395D01*
X46121900Y-92689179D01*
X46060578Y-92722666D01*
X46034217Y-92725500D01*
X44103707Y-92725500D01*
X44103687Y-92725499D01*
X44097573Y-92725499D01*
X43900492Y-92725499D01*
X43900489Y-92725499D01*
X43707204Y-92763946D01*
X43707196Y-92763948D01*
X43525120Y-92839366D01*
X43525111Y-92839371D01*
X43361251Y-92948859D01*
X43361247Y-92948862D01*
X42665985Y-93644127D01*
X42491237Y-93818875D01*
X42429914Y-93852360D01*
X42403556Y-93855194D01*
X41520795Y-93855194D01*
X41327508Y-93893641D01*
X41327498Y-93893644D01*
X41145430Y-93969058D01*
X41145417Y-93969065D01*
X40981556Y-94078554D01*
X40981552Y-94078557D01*
X40842201Y-94217908D01*
X40842198Y-94217912D01*
X40732709Y-94381773D01*
X40732702Y-94381786D01*
X40657288Y-94563854D01*
X40657285Y-94563864D01*
X40618838Y-94757150D01*
X40618838Y-94757153D01*
X40618838Y-94954235D01*
X40618838Y-94954237D01*
X40618837Y-94954237D01*
X39125500Y-94954237D01*
X39125500Y-91629500D01*
X39145185Y-91562461D01*
X39197989Y-91516706D01*
X39249500Y-91505500D01*
X42249968Y-91505500D01*
X42250000Y-91505500D01*
X42262380Y-91505348D01*
X42360634Y-91502941D01*
X42446872Y-91493380D01*
X42446889Y-91493376D01*
X42446893Y-91493376D01*
X42639584Y-91455048D01*
X42639595Y-91455045D01*
X42639595Y-91455044D01*
X42639605Y-91455043D01*
X42734435Y-91426277D01*
X42915985Y-91351076D01*
X43003377Y-91304363D01*
X43166768Y-91195189D01*
X43243370Y-91132323D01*
X43382323Y-90993370D01*
X43445189Y-90916768D01*
X43554363Y-90753377D01*
X43601076Y-90665985D01*
X43676277Y-90484435D01*
X43705043Y-90389605D01*
X43705045Y-90389595D01*
X43705048Y-90389584D01*
X43743376Y-90196893D01*
X43743376Y-90196889D01*
X43743380Y-90196872D01*
X43752941Y-90110634D01*
X43755348Y-90012380D01*
X43755500Y-90000000D01*
X43755500Y-88500000D01*
X43755348Y-88487620D01*
X43752941Y-88389366D01*
X43743380Y-88303128D01*
X43743376Y-88303106D01*
X43705048Y-88110415D01*
X43705045Y-88110404D01*
X43705044Y-88110401D01*
X43705043Y-88110395D01*
X43676277Y-88015565D01*
X43601076Y-87834015D01*
X43554363Y-87746623D01*
X43468423Y-87618004D01*
X43445201Y-87583249D01*
X43445194Y-87583239D01*
X43445189Y-87583232D01*
X43382323Y-87506630D01*
X43382322Y-87506629D01*
X43382318Y-87506624D01*
X43243375Y-87367681D01*
X43166773Y-87304815D01*
X43166750Y-87304798D01*
X43003393Y-87195647D01*
X43003385Y-87195642D01*
X43003377Y-87195637D01*
X42951725Y-87168028D01*
X42915984Y-87148923D01*
X42915979Y-87148921D01*
X42734440Y-87073724D01*
X42639595Y-87044954D01*
X42639584Y-87044951D01*
X42446893Y-87006623D01*
X42446865Y-87006619D01*
X42425146Y-87004211D01*
X42360634Y-86997059D01*
X42360626Y-86997058D01*
X42360620Y-86997058D01*
X42262396Y-86994652D01*
X42258253Y-86994601D01*
X42250000Y-86994500D01*
X42249968Y-86994500D01*
X39249500Y-86994500D01*
X39182461Y-86974815D01*
X39136706Y-86922011D01*
X39125500Y-86870500D01*
X39125500Y-75129500D01*
X39145185Y-75062461D01*
X39197989Y-75016706D01*
X39249500Y-75005500D01*
X42249968Y-75005500D01*
X42250000Y-75005500D01*
X42262380Y-75005348D01*
X42360634Y-75002941D01*
X42446872Y-74993380D01*
X42446889Y-74993376D01*
X42446893Y-74993376D01*
X42639584Y-74955048D01*
X42639595Y-74955045D01*
X42639595Y-74955044D01*
X42639605Y-74955043D01*
X42734435Y-74926277D01*
X42915985Y-74851076D01*
X43003377Y-74804363D01*
X43166768Y-74695189D01*
X43243370Y-74632323D01*
X43382323Y-74493370D01*
X43445189Y-74416768D01*
X43554363Y-74253377D01*
X43601076Y-74165985D01*
X43676277Y-73984435D01*
X43705043Y-73889605D01*
X43705045Y-73889595D01*
X43705048Y-73889584D01*
X43743376Y-73696893D01*
X43743376Y-73696889D01*
X43743380Y-73696872D01*
X43752941Y-73610634D01*
X43755348Y-73512380D01*
X43755500Y-73500000D01*
X43755500Y-72000000D01*
X43755348Y-71987620D01*
X43752941Y-71889366D01*
X43743380Y-71803128D01*
X43743376Y-71803106D01*
X43705048Y-71610415D01*
X43705045Y-71610404D01*
X43705044Y-71610401D01*
X43705043Y-71610395D01*
X43676277Y-71515565D01*
X43601076Y-71334015D01*
X43554363Y-71246623D01*
X43485400Y-71143412D01*
X43445201Y-71083249D01*
X43445194Y-71083239D01*
X43445189Y-71083232D01*
X43382323Y-71006630D01*
X43382322Y-71006629D01*
X43382318Y-71006624D01*
X43243375Y-70867681D01*
X43166773Y-70804815D01*
X43166750Y-70804798D01*
X43003393Y-70695647D01*
X43003385Y-70695642D01*
X43003377Y-70695637D01*
X42951725Y-70668028D01*
X42915984Y-70648923D01*
X42915979Y-70648921D01*
X42734440Y-70573724D01*
X42639595Y-70544954D01*
X42639584Y-70544951D01*
X42446893Y-70506623D01*
X42446865Y-70506619D01*
X42425146Y-70504211D01*
X42360634Y-70497059D01*
X42360626Y-70497058D01*
X42360620Y-70497058D01*
X42262396Y-70494652D01*
X42258253Y-70494601D01*
X42250000Y-70494500D01*
X42249968Y-70494500D01*
X39249500Y-70494500D01*
X39182461Y-70474815D01*
X39136706Y-70422011D01*
X39125500Y-70370500D01*
X39125500Y-58379500D01*
X39145185Y-58312461D01*
X39197989Y-58266706D01*
X39249500Y-58255500D01*
X42249968Y-58255500D01*
X42250000Y-58255500D01*
X42262380Y-58255348D01*
X42360634Y-58252941D01*
X42446872Y-58243380D01*
X42446889Y-58243376D01*
X42446893Y-58243376D01*
X42639584Y-58205048D01*
X42639595Y-58205045D01*
X42639595Y-58205044D01*
X42639605Y-58205043D01*
X42734435Y-58176277D01*
X42915985Y-58101076D01*
X43003377Y-58054363D01*
X43166768Y-57945189D01*
X43243370Y-57882323D01*
X43382323Y-57743370D01*
X43445189Y-57666768D01*
X43554363Y-57503377D01*
X43601076Y-57415985D01*
X43676277Y-57234435D01*
X43705043Y-57139605D01*
X43705045Y-57139595D01*
X43705048Y-57139584D01*
X43743376Y-56946893D01*
X43743376Y-56946889D01*
X43743380Y-56946872D01*
X43752941Y-56860634D01*
X43755348Y-56762380D01*
X43755500Y-56750000D01*
X43755500Y-55250000D01*
X43755348Y-55237620D01*
X43752941Y-55139366D01*
X43743380Y-55053128D01*
X43743376Y-55053106D01*
X43705048Y-54860415D01*
X43705045Y-54860404D01*
X43705044Y-54860401D01*
X43705043Y-54860395D01*
X43676277Y-54765565D01*
X43601076Y-54584015D01*
X43554363Y-54496623D01*
X43475890Y-54379179D01*
X43445201Y-54333249D01*
X43445194Y-54333239D01*
X43445189Y-54333232D01*
X43382323Y-54256630D01*
X43382322Y-54256629D01*
X43382318Y-54256624D01*
X43243375Y-54117681D01*
X43166773Y-54054815D01*
X43166750Y-54054798D01*
X43003393Y-53945647D01*
X43003385Y-53945642D01*
X43003377Y-53945637D01*
X42951725Y-53918028D01*
X42915984Y-53898923D01*
X42915979Y-53898921D01*
X42734440Y-53823724D01*
X42639595Y-53794954D01*
X42639584Y-53794951D01*
X42446893Y-53756623D01*
X42446865Y-53756619D01*
X42425146Y-53754211D01*
X42360634Y-53747059D01*
X42360626Y-53747058D01*
X42360620Y-53747058D01*
X42262396Y-53744652D01*
X42258253Y-53744601D01*
X42250000Y-53744500D01*
X42249968Y-53744500D01*
X39249500Y-53744500D01*
X39182461Y-53724815D01*
X39136706Y-53672011D01*
X39125500Y-53620500D01*
X39125500Y-49891746D01*
X39107673Y-49779191D01*
X39107673Y-49779190D01*
X39091631Y-49677906D01*
X39091631Y-49677903D01*
X39024726Y-49471991D01*
X39024724Y-49471988D01*
X39024724Y-49471986D01*
X38989064Y-49402000D01*
X38926433Y-49279081D01*
X38875230Y-49208606D01*
X38799178Y-49103928D01*
X38799174Y-49103923D01*
X36146076Y-46450825D01*
X36146071Y-46450821D01*
X35970922Y-46323569D01*
X35970921Y-46323568D01*
X35970919Y-46323567D01*
X35909115Y-46292076D01*
X35778009Y-46225273D01*
X35778006Y-46225272D01*
X35572098Y-46158370D01*
X35465175Y-46141435D01*
X35358254Y-46124500D01*
X35358253Y-46124500D01*
X30012150Y-46124500D01*
X29945111Y-46104815D01*
X29936664Y-46098876D01*
X29807449Y-45999726D01*
X29603056Y-45881719D01*
X29603045Y-45881714D01*
X29384993Y-45791394D01*
X29278197Y-45762778D01*
X29157014Y-45730307D01*
X29157013Y-45730306D01*
X29157010Y-45730306D01*
X28923020Y-45699501D01*
X28923017Y-45699500D01*
X28923011Y-45699500D01*
X28686989Y-45699500D01*
X28686983Y-45699500D01*
X28686979Y-45699501D01*
X28452989Y-45730306D01*
X28225006Y-45791394D01*
X28006954Y-45881714D01*
X28006943Y-45881719D01*
X27802545Y-45999730D01*
X27615302Y-46143406D01*
X27615295Y-46143412D01*
X27448412Y-46310295D01*
X27448406Y-46310302D01*
X27304730Y-46497545D01*
X27186719Y-46701943D01*
X27186714Y-46701954D01*
X27096394Y-46920006D01*
X27035306Y-47147989D01*
X27004501Y-47381979D01*
X27004500Y-47381995D01*
X25500500Y-47381995D01*
X25500500Y-34790402D01*
X30199500Y-34790402D01*
X30199500Y-35209597D01*
X30236035Y-35627190D01*
X30236035Y-35627194D01*
X30308824Y-36039998D01*
X30308828Y-36040015D01*
X30417316Y-36444902D01*
X30417319Y-36444912D01*
X30417320Y-36444913D01*
X30560691Y-36838822D01*
X30560694Y-36838829D01*
X30560695Y-36838831D01*
X30560698Y-36838839D01*
X30737843Y-37218726D01*
X30737851Y-37218742D01*
X30885169Y-37473904D01*
X30947443Y-37581764D01*
X30947447Y-37581770D01*
X30947454Y-37581781D01*
X31187879Y-37925144D01*
X31244022Y-37992052D01*
X31457329Y-38246260D01*
X31753740Y-38542671D01*
X31887255Y-38654704D01*
X32074855Y-38812120D01*
X32418218Y-39052545D01*
X32418225Y-39052549D01*
X32418236Y-39052557D01*
X32781264Y-39262152D01*
X32781273Y-39262156D01*
X33161160Y-39439301D01*
X33161164Y-39439302D01*
X33161178Y-39439309D01*
X33555087Y-39582680D01*
X33555093Y-39582681D01*
X33555097Y-39582683D01*
X33665359Y-39612227D01*
X33959992Y-39691174D01*
X34372812Y-39763965D01*
X34790404Y-39800499D01*
X34790405Y-39800500D01*
X34790406Y-39800500D01*
X35209595Y-39800500D01*
X35209595Y-39800499D01*
X35627188Y-39763965D01*
X36040008Y-39691174D01*
X36444913Y-39582680D01*
X36838822Y-39439309D01*
X37218736Y-39262152D01*
X37581764Y-39052557D01*
X37925143Y-38812121D01*
X38246260Y-38542671D01*
X38542671Y-38246260D01*
X38812121Y-37925143D01*
X39052557Y-37581764D01*
X39262152Y-37218736D01*
X39439309Y-36838822D01*
X39582680Y-36444913D01*
X39691174Y-36040008D01*
X39763965Y-35627188D01*
X39800500Y-35209594D01*
X39800500Y-34790406D01*
X39763965Y-34372812D01*
X39691174Y-33959992D01*
X39582680Y-33555087D01*
X39439309Y-33161178D01*
X39262152Y-32781264D01*
X39052557Y-32418236D01*
X39052549Y-32418225D01*
X39052545Y-32418218D01*
X38812120Y-32074855D01*
X38542668Y-31753737D01*
X38246262Y-31457331D01*
X37925144Y-31187879D01*
X37581781Y-30947454D01*
X37581770Y-30947447D01*
X37581764Y-30947443D01*
X37473904Y-30885169D01*
X37218742Y-30737851D01*
X37218726Y-30737843D01*
X36838839Y-30560698D01*
X36838831Y-30560695D01*
X36838829Y-30560694D01*
X36838822Y-30560691D01*
X36444913Y-30417320D01*
X36444912Y-30417319D01*
X36444902Y-30417316D01*
X36040015Y-30308828D01*
X36040018Y-30308828D01*
X36040008Y-30308826D01*
X36040002Y-30308824D01*
X36039998Y-30308824D01*
X35627192Y-30236035D01*
X35209597Y-30199500D01*
X35209594Y-30199500D01*
X34790406Y-30199500D01*
X34790402Y-30199500D01*
X34372809Y-30236035D01*
X34372805Y-30236035D01*
X33960001Y-30308824D01*
X33959984Y-30308828D01*
X33555097Y-30417316D01*
X33379490Y-30481232D01*
X33161178Y-30560691D01*
X33161174Y-30560692D01*
X33161168Y-30560695D01*
X33161160Y-30560698D01*
X32781273Y-30737843D01*
X32781257Y-30737851D01*
X32418244Y-30947438D01*
X32418218Y-30947454D01*
X32074855Y-31187879D01*
X31753737Y-31457331D01*
X31457331Y-31753737D01*
X31187879Y-32074855D01*
X30947454Y-32418218D01*
X30947438Y-32418244D01*
X30737851Y-32781257D01*
X30737843Y-32781273D01*
X30560698Y-33161160D01*
X30560695Y-33161168D01*
X30417316Y-33555097D01*
X30308828Y-33959984D01*
X30308824Y-33960001D01*
X30236035Y-34372805D01*
X30236035Y-34372809D01*
X30199500Y-34790402D01*
X25500500Y-34790402D01*
X25500500Y-25624500D01*
X25520185Y-25557461D01*
X25572989Y-25511706D01*
X25624500Y-25500500D01*
X75986774Y-25500500D01*
X76053813Y-25520185D01*
G37*
%TD.AperFunction*%
%TA.AperFunction,Conductor*%
G36*
X106817539Y-102302685D02*
G01*
X106863294Y-102355489D01*
X106874500Y-102407000D01*
X106874500Y-105624530D01*
X106854815Y-105691569D01*
X106802011Y-105737324D01*
X106732853Y-105747268D01*
X106669297Y-105718243D01*
X106646331Y-105690432D01*
X106645856Y-105690750D01*
X106643601Y-105687375D01*
X106491939Y-105489725D01*
X106491933Y-105489718D01*
X106315781Y-105313566D01*
X106315774Y-105313560D01*
X106118126Y-105161900D01*
X105902376Y-105037337D01*
X105902361Y-105037330D01*
X105672207Y-104941998D01*
X105431561Y-104877517D01*
X105184575Y-104845001D01*
X105184570Y-104845000D01*
X105184565Y-104845000D01*
X104935435Y-104845000D01*
X104935429Y-104845000D01*
X104935424Y-104845001D01*
X104688438Y-104877517D01*
X104447792Y-104941998D01*
X104217638Y-105037330D01*
X104217623Y-105037337D01*
X104001873Y-105161900D01*
X103804225Y-105313560D01*
X103804218Y-105313566D01*
X103628066Y-105489718D01*
X103628060Y-105489725D01*
X103476400Y-105687373D01*
X103351837Y-105903123D01*
X103351830Y-105903138D01*
X103256498Y-106133292D01*
X103192017Y-106373938D01*
X103159501Y-106620924D01*
X103159500Y-106620941D01*
X103159500Y-106870058D01*
X103159501Y-106870075D01*
X103192017Y-107117061D01*
X103256498Y-107357707D01*
X103351830Y-107587861D01*
X103351837Y-107587876D01*
X103476400Y-107803626D01*
X103628060Y-108001274D01*
X103628066Y-108001281D01*
X103804218Y-108177433D01*
X103804225Y-108177439D01*
X104001873Y-108329099D01*
X104217623Y-108453662D01*
X104217638Y-108453669D01*
X104313500Y-108493376D01*
X104447793Y-108549002D01*
X104688435Y-108613482D01*
X104935435Y-108646000D01*
X104935442Y-108646000D01*
X105184558Y-108646000D01*
X105184565Y-108646000D01*
X105431565Y-108613482D01*
X105672207Y-108549002D01*
X105902373Y-108453664D01*
X106118127Y-108329099D01*
X106315776Y-108177438D01*
X106491938Y-108001276D01*
X106643599Y-107803627D01*
X106643601Y-107803624D01*
X106645856Y-107800250D01*
X106646846Y-107800911D01*
X106693672Y-107756258D01*
X106762278Y-107743030D01*
X106827145Y-107768993D01*
X106867677Y-107825904D01*
X106874500Y-107866469D01*
X106874500Y-112194006D01*
X106854815Y-112261045D01*
X106802011Y-112306800D01*
X106732853Y-112316744D01*
X106669297Y-112287719D01*
X106640015Y-112250301D01*
X106601861Y-112175422D01*
X106541433Y-112056825D01*
X106519095Y-112026079D01*
X106414178Y-111881672D01*
X106414174Y-111881667D01*
X100362819Y-105830312D01*
X100329334Y-105768989D01*
X100326500Y-105742631D01*
X100326500Y-105274956D01*
X100346185Y-105207917D01*
X100398989Y-105162162D01*
X100468147Y-105152218D01*
X100469898Y-105152483D01*
X100643630Y-105180000D01*
X100643631Y-105180000D01*
X100836369Y-105180000D01*
X100836370Y-105180000D01*
X101026738Y-105149848D01*
X101026741Y-105149847D01*
X101026742Y-105149847D01*
X101210042Y-105090289D01*
X101210042Y-105090288D01*
X101210045Y-105090288D01*
X101381778Y-105002786D01*
X101537708Y-104889496D01*
X101673996Y-104753208D01*
X101787286Y-104597278D01*
X101874788Y-104425545D01*
X101888218Y-104384212D01*
X101934347Y-104242242D01*
X101934347Y-104242241D01*
X101934348Y-104242238D01*
X101942593Y-104190180D01*
X101972522Y-104127047D01*
X102031833Y-104090115D01*
X102101696Y-104091113D01*
X102103330Y-104091630D01*
X102178337Y-104116001D01*
X102233261Y-104133848D01*
X102313975Y-104146632D01*
X102423630Y-104164000D01*
X102423631Y-104164000D01*
X102616369Y-104164000D01*
X102616370Y-104164000D01*
X102806738Y-104133848D01*
X102806741Y-104133847D01*
X102806742Y-104133847D01*
X102990042Y-104074289D01*
X102990042Y-104074288D01*
X102990045Y-104074288D01*
X103161778Y-103986786D01*
X103317708Y-103873496D01*
X103453996Y-103737208D01*
X103567286Y-103581278D01*
X103654788Y-103409545D01*
X103696800Y-103280245D01*
X103714347Y-103226242D01*
X103714347Y-103226241D01*
X103714348Y-103226238D01*
X103744500Y-103035870D01*
X103744500Y-102843130D01*
X103714348Y-102652762D01*
X103714347Y-102652758D01*
X103714347Y-102652757D01*
X103654790Y-102469459D01*
X103651651Y-102463299D01*
X103638753Y-102394630D01*
X103665027Y-102329889D01*
X103722132Y-102289630D01*
X103762134Y-102283000D01*
X106750500Y-102283000D01*
X106817539Y-102302685D01*
G37*
%TD.AperFunction*%
%TA.AperFunction,Conductor*%
G36*
X101764139Y-89015577D02*
G01*
X101808487Y-89044078D01*
X105073181Y-92308772D01*
X105106666Y-92370095D01*
X105109500Y-92396453D01*
X105109500Y-95095184D01*
X105100061Y-95142636D01*
X105040264Y-95286998D01*
X105040261Y-95287010D01*
X105009500Y-95441653D01*
X105009500Y-95599346D01*
X105040261Y-95753989D01*
X105040264Y-95754001D01*
X105100602Y-95899672D01*
X105100609Y-95899685D01*
X105188210Y-96030788D01*
X105188213Y-96030792D01*
X105299707Y-96142286D01*
X105299711Y-96142289D01*
X105430814Y-96229890D01*
X105430827Y-96229897D01*
X105576498Y-96290235D01*
X105576503Y-96290237D01*
X105655730Y-96305996D01*
X105699691Y-96314741D01*
X105761602Y-96347126D01*
X105796176Y-96407841D01*
X105799500Y-96436358D01*
X105799500Y-97488980D01*
X105779815Y-97556019D01*
X105763181Y-97576661D01*
X104865412Y-98474429D01*
X104825184Y-98501309D01*
X104680823Y-98561104D01*
X104680814Y-98561109D01*
X104549711Y-98648710D01*
X104549707Y-98648713D01*
X104438213Y-98760207D01*
X104438210Y-98760211D01*
X104350609Y-98891314D01*
X104350602Y-98891327D01*
X104290264Y-99036998D01*
X104290261Y-99037010D01*
X104259500Y-99191653D01*
X104259500Y-99349346D01*
X104266355Y-99383809D01*
X104260128Y-99453401D01*
X104217264Y-99508578D01*
X104151374Y-99531822D01*
X104144738Y-99532000D01*
X103761574Y-99532000D01*
X103694535Y-99512315D01*
X103648780Y-99459511D01*
X103638836Y-99390353D01*
X103651088Y-99351708D01*
X103654322Y-99345359D01*
X103713861Y-99162118D01*
X103744000Y-98971830D01*
X103744000Y-98779169D01*
X103713861Y-98588881D01*
X103654323Y-98405644D01*
X103566857Y-98233982D01*
X103566851Y-98233973D01*
X103545065Y-98203987D01*
X103545064Y-98203986D01*
X102978467Y-98770583D01*
X102957971Y-98694087D01*
X102896094Y-98586913D01*
X102808587Y-98499406D01*
X102701413Y-98437529D01*
X102624914Y-98417031D01*
X103126241Y-97915704D01*
X103157633Y-97892897D01*
X103161778Y-97890786D01*
X103317708Y-97777496D01*
X103453996Y-97641208D01*
X103567286Y-97485278D01*
X103654788Y-97313545D01*
X103656114Y-97309463D01*
X103714347Y-97130242D01*
X103714347Y-97130241D01*
X103714348Y-97130238D01*
X103744500Y-96939870D01*
X103744500Y-96747130D01*
X103714348Y-96556762D01*
X103714347Y-96556758D01*
X103714347Y-96556757D01*
X103654789Y-96373457D01*
X103622610Y-96310302D01*
X103567286Y-96201722D01*
X103453996Y-96045792D01*
X103317708Y-95909504D01*
X103161778Y-95796214D01*
X103091271Y-95760289D01*
X103031206Y-95729684D01*
X102980410Y-95681709D01*
X102963501Y-95619199D01*
X102963501Y-95180295D01*
X102972145Y-95150854D01*
X102978669Y-95120868D01*
X102982423Y-95115852D01*
X102983186Y-95113256D01*
X102999820Y-95092614D01*
X103040232Y-95052202D01*
X103101555Y-95018717D01*
X103152104Y-95018266D01*
X103186263Y-95025060D01*
X103216603Y-95031096D01*
X103216604Y-95031096D01*
X103374290Y-95031096D01*
X103374291Y-95031095D01*
X103528943Y-95000333D01*
X103674625Y-94939990D01*
X103805735Y-94852385D01*
X103917235Y-94740885D01*
X104004840Y-94609775D01*
X104065183Y-94464093D01*
X104095946Y-94309438D01*
X104095946Y-94151754D01*
X104095946Y-94151751D01*
X104095945Y-94151749D01*
X104065183Y-93997099D01*
X104022331Y-93893644D01*
X104004843Y-93851423D01*
X104004836Y-93851410D01*
X103917235Y-93720307D01*
X103917232Y-93720303D01*
X103805738Y-93608809D01*
X103805734Y-93608806D01*
X103674631Y-93521205D01*
X103674618Y-93521198D01*
X103530574Y-93461534D01*
X103476170Y-93417693D01*
X103463465Y-93394425D01*
X103403801Y-93250381D01*
X103403794Y-93250368D01*
X103316193Y-93119265D01*
X103316190Y-93119261D01*
X103204696Y-93007767D01*
X103204692Y-93007764D01*
X103073589Y-92920163D01*
X103073576Y-92920156D01*
X102927905Y-92859818D01*
X102927893Y-92859815D01*
X102773249Y-92829054D01*
X102773246Y-92829054D01*
X102615562Y-92829054D01*
X102615559Y-92829054D01*
X102460914Y-92859815D01*
X102460902Y-92859818D01*
X102315231Y-92920156D01*
X102315218Y-92920163D01*
X102184115Y-93007764D01*
X102184111Y-93007767D01*
X102072617Y-93119261D01*
X102072614Y-93119265D01*
X101985013Y-93250368D01*
X101985006Y-93250381D01*
X101924668Y-93396052D01*
X101924665Y-93396064D01*
X101893904Y-93550707D01*
X101893904Y-93708400D01*
X101906733Y-93772895D01*
X101900506Y-93842487D01*
X101872797Y-93884767D01*
X101547681Y-94209883D01*
X101547675Y-94209889D01*
X101544285Y-94213280D01*
X101544283Y-94213282D01*
X101432479Y-94325086D01*
X101403951Y-94374499D01*
X101398215Y-94384433D01*
X101398213Y-94384436D01*
X101353423Y-94462015D01*
X101353422Y-94462017D01*
X101312498Y-94614745D01*
X101312498Y-94614747D01*
X101312498Y-94782848D01*
X101312499Y-94782861D01*
X101312499Y-95802786D01*
X101292814Y-95869825D01*
X101276180Y-95890467D01*
X101069481Y-96097165D01*
X101069479Y-96097167D01*
X101050714Y-96129669D01*
X101042783Y-96143408D01*
X100990423Y-96234098D01*
X100949499Y-96386826D01*
X100949499Y-96386828D01*
X100949499Y-96511000D01*
X100929814Y-96578039D01*
X100877010Y-96623794D01*
X100825499Y-96635000D01*
X100643630Y-96635000D01*
X100469897Y-96662516D01*
X100400604Y-96653561D01*
X100347152Y-96608565D01*
X100326513Y-96541813D01*
X100326500Y-96540043D01*
X100326500Y-89524956D01*
X100346185Y-89457917D01*
X100398989Y-89412162D01*
X100468147Y-89402218D01*
X100469898Y-89402483D01*
X100643630Y-89430000D01*
X100643631Y-89430000D01*
X100836369Y-89430000D01*
X100836370Y-89430000D01*
X101026738Y-89399848D01*
X101026741Y-89399847D01*
X101026742Y-89399847D01*
X101210042Y-89340289D01*
X101210042Y-89340288D01*
X101210045Y-89340288D01*
X101381778Y-89252786D01*
X101537708Y-89139496D01*
X101633128Y-89044075D01*
X101694447Y-89010593D01*
X101764139Y-89015577D01*
G37*
%TD.AperFunction*%
%TD*%
M02*
