M48
; DRILL file {KiCad 9.0.1-9.0.1-0~ubuntu24.04.1} date 2025-04-05T03:16:35-0400
; FORMAT={-:-/ absolute / inch / decimal}
; #@! TF.CreationDate,2025-04-05T03:16:35-04:00
; #@! TF.GenerationSoftware,Kicad,Pcbnew,9.0.1-9.0.1-0~ubuntu24.04.1
; #@! TF.FileFunction,Plated,1,2,PTH
FMAT,2
INCH
; #@! TA.AperFunction,Plated,PTH,ViaDrill
T1C0.0118
; #@! TA.AperFunction,Plated,PTH,ComponentDrill
T2C0.0236
; #@! TA.AperFunction,Plated,PTH,ComponentDrill
T3C0.0370
; #@! TA.AperFunction,Plated,PTH,ComponentDrill
T4C0.0512
; #@! TA.AperFunction,Plated,PTH,ComponentDrill
T5C0.1693
%
G90
G05
T1
X1.0728Y-4.8228
X1.5893Y-2.8388
X1.5893Y-2.8782
X1.5893Y-3.4983
X1.5893Y-3.5376
X1.5893Y-4.1577
X1.5893Y-4.1971
X1.5903Y-2.1794
X1.5903Y-2.2187
X1.5945Y-2.9035
X1.5945Y-3.563
X1.5945Y-4.2224
X1.5954Y-2.2441
X1.5992Y-2.8093
X1.5992Y-3.4687
X1.5992Y-4.1282
X1.6001Y-2.1498
X1.609Y-2.5731
X1.609Y-3.2325
X1.609Y-3.892
X1.6099Y-2.8629
X1.6099Y-3.5224
X1.6099Y-4.1818
X1.61Y-1.9136
X1.6108Y-2.2035
X1.6189Y-2.8388
X1.6189Y-2.888
X1.6189Y-3.4983
X1.6189Y-3.5475
X1.6189Y-4.1577
X1.6189Y-4.2069
X1.6198Y-2.1794
X1.6198Y-2.2286
X1.6287Y-2.5534
X1.6287Y-2.5927
X1.6287Y-3.2128
X1.6287Y-3.2522
X1.6287Y-3.8723
X1.6287Y-3.9116
X1.6297Y-1.8939
X1.6297Y-1.9333
X1.6334Y-2.9093
X1.6334Y-3.5687
X1.6334Y-4.2282
X1.6343Y-2.2498
X1.6386Y-2.4156
X1.6386Y-3.075
X1.6386Y-3.7345
X1.6395Y-1.7561
X1.6472Y-2.8499
X1.6472Y-3.5093
X1.6472Y-4.1688
X1.6481Y-2.1904
X1.6484Y-2.5337
X1.6484Y-2.5731
X1.6484Y-2.6124
X1.6484Y-2.888
X1.6484Y-3.1931
X1.6484Y-3.2325
X1.6484Y-3.2719
X1.6484Y-3.5475
X1.6484Y-3.8526
X1.6484Y-3.892
X1.6484Y-3.9313
X1.6484Y-4.2069
X1.6494Y-1.8742
X1.6494Y-1.9136
X1.6494Y-1.953
X1.6494Y-2.2286
X1.6681Y-2.5534
X1.6681Y-2.5927
X1.6681Y-3.2128
X1.6681Y-3.2522
X1.6681Y-3.8723
X1.6681Y-3.9116
X1.669Y-1.8939
X1.669Y-1.9333
X1.6878Y-2.4156
X1.6878Y-2.5731
X1.6878Y-3.075
X1.6878Y-3.2325
X1.6878Y-3.7345
X1.6878Y-3.892
X1.6887Y-1.7561
X1.6887Y-1.9136
X1.8209Y-2.4213
X1.8307Y-1.7618
X1.8307Y-3.061
X1.8307Y-3.7402
X1.8602Y-4.0344
X1.8602Y-4.5276
X1.8701Y-2.0079
X1.8701Y-2.6476
X1.8701Y-3.3268
X1.9291Y-3.3957
X1.939Y-1.8406
X1.939Y-2.2343
X1.939Y-2.372
X1.939Y-3.1693
X1.9587Y-3.002
X1.9587Y-3.8386
X2.0472Y-2.9035
X2.0644Y-1.6601
X2.0669Y-4.5768
X2.0866Y-2.0177
X2.0866Y-2.6673
X2.0866Y-3.3366
X2.0866Y-3.9961
X2.1161Y-1.9506
X2.1161Y-2.6101
X2.1161Y-3.2695
X2.1161Y-3.929
X2.1586Y-2.6601
X2.1586Y-3.3195
X2.1586Y-3.979
X2.1596Y-2.0006
X2.1927Y-2.4923
X2.1959Y-1.6585
X2.2441Y-1.6663
X2.2539Y-2.4311
X2.2579Y-1.7697
X2.2638Y-3.0906
X2.2638Y-3.75
X2.2736Y-2.2441
X2.313Y-2.9331
X2.3228Y-3.2579
X2.3228Y-4.6752
X2.3327Y-3.0807
X2.3425Y-3.5236
X2.3425Y-4.6555
X2.3425Y-4.6949
X2.3622Y-3.3563
X2.3622Y-4.6752
X2.4016Y-3.2835
X2.4213Y-3.6122
X2.5295Y-1.4075
X2.5295Y-1.5157
X2.5295Y-1.624
X2.5404Y-1.2598
X2.5492Y-4.7835
X2.5551Y-1.1161
X2.5591Y-1.8307
X2.5591Y-2.1358
X2.5689Y-4.7638
X2.5689Y-4.8031
X2.5787Y-2.313
X2.5886Y-4.7835
X2.6378Y-2.8839
X2.6417Y-3.4606
X2.6772Y-4.872
X2.7087Y-3.252
X2.7756Y-4.6752
X2.7953Y-4.6555
X2.7953Y-4.6949
X2.815Y-4.6752
X2.8189Y-3.2205
X2.8652Y-1.3868
X2.8681Y-1.1575
X2.876Y-1.9163
X2.8839Y-2.3022
X2.9724Y-4.4882
X3.0906Y-4.065
X3.1Y-2.5425
X3.1102Y-4.4291
X3.126Y-3.6063
X3.1817Y-4.1344
X3.3228Y-3.5364
X3.3415Y-3.1939
X3.355Y-1.4579
X3.365Y-2.4475
X3.39Y-1.4579
X3.4075Y-1.0575
X3.5413Y-3.0699
X3.5591Y-4.1732
X3.5925Y-1.0579
X3.6083Y-1.5157
X3.6122Y-2.0472
X3.6275Y-1.7925
X3.6909Y-2.6083
X3.7303Y-1.998
X3.7646Y-2.126
X3.7795Y-2.372
X3.7992Y-2.126
X3.8213Y-3.5736
X3.8251Y-1.8602
X3.8329Y-4.077
X3.864Y-1.8602
X3.9025Y-2.0975
X3.945Y-1.645
X3.945Y-2.0975
X3.9665Y-2.7953
X3.9665Y-3.7726
X3.9961Y-2.4803
X4.0059Y-3.0807
X4.0431Y-3.6862
X4.0667Y-3.7099
X4.0825Y-1.955
X4.1362Y-3.9083
X4.1657Y-3.7606
X4.1831Y-4.0846
X4.189Y-3.2825
X4.252Y-2.4213
X4.252Y-2.7165
X4.2913Y-1.0236
X4.2913Y-4.7539
T2
X1.251Y-1.378
X1.251Y-4.5276
X1.2882Y-1.2882
X1.2882Y-1.4677
X1.2882Y-4.4378
X1.2882Y-4.6173
X1.378Y-1.251
X1.378Y-1.5049
X1.378Y-4.4006
X1.378Y-4.6545
X1.4677Y-1.2882
X1.4677Y-1.4677
X1.4677Y-4.4378
X1.4677Y-4.6173
X1.5049Y-1.378
X1.5049Y-4.5276
X3.81Y-1.378
X3.81Y-4.5276
X3.8472Y-1.2882
X3.8472Y-1.4677
X3.8472Y-4.4378
X3.8472Y-4.6173
X3.937Y-1.251
X3.937Y-1.5049
X3.937Y-4.4006
X3.937Y-4.6545
X4.0268Y-1.2882
X4.0268Y-1.4677
X4.0268Y-4.4378
X4.0268Y-4.6173
X4.064Y-1.378
X4.064Y-4.5276
T3
X3.9661Y-3.2327
X3.9661Y-3.3127
X3.9661Y-3.3927
X3.9661Y-3.4727
X3.9661Y-3.8527
X3.9661Y-3.9327
X3.9661Y-4.0127
X3.9661Y-4.0927
X4.0362Y-3.1927
X4.0362Y-3.2727
X4.0362Y-3.3527
X4.0362Y-3.4327
X4.0362Y-3.8127
X4.0362Y-3.8927
X4.0362Y-3.9727
X4.0362Y-4.0527
T4
X1.1341Y-1.8701
X1.1341Y-2.0669
X1.1341Y-2.2638
X1.1341Y-2.4606
X1.1341Y-2.6575
X1.1341Y-2.8543
X1.1341Y-3.0512
X1.1341Y-3.248
X1.1341Y-3.4449
X1.1341Y-3.6417
X1.1341Y-3.8386
X1.1341Y-4.0354
T5
X1.378Y-1.378
X1.378Y-4.5276
X3.937Y-1.378
X3.937Y-4.5276
M30
